<?xml version="1.0" encoding="utf-8"?>
<svg xmlns="http://www.w3.org/2000/svg" xmlns:xlink="http://www.w3.org/1999/xlink" width="600" height="400" viewBox="0 0 2400 1600">
<defs>
  <clipPath id="clip630">
    <rect x="0" y="0" width="2400" height="1600"/>
  </clipPath>
</defs>
<path clip-path="url(#clip630)" d="M0 1600 L2400 1600 L2400 0 L0 0  Z" fill="#ffffff" fill-rule="evenodd" fill-opacity="1"/>
<defs>
  <clipPath id="clip631">
    <rect x="480" y="0" width="1681" height="1600"/>
  </clipPath>
</defs>
<path clip-path="url(#clip630)" d="M263.916 649.011 L1177.91 649.011 L1177.91 47.2441 L263.916 47.2441  Z" fill="#ffffff" fill-rule="evenodd" fill-opacity="1"/>
<defs>
  <clipPath id="clip632">
    <rect x="263" y="47" width="915" height="603"/>
  </clipPath>
</defs>
<polyline clip-path="url(#clip632)" style="stroke:#000000; stroke-linecap:round; stroke-linejoin:round; stroke-width:2; stroke-opacity:0.1; fill:none" points="644.524,649.011 644.524,47.2441 "/>
<polyline clip-path="url(#clip632)" style="stroke:#000000; stroke-linecap:round; stroke-linejoin:round; stroke-width:2; stroke-opacity:0.1; fill:none" points="1152.04,649.011 1152.04,47.2441 "/>
<polyline clip-path="url(#clip632)" style="stroke:#000000; stroke-linecap:round; stroke-linejoin:round; stroke-width:2; stroke-opacity:0.1; fill:none" points="263.916,631.98 1177.91,631.98 "/>
<polyline clip-path="url(#clip632)" style="stroke:#000000; stroke-linecap:round; stroke-linejoin:round; stroke-width:2; stroke-opacity:0.1; fill:none" points="263.916,259.196 1177.91,259.196 "/>
<polyline clip-path="url(#clip630)" style="stroke:#000000; stroke-linecap:round; stroke-linejoin:round; stroke-width:4; stroke-opacity:1; fill:none" points="263.916,649.011 1177.91,649.011 "/>
<polyline clip-path="url(#clip630)" style="stroke:#000000; stroke-linecap:round; stroke-linejoin:round; stroke-width:4; stroke-opacity:1; fill:none" points="644.524,649.011 644.524,630.113 "/>
<polyline clip-path="url(#clip630)" style="stroke:#000000; stroke-linecap:round; stroke-linejoin:round; stroke-width:4; stroke-opacity:1; fill:none" points="1152.04,649.011 1152.04,630.113 "/>
<path clip-path="url(#clip630)" d="M610.851 723.135 L618.49 723.135 L618.49 696.77 L610.18 698.437 L610.18 694.177 L618.444 692.511 L623.12 692.511 L623.12 723.135 L630.758 723.135 L630.758 727.071 L610.851 727.071 L610.851 723.135 Z" fill="#000000" fill-rule="nonzero" fill-opacity="1" /><path clip-path="url(#clip630)" d="M650.203 695.589 Q646.592 695.589 644.763 699.154 Q642.957 702.696 642.957 709.825 Q642.957 716.932 644.763 720.497 Q646.592 724.038 650.203 724.038 Q653.837 724.038 655.643 720.497 Q657.471 716.932 657.471 709.825 Q657.471 702.696 655.643 699.154 Q653.837 695.589 650.203 695.589 M650.203 691.886 Q656.013 691.886 659.068 696.492 Q662.147 701.075 662.147 709.825 Q662.147 718.552 659.068 723.159 Q656.013 727.742 650.203 727.742 Q644.393 727.742 641.314 723.159 Q638.258 718.552 638.258 709.825 Q638.258 701.075 641.314 696.492 Q644.393 691.886 650.203 691.886 Z" fill="#000000" fill-rule="nonzero" fill-opacity="1" /><path clip-path="url(#clip630)" d="M662.693 696.463 L668.899 696.463 L668.899 675.041 L662.147 676.395 L662.147 672.934 L668.862 671.58 L672.661 671.58 L672.661 696.463 L678.867 696.463 L678.867 699.66 L662.693 699.66 L662.693 696.463 Z" fill="#000000" fill-rule="nonzero" fill-opacity="1" /><path clip-path="url(#clip630)" d="M1117.81 723.135 L1125.45 723.135 L1125.45 696.77 L1117.14 698.437 L1117.14 694.177 L1125.41 692.511 L1130.08 692.511 L1130.08 723.135 L1137.72 723.135 L1137.72 727.071 L1117.81 727.071 L1117.81 723.135 Z" fill="#000000" fill-rule="nonzero" fill-opacity="1" /><path clip-path="url(#clip630)" d="M1157.17 695.589 Q1153.56 695.589 1151.73 699.154 Q1149.92 702.696 1149.92 709.825 Q1149.92 716.932 1151.73 720.497 Q1153.56 724.038 1157.17 724.038 Q1160.8 724.038 1162.61 720.497 Q1164.44 716.932 1164.44 709.825 Q1164.44 702.696 1162.61 699.154 Q1160.8 695.589 1157.17 695.589 M1157.17 691.886 Q1162.98 691.886 1166.03 696.492 Q1169.11 701.075 1169.11 709.825 Q1169.11 718.552 1166.03 723.159 Q1162.98 727.742 1157.17 727.742 Q1151.36 727.742 1148.28 723.159 Q1145.22 718.552 1145.22 709.825 Q1145.22 701.075 1148.28 696.492 Q1151.36 691.886 1157.17 691.886 Z" fill="#000000" fill-rule="nonzero" fill-opacity="1" /><path clip-path="url(#clip630)" d="M1173.68 696.463 L1186.94 696.463 L1186.94 699.66 L1169.11 699.66 L1169.11 696.463 Q1171.27 694.225 1175 690.463 Q1178.74 686.683 1179.7 685.592 Q1181.52 683.542 1182.24 682.131 Q1182.97 680.702 1182.97 679.329 Q1182.97 677.091 1181.39 675.68 Q1179.83 674.27 1177.31 674.27 Q1175.52 674.27 1173.53 674.89 Q1171.56 675.511 1169.3 676.771 L1169.3 672.934 Q1171.59 672.013 1173.59 671.543 Q1175.58 671.072 1177.24 671.072 Q1181.6 671.072 1184.19 673.254 Q1186.79 675.436 1186.79 679.085 Q1186.79 680.815 1186.13 682.376 Q1185.49 683.918 1183.78 686.025 Q1183.31 686.57 1180.79 689.184 Q1178.27 691.78 1173.68 696.463 Z" fill="#000000" fill-rule="nonzero" fill-opacity="1" /><polyline clip-path="url(#clip630)" style="stroke:#000000; stroke-linecap:round; stroke-linejoin:round; stroke-width:4; stroke-opacity:1; fill:none" points="263.916,649.011 263.916,47.2441 "/>
<polyline clip-path="url(#clip630)" style="stroke:#000000; stroke-linecap:round; stroke-linejoin:round; stroke-width:4; stroke-opacity:1; fill:none" points="263.916,631.98 282.813,631.98 "/>
<polyline clip-path="url(#clip630)" style="stroke:#000000; stroke-linecap:round; stroke-linejoin:round; stroke-width:4; stroke-opacity:1; fill:none" points="263.916,259.196 282.813,259.196 "/>
<path clip-path="url(#clip630)" d="M127.776 651.772 L135.415 651.772 L135.415 625.407 L127.104 627.073 L127.104 622.814 L135.368 621.147 L140.044 621.147 L140.044 651.772 L147.683 651.772 L147.683 655.707 L127.776 655.707 L127.776 651.772 Z" fill="#000000" fill-rule="nonzero" fill-opacity="1" /><path clip-path="url(#clip630)" d="M167.127 624.226 Q163.516 624.226 161.688 627.791 Q159.882 631.332 159.882 638.462 Q159.882 645.568 161.688 649.133 Q163.516 652.675 167.127 652.675 Q170.762 652.675 172.567 649.133 Q174.396 645.568 174.396 638.462 Q174.396 631.332 172.567 627.791 Q170.762 624.226 167.127 624.226 M167.127 620.522 Q172.938 620.522 175.993 625.129 Q179.072 629.712 179.072 638.462 Q179.072 647.189 175.993 651.795 Q172.938 656.379 167.127 656.379 Q161.317 656.379 158.239 651.795 Q155.183 647.189 155.183 638.462 Q155.183 629.712 158.239 625.129 Q161.317 620.522 167.127 620.522 Z" fill="#000000" fill-rule="nonzero" fill-opacity="1" /><path clip-path="url(#clip630)" d="M179.072 614.624 L203.183 614.624 L203.183 617.821 L179.072 617.821 L179.072 614.624 Z" fill="#000000" fill-rule="nonzero" fill-opacity="1" /><path clip-path="url(#clip630)" d="M214.656 625.1 L227.916 625.1 L227.916 628.297 L210.086 628.297 L210.086 625.1 Q212.249 622.861 215.973 619.1 Q219.715 615.32 220.675 614.229 Q222.499 612.179 223.214 610.768 Q223.947 609.339 223.947 607.966 Q223.947 605.728 222.367 604.317 Q220.806 602.906 218.286 602.906 Q216.499 602.906 214.506 603.527 Q212.531 604.148 210.274 605.408 L210.274 601.571 Q212.568 600.649 214.562 600.179 Q216.556 599.709 218.211 599.709 Q222.574 599.709 225.17 601.891 Q227.765 604.072 227.765 607.721 Q227.765 609.452 227.107 611.013 Q226.467 612.555 224.756 614.661 Q224.286 615.207 221.765 617.821 Q219.245 620.416 214.656 625.1 Z" fill="#000000" fill-rule="nonzero" fill-opacity="1" /><path clip-path="url(#clip630)" d="M127.475 278.988 L135.114 278.988 L135.114 252.623 L126.803 254.289 L126.803 250.03 L135.067 248.364 L139.743 248.364 L139.743 278.988 L147.382 278.988 L147.382 282.924 L127.475 282.924 L127.475 278.988 Z" fill="#000000" fill-rule="nonzero" fill-opacity="1" /><path clip-path="url(#clip630)" d="M166.826 251.442 Q163.215 251.442 161.387 255.007 Q159.581 258.549 159.581 265.678 Q159.581 272.785 161.387 276.349 Q163.215 279.891 166.826 279.891 Q170.461 279.891 172.266 276.349 Q174.095 272.785 174.095 265.678 Q174.095 258.549 172.266 255.007 Q170.461 251.442 166.826 251.442 M166.826 247.739 Q172.637 247.739 175.692 252.345 Q178.771 256.928 178.771 265.678 Q178.771 274.405 175.692 279.012 Q172.637 283.595 166.826 283.595 Q161.016 283.595 157.938 279.012 Q154.882 274.405 154.882 265.678 Q154.882 256.928 157.938 252.345 Q161.016 247.739 166.826 247.739 Z" fill="#000000" fill-rule="nonzero" fill-opacity="1" /><path clip-path="url(#clip630)" d="M178.771 241.84 L202.882 241.84 L202.882 245.037 L178.771 245.037 L178.771 241.84 Z" fill="#000000" fill-rule="nonzero" fill-opacity="1" /><path clip-path="url(#clip630)" d="M211.741 252.316 L217.947 252.316 L217.947 230.894 L211.195 232.248 L211.195 228.787 L217.91 227.433 L221.709 227.433 L221.709 252.316 L227.916 252.316 L227.916 255.513 L211.741 255.513 L211.741 252.316 Z" fill="#000000" fill-rule="nonzero" fill-opacity="1" /><path clip-path="url(#clip630)" d="M49.7181 413.312 L62.7041 413.312 L62.7041 407.433 Q62.7041 404.169 61.0143 402.386 Q59.3245 400.604 56.1995 400.604 Q53.0977 400.604 51.4079 402.386 Q49.7181 404.169 49.7181 407.433 L49.7181 413.312 M45.8755 417.988 L45.8755 407.433 Q45.8755 401.622 48.5144 398.66 Q51.1301 395.673 56.1995 395.673 Q61.3152 395.673 63.931 398.66 Q66.5467 401.622 66.5467 407.433 L66.5467 413.312 L80.4355 413.312 L80.4355 417.988 L45.8755 417.988 Z" fill="#000000" fill-rule="nonzero" fill-opacity="1" /><path clip-path="url(#clip630)" d="M58.4912 375.396 Q58.0745 376.113 57.8893 376.97 Q57.681 377.803 57.681 378.822 Q57.681 382.433 60.0421 384.377 Q62.38 386.298 66.7782 386.298 L80.4355 386.298 L80.4355 390.581 L54.5097 390.581 L54.5097 386.298 L58.5375 386.298 Q56.1764 384.956 55.0421 382.803 Q53.8847 380.65 53.8847 377.572 Q53.8847 377.132 53.9542 376.599 Q54.0004 376.067 54.1162 375.419 L58.4912 375.396 Z" fill="#000000" fill-rule="nonzero" fill-opacity="1" /><path clip-path="url(#clip630)" d="M54.5097 370.928 L54.5097 366.669 L80.4355 366.669 L80.4355 370.928 L54.5097 370.928 M44.4172 370.928 L44.4172 366.669 L49.8107 366.669 L49.8107 370.928 L44.4172 370.928 Z" fill="#000000" fill-rule="nonzero" fill-opacity="1" /><path clip-path="url(#clip630)" d="M59.4865 337.572 Q56.6162 335.975 55.2504 333.752 Q53.8847 331.53 53.8847 328.521 Q53.8847 324.47 56.7319 322.271 Q59.556 320.072 64.7874 320.072 L80.4355 320.072 L80.4355 324.354 L64.9263 324.354 Q61.1995 324.354 59.3939 325.674 Q57.5884 326.993 57.5884 329.702 Q57.5884 333.012 59.7875 334.933 Q61.9865 336.854 65.7828 336.854 L80.4355 336.854 L80.4355 341.137 L64.9263 341.137 Q61.1763 341.137 59.3939 342.456 Q57.5884 343.776 57.5884 346.53 Q57.5884 349.794 59.8106 351.715 Q62.0097 353.637 65.7828 353.637 L80.4355 353.637 L80.4355 357.919 L54.5097 357.919 L54.5097 353.637 L58.5375 353.637 Q56.1532 352.178 55.019 350.141 Q53.8847 348.104 53.8847 345.303 Q53.8847 342.479 55.3199 340.512 Q56.7551 338.521 59.4865 337.572 Z" fill="#000000" fill-rule="nonzero" fill-opacity="1" /><path clip-path="url(#clip630)" d="M67.4032 299.794 Q67.4032 304.956 68.5837 306.947 Q69.7643 308.938 72.6115 308.938 Q74.88 308.938 76.2226 307.456 Q77.542 305.952 77.542 303.382 Q77.542 299.841 75.042 297.711 Q72.5189 295.558 68.3522 295.558 L67.4032 295.558 L67.4032 299.794 M65.6439 291.299 L80.4355 291.299 L80.4355 295.558 L76.5003 295.558 Q78.8614 297.017 79.9957 299.192 Q81.1068 301.368 81.1068 304.516 Q81.1068 308.498 78.8846 310.859 Q76.6392 313.197 72.8892 313.197 Q68.5143 313.197 66.2921 310.28 Q64.0698 307.341 64.0698 301.53 L64.0698 295.558 L63.6532 295.558 Q60.7134 295.558 59.1162 297.503 Q57.4958 299.424 57.4958 302.919 Q57.4958 305.141 58.0282 307.248 Q58.5606 309.354 59.6254 311.299 L55.6903 311.299 Q54.7875 308.961 54.3477 306.762 Q53.8847 304.563 53.8847 302.479 Q53.8847 296.855 56.8014 294.077 Q59.718 291.299 65.6439 291.299 Z" fill="#000000" fill-rule="nonzero" fill-opacity="1" /><path clip-path="url(#clip630)" d="M44.4172 282.526 L44.4172 278.267 L80.4355 278.267 L80.4355 282.526 L44.4172 282.526 Z" fill="#000000" fill-rule="nonzero" fill-opacity="1" /><polyline clip-path="url(#clip632)" style="stroke:#009af9; stroke-linecap:round; stroke-linejoin:round; stroke-width:5.2; stroke-opacity:1; fill:none" points="289.783,64.2752 379.153,110.85 442.562,146.977 491.745,176.494 531.931,201.451 565.908,223.069 595.34,242.138 621.301,259.196 644.524,274.626 665.531,288.713 684.71,301.672 702.352,313.67 718.686,324.84 733.893,335.289 748.118,345.104 761.481,354.357 774.079,363.111 785.996,371.415 797.302,379.314 808.056,386.846 818.309,394.042 828.107,400.932 837.488,407.541 846.486,413.891 855.13,420.001 863.449,425.889 871.465,431.57 879.199,437.059 886.671,442.368 893.899,447.508 900.897,452.489 907.679,457.323 914.259,462.016 920.648,466.576 926.857,471.012 932.896,475.33 938.775,479.535 944.5,483.634 950.08,487.632 955.523,491.533 960.834,495.343 966.021,499.065 971.088,502.703 976.041,506.261 980.885,509.743 985.626,513.152 990.266,516.49 994.811,519.761 999.264,522.967 1003.63,526.11 1007.91,529.194 1012.11,532.22 1016.23,535.191 1020.27,538.108 1024.24,540.974 1028.14,543.789 1031.98,546.557 1035.75,549.278 1039.45,551.954 1043.09,554.587 1046.68,557.177 1050.2,559.727 1053.67,562.237 1057.09,564.708 1060.46,567.143 1063.77,569.542 1067.04,571.905 1070.26,574.235 1073.43,576.531 1076.55,578.795 1079.64,581.029 1082.68,583.231 1085.67,585.404 1088.63,587.549 1091.55,589.665 1094.43,591.754 1097.28,593.817 1100.09,595.853 1102.86,597.864 1105.6,599.851 1108.3,601.813 1110.97,603.752 1113.61,605.668 1116.22,607.562 1118.8,609.433 1121.35,611.284 1123.87,613.113 1126.36,614.922 1128.82,616.711 1131.25,618.48 1133.66,620.23 1136.05,621.962 1138.4,623.675 1140.74,625.371 1143.04,627.048 1145.33,628.709 1147.59,630.352 1149.83,631.98 1152.04,631.98 "/>
<polyline clip-path="url(#clip632)" style="stroke:#e26f46; stroke-linecap:round; stroke-linejoin:round; stroke-width:5.2; stroke-opacity:1; fill:none" points="289.783,64.2752 379.153,110.85 442.562,146.977 491.745,176.494 531.931,201.451 565.908,223.069 595.34,242.138 621.301,259.196 644.524,274.626 665.531,288.713 684.71,301.672 702.352,313.67 718.686,324.84 733.893,335.289 748.118,345.104 761.481,354.357 774.079,363.111 785.996,371.415 797.302,379.314 808.056,386.846 818.309,394.042 828.107,400.932 837.488,407.541 846.486,413.891 855.13,420.001 863.449,425.889 871.465,431.57 879.199,437.059 886.671,442.368 893.899,447.508 900.897,452.489 907.679,457.323 914.259,462.016 920.648,466.576 926.857,471.012 932.896,475.33 938.775,479.535 944.5,483.634 950.08,487.632 955.523,491.533 960.834,495.343 966.021,499.065 971.088,502.703 976.041,506.261 980.885,509.743 985.626,513.152 990.266,516.49 994.811,519.761 999.264,522.967 1003.63,526.11 1007.91,529.194 1012.11,532.22 1016.23,535.191 1020.27,538.108 1024.24,540.974 1028.14,543.789 1031.98,546.557 1035.75,549.278 1039.45,551.954 1043.09,554.587 1046.68,557.177 1050.2,559.727 1053.67,562.237 1057.09,564.708 1060.46,567.143 1063.77,569.542 1067.04,571.905 1070.26,574.235 1073.43,576.531 1076.55,578.795 1079.64,581.029 1082.68,583.231 1085.67,585.404 1088.63,587.549 1091.55,589.665 1094.43,591.754 1097.28,593.817 1100.09,595.853 1102.86,597.864 1105.6,599.851 1108.3,601.813 1110.97,603.752 1113.61,605.668 1116.22,607.562 1118.8,609.433 1121.35,611.284 1123.87,613.113 1126.36,614.922 1128.82,616.711 1131.25,618.48 1133.66,620.23 1136.05,621.962 1138.4,623.675 1140.74,625.371 1143.04,627.048 1145.33,628.709 1147.59,630.352 1149.83,631.98 1152.04,631.98 "/>
<polyline clip-path="url(#clip632)" style="stroke:#3da44d; stroke-linecap:round; stroke-linejoin:round; stroke-width:5.2; stroke-opacity:1; fill:none" points="289.783,64.2752 379.153,110.85 442.562,146.977 491.745,176.494 531.931,201.451 565.908,223.069 595.34,242.138 621.301,259.196 644.524,274.626 665.531,288.713 684.71,301.672 702.352,313.67 718.686,324.84 733.893,335.289 748.118,345.104 761.481,354.357 774.079,363.111 785.996,371.415 797.302,379.314 808.056,386.846 818.309,394.042 828.107,400.932 837.488,407.541 846.486,413.891 855.13,420.001 863.449,425.889 871.465,431.57 879.199,437.059 886.671,442.368 893.899,447.508 900.897,452.489 907.679,457.323 914.259,462.016 920.648,466.576 926.857,471.012 932.896,475.33 938.775,479.535 944.5,483.634 950.08,487.632 955.523,491.533 960.834,495.343 966.021,499.065 971.088,502.703 976.041,506.261 980.885,509.743 985.626,513.152 990.266,516.49 994.811,519.761 999.264,522.967 1003.63,526.11 1007.91,529.194 1012.11,532.22 1016.23,535.191 1020.27,538.108 1024.24,540.974 1028.14,543.789 1031.98,546.557 1035.75,549.278 1039.45,551.954 1043.09,554.587 1046.68,557.177 1050.2,559.727 1053.67,562.237 1057.09,564.708 1060.46,567.143 1063.77,569.542 1067.04,571.905 1070.26,574.235 1073.43,576.531 1076.55,578.795 1079.64,581.029 1082.68,583.231 1085.67,585.404 1088.63,587.549 1091.55,589.665 1094.43,591.754 1097.28,593.817 1100.09,595.853 1102.86,597.864 1105.6,599.851 1108.3,601.813 1110.97,603.752 1113.61,605.668 1116.22,607.562 1118.8,609.433 1121.35,611.284 1123.87,613.113 1126.36,614.922 1128.82,616.711 1131.25,618.48 1133.66,620.23 1136.05,621.962 1138.4,623.675 1140.74,625.371 1143.04,627.048 1145.33,628.709 1147.59,630.352 1149.83,631.98 1152.04,631.98 "/>
<polyline clip-path="url(#clip632)" style="stroke:#c271d2; stroke-linecap:round; stroke-linejoin:round; stroke-width:5.2; stroke-opacity:1; fill:none" points="289.783,64.2752 379.153,110.85 442.562,146.977 491.745,176.494 531.931,201.451 565.908,223.069 595.34,242.138 621.301,259.196 644.524,274.626 665.531,288.713 684.71,301.672 702.352,313.67 718.686,324.84 733.893,335.289 748.118,345.104 761.481,354.357 774.079,363.111 785.996,371.415 797.302,379.314 808.056,386.846 818.309,394.042 828.107,400.932 837.488,407.541 846.486,413.891 855.13,420.001 863.449,425.889 871.465,431.57 879.199,437.059 886.671,442.368 893.899,447.508 900.897,452.489 907.679,457.323 914.259,462.016 920.648,466.576 926.857,471.012 932.896,475.33 938.775,479.535 944.5,483.634 950.08,487.632 955.523,491.533 960.834,495.343 966.021,499.065 971.088,502.703 976.041,506.261 980.885,509.743 985.626,513.152 990.266,516.49 994.811,519.761 999.264,522.967 1003.63,526.11 1007.91,529.194 1012.11,532.22 1016.23,535.191 1020.27,538.108 1024.24,540.974 1028.14,543.789 1031.98,546.557 1035.75,549.278 1039.45,551.954 1043.09,554.587 1046.68,557.177 1050.2,559.727 1053.67,562.237 1057.09,564.708 1060.46,567.143 1063.77,569.542 1067.04,571.905 1070.26,574.235 1073.43,576.531 1076.55,578.795 1079.64,581.029 1082.68,583.231 1085.67,585.404 1088.63,587.549 1091.55,589.665 1094.43,591.754 1097.28,593.817 1100.09,595.853 1102.86,597.864 1105.6,599.851 1108.3,601.813 1110.97,603.752 1113.61,605.668 1116.22,607.562 1118.8,609.433 1121.35,611.284 1123.87,613.113 1126.36,614.922 1128.82,616.711 1131.25,618.48 1133.66,620.23 1136.05,621.962 1138.4,623.675 1140.74,625.371 1143.04,627.048 1145.33,628.709 1147.59,630.352 1149.83,631.98 1152.04,631.98 "/>
<path clip-path="url(#clip630)" d="M842.087 326.503 L1147.44 326.503 L1147.44 67.303 L842.087 67.303  Z" fill="#ffffff" fill-rule="evenodd" fill-opacity="1"/>
<polyline clip-path="url(#clip630)" style="stroke:#000000; stroke-linecap:round; stroke-linejoin:round; stroke-width:4; stroke-opacity:1; fill:none" points="842.087,326.503 1147.44,326.503 1147.44,67.303 842.087,67.303 842.087,326.503 "/>
<polyline clip-path="url(#clip630)" style="stroke:#009af9; stroke-linecap:round; stroke-linejoin:round; stroke-width:5.2; stroke-opacity:1; fill:none" points="852.242,119.143 913.175,119.143 "/>
<path clip-path="url(#clip630)" d="M928.007 119.918 L928.007 132.58 L935.507 132.58 Q939.28 132.58 941.085 131.029 Q942.914 129.455 942.914 126.238 Q942.914 122.997 941.085 121.469 Q939.28 119.918 935.507 119.918 L928.007 119.918 M928.007 105.706 L928.007 116.122 L934.928 116.122 Q938.354 116.122 940.02 114.849 Q941.71 113.553 941.71 110.914 Q941.71 108.298 940.02 107.002 Q938.354 105.706 934.928 105.706 L928.007 105.706 M923.331 101.863 L935.275 101.863 Q940.622 101.863 943.516 104.085 Q946.409 106.307 946.409 110.405 Q946.409 113.576 944.928 115.451 Q943.446 117.326 940.576 117.789 Q944.025 118.53 945.923 120.891 Q947.845 123.229 947.845 126.747 Q947.845 131.377 944.696 133.9 Q941.548 136.423 935.738 136.423 L923.331 136.423 L923.331 101.863 Z" fill="#000000" fill-rule="nonzero" fill-opacity="1" /><path clip-path="url(#clip630)" d="M960.53 105.706 L960.53 118.692 L966.409 118.692 Q969.673 118.692 971.456 117.002 Q973.238 115.312 973.238 112.187 Q973.238 109.085 971.456 107.395 Q969.673 105.706 966.409 105.706 L960.53 105.706 M955.854 101.863 L966.409 101.863 Q972.219 101.863 975.182 104.502 Q978.168 107.118 978.168 112.187 Q978.168 117.303 975.182 119.918 Q972.219 122.534 966.409 122.534 L960.53 122.534 L960.53 136.423 L955.854 136.423 L955.854 101.863 Z" fill="#000000" fill-rule="nonzero" fill-opacity="1" /><path clip-path="url(#clip630)" d="M1010.32 104.525 L1010.32 109.456 Q1007.96 107.256 1005.27 106.169 Q1002.61 105.081 999.603 105.081 Q993.678 105.081 990.529 108.715 Q987.381 112.326 987.381 119.178 Q987.381 126.006 990.529 129.641 Q993.678 133.252 999.603 133.252 Q1002.61 133.252 1005.27 132.164 Q1007.96 131.076 1010.32 128.877 L1010.32 133.761 Q1007.87 135.428 1005.11 136.261 Q1002.38 137.094 999.326 137.094 Q991.479 137.094 986.965 132.303 Q982.451 127.488 982.451 119.178 Q982.451 110.844 986.965 106.053 Q991.479 101.238 999.326 101.238 Q1002.43 101.238 1005.16 102.071 Q1007.91 102.881 1010.32 104.525 Z" fill="#000000" fill-rule="nonzero" fill-opacity="1" /><path clip-path="url(#clip630)" d="M1041.11 131.492 L1041.11 122.21 L1033.47 122.21 L1033.47 118.368 L1045.74 118.368 L1045.74 133.205 Q1043.03 135.127 1039.77 136.122 Q1036.5 137.094 1032.8 137.094 Q1024.7 137.094 1020.11 132.372 Q1015.55 127.627 1015.55 119.178 Q1015.55 110.706 1020.11 105.983 Q1024.7 101.238 1032.8 101.238 Q1036.18 101.238 1039.21 102.071 Q1042.27 102.905 1044.83 104.525 L1044.83 109.502 Q1042.24 107.303 1039.33 106.192 Q1036.41 105.081 1033.19 105.081 Q1026.85 105.081 1023.65 108.622 Q1020.48 112.164 1020.48 119.178 Q1020.48 126.168 1023.65 129.71 Q1026.85 133.252 1033.19 133.252 Q1035.67 133.252 1037.61 132.835 Q1039.56 132.395 1041.11 131.492 Z" fill="#000000" fill-rule="nonzero" fill-opacity="1" /><path clip-path="url(#clip630)" d="M1069.35 101.863 L1089.21 101.863 L1089.21 105.798 L1074.02 105.798 L1074.02 115.983 L1087.73 115.983 L1087.73 119.918 L1074.02 119.918 L1074.02 136.423 L1069.35 136.423 L1069.35 101.863 Z" fill="#000000" fill-rule="nonzero" fill-opacity="1" /><path clip-path="url(#clip630)" d="M1093.54 101.863 L1098.26 101.863 L1105.53 131.076 L1112.77 101.863 L1118.03 101.863 L1125.3 131.076 L1132.54 101.863 L1137.29 101.863 L1128.61 136.423 L1122.73 136.423 L1115.44 106.423 L1108.08 136.423 L1102.2 136.423 L1093.54 101.863 Z" fill="#000000" fill-rule="nonzero" fill-opacity="1" /><polyline clip-path="url(#clip630)" style="stroke:#e26f46; stroke-linecap:round; stroke-linejoin:round; stroke-width:5.2; stroke-opacity:1; fill:none" points="852.242,170.983 913.175,170.983 "/>
<path clip-path="url(#clip630)" d="M923.331 153.703 L943.192 153.703 L943.192 157.638 L928.007 157.638 L928.007 167.823 L941.71 167.823 L941.71 171.758 L928.007 171.758 L928.007 188.263 L923.331 188.263 L923.331 153.703 Z" fill="#000000" fill-rule="nonzero" fill-opacity="1" /><path clip-path="url(#clip630)" d="M947.52 153.703 L952.243 153.703 L959.511 182.916 L966.756 153.703 L972.011 153.703 L979.28 182.916 L986.525 153.703 L991.27 153.703 L982.59 188.263 L976.71 188.263 L969.418 158.263 L962.057 188.263 L956.178 188.263 L947.52 153.703 Z" fill="#000000" fill-rule="nonzero" fill-opacity="1" /><path clip-path="url(#clip630)" d="M1017.22 171.758 L1017.22 184.42 L1024.72 184.42 Q1028.49 184.42 1030.3 182.869 Q1032.13 181.295 1032.13 178.078 Q1032.13 174.837 1030.3 173.309 Q1028.49 171.758 1024.72 171.758 L1017.22 171.758 M1017.22 157.546 L1017.22 167.962 L1024.14 167.962 Q1027.57 167.962 1029.23 166.689 Q1030.92 165.393 1030.92 162.754 Q1030.92 160.138 1029.23 158.842 Q1027.57 157.546 1024.14 157.546 L1017.22 157.546 M1012.54 153.703 L1024.49 153.703 Q1029.83 153.703 1032.73 155.925 Q1035.62 158.147 1035.62 162.245 Q1035.62 165.416 1034.14 167.291 Q1032.66 169.166 1029.79 169.629 Q1033.24 170.37 1035.14 172.731 Q1037.06 175.069 1037.06 178.587 Q1037.06 183.217 1033.91 185.74 Q1030.76 188.263 1024.95 188.263 L1012.54 188.263 L1012.54 153.703 Z" fill="#000000" fill-rule="nonzero" fill-opacity="1" /><path clip-path="url(#clip630)" d="M1049.74 157.546 L1049.74 170.532 L1055.62 170.532 Q1058.89 170.532 1060.67 168.842 Q1062.45 167.152 1062.45 164.027 Q1062.45 160.925 1060.67 159.235 Q1058.89 157.546 1055.62 157.546 L1049.74 157.546 M1045.07 153.703 L1055.62 153.703 Q1061.43 153.703 1064.39 156.342 Q1067.38 158.958 1067.38 164.027 Q1067.38 169.143 1064.39 171.758 Q1061.43 174.374 1055.62 174.374 L1049.74 174.374 L1049.74 188.263 L1045.07 188.263 L1045.07 153.703 Z" fill="#000000" fill-rule="nonzero" fill-opacity="1" /><path clip-path="url(#clip630)" d="M1099.53 156.365 L1099.53 161.296 Q1097.17 159.096 1094.49 158.009 Q1091.83 156.921 1088.82 156.921 Q1082.89 156.921 1079.74 160.555 Q1076.59 164.166 1076.59 171.018 Q1076.59 177.846 1079.74 181.481 Q1082.89 185.092 1088.82 185.092 Q1091.83 185.092 1094.49 184.004 Q1097.17 182.916 1099.53 180.717 L1099.53 185.601 Q1097.08 187.268 1094.33 188.101 Q1091.59 188.934 1088.54 188.934 Q1080.69 188.934 1076.18 184.143 Q1071.66 179.328 1071.66 171.018 Q1071.66 162.684 1076.18 157.893 Q1080.69 153.078 1088.54 153.078 Q1091.64 153.078 1094.37 153.911 Q1097.13 154.721 1099.53 156.365 Z" fill="#000000" fill-rule="nonzero" fill-opacity="1" /><path clip-path="url(#clip630)" d="M1130.32 183.332 L1130.32 174.05 L1122.68 174.05 L1122.68 170.208 L1134.95 170.208 L1134.95 185.045 Q1132.24 186.967 1128.98 187.962 Q1125.71 188.934 1122.01 188.934 Q1113.91 188.934 1109.33 184.212 Q1104.76 179.467 1104.76 171.018 Q1104.76 162.546 1109.33 157.823 Q1113.91 153.078 1122.01 153.078 Q1125.39 153.078 1128.42 153.911 Q1131.48 154.745 1134.05 156.365 L1134.05 161.342 Q1131.45 159.143 1128.54 158.032 Q1125.62 156.921 1122.4 156.921 Q1116.06 156.921 1112.87 160.462 Q1109.7 164.004 1109.7 171.018 Q1109.7 178.008 1112.87 181.55 Q1116.06 185.092 1122.4 185.092 Q1124.88 185.092 1126.83 184.675 Q1128.77 184.235 1130.32 183.332 Z" fill="#000000" fill-rule="nonzero" fill-opacity="1" /><polyline clip-path="url(#clip630)" style="stroke:#3da44d; stroke-linecap:round; stroke-linejoin:round; stroke-width:5.2; stroke-opacity:1; fill:none" points="852.242,222.823 913.175,222.823 "/>
<path clip-path="url(#clip630)" d="M928.007 223.598 L928.007 236.26 L935.507 236.26 Q939.28 236.26 941.085 234.709 Q942.914 233.135 942.914 229.918 Q942.914 226.677 941.085 225.149 Q939.28 223.598 935.507 223.598 L928.007 223.598 M928.007 209.386 L928.007 219.802 L934.928 219.802 Q938.354 219.802 940.02 218.529 Q941.71 217.233 941.71 214.594 Q941.71 211.978 940.02 210.682 Q938.354 209.386 934.928 209.386 L928.007 209.386 M923.331 205.543 L935.275 205.543 Q940.622 205.543 943.516 207.765 Q946.409 209.987 946.409 214.085 Q946.409 217.256 944.928 219.131 Q943.446 221.006 940.576 221.469 Q944.025 222.21 945.923 224.571 Q947.845 226.909 947.845 230.427 Q947.845 235.057 944.696 237.58 Q941.548 240.103 935.738 240.103 L923.331 240.103 L923.331 205.543 Z" fill="#000000" fill-rule="nonzero" fill-opacity="1" /><path clip-path="url(#clip630)" d="M960.53 209.386 L960.53 222.372 L966.409 222.372 Q969.673 222.372 971.456 220.682 Q973.238 218.992 973.238 215.867 Q973.238 212.765 971.456 211.075 Q969.673 209.386 966.409 209.386 L960.53 209.386 M955.854 205.543 L966.409 205.543 Q972.219 205.543 975.182 208.182 Q978.168 210.798 978.168 215.867 Q978.168 220.983 975.182 223.598 Q972.219 226.214 966.409 226.214 L960.53 226.214 L960.53 240.103 L955.854 240.103 L955.854 205.543 Z" fill="#000000" fill-rule="nonzero" fill-opacity="1" /><path clip-path="url(#clip630)" d="M1010.32 208.205 L1010.32 213.136 Q1007.96 210.936 1005.27 209.849 Q1002.61 208.761 999.603 208.761 Q993.678 208.761 990.529 212.395 Q987.381 216.006 987.381 222.858 Q987.381 229.686 990.529 233.321 Q993.678 236.932 999.603 236.932 Q1002.61 236.932 1005.27 235.844 Q1007.96 234.756 1010.32 232.557 L1010.32 237.441 Q1007.87 239.108 1005.11 239.941 Q1002.38 240.774 999.326 240.774 Q991.479 240.774 986.965 235.983 Q982.451 231.168 982.451 222.858 Q982.451 214.524 986.965 209.733 Q991.479 204.918 999.326 204.918 Q1002.43 204.918 1005.16 205.751 Q1007.91 206.561 1010.32 208.205 Z" fill="#000000" fill-rule="nonzero" fill-opacity="1" /><path clip-path="url(#clip630)" d="M1041.11 235.172 L1041.11 225.89 L1033.47 225.89 L1033.47 222.048 L1045.74 222.048 L1045.74 236.885 Q1043.03 238.807 1039.77 239.802 Q1036.5 240.774 1032.8 240.774 Q1024.7 240.774 1020.11 236.052 Q1015.55 231.307 1015.55 222.858 Q1015.55 214.386 1020.11 209.663 Q1024.7 204.918 1032.8 204.918 Q1036.18 204.918 1039.21 205.751 Q1042.27 206.585 1044.83 208.205 L1044.83 213.182 Q1042.24 210.983 1039.33 209.872 Q1036.41 208.761 1033.19 208.761 Q1026.85 208.761 1023.65 212.302 Q1020.48 215.844 1020.48 222.858 Q1020.48 229.848 1023.65 233.39 Q1026.85 236.932 1033.19 236.932 Q1035.67 236.932 1037.61 236.515 Q1039.56 236.075 1041.11 235.172 Z" fill="#000000" fill-rule="nonzero" fill-opacity="1" /><polyline clip-path="url(#clip630)" style="stroke:#c271d2; stroke-linecap:round; stroke-linejoin:round; stroke-width:5.2; stroke-opacity:1; fill:none" points="852.242,274.663 913.175,274.663 "/>
<path clip-path="url(#clip630)" d="M923.331 257.383 L943.192 257.383 L943.192 261.318 L928.007 261.318 L928.007 271.503 L941.71 271.503 L941.71 275.438 L928.007 275.438 L928.007 291.943 L923.331 291.943 L923.331 257.383 Z" fill="#000000" fill-rule="nonzero" fill-opacity="1" /><path clip-path="url(#clip630)" d="M947.52 257.383 L952.243 257.383 L959.511 286.596 L966.756 257.383 L972.011 257.383 L979.28 286.596 L986.525 257.383 L991.27 257.383 L982.59 291.943 L976.71 291.943 L969.418 261.943 L962.057 291.943 L956.178 291.943 L947.52 257.383 Z" fill="#000000" fill-rule="nonzero" fill-opacity="1" /><path clip-path="url(#clip630)" d="M1438.76 649.011 L2352.76 649.011 L2352.76 47.2441 L1438.76 47.2441  Z" fill="#ffffff" fill-rule="evenodd" fill-opacity="1"/>
<defs>
  <clipPath id="clip633">
    <rect x="1438" y="47" width="915" height="603"/>
  </clipPath>
</defs>
<polyline clip-path="url(#clip633)" style="stroke:#000000; stroke-linecap:round; stroke-linejoin:round; stroke-width:2; stroke-opacity:0.1; fill:none" points="1585.4,649.011 1585.4,47.2441 "/>
<polyline clip-path="url(#clip633)" style="stroke:#000000; stroke-linecap:round; stroke-linejoin:round; stroke-width:2; stroke-opacity:0.1; fill:none" points="1858.94,649.011 1858.94,47.2441 "/>
<polyline clip-path="url(#clip633)" style="stroke:#000000; stroke-linecap:round; stroke-linejoin:round; stroke-width:2; stroke-opacity:0.1; fill:none" points="2132.47,649.011 2132.47,47.2441 "/>
<polyline clip-path="url(#clip633)" style="stroke:#000000; stroke-linecap:round; stroke-linejoin:round; stroke-width:2; stroke-opacity:0.1; fill:none" points="1438.76,631.98 2352.76,631.98 "/>
<polyline clip-path="url(#clip633)" style="stroke:#000000; stroke-linecap:round; stroke-linejoin:round; stroke-width:2; stroke-opacity:0.1; fill:none" points="1438.76,259.196 2352.76,259.196 "/>
<polyline clip-path="url(#clip630)" style="stroke:#000000; stroke-linecap:round; stroke-linejoin:round; stroke-width:4; stroke-opacity:1; fill:none" points="1438.76,649.011 2352.76,649.011 "/>
<polyline clip-path="url(#clip630)" style="stroke:#000000; stroke-linecap:round; stroke-linejoin:round; stroke-width:4; stroke-opacity:1; fill:none" points="1585.4,649.011 1585.4,630.113 "/>
<polyline clip-path="url(#clip630)" style="stroke:#000000; stroke-linecap:round; stroke-linejoin:round; stroke-width:4; stroke-opacity:1; fill:none" points="1858.94,649.011 1858.94,630.113 "/>
<polyline clip-path="url(#clip630)" style="stroke:#000000; stroke-linecap:round; stroke-linejoin:round; stroke-width:4; stroke-opacity:1; fill:none" points="2132.47,649.011 2132.47,630.113 "/>
<path clip-path="url(#clip630)" d="M1535.28 723.135 L1542.92 723.135 L1542.92 696.77 L1534.61 698.437 L1534.61 694.177 L1542.88 692.511 L1547.55 692.511 L1547.55 723.135 L1555.19 723.135 L1555.19 727.071 L1535.28 727.071 L1535.28 723.135 Z" fill="#000000" fill-rule="nonzero" fill-opacity="1" /><path clip-path="url(#clip630)" d="M1574.63 695.589 Q1571.02 695.589 1569.19 699.154 Q1567.39 702.696 1567.39 709.825 Q1567.39 716.932 1569.19 720.497 Q1571.02 724.038 1574.63 724.038 Q1578.27 724.038 1580.07 720.497 Q1581.9 716.932 1581.9 709.825 Q1581.9 702.696 1580.07 699.154 Q1578.27 695.589 1574.63 695.589 M1574.63 691.886 Q1580.44 691.886 1583.5 696.492 Q1586.58 701.075 1586.58 709.825 Q1586.58 718.552 1583.5 723.159 Q1580.44 727.742 1574.63 727.742 Q1568.82 727.742 1565.75 723.159 Q1562.69 718.552 1562.69 709.825 Q1562.69 701.075 1565.75 696.492 Q1568.82 691.886 1574.63 691.886 Z" fill="#000000" fill-rule="nonzero" fill-opacity="1" /><path clip-path="url(#clip630)" d="M1586.58 685.987 L1610.69 685.987 L1610.69 689.184 L1586.58 689.184 L1586.58 685.987 Z" fill="#000000" fill-rule="nonzero" fill-opacity="1" /><path clip-path="url(#clip630)" d="M1630.4 684.52 Q1633.13 685.103 1634.65 686.946 Q1636.19 688.789 1636.19 691.498 Q1636.19 695.654 1633.34 697.93 Q1630.48 700.206 1625.21 700.206 Q1623.44 700.206 1621.56 699.848 Q1619.7 699.51 1617.71 698.814 L1617.71 695.146 Q1619.29 696.068 1621.17 696.538 Q1623.05 697.008 1625.1 697.008 Q1628.67 697.008 1630.53 695.598 Q1632.41 694.187 1632.41 691.498 Q1632.41 689.015 1630.66 687.623 Q1628.93 686.213 1625.83 686.213 L1622.56 686.213 L1622.56 683.091 L1625.98 683.091 Q1628.78 683.091 1630.27 681.981 Q1631.76 680.852 1631.76 678.746 Q1631.76 676.583 1630.21 675.436 Q1628.69 674.27 1625.83 674.27 Q1624.27 674.27 1622.48 674.608 Q1620.7 674.947 1618.55 675.662 L1618.55 672.276 Q1620.72 671.674 1622.6 671.373 Q1624.5 671.072 1626.17 671.072 Q1630.5 671.072 1633.02 673.047 Q1635.54 675.003 1635.54 678.351 Q1635.54 680.683 1634.2 682.301 Q1632.86 683.899 1630.4 684.52 Z" fill="#000000" fill-rule="nonzero" fill-opacity="1" /><path clip-path="url(#clip630)" d="M1809.2 723.135 L1816.84 723.135 L1816.84 696.77 L1808.53 698.437 L1808.53 694.177 L1816.79 692.511 L1821.47 692.511 L1821.47 723.135 L1829.11 723.135 L1829.11 727.071 L1809.2 727.071 L1809.2 723.135 Z" fill="#000000" fill-rule="nonzero" fill-opacity="1" /><path clip-path="url(#clip630)" d="M1848.55 695.589 Q1844.94 695.589 1843.11 699.154 Q1841.31 702.696 1841.31 709.825 Q1841.31 716.932 1843.11 720.497 Q1844.94 724.038 1848.55 724.038 Q1852.19 724.038 1853.99 720.497 Q1855.82 716.932 1855.82 709.825 Q1855.82 702.696 1853.99 699.154 Q1852.19 695.589 1848.55 695.589 M1848.55 691.886 Q1854.36 691.886 1857.42 696.492 Q1860.5 701.075 1860.5 709.825 Q1860.5 718.552 1857.42 723.159 Q1854.36 727.742 1848.55 727.742 Q1842.74 727.742 1839.66 723.159 Q1836.61 718.552 1836.61 709.825 Q1836.61 701.075 1839.66 696.492 Q1842.74 691.886 1848.55 691.886 Z" fill="#000000" fill-rule="nonzero" fill-opacity="1" /><path clip-path="url(#clip630)" d="M1860.5 685.987 L1884.61 685.987 L1884.61 689.184 L1860.5 689.184 L1860.5 685.987 Z" fill="#000000" fill-rule="nonzero" fill-opacity="1" /><path clip-path="url(#clip630)" d="M1896.08 696.463 L1909.34 696.463 L1909.34 699.66 L1891.51 699.66 L1891.51 696.463 Q1893.67 694.225 1897.4 690.463 Q1901.14 686.683 1902.1 685.592 Q1903.92 683.542 1904.64 682.131 Q1905.37 680.702 1905.37 679.329 Q1905.37 677.091 1903.79 675.68 Q1902.23 674.27 1899.71 674.27 Q1897.92 674.27 1895.93 674.89 Q1893.96 675.511 1891.7 676.771 L1891.7 672.934 Q1893.99 672.013 1895.99 671.543 Q1897.98 671.072 1899.64 671.072 Q1904 671.072 1906.59 673.254 Q1909.19 675.436 1909.19 679.085 Q1909.19 680.815 1908.53 682.376 Q1907.89 683.918 1906.18 686.025 Q1905.71 686.57 1903.19 689.184 Q1900.67 691.78 1896.08 696.463 Z" fill="#000000" fill-rule="nonzero" fill-opacity="1" /><path clip-path="url(#clip630)" d="M2082.58 723.135 L2090.22 723.135 L2090.22 696.77 L2081.91 698.437 L2081.91 694.177 L2090.18 692.511 L2094.85 692.511 L2094.85 723.135 L2102.49 723.135 L2102.49 727.071 L2082.58 727.071 L2082.58 723.135 Z" fill="#000000" fill-rule="nonzero" fill-opacity="1" /><path clip-path="url(#clip630)" d="M2121.93 695.589 Q2118.32 695.589 2116.49 699.154 Q2114.69 702.696 2114.69 709.825 Q2114.69 716.932 2116.49 720.497 Q2118.32 724.038 2121.93 724.038 Q2125.57 724.038 2127.37 720.497 Q2129.2 716.932 2129.2 709.825 Q2129.2 702.696 2127.37 699.154 Q2125.57 695.589 2121.93 695.589 M2121.93 691.886 Q2127.74 691.886 2130.8 696.492 Q2133.88 701.075 2133.88 709.825 Q2133.88 718.552 2130.8 723.159 Q2127.74 727.742 2121.93 727.742 Q2116.12 727.742 2113.05 723.159 Q2109.99 718.552 2109.99 709.825 Q2109.99 701.075 2113.05 696.492 Q2116.12 691.886 2121.93 691.886 Z" fill="#000000" fill-rule="nonzero" fill-opacity="1" /><path clip-path="url(#clip630)" d="M2133.88 685.987 L2157.99 685.987 L2157.99 689.184 L2133.88 689.184 L2133.88 685.987 Z" fill="#000000" fill-rule="nonzero" fill-opacity="1" /><path clip-path="url(#clip630)" d="M2166.85 696.463 L2173.06 696.463 L2173.06 675.041 L2166.3 676.395 L2166.3 672.934 L2173.02 671.58 L2176.82 671.58 L2176.82 696.463 L2183.02 696.463 L2183.02 699.66 L2166.85 699.66 L2166.85 696.463 Z" fill="#000000" fill-rule="nonzero" fill-opacity="1" /><polyline clip-path="url(#clip630)" style="stroke:#000000; stroke-linecap:round; stroke-linejoin:round; stroke-width:4; stroke-opacity:1; fill:none" points="1438.76,649.011 1438.76,47.2441 "/>
<polyline clip-path="url(#clip630)" style="stroke:#000000; stroke-linecap:round; stroke-linejoin:round; stroke-width:4; stroke-opacity:1; fill:none" points="1438.76,631.98 1457.66,631.98 "/>
<polyline clip-path="url(#clip630)" style="stroke:#000000; stroke-linecap:round; stroke-linejoin:round; stroke-width:4; stroke-opacity:1; fill:none" points="1438.76,259.196 1457.66,259.196 "/>
<path clip-path="url(#clip630)" d="M1302.62 651.772 L1310.26 651.772 L1310.26 625.407 L1301.95 627.073 L1301.95 622.814 L1310.21 621.147 L1314.89 621.147 L1314.89 651.772 L1322.53 651.772 L1322.53 655.707 L1302.62 655.707 L1302.62 651.772 Z" fill="#000000" fill-rule="nonzero" fill-opacity="1" /><path clip-path="url(#clip630)" d="M1341.97 624.226 Q1338.36 624.226 1336.53 627.791 Q1334.73 631.332 1334.73 638.462 Q1334.73 645.568 1336.53 649.133 Q1338.36 652.675 1341.97 652.675 Q1345.61 652.675 1347.41 649.133 Q1349.24 645.568 1349.24 638.462 Q1349.24 631.332 1347.41 627.791 Q1345.61 624.226 1341.97 624.226 M1341.97 620.522 Q1347.78 620.522 1350.84 625.129 Q1353.92 629.712 1353.92 638.462 Q1353.92 647.189 1350.84 651.795 Q1347.78 656.379 1341.97 656.379 Q1336.16 656.379 1333.08 651.795 Q1330.03 647.189 1330.03 638.462 Q1330.03 629.712 1333.08 625.129 Q1336.16 620.522 1341.97 620.522 Z" fill="#000000" fill-rule="nonzero" fill-opacity="1" /><path clip-path="url(#clip630)" d="M1353.92 614.624 L1378.03 614.624 L1378.03 617.821 L1353.92 617.821 L1353.92 614.624 Z" fill="#000000" fill-rule="nonzero" fill-opacity="1" /><path clip-path="url(#clip630)" d="M1389.5 625.1 L1402.76 625.1 L1402.76 628.297 L1384.93 628.297 L1384.93 625.1 Q1387.09 622.861 1390.82 619.1 Q1394.56 615.32 1395.52 614.229 Q1397.34 612.179 1398.06 610.768 Q1398.79 609.339 1398.79 607.966 Q1398.79 605.728 1397.21 604.317 Q1395.65 602.906 1393.13 602.906 Q1391.35 602.906 1389.35 603.527 Q1387.38 604.148 1385.12 605.408 L1385.12 601.571 Q1387.41 600.649 1389.41 600.179 Q1391.4 599.709 1393.06 599.709 Q1397.42 599.709 1400.02 601.891 Q1402.61 604.072 1402.61 607.721 Q1402.61 609.452 1401.95 611.013 Q1401.31 612.555 1399.6 614.661 Q1399.13 615.207 1396.61 617.821 Q1394.09 620.416 1389.5 625.1 Z" fill="#000000" fill-rule="nonzero" fill-opacity="1" /><path clip-path="url(#clip630)" d="M1302.32 278.988 L1309.96 278.988 L1309.96 252.623 L1301.65 254.289 L1301.65 250.03 L1309.91 248.364 L1314.59 248.364 L1314.59 278.988 L1322.23 278.988 L1322.23 282.924 L1302.32 282.924 L1302.32 278.988 Z" fill="#000000" fill-rule="nonzero" fill-opacity="1" /><path clip-path="url(#clip630)" d="M1341.67 251.442 Q1338.06 251.442 1336.23 255.007 Q1334.43 258.549 1334.43 265.678 Q1334.43 272.785 1336.23 276.349 Q1338.06 279.891 1341.67 279.891 Q1345.31 279.891 1347.11 276.349 Q1348.94 272.785 1348.94 265.678 Q1348.94 258.549 1347.11 255.007 Q1345.31 251.442 1341.67 251.442 M1341.67 247.739 Q1347.48 247.739 1350.54 252.345 Q1353.62 256.928 1353.62 265.678 Q1353.62 274.405 1350.54 279.012 Q1347.48 283.595 1341.67 283.595 Q1335.86 283.595 1332.78 279.012 Q1329.73 274.405 1329.73 265.678 Q1329.73 256.928 1332.78 252.345 Q1335.86 247.739 1341.67 247.739 Z" fill="#000000" fill-rule="nonzero" fill-opacity="1" /><path clip-path="url(#clip630)" d="M1353.62 241.84 L1377.73 241.84 L1377.73 245.037 L1353.62 245.037 L1353.62 241.84 Z" fill="#000000" fill-rule="nonzero" fill-opacity="1" /><path clip-path="url(#clip630)" d="M1386.59 252.316 L1392.79 252.316 L1392.79 230.894 L1386.04 232.248 L1386.04 228.787 L1392.76 227.433 L1396.55 227.433 L1396.55 252.316 L1402.76 252.316 L1402.76 255.513 L1386.59 255.513 L1386.59 252.316 Z" fill="#000000" fill-rule="nonzero" fill-opacity="1" /><polyline clip-path="url(#clip633)" style="stroke:#009af9; stroke-linecap:round; stroke-linejoin:round; stroke-width:5.2; stroke-opacity:1; fill:none" points="2305.73,64.2752 2305.76,110.85 2326.04,146.977 2326.05,176.494 2326.07,201.451 2326.08,223.069 2326.09,242.138 2326.1,259.196 2326.1,274.626 2326.11,288.713 2326.12,301.672 2326.13,313.67 2326.14,324.84 2326.15,335.289 2326.15,345.104 2326.17,354.357 2326.18,363.111 2326.18,371.415 2326.19,379.314 2326.2,386.846 2326.21,394.042 2326.21,400.932 2326.23,407.541 2326.23,413.891 2326.24,420.001 2326.25,425.889 2326.26,431.57 2326.26,437.059 2326.27,442.368 2326.29,447.508 2326.29,452.489 2326.3,457.323 2326.32,462.016 2326.33,466.576 2326.34,471.012 2326.35,475.33 2326.35,479.535 2326.36,483.634 2326.37,487.632 2326.38,491.533 2326.38,495.343 2326.39,499.065 2326.4,502.703 2326.41,506.261 2326.42,509.743 2326.42,513.152 2326.43,516.49 2326.44,519.761 2326.45,522.967 2326.46,526.11 2326.46,529.194 2326.47,532.22 2326.48,535.191 2326.49,538.108 2326.5,540.974 2326.51,543.789 2326.52,546.557 2326.52,549.278 2326.53,551.954 2326.54,554.587 2326.55,557.177 2326.56,559.727 2326.57,562.237 2326.57,564.708 2326.58,567.143 2326.59,569.542 2326.6,571.905 2326.62,574.235 2326.63,576.531 2326.64,578.795 2326.65,581.029 2326.66,583.231 2326.66,585.404 2326.67,587.549 2326.68,589.665 2326.69,591.754 2326.7,593.817 2326.71,595.853 2326.71,597.864 2326.72,599.851 2326.73,601.813 2326.74,603.752 2326.75,605.668 2326.76,607.562 2326.77,609.433 2326.77,611.284 2326.78,613.113 2326.79,614.922 2326.8,616.711 2326.8,618.48 2326.81,620.23 2326.82,621.962 2326.83,623.675 2326.84,625.371 2326.85,627.048 2326.85,628.709 2326.86,630.352 2326.87,631.98 2326.88,631.98 2326.89,631.98 "/>
<polyline clip-path="url(#clip633)" style="stroke:#e26f46; stroke-linecap:round; stroke-linejoin:round; stroke-width:5.2; stroke-opacity:1; fill:none" points="2236.71,64.2752 2236.75,110.85 2236.77,146.977 2236.79,176.494 2236.81,201.451 2236.83,223.069 2236.85,242.138 2236.87,259.196 2236.88,274.626 2236.9,288.713 2236.92,301.672 2236.93,313.67 2236.96,324.84 2236.97,335.289 2236.99,345.104 2237,354.357 2237.02,363.111 2237.05,371.415 2237.06,379.314 2237.08,386.846 2237.09,394.042 2237.11,400.932 2237.13,407.541 2237.14,413.891 2237.16,420.001 2237.18,425.889 2237.19,431.57 2237.21,437.059 2237.23,442.368 2237.25,447.508 2237.26,452.489 2237.28,457.323 2237.3,462.016 2237.32,466.576 2237.34,471.012 2237.35,475.33 2237.38,479.535 2237.4,483.634 2237.42,487.632 2237.44,491.533 2237.46,495.343 2237.48,499.065 2237.5,502.703 2237.52,506.261 2237.53,509.743 2237.55,513.152 2237.57,516.49 2237.59,519.761 2237.6,522.967 2237.62,526.11 2237.64,529.194 2237.66,532.22 2237.68,535.191 2237.7,538.108 2237.72,540.974 2237.73,543.789 2237.75,546.557 2237.77,549.278 2237.79,551.954 2237.81,554.587 2237.83,557.177 2237.85,559.727 2237.87,562.237 2237.89,564.708 2237.91,567.143 2237.94,569.542 2237.95,571.905 2237.97,574.235 2237.99,576.531 2238.01,578.795 2238.03,581.029 2238.05,583.231 2238.07,585.404 2238.09,587.549 2238.13,589.665 2238.15,591.754 2238.18,593.817 2238.2,595.853 2238.22,597.864 2238.24,599.851 2238.26,601.813 2238.28,603.752 2238.3,605.668 2238.32,607.562 2238.34,609.433 2238.37,611.284 2238.39,613.113 2238.41,614.922 2238.44,616.711 2238.46,618.48 2238.48,620.23 2238.5,621.962 2238.52,623.675 2238.54,625.371 2238.57,627.048 2238.59,628.709 2238.61,630.352 2238.63,631.98 2238.65,631.98 2238.68,631.98 "/>
<polyline clip-path="url(#clip633)" style="stroke:#3da44d; stroke-linecap:round; stroke-linejoin:round; stroke-width:5.2; stroke-opacity:1; fill:none" points="1736.47,64.2752 1737.88,110.85 1739.01,146.977 1739.81,176.494 1740.52,201.451 1741.16,223.069 1741.85,242.138 1742.53,259.196 1743.18,274.626 1743.81,288.713 1744.49,301.672 1745.15,313.67 1745.78,324.84 1746.4,335.289 1747,345.104 1747.67,354.357 1748.35,363.111 1748.97,371.415 1749.62,379.314 1750.25,386.846 1750.86,394.042 1751.5,400.932 1752.18,407.541 1752.81,413.891 1753.92,420.001 1754.61,425.889 1755.28,431.57 1755.9,437.059 1756.51,442.368 1757.13,447.508 1757.9,452.489 1758.6,457.323 1759.35,462.016 1759.97,466.576 1760.56,471.012 1761.2,475.33 1761.83,479.535 1762.44,483.634 1763.03,487.632 1763.65,491.533 1764.25,495.343 1764.86,499.065 1765.47,502.703 1766.08,506.261 1766.7,509.743 1767.28,513.152 1767.9,516.49 1768.5,519.761 1769.12,522.967 1769.7,526.11 1770.3,529.194 1770.9,532.22 1771.49,535.191 1772.07,538.108 1772.65,540.974 1773.26,543.789 1773.86,546.557 1774.49,549.278 1775.1,551.954 1775.71,554.587 1776.35,557.177 1776.98,559.727 1777.61,562.237 1778.23,564.708 1778.85,567.143 1779.73,569.542 1780.43,571.905 1781.05,574.235 1781.67,576.531 1782.27,578.795 1782.88,581.029 1783.5,583.231 1784.14,585.404 1784.74,587.549 1785.35,589.665 1785.97,591.754 1786.59,593.817 1787.23,595.853 1787.85,597.864 1788.49,599.851 1789.12,601.813 1789.74,603.752 1790.35,605.668 1790.96,607.562 1791.59,609.433 1792.62,611.284 1793.68,613.113 1794.74,614.922 1795.71,616.711 1796.72,618.48 1797.66,620.23 1798.64,621.962 1799.58,623.675 1800.74,625.371 1801.72,627.048 1802.71,628.709 1803.64,630.352 1804.53,631.98 1805.51,631.98 1806.68,631.98 "/>
<polyline clip-path="url(#clip633)" style="stroke:#c271d2; stroke-linecap:round; stroke-linejoin:round; stroke-width:5.2; stroke-opacity:1; fill:none" points="1464.63,64.2752 1475.89,110.85 1485.11,146.977 1492.03,176.494 1498.99,201.451 1505.81,223.069 1511.69,242.138 1518.24,259.196 1523.38,274.626 1528.54,288.713 1533.57,301.672 1538.5,313.67 1543.27,324.84 1547.64,335.289 1551.77,345.104 1556.12,354.357 1560.14,363.111 1567.34,371.415 1571.28,379.314 1574.67,386.846 1578.49,394.042 1581.74,400.932 1585.35,407.541 1588.42,413.891 1591.28,420.001 1594.61,425.889 1597.35,431.57 1600.54,437.059 1603.21,442.368 1606.11,447.508 1608.69,452.489 1611.25,457.323 1613.9,462.016 1616.38,466.576 1618.91,471.012 1621.24,475.33 1623.49,479.535 1625.74,483.634 1628,487.632 1630.25,491.533 1632.4,495.343 1634.38,499.065 1636.43,502.703 1638.55,506.261 1640.54,509.743 1642.57,513.152 1644.39,516.49 1646.42,519.761 1648.25,522.967 1650.19,526.11 1651.85,529.194 1653.56,532.22 1655.42,535.191 1657.09,538.108 1659.63,540.974 1661.26,543.789 1663.12,546.557 1664.73,549.278 1666.37,551.954 1668.01,554.587 1669.49,557.177 1671.04,559.727 1672.56,562.237 1674.15,564.708 1675.89,567.143 1677.34,569.542 1678.79,571.905 1680.34,574.235 1681.66,576.531 1683.16,578.795 1684.55,581.029 1685.84,583.231 1687.3,585.404 1688.59,587.549 1690.09,589.665 1691.32,591.754 1692.64,593.817 1693.97,595.853 1695.15,597.864 1696.55,599.851 1697.73,601.813 1698.96,603.752 1700.19,605.668 1701.39,607.562 1702.62,609.433 1703.75,611.284 1704.86,613.113 1706.04,614.922 1707.17,616.711 1708.34,618.48 1709.83,620.23 1710.92,621.962 1712.21,623.675 1713.22,625.371 1714.37,627.048 1715.39,628.709 1716.38,630.352 1717.55,631.98 1718.51,631.98 1719.74,631.98 "/>
<path clip-path="url(#clip630)" d="M263.916 1423.86 L1177.91 1423.86 L1177.91 822.09 L263.916 822.09  Z" fill="#ffffff" fill-rule="evenodd" fill-opacity="1"/>
<defs>
  <clipPath id="clip634">
    <rect x="263" y="822" width="915" height="603"/>
  </clipPath>
</defs>
<polyline clip-path="url(#clip634)" style="stroke:#000000; stroke-linecap:round; stroke-linejoin:round; stroke-width:2; stroke-opacity:0.1; fill:none" points="644.524,1423.86 644.524,822.09 "/>
<polyline clip-path="url(#clip634)" style="stroke:#000000; stroke-linecap:round; stroke-linejoin:round; stroke-width:2; stroke-opacity:0.1; fill:none" points="1152.04,1423.86 1152.04,822.09 "/>
<polyline clip-path="url(#clip634)" style="stroke:#000000; stroke-linecap:round; stroke-linejoin:round; stroke-width:2; stroke-opacity:0.1; fill:none" points="263.916,1169.19 1177.91,1169.19 "/>
<polyline clip-path="url(#clip634)" style="stroke:#000000; stroke-linecap:round; stroke-linejoin:round; stroke-width:2; stroke-opacity:0.1; fill:none" points="263.916,828.877 1177.91,828.877 "/>
<polyline clip-path="url(#clip630)" style="stroke:#000000; stroke-linecap:round; stroke-linejoin:round; stroke-width:4; stroke-opacity:1; fill:none" points="263.916,1423.86 1177.91,1423.86 "/>
<polyline clip-path="url(#clip630)" style="stroke:#000000; stroke-linecap:round; stroke-linejoin:round; stroke-width:4; stroke-opacity:1; fill:none" points="644.524,1423.86 644.524,1404.96 "/>
<polyline clip-path="url(#clip630)" style="stroke:#000000; stroke-linecap:round; stroke-linejoin:round; stroke-width:4; stroke-opacity:1; fill:none" points="1152.04,1423.86 1152.04,1404.96 "/>
<path clip-path="url(#clip630)" d="M610.851 1497.98 L618.49 1497.98 L618.49 1471.62 L610.18 1473.28 L610.18 1469.02 L618.444 1467.36 L623.12 1467.36 L623.12 1497.98 L630.758 1497.98 L630.758 1501.92 L610.851 1501.92 L610.851 1497.98 Z" fill="#000000" fill-rule="nonzero" fill-opacity="1" /><path clip-path="url(#clip630)" d="M650.203 1470.44 Q646.592 1470.44 644.763 1474 Q642.957 1477.54 642.957 1484.67 Q642.957 1491.78 644.763 1495.34 Q646.592 1498.88 650.203 1498.88 Q653.837 1498.88 655.643 1495.34 Q657.471 1491.78 657.471 1484.67 Q657.471 1477.54 655.643 1474 Q653.837 1470.44 650.203 1470.44 M650.203 1466.73 Q656.013 1466.73 659.068 1471.34 Q662.147 1475.92 662.147 1484.67 Q662.147 1493.4 659.068 1498 Q656.013 1502.59 650.203 1502.59 Q644.393 1502.59 641.314 1498 Q638.258 1493.4 638.258 1484.67 Q638.258 1475.92 641.314 1471.34 Q644.393 1466.73 650.203 1466.73 Z" fill="#000000" fill-rule="nonzero" fill-opacity="1" /><path clip-path="url(#clip630)" d="M662.693 1471.31 L668.899 1471.31 L668.899 1449.89 L662.147 1451.24 L662.147 1447.78 L668.862 1446.43 L672.661 1446.43 L672.661 1471.31 L678.867 1471.31 L678.867 1474.51 L662.693 1474.51 L662.693 1471.31 Z" fill="#000000" fill-rule="nonzero" fill-opacity="1" /><path clip-path="url(#clip630)" d="M1117.81 1497.98 L1125.45 1497.98 L1125.45 1471.62 L1117.14 1473.28 L1117.14 1469.02 L1125.41 1467.36 L1130.08 1467.36 L1130.08 1497.98 L1137.72 1497.98 L1137.72 1501.92 L1117.81 1501.92 L1117.81 1497.98 Z" fill="#000000" fill-rule="nonzero" fill-opacity="1" /><path clip-path="url(#clip630)" d="M1157.17 1470.44 Q1153.56 1470.44 1151.73 1474 Q1149.92 1477.54 1149.92 1484.67 Q1149.92 1491.78 1151.73 1495.34 Q1153.56 1498.88 1157.17 1498.88 Q1160.8 1498.88 1162.61 1495.34 Q1164.44 1491.78 1164.44 1484.67 Q1164.44 1477.54 1162.61 1474 Q1160.8 1470.44 1157.17 1470.44 M1157.17 1466.73 Q1162.98 1466.73 1166.03 1471.34 Q1169.11 1475.92 1169.11 1484.67 Q1169.11 1493.4 1166.03 1498 Q1162.98 1502.59 1157.17 1502.59 Q1151.36 1502.59 1148.28 1498 Q1145.22 1493.4 1145.22 1484.67 Q1145.22 1475.92 1148.28 1471.34 Q1151.36 1466.73 1157.17 1466.73 Z" fill="#000000" fill-rule="nonzero" fill-opacity="1" /><path clip-path="url(#clip630)" d="M1173.68 1471.31 L1186.94 1471.31 L1186.94 1474.51 L1169.11 1474.51 L1169.11 1471.31 Q1171.27 1469.07 1175 1465.31 Q1178.74 1461.53 1179.7 1460.44 Q1181.52 1458.39 1182.24 1456.98 Q1182.97 1455.55 1182.97 1454.18 Q1182.97 1451.94 1181.39 1450.53 Q1179.83 1449.12 1177.31 1449.12 Q1175.52 1449.12 1173.53 1449.74 Q1171.56 1450.36 1169.3 1451.62 L1169.3 1447.78 Q1171.59 1446.86 1173.59 1446.39 Q1175.58 1445.92 1177.24 1445.92 Q1181.6 1445.92 1184.19 1448.1 Q1186.79 1450.28 1186.79 1453.93 Q1186.79 1455.66 1186.13 1457.22 Q1185.49 1458.76 1183.78 1460.87 Q1183.31 1461.42 1180.79 1464.03 Q1178.27 1466.63 1173.68 1471.31 Z" fill="#000000" fill-rule="nonzero" fill-opacity="1" /><path clip-path="url(#clip630)" d="M611.504 1537.03 L616.179 1537.03 L616.179 1571.59 L611.504 1571.59 L611.504 1537.03 Z" fill="#000000" fill-rule="nonzero" fill-opacity="1" /><path clip-path="url(#clip630)" d="M629.513 1538.31 L629.513 1545.67 L638.286 1545.67 L638.286 1548.98 L629.513 1548.98 L629.513 1563.05 Q629.513 1566.22 630.369 1567.13 Q631.249 1568.03 633.911 1568.03 L638.286 1568.03 L638.286 1571.59 L633.911 1571.59 Q628.98 1571.59 627.105 1569.76 Q625.23 1567.91 625.23 1563.05 L625.23 1548.98 L622.105 1548.98 L622.105 1545.67 L625.23 1545.67 L625.23 1538.31 L629.513 1538.31 Z" fill="#000000" fill-rule="nonzero" fill-opacity="1" /><path clip-path="url(#clip630)" d="M666.063 1557.57 L666.063 1559.65 L646.48 1559.65 Q646.758 1564.05 649.119 1566.36 Q651.503 1568.65 655.739 1568.65 Q658.193 1568.65 660.485 1568.05 Q662.8 1567.45 665.068 1566.25 L665.068 1570.27 Q662.776 1571.25 660.369 1571.76 Q657.962 1572.26 655.485 1572.26 Q649.281 1572.26 645.647 1568.65 Q642.036 1565.04 642.036 1558.89 Q642.036 1552.52 645.462 1548.79 Q648.911 1545.04 654.744 1545.04 Q659.976 1545.04 663.008 1548.42 Q666.063 1551.78 666.063 1557.57 M661.804 1556.32 Q661.758 1552.82 659.837 1550.74 Q657.939 1548.65 654.79 1548.65 Q651.226 1548.65 649.073 1550.67 Q646.943 1552.68 646.619 1556.34 L661.804 1556.32 Z" fill="#000000" fill-rule="nonzero" fill-opacity="1" /><path clip-path="url(#clip630)" d="M688.077 1549.65 Q687.36 1549.23 686.503 1549.05 Q685.67 1548.84 684.651 1548.84 Q681.04 1548.84 679.096 1551.2 Q677.175 1553.54 677.175 1557.94 L677.175 1571.59 L672.892 1571.59 L672.892 1545.67 L677.175 1545.67 L677.175 1549.7 Q678.517 1547.33 680.67 1546.2 Q682.823 1545.04 685.901 1545.04 Q686.341 1545.04 686.874 1545.11 Q687.406 1545.16 688.054 1545.27 L688.077 1549.65 Z" fill="#000000" fill-rule="nonzero" fill-opacity="1" /><path clip-path="url(#clip630)" d="M704.327 1558.56 Q699.165 1558.56 697.174 1559.74 Q695.184 1560.92 695.184 1563.77 Q695.184 1566.04 696.665 1567.38 Q698.17 1568.7 700.739 1568.7 Q704.281 1568.7 706.41 1566.2 Q708.563 1563.68 708.563 1559.51 L708.563 1558.56 L704.327 1558.56 M712.822 1556.8 L712.822 1571.59 L708.563 1571.59 L708.563 1567.66 Q707.105 1570.02 704.929 1571.15 Q702.753 1572.26 699.605 1572.26 Q695.623 1572.26 693.262 1570.04 Q690.924 1567.8 690.924 1564.05 Q690.924 1559.67 693.841 1557.45 Q696.781 1555.23 702.591 1555.23 L708.563 1555.23 L708.563 1554.81 Q708.563 1551.87 706.619 1550.27 Q704.698 1548.65 701.202 1548.65 Q698.98 1548.65 696.873 1549.19 Q694.767 1549.72 692.823 1550.78 L692.823 1546.85 Q695.161 1545.95 697.36 1545.51 Q699.559 1545.04 701.642 1545.04 Q707.267 1545.04 710.045 1547.96 Q712.822 1550.88 712.822 1556.8 Z" fill="#000000" fill-rule="nonzero" fill-opacity="1" /><path clip-path="url(#clip630)" d="M725.809 1538.31 L725.809 1545.67 L734.582 1545.67 L734.582 1548.98 L725.809 1548.98 L725.809 1563.05 Q725.809 1566.22 726.665 1567.13 Q727.545 1568.03 730.207 1568.03 L734.582 1568.03 L734.582 1571.59 L730.207 1571.59 Q725.276 1571.59 723.401 1569.76 Q721.526 1567.91 721.526 1563.05 L721.526 1548.98 L718.401 1548.98 L718.401 1545.67 L721.526 1545.67 L721.526 1538.31 L725.809 1538.31 Z" fill="#000000" fill-rule="nonzero" fill-opacity="1" /><path clip-path="url(#clip630)" d="M740.183 1545.67 L744.443 1545.67 L744.443 1571.59 L740.183 1571.59 L740.183 1545.67 M740.183 1535.58 L744.443 1535.58 L744.443 1540.97 L740.183 1540.97 L740.183 1535.58 Z" fill="#000000" fill-rule="nonzero" fill-opacity="1" /><path clip-path="url(#clip630)" d="M763.401 1548.65 Q759.975 1548.65 757.984 1551.34 Q755.994 1554 755.994 1558.65 Q755.994 1563.31 757.961 1565.99 Q759.952 1568.65 763.401 1568.65 Q766.804 1568.65 768.794 1565.97 Q770.785 1563.28 770.785 1558.65 Q770.785 1554.05 768.794 1551.36 Q766.804 1548.65 763.401 1548.65 M763.401 1545.04 Q768.956 1545.04 772.128 1548.65 Q775.299 1552.26 775.299 1558.65 Q775.299 1565.02 772.128 1568.65 Q768.956 1572.26 763.401 1572.26 Q757.822 1572.26 754.651 1568.65 Q751.503 1565.02 751.503 1558.65 Q751.503 1552.26 754.651 1548.65 Q757.822 1545.04 763.401 1545.04 Z" fill="#000000" fill-rule="nonzero" fill-opacity="1" /><path clip-path="url(#clip630)" d="M803.91 1555.95 L803.91 1571.59 L799.651 1571.59 L799.651 1556.08 Q799.651 1552.4 798.216 1550.58 Q796.78 1548.75 793.91 1548.75 Q790.461 1548.75 788.47 1550.95 Q786.479 1553.14 786.479 1556.94 L786.479 1571.59 L782.197 1571.59 L782.197 1545.67 L786.479 1545.67 L786.479 1549.7 Q788.007 1547.36 790.067 1546.2 Q792.151 1545.04 794.859 1545.04 Q799.327 1545.04 801.618 1547.82 Q803.91 1550.58 803.91 1555.95 Z" fill="#000000" fill-rule="nonzero" fill-opacity="1" /><path clip-path="url(#clip630)" d="M828.933 1546.43 L828.933 1550.46 Q827.127 1549.53 825.183 1549.07 Q823.239 1548.61 821.155 1548.61 Q817.984 1548.61 816.387 1549.58 Q814.813 1550.55 814.813 1552.5 Q814.813 1553.98 815.947 1554.83 Q817.081 1555.67 820.507 1556.43 L821.965 1556.76 Q826.502 1557.73 828.401 1559.51 Q830.322 1561.27 830.322 1564.44 Q830.322 1568.05 827.451 1570.16 Q824.604 1572.26 819.604 1572.26 Q817.521 1572.26 815.252 1571.85 Q813.007 1571.45 810.507 1570.64 L810.507 1566.25 Q812.868 1567.47 815.16 1568.1 Q817.452 1568.7 819.697 1568.7 Q822.706 1568.7 824.327 1567.68 Q825.947 1566.64 825.947 1564.76 Q825.947 1563.03 824.766 1562.1 Q823.609 1561.18 819.651 1560.32 L818.169 1559.97 Q814.211 1559.14 812.452 1557.43 Q810.692 1555.69 810.692 1552.68 Q810.692 1549.02 813.285 1547.03 Q815.877 1545.04 820.646 1545.04 Q823.007 1545.04 825.09 1545.39 Q827.174 1545.74 828.933 1546.43 Z" fill="#000000" fill-rule="nonzero" fill-opacity="1" /><polyline clip-path="url(#clip630)" style="stroke:#000000; stroke-linecap:round; stroke-linejoin:round; stroke-width:4; stroke-opacity:1; fill:none" points="263.916,1423.86 263.916,822.09 "/>
<polyline clip-path="url(#clip630)" style="stroke:#000000; stroke-linecap:round; stroke-linejoin:round; stroke-width:4; stroke-opacity:1; fill:none" points="263.916,1169.19 282.813,1169.19 "/>
<polyline clip-path="url(#clip630)" style="stroke:#000000; stroke-linecap:round; stroke-linejoin:round; stroke-width:4; stroke-opacity:1; fill:none" points="263.916,828.877 282.813,828.877 "/>
<path clip-path="url(#clip630)" d="M101.971 1188.99 L109.61 1188.99 L109.61 1162.62 L101.3 1164.29 L101.3 1160.03 L109.564 1158.36 L114.24 1158.36 L114.24 1188.99 L121.879 1188.99 L121.879 1192.92 L101.971 1192.92 L101.971 1188.99 Z" fill="#000000" fill-rule="nonzero" fill-opacity="1" /><path clip-path="url(#clip630)" d="M141.323 1161.44 Q137.712 1161.44 135.883 1165.01 Q134.078 1168.55 134.078 1175.68 Q134.078 1182.78 135.883 1186.35 Q137.712 1189.89 141.323 1189.89 Q144.957 1189.89 146.763 1186.35 Q148.592 1182.78 148.592 1175.68 Q148.592 1168.55 146.763 1165.01 Q144.957 1161.44 141.323 1161.44 M141.323 1157.74 Q147.133 1157.74 150.189 1162.34 Q153.267 1166.93 153.267 1175.68 Q153.267 1184.4 150.189 1189.01 Q147.133 1193.59 141.323 1193.59 Q135.513 1193.59 132.434 1189.01 Q129.379 1184.4 129.379 1175.68 Q129.379 1166.93 132.434 1162.34 Q135.513 1157.74 141.323 1157.74 Z" fill="#000000" fill-rule="nonzero" fill-opacity="1" /><path clip-path="url(#clip630)" d="M153.267 1151.84 L177.379 1151.84 L177.379 1155.04 L153.267 1155.04 L153.267 1151.84 Z" fill="#000000" fill-rule="nonzero" fill-opacity="1" /><path clip-path="url(#clip630)" d="M186.237 1162.31 L192.444 1162.31 L192.444 1140.89 L185.692 1142.25 L185.692 1138.79 L192.406 1137.43 L196.206 1137.43 L196.206 1162.31 L202.412 1162.31 L202.412 1165.51 L186.237 1165.51 L186.237 1162.31 Z" fill="#000000" fill-rule="nonzero" fill-opacity="1" /><path clip-path="url(#clip630)" d="M218.211 1139.93 Q215.277 1139.93 213.791 1142.83 Q212.324 1145.71 212.324 1151.5 Q212.324 1157.27 213.791 1160.17 Q215.277 1163.05 218.211 1163.05 Q221.164 1163.05 222.631 1160.17 Q224.116 1157.27 224.116 1151.5 Q224.116 1145.71 222.631 1142.83 Q221.164 1139.93 218.211 1139.93 M218.211 1136.92 Q222.931 1136.92 225.414 1140.67 Q227.916 1144.39 227.916 1151.5 Q227.916 1158.59 225.414 1162.33 Q222.931 1166.06 218.211 1166.06 Q213.49 1166.06 210.989 1162.33 Q208.506 1158.59 208.506 1151.5 Q208.506 1144.39 210.989 1140.67 Q213.49 1136.92 218.211 1136.92 Z" fill="#000000" fill-rule="nonzero" fill-opacity="1" /><path clip-path="url(#clip630)" d="M157.21 848.669 L164.849 848.669 L164.849 822.303 L156.539 823.97 L156.539 819.711 L164.802 818.044 L169.478 818.044 L169.478 848.669 L177.117 848.669 L177.117 852.604 L157.21 852.604 L157.21 848.669 Z" fill="#000000" fill-rule="nonzero" fill-opacity="1" /><path clip-path="url(#clip630)" d="M196.562 821.123 Q192.95 821.123 191.122 824.688 Q189.316 828.229 189.316 835.359 Q189.316 842.465 191.122 846.03 Q192.95 849.572 196.562 849.572 Q200.196 849.572 202.001 846.03 Q203.83 842.465 203.83 835.359 Q203.83 828.229 202.001 824.688 Q200.196 821.123 196.562 821.123 M196.562 817.419 Q202.372 817.419 205.427 822.026 Q208.506 826.609 208.506 835.359 Q208.506 844.086 205.427 848.692 Q202.372 853.276 196.562 853.276 Q190.751 853.276 187.673 848.692 Q184.617 844.086 184.617 835.359 Q184.617 826.609 187.673 822.026 Q190.751 817.419 196.562 817.419 Z" fill="#000000" fill-rule="nonzero" fill-opacity="1" /><path clip-path="url(#clip630)" d="M218.211 799.615 Q215.277 799.615 213.791 802.512 Q212.324 805.389 212.324 811.182 Q212.324 816.956 213.791 819.852 Q215.277 822.73 218.211 822.73 Q221.164 822.73 222.631 819.852 Q224.116 816.956 224.116 811.182 Q224.116 805.389 222.631 802.512 Q221.164 799.615 218.211 799.615 M218.211 796.606 Q222.931 796.606 225.414 800.349 Q227.916 804.073 227.916 811.182 Q227.916 818.273 225.414 822.015 Q222.931 825.739 218.211 825.739 Q213.49 825.739 210.989 822.015 Q208.506 818.273 208.506 811.182 Q208.506 804.073 210.989 800.349 Q213.49 796.606 218.211 796.606 Z" fill="#000000" fill-rule="nonzero" fill-opacity="1" /><path clip-path="url(#clip630)" d="M20.3722 1208.57 L20.3722 1188.71 L24.3073 1188.71 L24.3073 1203.9 L34.4925 1203.9 L34.4925 1190.2 L38.4276 1190.2 L38.4276 1203.9 L54.9322 1203.9 L54.9322 1208.57 L20.3722 1208.57 Z" fill="#000000" fill-rule="nonzero" fill-opacity="1" /><path clip-path="url(#clip630)" d="M20.3722 1184.39 L20.3722 1179.66 L49.585 1172.39 L20.3722 1165.15 L20.3722 1159.89 L49.585 1152.63 L20.3722 1145.38 L20.3722 1140.64 L54.9322 1149.32 L54.9322 1155.2 L24.9323 1162.49 L54.9322 1169.85 L54.9322 1175.73 L20.3722 1184.39 Z" fill="#000000" fill-rule="nonzero" fill-opacity="1" /><path clip-path="url(#clip630)" d="M41.6683 1102.49 Q37.0387 1102.49 34.4925 1104.41 Q31.9462 1106.31 31.9462 1109.76 Q31.9462 1113.18 34.4925 1115.1 Q37.0387 1117 41.6683 1117 Q46.2748 1117 48.8211 1115.1 Q51.3674 1113.18 51.3674 1109.76 Q51.3674 1106.31 48.8211 1104.41 Q46.2748 1102.49 41.6683 1102.49 M51.7146 1098.23 Q58.3349 1098.23 61.5525 1101.17 Q64.7932 1104.11 64.7932 1110.17 Q64.7932 1112.42 64.446 1114.41 Q64.1219 1116.4 63.4275 1118.27 L59.284 1118.27 Q60.3025 1116.4 60.7886 1114.57 Q61.2747 1112.74 61.2747 1110.84 Q61.2747 1106.65 59.0757 1104.57 Q56.8997 1102.49 52.4785 1102.49 L50.372 1102.49 Q52.6637 1103.81 53.7979 1105.87 Q54.9322 1107.93 54.9322 1110.8 Q54.9322 1115.57 51.2979 1118.48 Q47.6637 1121.4 41.6683 1121.4 Q35.6499 1121.4 32.0156 1118.48 Q28.3814 1115.57 28.3814 1110.8 Q28.3814 1107.93 29.5156 1105.87 Q30.6499 1103.81 32.9415 1102.49 L29.0064 1102.49 L29.0064 1098.23 L51.7146 1098.23 Z" fill="#000000" fill-rule="nonzero" fill-opacity="1" /><path clip-path="url(#clip630)" d="M41.8998 1077.67 Q41.8998 1082.83 43.0804 1084.83 Q44.2609 1086.82 47.1081 1086.82 Q49.3766 1086.82 50.7192 1085.33 Q52.0387 1083.83 52.0387 1081.26 Q52.0387 1077.72 49.5387 1075.59 Q47.0155 1073.44 42.8489 1073.44 L41.8998 1073.44 L41.8998 1077.67 M40.1406 1069.18 L54.9322 1069.18 L54.9322 1073.44 L50.997 1073.44 Q53.3581 1074.89 54.4923 1077.07 Q55.6035 1079.25 55.6035 1082.39 Q55.6035 1086.38 53.3812 1088.74 Q51.1359 1091.08 47.3859 1091.08 Q43.0109 1091.08 40.7887 1088.16 Q38.5665 1085.22 38.5665 1079.41 L38.5665 1073.44 L38.1498 1073.44 Q35.21 1073.44 33.6128 1075.38 Q31.9925 1077.3 31.9925 1080.8 Q31.9925 1083.02 32.5249 1085.13 Q33.0573 1087.23 34.1221 1089.18 L30.1869 1089.18 Q29.2841 1086.84 28.8443 1084.64 Q28.3814 1082.44 28.3814 1080.36 Q28.3814 1074.73 31.298 1071.96 Q34.2147 1069.18 40.1406 1069.18 Z" fill="#000000" fill-rule="nonzero" fill-opacity="1" /><path clip-path="url(#clip630)" d="M51.0433 1056.28 L64.7932 1056.28 L64.7932 1060.57 L29.0064 1060.57 L29.0064 1056.28 L32.9415 1056.28 Q30.6267 1054.94 29.5156 1052.9 Q28.3814 1050.84 28.3814 1048 Q28.3814 1043.27 32.1314 1040.33 Q35.8813 1037.37 41.9924 1037.37 Q48.1035 1037.37 51.8535 1040.33 Q55.6035 1043.27 55.6035 1048 Q55.6035 1050.84 54.4923 1052.9 Q53.3581 1054.94 51.0433 1056.28 M41.9924 1041.79 Q37.2934 1041.79 34.6313 1043.74 Q31.9462 1045.66 31.9462 1049.04 Q31.9462 1052.42 34.6313 1054.36 Q37.2934 1056.28 41.9924 1056.28 Q46.6915 1056.28 49.3766 1054.36 Q52.0387 1052.42 52.0387 1049.04 Q52.0387 1045.66 49.3766 1043.74 Q46.6915 1041.79 41.9924 1041.79 Z" fill="#000000" fill-rule="nonzero" fill-opacity="1" /><polyline clip-path="url(#clip634)" style="stroke:#009af9; stroke-linecap:round; stroke-linejoin:round; stroke-width:5.2; stroke-opacity:1; fill:none" points="289.783,839.121 379.153,845.114 442.562,849.366 491.745,852.664 531.931,855.358 565.908,857.637 595.34,859.61 621.301,861.351 644.524,862.908 665.531,864.317 684.71,865.603 702.352,866.786 718.686,867.881 733.893,868.901 748.118,869.855 761.481,870.751 774.079,871.596 785.996,872.395 797.302,873.153 808.056,873.874 818.309,874.562 828.107,875.219 837.488,875.848 846.486,876.451 855.13,877.031 863.449,877.588 871.465,878.126 879.199,878.645 886.671,879.146 893.899,879.63 900.897,880.1 907.679,880.554 914.259,880.996 920.648,881.424 926.857,881.84 932.896,882.245 938.775,882.639 944.5,883.023 950.08,883.398 955.523,883.763 960.834,884.119 966.021,884.466 971.088,884.806 976.041,885.138 980.885,885.463 985.626,885.781 990.266,886.092 994.811,886.397 999.264,886.696 1003.63,886.988 1007.91,887.275 1012.11,887.557 1016.23,887.833 1020.27,888.104 1024.24,888.371 1028.14,888.632 1031.98,888.889 1035.75,889.142 1039.45,889.39 1043.09,889.635 1046.68,889.875 1050.2,890.111 1053.67,890.344 1057.09,890.573 1060.46,890.799 1063.77,891.021 1067.04,891.24 1070.26,891.456 1073.43,891.669 1076.55,891.878 1079.64,892.085 1082.68,892.289 1085.67,892.49 1088.63,892.688 1091.55,892.884 1094.43,893.077 1097.28,893.268 1100.09,893.456 1102.86,893.642 1105.6,893.826 1108.3,894.007 1110.97,894.186 1113.61,894.363 1116.22,894.538 1118.8,894.711 1121.35,894.882 1123.87,895.051 1126.36,895.218 1128.82,895.383 1131.25,895.546 1133.66,895.708 1136.05,895.868 1138.4,896.026 1140.74,896.182 1143.04,896.337 1145.33,896.49 1147.59,896.642 1149.83,896.792 1152.04,1399.28 "/>
<polyline clip-path="url(#clip634)" style="stroke:#e26f46; stroke-linecap:round; stroke-linejoin:round; stroke-width:5.2; stroke-opacity:1; fill:none" points="289.783,839.121 379.153,845.114 442.562,849.366 491.745,852.664 531.931,855.358 565.908,857.637 595.34,859.61 621.301,861.351 644.524,862.908 665.531,864.317 684.71,865.603 702.352,866.786 718.686,867.881 733.893,868.901 748.118,869.855 761.481,870.751 774.079,871.596 785.996,872.395 797.302,873.153 808.056,873.874 818.309,874.562 828.107,875.219 837.488,875.848 846.486,876.451 855.13,877.031 863.449,877.588 871.465,878.126 879.199,878.645 886.671,879.146 893.899,879.63 900.897,880.1 907.679,880.554 914.259,880.996 920.648,881.424 926.857,881.84 932.896,882.245 938.775,882.639 944.5,883.023 950.08,883.398 955.523,883.763 960.834,884.119 966.021,884.466 971.088,884.806 976.041,885.138 980.885,885.463 985.626,885.781 990.266,886.092 994.811,886.397 999.264,886.696 1003.63,886.988 1007.91,887.275 1012.11,887.557 1016.23,887.833 1020.27,888.104 1024.24,888.371 1028.14,888.632 1031.98,888.889 1035.75,889.142 1039.45,889.39 1043.09,889.635 1046.68,889.875 1050.2,890.111 1053.67,890.344 1057.09,890.573 1060.46,890.799 1063.77,891.021 1067.04,891.24 1070.26,891.456 1073.43,891.669 1076.55,891.878 1079.64,892.085 1082.68,892.289 1085.67,892.49 1088.63,892.688 1091.55,892.884 1094.43,893.077 1097.28,893.268 1100.09,893.456 1102.86,893.642 1105.6,893.826 1108.3,894.007 1110.97,894.186 1113.61,894.363 1116.22,894.538 1118.8,894.711 1121.35,894.882 1123.87,895.051 1126.36,895.218 1128.82,895.383 1131.25,895.546 1133.66,895.708 1136.05,895.868 1138.4,896.026 1140.74,896.182 1143.04,896.337 1145.33,896.49 1147.59,896.642 1149.83,896.792 1152.04,1406.83 "/>
<polyline clip-path="url(#clip634)" style="stroke:#3da44d; stroke-linecap:round; stroke-linejoin:round; stroke-width:5.2; stroke-opacity:1; fill:none" points="289.783,839.121 379.153,845.114 442.562,849.366 491.745,852.664 531.931,855.358 565.908,857.637 595.34,859.61 621.301,861.351 644.524,862.908 665.531,864.317 684.71,865.603 702.352,866.786 718.686,867.881 733.893,868.901 748.118,869.855 761.481,870.751 774.079,871.596 785.996,872.395 797.302,873.153 808.056,873.874 818.309,874.562 828.107,875.219 837.488,875.848 846.486,876.451 855.13,877.031 863.449,877.588 871.465,878.126 879.199,878.645 886.671,879.146 893.899,879.63 900.897,880.1 907.679,880.554 914.259,880.996 920.648,881.424 926.857,881.84 932.896,882.245 938.775,882.639 944.5,883.023 950.08,883.398 955.523,883.763 960.834,884.119 966.021,884.466 971.088,884.806 976.041,885.138 980.885,885.463 985.626,885.781 990.266,886.092 994.811,886.397 999.264,886.696 1003.63,886.988 1007.91,887.275 1012.11,887.557 1016.23,887.833 1020.27,888.104 1024.24,888.371 1028.14,888.632 1031.98,888.889 1035.75,889.142 1039.45,889.39 1043.09,889.635 1046.68,889.875 1050.2,890.111 1053.67,890.344 1057.09,890.573 1060.46,890.799 1063.77,891.021 1067.04,891.24 1070.26,891.456 1073.43,891.669 1076.55,891.878 1079.64,892.085 1082.68,892.289 1085.67,892.49 1088.63,892.688 1091.55,892.884 1094.43,893.077 1097.28,893.268 1100.09,893.456 1102.86,893.642 1105.6,893.826 1108.3,894.007 1110.97,894.186 1113.61,894.363 1116.22,894.538 1118.8,894.711 1121.35,894.882 1123.87,895.051 1126.36,895.218 1128.82,895.383 1131.25,895.546 1133.66,895.708 1136.05,895.868 1138.4,896.026 1140.74,896.182 1143.04,896.337 1145.33,896.49 1147.59,896.642 1149.83,896.792 1152.04,1404.55 1152.04,1399.28 "/>
<polyline clip-path="url(#clip634)" style="stroke:#c271d2; stroke-linecap:round; stroke-linejoin:round; stroke-width:5.2; stroke-opacity:1; fill:none" points="289.783,839.121 379.153,845.114 442.562,849.366 491.745,852.664 531.931,855.358 565.908,857.637 595.34,859.61 621.301,861.351 644.524,862.908 665.531,864.317 684.71,865.603 702.352,866.786 718.686,867.881 733.893,868.901 748.118,869.855 761.481,870.751 774.079,871.596 785.996,872.395 797.302,873.153 808.056,873.874 818.309,874.562 828.107,875.219 837.488,875.848 846.486,876.451 855.13,877.031 863.449,877.588 871.465,878.126 879.199,878.645 886.671,879.146 893.899,879.63 900.897,880.1 907.679,880.554 914.259,880.996 920.648,881.424 926.857,881.84 932.896,882.245 938.775,882.639 944.5,883.023 950.08,883.398 955.523,883.763 960.834,884.119 966.021,884.466 971.088,884.806 976.041,885.138 980.885,885.463 985.626,885.781 990.266,886.092 994.811,886.397 999.264,886.696 1003.63,886.988 1007.91,887.275 1012.11,887.557 1016.23,887.833 1020.27,888.104 1024.24,888.371 1028.14,888.632 1031.98,888.889 1035.75,889.142 1039.45,889.39 1043.09,889.635 1046.68,889.875 1050.2,890.111 1053.67,890.344 1057.09,890.573 1060.46,890.799 1063.77,891.021 1067.04,891.24 1070.26,891.456 1073.43,891.669 1076.55,891.878 1079.64,892.085 1082.68,892.289 1085.67,892.49 1088.63,892.688 1091.55,892.884 1094.43,893.077 1097.28,893.268 1100.09,893.456 1102.86,893.642 1105.6,893.826 1108.3,894.007 1110.97,894.186 1113.61,894.363 1116.22,894.538 1118.8,894.711 1121.35,894.882 1123.87,895.051 1126.36,895.218 1128.82,895.383 1131.25,895.546 1133.66,895.708 1136.05,895.868 1138.4,896.026 1140.74,896.182 1143.04,896.337 1145.33,896.49 1147.59,896.642 1149.83,896.792 1152.04,1399.28 "/>
<path clip-path="url(#clip630)" d="M1438.76 1423.86 L2352.76 1423.86 L2352.76 822.09 L1438.76 822.09  Z" fill="#ffffff" fill-rule="evenodd" fill-opacity="1"/>
<defs>
  <clipPath id="clip635">
    <rect x="1438" y="822" width="915" height="603"/>
  </clipPath>
</defs>
<polyline clip-path="url(#clip635)" style="stroke:#000000; stroke-linecap:round; stroke-linejoin:round; stroke-width:2; stroke-opacity:0.1; fill:none" points="1585.4,1423.86 1585.4,822.09 "/>
<polyline clip-path="url(#clip635)" style="stroke:#000000; stroke-linecap:round; stroke-linejoin:round; stroke-width:2; stroke-opacity:0.1; fill:none" points="1858.94,1423.86 1858.94,822.09 "/>
<polyline clip-path="url(#clip635)" style="stroke:#000000; stroke-linecap:round; stroke-linejoin:round; stroke-width:2; stroke-opacity:0.1; fill:none" points="2132.47,1423.86 2132.47,822.09 "/>
<polyline clip-path="url(#clip635)" style="stroke:#000000; stroke-linecap:round; stroke-linejoin:round; stroke-width:2; stroke-opacity:0.1; fill:none" points="1438.76,1169.19 2352.76,1169.19 "/>
<polyline clip-path="url(#clip635)" style="stroke:#000000; stroke-linecap:round; stroke-linejoin:round; stroke-width:2; stroke-opacity:0.1; fill:none" points="1438.76,828.877 2352.76,828.877 "/>
<polyline clip-path="url(#clip630)" style="stroke:#000000; stroke-linecap:round; stroke-linejoin:round; stroke-width:4; stroke-opacity:1; fill:none" points="1438.76,1423.86 2352.76,1423.86 "/>
<polyline clip-path="url(#clip630)" style="stroke:#000000; stroke-linecap:round; stroke-linejoin:round; stroke-width:4; stroke-opacity:1; fill:none" points="1585.4,1423.86 1585.4,1404.96 "/>
<polyline clip-path="url(#clip630)" style="stroke:#000000; stroke-linecap:round; stroke-linejoin:round; stroke-width:4; stroke-opacity:1; fill:none" points="1858.94,1423.86 1858.94,1404.96 "/>
<polyline clip-path="url(#clip630)" style="stroke:#000000; stroke-linecap:round; stroke-linejoin:round; stroke-width:4; stroke-opacity:1; fill:none" points="2132.47,1423.86 2132.47,1404.96 "/>
<path clip-path="url(#clip630)" d="M1535.28 1497.98 L1542.92 1497.98 L1542.92 1471.62 L1534.61 1473.28 L1534.61 1469.02 L1542.88 1467.36 L1547.55 1467.36 L1547.55 1497.98 L1555.19 1497.98 L1555.19 1501.92 L1535.28 1501.92 L1535.28 1497.98 Z" fill="#000000" fill-rule="nonzero" fill-opacity="1" /><path clip-path="url(#clip630)" d="M1574.63 1470.44 Q1571.02 1470.44 1569.19 1474 Q1567.39 1477.54 1567.39 1484.67 Q1567.39 1491.78 1569.19 1495.34 Q1571.02 1498.88 1574.63 1498.88 Q1578.27 1498.88 1580.07 1495.34 Q1581.9 1491.78 1581.9 1484.67 Q1581.9 1477.54 1580.07 1474 Q1578.27 1470.44 1574.63 1470.44 M1574.63 1466.73 Q1580.44 1466.73 1583.5 1471.34 Q1586.58 1475.92 1586.58 1484.67 Q1586.58 1493.4 1583.5 1498 Q1580.44 1502.59 1574.63 1502.59 Q1568.82 1502.59 1565.75 1498 Q1562.69 1493.4 1562.69 1484.67 Q1562.69 1475.92 1565.75 1471.34 Q1568.82 1466.73 1574.63 1466.73 Z" fill="#000000" fill-rule="nonzero" fill-opacity="1" /><path clip-path="url(#clip630)" d="M1586.58 1460.83 L1610.69 1460.83 L1610.69 1464.03 L1586.58 1464.03 L1586.58 1460.83 Z" fill="#000000" fill-rule="nonzero" fill-opacity="1" /><path clip-path="url(#clip630)" d="M1630.4 1459.37 Q1633.13 1459.95 1634.65 1461.79 Q1636.19 1463.64 1636.19 1466.34 Q1636.19 1470.5 1633.34 1472.78 Q1630.48 1475.05 1625.21 1475.05 Q1623.44 1475.05 1621.56 1474.69 Q1619.7 1474.36 1617.71 1473.66 L1617.71 1469.99 Q1619.29 1470.91 1621.17 1471.38 Q1623.05 1471.85 1625.1 1471.85 Q1628.67 1471.85 1630.53 1470.44 Q1632.41 1469.03 1632.41 1466.34 Q1632.41 1463.86 1630.66 1462.47 Q1628.93 1461.06 1625.83 1461.06 L1622.56 1461.06 L1622.56 1457.94 L1625.98 1457.94 Q1628.78 1457.94 1630.27 1456.83 Q1631.76 1455.7 1631.76 1453.59 Q1631.76 1451.43 1630.21 1450.28 Q1628.69 1449.12 1625.83 1449.12 Q1624.27 1449.12 1622.48 1449.45 Q1620.7 1449.79 1618.55 1450.51 L1618.55 1447.12 Q1620.72 1446.52 1622.6 1446.22 Q1624.5 1445.92 1626.17 1445.92 Q1630.5 1445.92 1633.02 1447.89 Q1635.54 1449.85 1635.54 1453.2 Q1635.54 1455.53 1634.2 1457.15 Q1632.86 1458.75 1630.4 1459.37 Z" fill="#000000" fill-rule="nonzero" fill-opacity="1" /><path clip-path="url(#clip630)" d="M1809.2 1497.98 L1816.84 1497.98 L1816.84 1471.62 L1808.53 1473.28 L1808.53 1469.02 L1816.79 1467.36 L1821.47 1467.36 L1821.47 1497.98 L1829.11 1497.98 L1829.11 1501.92 L1809.2 1501.92 L1809.2 1497.98 Z" fill="#000000" fill-rule="nonzero" fill-opacity="1" /><path clip-path="url(#clip630)" d="M1848.55 1470.44 Q1844.94 1470.44 1843.11 1474 Q1841.31 1477.54 1841.31 1484.67 Q1841.31 1491.78 1843.11 1495.34 Q1844.94 1498.88 1848.55 1498.88 Q1852.19 1498.88 1853.99 1495.34 Q1855.82 1491.78 1855.82 1484.67 Q1855.82 1477.54 1853.99 1474 Q1852.19 1470.44 1848.55 1470.44 M1848.55 1466.73 Q1854.36 1466.73 1857.42 1471.34 Q1860.5 1475.92 1860.5 1484.67 Q1860.5 1493.4 1857.42 1498 Q1854.36 1502.59 1848.55 1502.59 Q1842.74 1502.59 1839.66 1498 Q1836.61 1493.4 1836.61 1484.67 Q1836.61 1475.92 1839.66 1471.34 Q1842.74 1466.73 1848.55 1466.73 Z" fill="#000000" fill-rule="nonzero" fill-opacity="1" /><path clip-path="url(#clip630)" d="M1860.5 1460.83 L1884.61 1460.83 L1884.61 1464.03 L1860.5 1464.03 L1860.5 1460.83 Z" fill="#000000" fill-rule="nonzero" fill-opacity="1" /><path clip-path="url(#clip630)" d="M1896.08 1471.31 L1909.34 1471.31 L1909.34 1474.51 L1891.51 1474.51 L1891.51 1471.31 Q1893.67 1469.07 1897.4 1465.31 Q1901.14 1461.53 1902.1 1460.44 Q1903.92 1458.39 1904.64 1456.98 Q1905.37 1455.55 1905.37 1454.18 Q1905.37 1451.94 1903.79 1450.53 Q1902.23 1449.12 1899.71 1449.12 Q1897.92 1449.12 1895.93 1449.74 Q1893.96 1450.36 1891.7 1451.62 L1891.7 1447.78 Q1893.99 1446.86 1895.99 1446.39 Q1897.98 1445.92 1899.64 1445.92 Q1904 1445.92 1906.59 1448.1 Q1909.19 1450.28 1909.19 1453.93 Q1909.19 1455.66 1908.53 1457.22 Q1907.89 1458.76 1906.18 1460.87 Q1905.71 1461.42 1903.19 1464.03 Q1900.67 1466.63 1896.08 1471.31 Z" fill="#000000" fill-rule="nonzero" fill-opacity="1" /><path clip-path="url(#clip630)" d="M2082.58 1497.98 L2090.22 1497.98 L2090.22 1471.62 L2081.91 1473.28 L2081.91 1469.02 L2090.18 1467.36 L2094.85 1467.36 L2094.85 1497.98 L2102.49 1497.98 L2102.49 1501.92 L2082.58 1501.92 L2082.58 1497.98 Z" fill="#000000" fill-rule="nonzero" fill-opacity="1" /><path clip-path="url(#clip630)" d="M2121.93 1470.44 Q2118.32 1470.44 2116.49 1474 Q2114.69 1477.54 2114.69 1484.67 Q2114.69 1491.78 2116.49 1495.34 Q2118.32 1498.88 2121.93 1498.88 Q2125.57 1498.88 2127.37 1495.34 Q2129.2 1491.78 2129.2 1484.67 Q2129.2 1477.54 2127.37 1474 Q2125.57 1470.44 2121.93 1470.44 M2121.93 1466.73 Q2127.74 1466.73 2130.8 1471.34 Q2133.88 1475.92 2133.88 1484.67 Q2133.88 1493.4 2130.8 1498 Q2127.74 1502.59 2121.93 1502.59 Q2116.12 1502.59 2113.05 1498 Q2109.99 1493.4 2109.99 1484.67 Q2109.99 1475.92 2113.05 1471.34 Q2116.12 1466.73 2121.93 1466.73 Z" fill="#000000" fill-rule="nonzero" fill-opacity="1" /><path clip-path="url(#clip630)" d="M2133.88 1460.83 L2157.99 1460.83 L2157.99 1464.03 L2133.88 1464.03 L2133.88 1460.83 Z" fill="#000000" fill-rule="nonzero" fill-opacity="1" /><path clip-path="url(#clip630)" d="M2166.85 1471.31 L2173.06 1471.31 L2173.06 1449.89 L2166.3 1451.24 L2166.3 1447.78 L2173.02 1446.43 L2176.82 1446.43 L2176.82 1471.31 L2183.02 1471.31 L2183.02 1474.51 L2166.85 1474.51 L2166.85 1471.31 Z" fill="#000000" fill-rule="nonzero" fill-opacity="1" /><path clip-path="url(#clip630)" d="M1801.34 1537.03 L1830.57 1537.03 L1830.57 1540.97 L1818.31 1540.97 L1818.31 1571.59 L1813.61 1571.59 L1813.61 1540.97 L1801.34 1540.97 L1801.34 1537.03 Z" fill="#000000" fill-rule="nonzero" fill-opacity="1" /><path clip-path="url(#clip630)" d="M1833.44 1545.67 L1837.7 1545.67 L1837.7 1571.59 L1833.44 1571.59 L1833.44 1545.67 M1833.44 1535.58 L1837.7 1535.58 L1837.7 1540.97 L1833.44 1540.97 L1833.44 1535.58 Z" fill="#000000" fill-rule="nonzero" fill-opacity="1" /><path clip-path="url(#clip630)" d="M1866.8 1550.64 Q1868.4 1547.77 1870.62 1546.41 Q1872.84 1545.04 1875.85 1545.04 Q1879.9 1545.04 1882.1 1547.89 Q1884.3 1550.71 1884.3 1555.95 L1884.3 1571.59 L1880.02 1571.59 L1880.02 1556.08 Q1880.02 1552.36 1878.7 1550.55 Q1877.38 1548.75 1874.67 1548.75 Q1871.36 1548.75 1869.44 1550.95 Q1867.52 1553.14 1867.52 1556.94 L1867.52 1571.59 L1863.24 1571.59 L1863.24 1556.08 Q1863.24 1552.33 1861.92 1550.55 Q1860.6 1548.75 1857.84 1548.75 Q1854.58 1548.75 1852.66 1550.97 Q1850.74 1553.17 1850.74 1556.94 L1850.74 1571.59 L1846.45 1571.59 L1846.45 1545.67 L1850.74 1545.67 L1850.74 1549.7 Q1852.19 1547.31 1854.23 1546.18 Q1856.27 1545.04 1859.07 1545.04 Q1861.89 1545.04 1863.86 1546.48 Q1865.85 1547.91 1866.8 1550.64 Z" fill="#000000" fill-rule="nonzero" fill-opacity="1" /><path clip-path="url(#clip630)" d="M1914.97 1557.57 L1914.97 1559.65 L1895.39 1559.65 Q1895.67 1564.05 1898.03 1566.36 Q1900.41 1568.65 1904.65 1568.65 Q1907.1 1568.65 1909.39 1568.05 Q1911.71 1567.45 1913.98 1566.25 L1913.98 1570.27 Q1911.68 1571.25 1909.28 1571.76 Q1906.87 1572.26 1904.39 1572.26 Q1898.19 1572.26 1894.56 1568.65 Q1890.94 1565.04 1890.94 1558.89 Q1890.94 1552.52 1894.37 1548.79 Q1897.82 1545.04 1903.65 1545.04 Q1908.88 1545.04 1911.92 1548.42 Q1914.97 1551.78 1914.97 1557.57 M1910.71 1556.32 Q1910.67 1552.82 1908.74 1550.74 Q1906.85 1548.65 1903.7 1548.65 Q1900.13 1548.65 1897.98 1550.67 Q1895.85 1552.68 1895.53 1556.34 L1910.71 1556.32 Z" fill="#000000" fill-rule="nonzero" fill-opacity="1" /><path clip-path="url(#clip630)" d="M1947.26 1535.62 Q1944.16 1540.95 1942.66 1546.15 Q1941.15 1551.36 1941.15 1556.71 Q1941.15 1562.06 1942.66 1567.31 Q1944.18 1572.54 1947.26 1577.84 L1943.56 1577.84 Q1940.09 1572.4 1938.35 1567.15 Q1936.64 1561.89 1936.64 1556.71 Q1936.64 1551.55 1938.35 1546.32 Q1940.06 1541.08 1943.56 1535.62 L1947.26 1535.62 Z" fill="#000000" fill-rule="nonzero" fill-opacity="1" /><path clip-path="url(#clip630)" d="M1972.05 1546.43 L1972.05 1550.46 Q1970.25 1549.53 1968.3 1549.07 Q1966.36 1548.61 1964.28 1548.61 Q1961.11 1548.61 1959.51 1549.58 Q1957.93 1550.55 1957.93 1552.5 Q1957.93 1553.98 1959.07 1554.83 Q1960.2 1555.67 1963.63 1556.43 L1965.09 1556.76 Q1969.62 1557.73 1971.52 1559.51 Q1973.44 1561.27 1973.44 1564.44 Q1973.44 1568.05 1970.57 1570.16 Q1967.73 1572.26 1962.73 1572.26 Q1960.64 1572.26 1958.37 1571.85 Q1956.13 1571.45 1953.63 1570.64 L1953.63 1566.25 Q1955.99 1567.47 1958.28 1568.1 Q1960.57 1568.7 1962.82 1568.7 Q1965.83 1568.7 1967.45 1567.68 Q1969.07 1566.64 1969.07 1564.76 Q1969.07 1563.03 1967.89 1562.1 Q1966.73 1561.18 1962.77 1560.32 L1961.29 1559.97 Q1957.33 1559.14 1955.57 1557.43 Q1953.81 1555.69 1953.81 1552.68 Q1953.81 1549.02 1956.41 1547.03 Q1959 1545.04 1963.77 1545.04 Q1966.13 1545.04 1968.21 1545.39 Q1970.3 1545.74 1972.05 1546.43 Z" fill="#000000" fill-rule="nonzero" fill-opacity="1" /><path clip-path="url(#clip630)" d="M1979.55 1535.62 L1983.26 1535.62 Q1986.73 1541.08 1988.44 1546.32 Q1990.18 1551.55 1990.18 1556.71 Q1990.18 1561.89 1988.44 1567.15 Q1986.73 1572.4 1983.26 1577.84 L1979.55 1577.84 Q1982.63 1572.54 1984.14 1567.31 Q1985.67 1562.06 1985.67 1556.71 Q1985.67 1551.36 1984.14 1546.15 Q1982.63 1540.95 1979.55 1535.62 Z" fill="#000000" fill-rule="nonzero" fill-opacity="1" /><polyline clip-path="url(#clip630)" style="stroke:#000000; stroke-linecap:round; stroke-linejoin:round; stroke-width:4; stroke-opacity:1; fill:none" points="1438.76,1423.86 1438.76,822.09 "/>
<polyline clip-path="url(#clip630)" style="stroke:#000000; stroke-linecap:round; stroke-linejoin:round; stroke-width:4; stroke-opacity:1; fill:none" points="1438.76,1169.19 1457.66,1169.19 "/>
<polyline clip-path="url(#clip630)" style="stroke:#000000; stroke-linecap:round; stroke-linejoin:round; stroke-width:4; stroke-opacity:1; fill:none" points="1438.76,828.877 1457.66,828.877 "/>
<path clip-path="url(#clip630)" d="M1276.82 1188.99 L1284.46 1188.99 L1284.46 1162.62 L1276.15 1164.29 L1276.15 1160.03 L1284.41 1158.36 L1289.09 1158.36 L1289.09 1188.99 L1296.72 1188.99 L1296.72 1192.92 L1276.82 1192.92 L1276.82 1188.99 Z" fill="#000000" fill-rule="nonzero" fill-opacity="1" /><path clip-path="url(#clip630)" d="M1316.17 1161.44 Q1312.56 1161.44 1310.73 1165.01 Q1308.92 1168.55 1308.92 1175.68 Q1308.92 1182.78 1310.73 1186.35 Q1312.56 1189.89 1316.17 1189.89 Q1319.8 1189.89 1321.61 1186.35 Q1323.44 1182.78 1323.44 1175.68 Q1323.44 1168.55 1321.61 1165.01 Q1319.8 1161.44 1316.17 1161.44 M1316.17 1157.74 Q1321.98 1157.74 1325.03 1162.34 Q1328.11 1166.93 1328.11 1175.68 Q1328.11 1184.4 1325.03 1189.01 Q1321.98 1193.59 1316.17 1193.59 Q1310.36 1193.59 1307.28 1189.01 Q1304.22 1184.4 1304.22 1175.68 Q1304.22 1166.93 1307.28 1162.34 Q1310.36 1157.74 1316.17 1157.74 Z" fill="#000000" fill-rule="nonzero" fill-opacity="1" /><path clip-path="url(#clip630)" d="M1328.11 1151.84 L1352.23 1151.84 L1352.23 1155.04 L1328.11 1155.04 L1328.11 1151.84 Z" fill="#000000" fill-rule="nonzero" fill-opacity="1" /><path clip-path="url(#clip630)" d="M1361.08 1162.31 L1367.29 1162.31 L1367.29 1140.89 L1360.54 1142.25 L1360.54 1138.79 L1367.25 1137.43 L1371.05 1137.43 L1371.05 1162.31 L1377.26 1162.31 L1377.26 1165.51 L1361.08 1165.51 L1361.08 1162.31 Z" fill="#000000" fill-rule="nonzero" fill-opacity="1" /><path clip-path="url(#clip630)" d="M1393.06 1139.93 Q1390.12 1139.93 1388.64 1142.83 Q1387.17 1145.71 1387.17 1151.5 Q1387.17 1157.27 1388.64 1160.17 Q1390.12 1163.05 1393.06 1163.05 Q1396.01 1163.05 1397.48 1160.17 Q1398.96 1157.27 1398.96 1151.5 Q1398.96 1145.71 1397.48 1142.83 Q1396.01 1139.93 1393.06 1139.93 M1393.06 1136.92 Q1397.78 1136.92 1400.26 1140.67 Q1402.76 1144.39 1402.76 1151.5 Q1402.76 1158.59 1400.26 1162.33 Q1397.78 1166.06 1393.06 1166.06 Q1388.34 1166.06 1385.83 1162.33 Q1383.35 1158.59 1383.35 1151.5 Q1383.35 1144.39 1385.83 1140.67 Q1388.34 1136.92 1393.06 1136.92 Z" fill="#000000" fill-rule="nonzero" fill-opacity="1" /><path clip-path="url(#clip630)" d="M1332.06 848.669 L1339.69 848.669 L1339.69 822.303 L1331.38 823.97 L1331.38 819.711 L1339.65 818.044 L1344.32 818.044 L1344.32 848.669 L1351.96 848.669 L1351.96 852.604 L1332.06 852.604 L1332.06 848.669 Z" fill="#000000" fill-rule="nonzero" fill-opacity="1" /><path clip-path="url(#clip630)" d="M1371.41 821.123 Q1367.8 821.123 1365.97 824.688 Q1364.16 828.229 1364.16 835.359 Q1364.16 842.465 1365.97 846.03 Q1367.8 849.572 1371.41 849.572 Q1375.04 849.572 1376.85 846.03 Q1378.68 842.465 1378.68 835.359 Q1378.68 828.229 1376.85 824.688 Q1375.04 821.123 1371.41 821.123 M1371.41 817.419 Q1377.22 817.419 1380.27 822.026 Q1383.35 826.609 1383.35 835.359 Q1383.35 844.086 1380.27 848.692 Q1377.22 853.276 1371.41 853.276 Q1365.6 853.276 1362.52 848.692 Q1359.46 844.086 1359.46 835.359 Q1359.46 826.609 1362.52 822.026 Q1365.6 817.419 1371.41 817.419 Z" fill="#000000" fill-rule="nonzero" fill-opacity="1" /><path clip-path="url(#clip630)" d="M1393.06 799.615 Q1390.12 799.615 1388.64 802.512 Q1387.17 805.389 1387.17 811.182 Q1387.17 816.956 1388.64 819.852 Q1390.12 822.73 1393.06 822.73 Q1396.01 822.73 1397.48 819.852 Q1398.96 816.956 1398.96 811.182 Q1398.96 805.389 1397.48 802.512 Q1396.01 799.615 1393.06 799.615 M1393.06 796.606 Q1397.78 796.606 1400.26 800.349 Q1402.76 804.073 1402.76 811.182 Q1402.76 818.273 1400.26 822.015 Q1397.78 825.739 1393.06 825.739 Q1388.34 825.739 1385.83 822.015 Q1383.35 818.273 1383.35 811.182 Q1383.35 804.073 1385.83 800.349 Q1388.34 796.606 1393.06 796.606 Z" fill="#000000" fill-rule="nonzero" fill-opacity="1" /><polyline clip-path="url(#clip635)" style="stroke:#009af9; stroke-linecap:round; stroke-linejoin:round; stroke-width:5.2; stroke-opacity:1; fill:none" points="2305.73,839.121 2305.76,845.114 2326.04,849.366 2326.05,852.664 2326.07,855.358 2326.08,857.637 2326.09,859.61 2326.1,861.351 2326.1,862.908 2326.11,864.317 2326.12,865.603 2326.13,866.786 2326.14,867.881 2326.15,868.901 2326.15,869.855 2326.17,870.751 2326.18,871.596 2326.18,872.395 2326.19,873.153 2326.2,873.874 2326.21,874.562 2326.21,875.219 2326.23,875.848 2326.23,876.451 2326.24,877.031 2326.25,877.588 2326.26,878.126 2326.26,878.645 2326.27,879.146 2326.29,879.63 2326.29,880.1 2326.3,880.554 2326.32,880.996 2326.33,881.424 2326.34,881.84 2326.35,882.245 2326.35,882.639 2326.36,883.023 2326.37,883.398 2326.38,883.763 2326.38,884.119 2326.39,884.466 2326.4,884.806 2326.41,885.138 2326.42,885.463 2326.42,885.781 2326.43,886.092 2326.44,886.397 2326.45,886.696 2326.46,886.988 2326.46,887.275 2326.47,887.557 2326.48,887.833 2326.49,888.104 2326.5,888.371 2326.51,888.632 2326.52,888.889 2326.52,889.142 2326.53,889.39 2326.54,889.635 2326.55,889.875 2326.56,890.111 2326.57,890.344 2326.57,890.573 2326.58,890.799 2326.59,891.021 2326.6,891.24 2326.62,891.456 2326.63,891.669 2326.64,891.878 2326.65,892.085 2326.66,892.289 2326.66,892.49 2326.67,892.688 2326.68,892.884 2326.69,893.077 2326.7,893.268 2326.71,893.456 2326.71,893.642 2326.72,893.826 2326.73,894.007 2326.74,894.186 2326.75,894.363 2326.76,894.538 2326.77,894.711 2326.77,894.882 2326.78,895.051 2326.79,895.218 2326.8,895.383 2326.8,895.546 2326.81,895.708 2326.82,895.868 2326.83,896.026 2326.84,896.182 2326.85,896.337 2326.85,896.49 2326.86,896.642 2326.87,896.792 2326.88,1399.28 2326.89,1399.28 "/>
<polyline clip-path="url(#clip635)" style="stroke:#e26f46; stroke-linecap:round; stroke-linejoin:round; stroke-width:5.2; stroke-opacity:1; fill:none" points="2236.71,839.121 2236.75,845.114 2236.77,849.366 2236.79,852.664 2236.81,855.358 2236.83,857.637 2236.85,859.61 2236.87,861.351 2236.88,862.908 2236.9,864.317 2236.92,865.603 2236.93,866.786 2236.96,867.881 2236.97,868.901 2236.99,869.855 2237,870.751 2237.02,871.596 2237.05,872.395 2237.06,873.153 2237.08,873.874 2237.09,874.562 2237.11,875.219 2237.13,875.848 2237.14,876.451 2237.16,877.031 2237.18,877.588 2237.19,878.126 2237.21,878.645 2237.23,879.146 2237.25,879.63 2237.26,880.1 2237.28,880.554 2237.3,880.996 2237.32,881.424 2237.34,881.84 2237.35,882.245 2237.38,882.639 2237.4,883.023 2237.42,883.398 2237.44,883.763 2237.46,884.119 2237.48,884.466 2237.5,884.806 2237.52,885.138 2237.53,885.463 2237.55,885.781 2237.57,886.092 2237.59,886.397 2237.6,886.696 2237.62,886.988 2237.64,887.275 2237.66,887.557 2237.68,887.833 2237.7,888.104 2237.72,888.371 2237.73,888.632 2237.75,888.889 2237.77,889.142 2237.79,889.39 2237.81,889.635 2237.83,889.875 2237.85,890.111 2237.87,890.344 2237.89,890.573 2237.91,890.799 2237.94,891.021 2237.95,891.24 2237.97,891.456 2237.99,891.669 2238.01,891.878 2238.03,892.085 2238.05,892.289 2238.07,892.49 2238.09,892.688 2238.13,892.884 2238.15,893.077 2238.18,893.268 2238.2,893.456 2238.22,893.642 2238.24,893.826 2238.26,894.007 2238.28,894.186 2238.3,894.363 2238.32,894.538 2238.34,894.711 2238.37,894.882 2238.39,895.051 2238.41,895.218 2238.44,895.383 2238.46,895.546 2238.48,895.708 2238.5,895.868 2238.52,896.026 2238.54,896.182 2238.57,896.337 2238.59,896.49 2238.61,896.642 2238.63,896.792 2238.65,1406.83 2238.68,1406.83 "/>
<polyline clip-path="url(#clip635)" style="stroke:#3da44d; stroke-linecap:round; stroke-linejoin:round; stroke-width:5.2; stroke-opacity:1; fill:none" points="1736.47,839.121 1737.88,845.114 1739.01,849.366 1739.81,852.664 1740.52,855.358 1741.16,857.637 1741.85,859.61 1742.53,861.351 1743.18,862.908 1743.81,864.317 1744.49,865.603 1745.15,866.786 1745.78,867.881 1746.4,868.901 1747,869.855 1747.67,870.751 1748.35,871.596 1748.97,872.395 1749.62,873.153 1750.25,873.874 1750.86,874.562 1751.5,875.219 1752.18,875.848 1752.81,876.451 1753.92,877.031 1754.61,877.588 1755.28,878.126 1755.9,878.645 1756.51,879.146 1757.13,879.63 1757.9,880.1 1758.6,880.554 1759.35,880.996 1759.97,881.424 1760.56,881.84 1761.2,882.245 1761.83,882.639 1762.44,883.023 1763.03,883.398 1763.65,883.763 1764.25,884.119 1764.86,884.466 1765.47,884.806 1766.08,885.138 1766.7,885.463 1767.28,885.781 1767.9,886.092 1768.5,886.397 1769.12,886.696 1769.7,886.988 1770.3,887.275 1770.9,887.557 1771.49,887.833 1772.07,888.104 1772.65,888.371 1773.26,888.632 1773.86,888.889 1774.49,889.142 1775.1,889.39 1775.71,889.635 1776.35,889.875 1776.98,890.111 1777.61,890.344 1778.23,890.573 1778.85,890.799 1779.73,891.021 1780.43,891.24 1781.05,891.456 1781.67,891.669 1782.27,891.878 1782.88,892.085 1783.5,892.289 1784.14,892.49 1784.74,892.688 1785.35,892.884 1785.97,893.077 1786.59,893.268 1787.23,893.456 1787.85,893.642 1788.49,893.826 1789.12,894.007 1789.74,894.186 1790.35,894.363 1790.96,894.538 1791.59,894.711 1792.62,894.882 1793.68,895.051 1794.74,895.218 1795.71,895.383 1796.72,895.546 1797.66,895.708 1798.64,895.868 1799.58,896.026 1800.74,896.182 1801.72,896.337 1802.71,896.49 1803.64,896.642 1804.53,896.792 1805.51,1404.55 1806.68,1399.28 "/>
<polyline clip-path="url(#clip635)" style="stroke:#c271d2; stroke-linecap:round; stroke-linejoin:round; stroke-width:5.2; stroke-opacity:1; fill:none" points="1464.63,839.121 1475.89,845.114 1485.11,849.366 1492.03,852.664 1498.99,855.358 1505.81,857.637 1511.69,859.61 1518.24,861.351 1523.38,862.908 1528.54,864.317 1533.57,865.603 1538.5,866.786 1543.27,867.881 1547.64,868.901 1551.77,869.855 1556.12,870.751 1560.14,871.596 1567.34,872.395 1571.28,873.153 1574.67,873.874 1578.49,874.562 1581.74,875.219 1585.35,875.848 1588.42,876.451 1591.28,877.031 1594.61,877.588 1597.35,878.126 1600.54,878.645 1603.21,879.146 1606.11,879.63 1608.69,880.1 1611.25,880.554 1613.9,880.996 1616.38,881.424 1618.91,881.84 1621.24,882.245 1623.49,882.639 1625.74,883.023 1628,883.398 1630.25,883.763 1632.4,884.119 1634.38,884.466 1636.43,884.806 1638.55,885.138 1640.54,885.463 1642.57,885.781 1644.39,886.092 1646.42,886.397 1648.25,886.696 1650.19,886.988 1651.85,887.275 1653.56,887.557 1655.42,887.833 1657.09,888.104 1659.63,888.371 1661.26,888.632 1663.12,888.889 1664.73,889.142 1666.37,889.39 1668.01,889.635 1669.49,889.875 1671.04,890.111 1672.56,890.344 1674.15,890.573 1675.89,890.799 1677.34,891.021 1678.79,891.24 1680.34,891.456 1681.66,891.669 1683.16,891.878 1684.55,892.085 1685.84,892.289 1687.3,892.49 1688.59,892.688 1690.09,892.884 1691.32,893.077 1692.64,893.268 1693.97,893.456 1695.15,893.642 1696.55,893.826 1697.73,894.007 1698.96,894.186 1700.19,894.363 1701.39,894.538 1702.62,894.711 1703.75,894.882 1704.86,895.051 1706.04,895.218 1707.17,895.383 1708.34,895.546 1709.83,895.708 1710.92,895.868 1712.21,896.026 1713.22,896.182 1714.37,896.337 1715.39,896.49 1716.38,896.642 1717.55,896.792 1718.51,1399.28 1719.74,1399.28 "/>
</svg>
