<?xml version="1.0" encoding="utf-8"?>
<svg xmlns="http://www.w3.org/2000/svg" xmlns:xlink="http://www.w3.org/1999/xlink" width="600" height="400" viewBox="0 0 2400 1600">
<defs>
  <clipPath id="clip040">
    <rect x="0" y="0" width="2400" height="1600"/>
  </clipPath>
</defs>
<path clip-path="url(#clip040)" d="M0 1600 L2400 1600 L2400 0 L0 0  Z" fill="#ffffff" fill-rule="evenodd" fill-opacity="1"/>
<defs>
  <clipPath id="clip041">
    <rect x="480" y="0" width="1681" height="1600"/>
  </clipPath>
</defs>
<path clip-path="url(#clip040)" d="M269.501 661.294 L1177.91 661.294 L1177.91 47.2441 L269.501 47.2441  Z" fill="#ffffff" fill-rule="evenodd" fill-opacity="1"/>
<defs>
  <clipPath id="clip042">
    <rect x="269" y="47" width="909" height="615"/>
  </clipPath>
</defs>
<polyline clip-path="url(#clip042)" style="stroke:#000000; stroke-linecap:round; stroke-linejoin:round; stroke-width:2; stroke-opacity:0.1; fill:none" points="404.035,661.294 404.035,47.2441 "/>
<polyline clip-path="url(#clip042)" style="stroke:#000000; stroke-linecap:round; stroke-linejoin:round; stroke-width:2; stroke-opacity:0.1; fill:none" points="540.065,661.294 540.065,47.2441 "/>
<polyline clip-path="url(#clip042)" style="stroke:#000000; stroke-linecap:round; stroke-linejoin:round; stroke-width:2; stroke-opacity:0.1; fill:none" points="676.095,661.294 676.095,47.2441 "/>
<polyline clip-path="url(#clip042)" style="stroke:#000000; stroke-linecap:round; stroke-linejoin:round; stroke-width:2; stroke-opacity:0.1; fill:none" points="812.125,661.294 812.125,47.2441 "/>
<polyline clip-path="url(#clip042)" style="stroke:#000000; stroke-linecap:round; stroke-linejoin:round; stroke-width:2; stroke-opacity:0.1; fill:none" points="948.155,661.294 948.155,47.2441 "/>
<polyline clip-path="url(#clip042)" style="stroke:#000000; stroke-linecap:round; stroke-linejoin:round; stroke-width:2; stroke-opacity:0.1; fill:none" points="1084.19,661.294 1084.19,47.2441 "/>
<polyline clip-path="url(#clip042)" style="stroke:#000000; stroke-linecap:round; stroke-linejoin:round; stroke-width:2; stroke-opacity:0.1; fill:none" points="269.501,460.866 1177.91,460.866 "/>
<polyline clip-path="url(#clip042)" style="stroke:#000000; stroke-linecap:round; stroke-linejoin:round; stroke-width:2; stroke-opacity:0.1; fill:none" points="269.501,230.822 1177.91,230.822 "/>
<polyline clip-path="url(#clip040)" style="stroke:#000000; stroke-linecap:round; stroke-linejoin:round; stroke-width:4; stroke-opacity:1; fill:none" points="269.501,661.294 1177.91,661.294 "/>
<polyline clip-path="url(#clip040)" style="stroke:#000000; stroke-linecap:round; stroke-linejoin:round; stroke-width:4; stroke-opacity:1; fill:none" points="404.035,661.294 404.035,642.396 "/>
<polyline clip-path="url(#clip040)" style="stroke:#000000; stroke-linecap:round; stroke-linejoin:round; stroke-width:4; stroke-opacity:1; fill:none" points="540.065,661.294 540.065,642.396 "/>
<polyline clip-path="url(#clip040)" style="stroke:#000000; stroke-linecap:round; stroke-linejoin:round; stroke-width:4; stroke-opacity:1; fill:none" points="676.095,661.294 676.095,642.396 "/>
<polyline clip-path="url(#clip040)" style="stroke:#000000; stroke-linecap:round; stroke-linejoin:round; stroke-width:4; stroke-opacity:1; fill:none" points="812.125,661.294 812.125,642.396 "/>
<polyline clip-path="url(#clip040)" style="stroke:#000000; stroke-linecap:round; stroke-linejoin:round; stroke-width:4; stroke-opacity:1; fill:none" points="948.155,661.294 948.155,642.396 "/>
<polyline clip-path="url(#clip040)" style="stroke:#000000; stroke-linecap:round; stroke-linejoin:round; stroke-width:4; stroke-opacity:1; fill:none" points="1084.19,661.294 1084.19,642.396 "/>
<path clip-path="url(#clip040)" d="M378.723 719.759 L386.362 719.759 L386.362 693.393 L378.051 695.06 L378.051 690.801 L386.315 689.134 L390.991 689.134 L390.991 719.759 L398.63 719.759 L398.63 723.694 L378.723 723.694 L378.723 719.759 Z" fill="#000000" fill-rule="nonzero" fill-opacity="1" /><path clip-path="url(#clip040)" d="M418.074 692.213 Q414.463 692.213 412.635 695.777 Q410.829 699.319 410.829 706.449 Q410.829 713.555 412.635 717.12 Q414.463 720.661 418.074 720.661 Q421.709 720.661 423.514 717.12 Q425.343 713.555 425.343 706.449 Q425.343 699.319 423.514 695.777 Q421.709 692.213 418.074 692.213 M418.074 688.509 Q423.885 688.509 426.94 693.115 Q430.019 697.699 430.019 706.449 Q430.019 715.175 426.94 719.782 Q423.885 724.365 418.074 724.365 Q412.264 724.365 409.186 719.782 Q406.13 715.175 406.13 706.449 Q406.13 697.699 409.186 693.115 Q412.264 688.509 418.074 688.509 Z" fill="#000000" fill-rule="nonzero" fill-opacity="1" /><path clip-path="url(#clip040)" d="M518.838 719.759 L535.158 719.759 L535.158 723.694 L513.213 723.694 L513.213 719.759 Q515.875 717.004 520.459 712.374 Q525.065 707.722 526.246 706.379 Q528.491 703.856 529.371 702.12 Q530.274 700.361 530.274 698.671 Q530.274 695.916 528.329 694.18 Q526.408 692.444 523.306 692.444 Q521.107 692.444 518.653 693.208 Q516.223 693.972 513.445 695.523 L513.445 690.801 Q516.269 689.666 518.723 689.088 Q521.176 688.509 523.213 688.509 Q528.584 688.509 531.778 691.194 Q534.973 693.879 534.973 698.37 Q534.973 700.5 534.162 702.421 Q533.375 704.319 531.269 706.912 Q530.69 707.583 527.588 710.8 Q524.487 713.995 518.838 719.759 Z" fill="#000000" fill-rule="nonzero" fill-opacity="1" /><path clip-path="url(#clip040)" d="M554.972 692.213 Q551.361 692.213 549.533 695.777 Q547.727 699.319 547.727 706.449 Q547.727 713.555 549.533 717.12 Q551.361 720.661 554.972 720.661 Q558.607 720.661 560.412 717.12 Q562.241 713.555 562.241 706.449 Q562.241 699.319 560.412 695.777 Q558.607 692.213 554.972 692.213 M554.972 688.509 Q560.783 688.509 563.838 693.115 Q566.917 697.699 566.917 706.449 Q566.917 715.175 563.838 719.782 Q560.783 724.365 554.972 724.365 Q549.162 724.365 546.084 719.782 Q543.028 715.175 543.028 706.449 Q543.028 697.699 546.084 693.115 Q549.162 688.509 554.972 688.509 Z" fill="#000000" fill-rule="nonzero" fill-opacity="1" /><path clip-path="url(#clip040)" d="M664.938 705.06 Q668.294 705.777 670.169 708.046 Q672.067 710.314 672.067 713.648 Q672.067 718.763 668.549 721.564 Q665.03 724.365 658.549 724.365 Q656.373 724.365 654.058 723.925 Q651.767 723.509 649.313 722.652 L649.313 718.138 Q651.257 719.273 653.572 719.851 Q655.887 720.43 658.41 720.43 Q662.808 720.43 665.1 718.694 Q667.415 716.958 667.415 713.648 Q667.415 710.592 665.262 708.879 Q663.132 707.143 659.313 707.143 L655.285 707.143 L655.285 703.3 L659.498 703.3 Q662.947 703.3 664.776 701.935 Q666.604 700.546 666.604 697.953 Q666.604 695.291 664.706 693.879 Q662.831 692.444 659.313 692.444 Q657.392 692.444 655.192 692.861 Q652.993 693.277 650.355 694.157 L650.355 689.99 Q653.017 689.25 655.331 688.879 Q657.669 688.509 659.73 688.509 Q665.054 688.509 668.155 690.939 Q671.257 693.347 671.257 697.467 Q671.257 700.338 669.614 702.328 Q667.97 704.296 664.938 705.06 Z" fill="#000000" fill-rule="nonzero" fill-opacity="1" /><path clip-path="url(#clip040)" d="M690.933 692.213 Q687.322 692.213 685.493 695.777 Q683.688 699.319 683.688 706.449 Q683.688 713.555 685.493 717.12 Q687.322 720.661 690.933 720.661 Q694.567 720.661 696.373 717.12 Q698.202 713.555 698.202 706.449 Q698.202 699.319 696.373 695.777 Q694.567 692.213 690.933 692.213 M690.933 688.509 Q696.743 688.509 699.799 693.115 Q702.877 697.699 702.877 706.449 Q702.877 715.175 699.799 719.782 Q696.743 724.365 690.933 724.365 Q685.123 724.365 682.044 719.782 Q678.989 715.175 678.989 706.449 Q678.989 697.699 682.044 693.115 Q685.123 688.509 690.933 688.509 Z" fill="#000000" fill-rule="nonzero" fill-opacity="1" /><path clip-path="url(#clip040)" d="M800.297 693.208 L788.491 711.657 L800.297 711.657 L800.297 693.208 M799.07 689.134 L804.949 689.134 L804.949 711.657 L809.88 711.657 L809.88 715.546 L804.949 715.546 L804.949 723.694 L800.297 723.694 L800.297 715.546 L784.695 715.546 L784.695 711.032 L799.07 689.134 Z" fill="#000000" fill-rule="nonzero" fill-opacity="1" /><path clip-path="url(#clip040)" d="M827.611 692.213 Q824 692.213 822.171 695.777 Q820.366 699.319 820.366 706.449 Q820.366 713.555 822.171 717.12 Q824 720.661 827.611 720.661 Q831.245 720.661 833.051 717.12 Q834.88 713.555 834.88 706.449 Q834.88 699.319 833.051 695.777 Q831.245 692.213 827.611 692.213 M827.611 688.509 Q833.421 688.509 836.477 693.115 Q839.556 697.699 839.556 706.449 Q839.556 715.175 836.477 719.782 Q833.421 724.365 827.611 724.365 Q821.801 724.365 818.722 719.782 Q815.667 715.175 815.667 706.449 Q815.667 697.699 818.722 693.115 Q821.801 688.509 827.611 688.509 Z" fill="#000000" fill-rule="nonzero" fill-opacity="1" /><path clip-path="url(#clip040)" d="M922.854 689.134 L941.211 689.134 L941.211 693.069 L927.137 693.069 L927.137 701.541 Q928.155 701.194 929.174 701.032 Q930.192 700.847 931.211 700.847 Q936.998 700.847 940.377 704.018 Q943.757 707.189 943.757 712.606 Q943.757 718.185 940.285 721.286 Q936.813 724.365 930.493 724.365 Q928.317 724.365 926.049 723.995 Q923.803 723.624 921.396 722.884 L921.396 718.185 Q923.479 719.319 925.702 719.874 Q927.924 720.43 930.401 720.43 Q934.405 720.43 936.743 718.324 Q939.081 716.217 939.081 712.606 Q939.081 708.995 936.743 706.888 Q934.405 704.782 930.401 704.782 Q928.526 704.782 926.651 705.199 Q924.799 705.615 922.854 706.495 L922.854 689.134 Z" fill="#000000" fill-rule="nonzero" fill-opacity="1" /><path clip-path="url(#clip040)" d="M962.97 692.213 Q959.359 692.213 957.53 695.777 Q955.725 699.319 955.725 706.449 Q955.725 713.555 957.53 717.12 Q959.359 720.661 962.97 720.661 Q966.604 720.661 968.41 717.12 Q970.238 713.555 970.238 706.449 Q970.238 699.319 968.41 695.777 Q966.604 692.213 962.97 692.213 M962.97 688.509 Q968.78 688.509 971.836 693.115 Q974.914 697.699 974.914 706.449 Q974.914 715.175 971.836 719.782 Q968.78 724.365 962.97 724.365 Q957.16 724.365 954.081 719.782 Q951.026 715.175 951.026 706.449 Q951.026 697.699 954.081 693.115 Q957.16 688.509 962.97 688.509 Z" fill="#000000" fill-rule="nonzero" fill-opacity="1" /><path clip-path="url(#clip040)" d="M1069.59 704.55 Q1066.44 704.55 1064.59 706.703 Q1062.76 708.856 1062.76 712.606 Q1062.76 716.333 1064.59 718.509 Q1066.44 720.661 1069.59 720.661 Q1072.74 720.661 1074.57 718.509 Q1076.42 716.333 1076.42 712.606 Q1076.42 708.856 1074.57 706.703 Q1072.74 704.55 1069.59 704.55 M1078.87 689.898 L1078.87 694.157 Q1077.11 693.324 1075.31 692.884 Q1073.53 692.444 1071.77 692.444 Q1067.14 692.444 1064.68 695.569 Q1062.25 698.694 1061.91 705.013 Q1063.27 703 1065.33 701.935 Q1067.39 700.847 1069.87 700.847 Q1075.08 700.847 1078.09 704.018 Q1081.12 707.166 1081.12 712.606 Q1081.12 717.93 1077.97 721.148 Q1074.82 724.365 1069.59 724.365 Q1063.6 724.365 1060.42 719.782 Q1057.25 715.175 1057.25 706.449 Q1057.25 698.254 1061.14 693.393 Q1065.03 688.509 1071.58 688.509 Q1073.34 688.509 1075.12 688.856 Q1076.93 689.203 1078.87 689.898 Z" fill="#000000" fill-rule="nonzero" fill-opacity="1" /><path clip-path="url(#clip040)" d="M1099.17 692.213 Q1095.56 692.213 1093.73 695.777 Q1091.93 699.319 1091.93 706.449 Q1091.93 713.555 1093.73 717.12 Q1095.56 720.661 1099.17 720.661 Q1102.81 720.661 1104.61 717.12 Q1106.44 713.555 1106.44 706.449 Q1106.44 699.319 1104.61 695.777 Q1102.81 692.213 1099.17 692.213 M1099.17 688.509 Q1104.98 688.509 1108.04 693.115 Q1111.12 697.699 1111.12 706.449 Q1111.12 715.175 1108.04 719.782 Q1104.98 724.365 1099.17 724.365 Q1093.36 724.365 1090.28 719.782 Q1087.23 715.175 1087.23 706.449 Q1087.23 697.699 1090.28 693.115 Q1093.36 688.509 1099.17 688.509 Z" fill="#000000" fill-rule="nonzero" fill-opacity="1" /><polyline clip-path="url(#clip040)" style="stroke:#000000; stroke-linecap:round; stroke-linejoin:round; stroke-width:4; stroke-opacity:1; fill:none" points="269.501,661.294 269.501,47.2441 "/>
<polyline clip-path="url(#clip040)" style="stroke:#000000; stroke-linecap:round; stroke-linejoin:round; stroke-width:4; stroke-opacity:1; fill:none" points="269.501,460.866 288.399,460.866 "/>
<polyline clip-path="url(#clip040)" style="stroke:#000000; stroke-linecap:round; stroke-linejoin:round; stroke-width:4; stroke-opacity:1; fill:none" points="269.501,230.822 288.399,230.822 "/>
<path clip-path="url(#clip040)" d="M101.971 480.658 L109.61 480.658 L109.61 454.292 L101.3 455.959 L101.3 451.7 L109.564 450.033 L114.24 450.033 L114.24 480.658 L121.879 480.658 L121.879 484.593 L101.971 484.593 L101.971 480.658 Z" fill="#000000" fill-rule="nonzero" fill-opacity="1" /><path clip-path="url(#clip040)" d="M141.323 453.112 Q137.712 453.112 135.883 456.677 Q134.078 460.218 134.078 467.348 Q134.078 474.454 135.883 478.019 Q137.712 481.561 141.323 481.561 Q144.957 481.561 146.763 478.019 Q148.592 474.454 148.592 467.348 Q148.592 460.218 146.763 456.677 Q144.957 453.112 141.323 453.112 M141.323 449.408 Q147.133 449.408 150.189 454.015 Q153.267 458.598 153.267 467.348 Q153.267 476.075 150.189 480.681 Q147.133 485.264 141.323 485.264 Q135.513 485.264 132.434 480.681 Q129.379 476.075 129.379 467.348 Q129.379 458.598 132.434 454.015 Q135.513 449.408 141.323 449.408 Z" fill="#000000" fill-rule="nonzero" fill-opacity="1" /><path clip-path="url(#clip040)" d="M154.452 429.103 L169.367 429.103 L169.367 432.3 L157.932 432.3 L157.932 439.184 Q158.759 438.902 159.587 438.77 Q160.414 438.62 161.242 438.62 Q165.944 438.62 168.69 441.196 Q171.436 443.773 171.436 448.174 Q171.436 452.707 168.615 455.227 Q165.793 457.728 160.659 457.728 Q158.891 457.728 157.048 457.427 Q155.223 457.126 153.267 456.524 L153.267 452.707 Q154.96 453.628 156.766 454.079 Q158.571 454.531 160.584 454.531 Q163.837 454.531 165.737 452.819 Q167.637 451.108 167.637 448.174 Q167.637 445.24 165.737 443.528 Q163.837 441.817 160.584 441.817 Q159.06 441.817 157.537 442.155 Q156.032 442.494 154.452 443.209 L154.452 429.103 Z" fill="#000000" fill-rule="nonzero" fill-opacity="1" /><path clip-path="url(#clip040)" d="M178.921 452.406 L182.89 452.406 L182.89 457.183 L178.921 457.183 L178.921 452.406 Z" fill="#000000" fill-rule="nonzero" fill-opacity="1" /><path clip-path="url(#clip040)" d="M199.29 431.604 Q196.356 431.604 194.87 434.501 Q193.403 437.378 193.403 443.171 Q193.403 448.945 194.87 451.841 Q196.356 454.719 199.29 454.719 Q202.243 454.719 203.71 451.841 Q205.196 448.945 205.196 443.171 Q205.196 437.378 203.71 434.501 Q202.243 431.604 199.29 431.604 M199.29 428.595 Q204.011 428.595 206.493 432.338 Q208.995 436.062 208.995 443.171 Q208.995 450.262 206.493 454.004 Q204.011 457.728 199.29 457.728 Q194.569 457.728 192.068 454.004 Q189.585 450.262 189.585 443.171 Q189.585 436.062 192.068 432.338 Q194.569 428.595 199.29 428.595 Z" fill="#000000" fill-rule="nonzero" fill-opacity="1" /><path clip-path="url(#clip040)" d="M223.797 431.604 Q220.863 431.604 219.377 434.501 Q217.91 437.378 217.91 443.171 Q217.91 448.945 219.377 451.841 Q220.863 454.719 223.797 454.719 Q226.749 454.719 228.216 451.841 Q229.702 448.945 229.702 443.171 Q229.702 437.378 228.216 434.501 Q226.749 431.604 223.797 431.604 M223.797 428.595 Q228.517 428.595 231 432.338 Q233.501 436.062 233.501 443.171 Q233.501 450.262 231 454.004 Q228.517 457.728 223.797 457.728 Q219.076 457.728 216.574 454.004 Q214.092 450.262 214.092 443.171 Q214.092 436.062 216.574 432.338 Q219.076 428.595 223.797 428.595 Z" fill="#000000" fill-rule="nonzero" fill-opacity="1" /><path clip-path="url(#clip040)" d="M102.78 250.614 L110.419 250.614 L110.419 224.248 L102.109 225.915 L102.109 221.656 L110.373 219.989 L115.049 219.989 L115.049 250.614 L122.687 250.614 L122.687 254.549 L102.78 254.549 L102.78 250.614 Z" fill="#000000" fill-rule="nonzero" fill-opacity="1" /><path clip-path="url(#clip040)" d="M142.132 223.068 Q138.521 223.068 136.692 226.633 Q134.886 230.174 134.886 237.304 Q134.886 244.41 136.692 247.975 Q138.521 251.517 142.132 251.517 Q145.766 251.517 147.572 247.975 Q149.4 244.41 149.4 237.304 Q149.4 230.174 147.572 226.633 Q145.766 223.068 142.132 223.068 M142.132 219.364 Q147.942 219.364 150.998 223.971 Q154.076 228.554 154.076 237.304 Q154.076 246.031 150.998 250.637 Q147.942 255.22 142.132 255.22 Q136.322 255.22 133.243 250.637 Q130.187 246.031 130.187 237.304 Q130.187 228.554 133.243 223.971 Q136.322 219.364 142.132 219.364 Z" fill="#000000" fill-rule="nonzero" fill-opacity="1" /><path clip-path="url(#clip040)" d="M155.261 199.059 L170.176 199.059 L170.176 202.256 L158.741 202.256 L158.741 209.14 Q159.568 208.858 160.396 208.726 Q161.223 208.575 162.051 208.575 Q166.753 208.575 169.499 211.152 Q172.245 213.729 172.245 218.13 Q172.245 222.663 169.423 225.183 Q166.602 227.684 161.468 227.684 Q159.7 227.684 157.857 227.383 Q156.032 227.082 154.076 226.48 L154.076 222.663 Q155.769 223.584 157.574 224.035 Q159.38 224.487 161.392 224.487 Q164.646 224.487 166.546 222.775 Q168.445 221.064 168.445 218.13 Q168.445 215.196 166.546 213.484 Q164.646 211.773 161.392 211.773 Q159.869 211.773 158.346 212.111 Q156.841 212.45 155.261 213.165 L155.261 199.059 Z" fill="#000000" fill-rule="nonzero" fill-opacity="1" /><path clip-path="url(#clip040)" d="M179.73 222.362 L183.698 222.362 L183.698 227.139 L179.73 227.139 L179.73 222.362 Z" fill="#000000" fill-rule="nonzero" fill-opacity="1" /><path clip-path="url(#clip040)" d="M195.246 223.941 L208.506 223.941 L208.506 227.139 L190.676 227.139 L190.676 223.941 Q192.839 221.703 196.563 217.942 Q200.306 214.161 201.265 213.071 Q203.089 211.021 203.804 209.61 Q204.537 208.181 204.537 206.808 Q204.537 204.569 202.958 203.159 Q201.397 201.748 198.876 201.748 Q197.09 201.748 195.096 202.369 Q193.121 202.99 190.864 204.25 L190.864 200.413 Q193.159 199.491 195.152 199.021 Q197.146 198.551 198.801 198.551 Q203.164 198.551 205.76 200.733 Q208.355 202.914 208.355 206.563 Q208.355 208.293 207.697 209.854 Q207.058 211.397 205.346 213.503 Q204.876 214.049 202.356 216.663 Q199.836 219.258 195.246 223.941 Z" fill="#000000" fill-rule="nonzero" fill-opacity="1" /><path clip-path="url(#clip040)" d="M216.518 199.059 L231.433 199.059 L231.433 202.256 L219.997 202.256 L219.997 209.14 Q220.825 208.858 221.653 208.726 Q222.48 208.575 223.308 208.575 Q228.01 208.575 230.755 211.152 Q233.501 213.729 233.501 218.13 Q233.501 222.663 230.68 225.183 Q227.859 227.684 222.725 227.684 Q220.957 227.684 219.113 227.383 Q217.289 227.082 215.333 226.48 L215.333 222.663 Q217.026 223.584 218.831 224.035 Q220.637 224.487 222.649 224.487 Q225.903 224.487 227.803 222.775 Q229.702 221.064 229.702 218.13 Q229.702 215.196 227.803 213.484 Q225.903 211.773 222.649 211.773 Q221.126 211.773 219.602 212.111 Q218.098 212.45 216.518 213.165 L216.518 199.059 Z" fill="#000000" fill-rule="nonzero" fill-opacity="1" /><path clip-path="url(#clip040)" d="M24.2147 419.454 L37.2008 419.454 L37.2008 413.574 Q37.2008 410.31 35.511 408.528 Q33.8212 406.746 30.6962 406.746 Q27.5943 406.746 25.9045 408.528 Q24.2147 410.31 24.2147 413.574 L24.2147 419.454 M20.3722 424.13 L20.3722 413.574 Q20.3722 407.764 23.011 404.801 Q25.6268 401.815 30.6962 401.815 Q35.8119 401.815 38.4276 404.801 Q41.0433 407.764 41.0433 413.574 L41.0433 419.454 L54.9322 419.454 L54.9322 424.13 L20.3722 424.13 Z" fill="#000000" fill-rule="nonzero" fill-opacity="1" /><path clip-path="url(#clip040)" d="M32.9878 381.537 Q32.5712 382.255 32.386 383.111 Q32.1776 383.945 32.1776 384.963 Q32.1776 388.574 34.5387 390.519 Q36.8767 392.44 41.2748 392.44 L54.9322 392.44 L54.9322 396.722 L29.0064 396.722 L29.0064 392.44 L33.0341 392.44 Q30.673 391.097 29.5388 388.945 Q28.3814 386.792 28.3814 383.713 Q28.3814 383.273 28.4508 382.741 Q28.4971 382.209 28.6129 381.56 L32.9878 381.537 Z" fill="#000000" fill-rule="nonzero" fill-opacity="1" /><path clip-path="url(#clip040)" d="M29.0064 377.07 L29.0064 372.811 L54.9322 372.811 L54.9322 377.07 L29.0064 377.07 M18.9138 377.07 L18.9138 372.811 L24.3073 372.811 L24.3073 377.07 L18.9138 377.07 Z" fill="#000000" fill-rule="nonzero" fill-opacity="1" /><path clip-path="url(#clip040)" d="M33.9832 343.713 Q31.1128 342.116 29.7471 339.894 Q28.3814 337.672 28.3814 334.663 Q28.3814 330.612 31.2286 328.413 Q34.0526 326.214 39.2841 326.214 L54.9322 326.214 L54.9322 330.496 L39.423 330.496 Q35.6961 330.496 33.8906 331.815 Q32.0851 333.135 32.0851 335.843 Q32.0851 339.153 34.2841 341.075 Q36.4832 342.996 40.2795 342.996 L54.9322 342.996 L54.9322 347.278 L39.423 347.278 Q35.673 347.278 33.8906 348.598 Q32.0851 349.917 32.0851 352.672 Q32.0851 355.936 34.3073 357.857 Q36.5063 359.778 40.2795 359.778 L54.9322 359.778 L54.9322 364.061 L29.0064 364.061 L29.0064 359.778 L33.0341 359.778 Q30.6499 358.32 29.5156 356.283 Q28.3814 354.246 28.3814 351.445 Q28.3814 348.621 29.8166 346.653 Q31.2517 344.663 33.9832 343.713 Z" fill="#000000" fill-rule="nonzero" fill-opacity="1" /><path clip-path="url(#clip040)" d="M41.8998 305.936 Q41.8998 311.098 43.0804 313.089 Q44.2609 315.079 47.1081 315.079 Q49.3766 315.079 50.7192 313.598 Q52.0387 312.093 52.0387 309.524 Q52.0387 305.982 49.5387 303.853 Q47.0155 301.7 42.8489 301.7 L41.8998 301.7 L41.8998 305.936 M40.1406 297.441 L54.9322 297.441 L54.9322 301.7 L50.997 301.7 Q53.3581 303.158 54.4923 305.334 Q55.6035 307.51 55.6035 310.658 Q55.6035 314.64 53.3812 317.001 Q51.1359 319.339 47.3859 319.339 Q43.0109 319.339 40.7887 316.422 Q38.5665 313.482 38.5665 307.672 L38.5665 301.7 L38.1498 301.7 Q35.21 301.7 33.6128 303.644 Q31.9925 305.566 31.9925 309.061 Q31.9925 311.283 32.5249 313.39 Q33.0573 315.496 34.1221 317.44 L30.1869 317.44 Q29.2841 315.103 28.8443 312.903 Q28.3814 310.704 28.3814 308.621 Q28.3814 302.996 31.298 300.218 Q34.2147 297.441 40.1406 297.441 Z" fill="#000000" fill-rule="nonzero" fill-opacity="1" /><path clip-path="url(#clip040)" d="M18.9138 288.667 L18.9138 284.408 L54.9322 284.408 L54.9322 288.667 L18.9138 288.667 Z" fill="#000000" fill-rule="nonzero" fill-opacity="1" /><line clip-path="url(#clip042)" x1="295.211" y1="64.6229" x2="279.211" y2="48.6229" style="stroke:#e26f46; stroke-width:3.2; stroke-opacity:1"/>
<line clip-path="url(#clip042)" x1="295.211" y1="64.6229" x2="279.211" y2="80.6229" style="stroke:#e26f46; stroke-width:3.2; stroke-opacity:1"/>
<line clip-path="url(#clip042)" x1="295.211" y1="64.6229" x2="311.211" y2="80.6229" style="stroke:#e26f46; stroke-width:3.2; stroke-opacity:1"/>
<line clip-path="url(#clip042)" x1="295.211" y1="64.6229" x2="311.211" y2="48.6229" style="stroke:#e26f46; stroke-width:3.2; stroke-opacity:1"/>
<line clip-path="url(#clip042)" x1="390.432" y1="371.087" x2="374.432" y2="355.087" style="stroke:#e26f46; stroke-width:3.2; stroke-opacity:1"/>
<line clip-path="url(#clip042)" x1="390.432" y1="371.087" x2="374.432" y2="387.087" style="stroke:#e26f46; stroke-width:3.2; stroke-opacity:1"/>
<line clip-path="url(#clip042)" x1="390.432" y1="371.087" x2="406.432" y2="387.087" style="stroke:#e26f46; stroke-width:3.2; stroke-opacity:1"/>
<line clip-path="url(#clip042)" x1="390.432" y1="371.087" x2="406.432" y2="355.087" style="stroke:#e26f46; stroke-width:3.2; stroke-opacity:1"/>
<line clip-path="url(#clip042)" x1="485.653" y1="472.857" x2="469.653" y2="456.857" style="stroke:#e26f46; stroke-width:3.2; stroke-opacity:1"/>
<line clip-path="url(#clip042)" x1="485.653" y1="472.857" x2="469.653" y2="488.857" style="stroke:#e26f46; stroke-width:3.2; stroke-opacity:1"/>
<line clip-path="url(#clip042)" x1="485.653" y1="472.857" x2="501.653" y2="488.857" style="stroke:#e26f46; stroke-width:3.2; stroke-opacity:1"/>
<line clip-path="url(#clip042)" x1="485.653" y1="472.857" x2="501.653" y2="456.857" style="stroke:#e26f46; stroke-width:3.2; stroke-opacity:1"/>
<line clip-path="url(#clip042)" x1="580.874" y1="494.928" x2="564.874" y2="478.928" style="stroke:#e26f46; stroke-width:3.2; stroke-opacity:1"/>
<line clip-path="url(#clip042)" x1="580.874" y1="494.928" x2="564.874" y2="510.928" style="stroke:#e26f46; stroke-width:3.2; stroke-opacity:1"/>
<line clip-path="url(#clip042)" x1="580.874" y1="494.928" x2="596.874" y2="510.928" style="stroke:#e26f46; stroke-width:3.2; stroke-opacity:1"/>
<line clip-path="url(#clip042)" x1="580.874" y1="494.928" x2="596.874" y2="478.928" style="stroke:#e26f46; stroke-width:3.2; stroke-opacity:1"/>
<line clip-path="url(#clip042)" x1="676.095" y1="568.343" x2="660.095" y2="552.343" style="stroke:#e26f46; stroke-width:3.2; stroke-opacity:1"/>
<line clip-path="url(#clip042)" x1="676.095" y1="568.343" x2="660.095" y2="584.343" style="stroke:#e26f46; stroke-width:3.2; stroke-opacity:1"/>
<line clip-path="url(#clip042)" x1="676.095" y1="568.343" x2="692.095" y2="584.343" style="stroke:#e26f46; stroke-width:3.2; stroke-opacity:1"/>
<line clip-path="url(#clip042)" x1="676.095" y1="568.343" x2="692.095" y2="552.343" style="stroke:#e26f46; stroke-width:3.2; stroke-opacity:1"/>
<line clip-path="url(#clip042)" x1="771.316" y1="599.355" x2="755.316" y2="583.355" style="stroke:#e26f46; stroke-width:3.2; stroke-opacity:1"/>
<line clip-path="url(#clip042)" x1="771.316" y1="599.355" x2="755.316" y2="615.355" style="stroke:#e26f46; stroke-width:3.2; stroke-opacity:1"/>
<line clip-path="url(#clip042)" x1="771.316" y1="599.355" x2="787.316" y2="615.355" style="stroke:#e26f46; stroke-width:3.2; stroke-opacity:1"/>
<line clip-path="url(#clip042)" x1="771.316" y1="599.355" x2="787.316" y2="583.355" style="stroke:#e26f46; stroke-width:3.2; stroke-opacity:1"/>
<line clip-path="url(#clip042)" x1="866.537" y1="616.458" x2="850.537" y2="600.458" style="stroke:#e26f46; stroke-width:3.2; stroke-opacity:1"/>
<line clip-path="url(#clip042)" x1="866.537" y1="616.458" x2="850.537" y2="632.458" style="stroke:#e26f46; stroke-width:3.2; stroke-opacity:1"/>
<line clip-path="url(#clip042)" x1="866.537" y1="616.458" x2="882.537" y2="632.458" style="stroke:#e26f46; stroke-width:3.2; stroke-opacity:1"/>
<line clip-path="url(#clip042)" x1="866.537" y1="616.458" x2="882.537" y2="600.458" style="stroke:#e26f46; stroke-width:3.2; stroke-opacity:1"/>
<line clip-path="url(#clip042)" x1="961.758" y1="632.164" x2="945.758" y2="616.164" style="stroke:#e26f46; stroke-width:3.2; stroke-opacity:1"/>
<line clip-path="url(#clip042)" x1="961.758" y1="632.164" x2="945.758" y2="648.164" style="stroke:#e26f46; stroke-width:3.2; stroke-opacity:1"/>
<line clip-path="url(#clip042)" x1="961.758" y1="632.164" x2="977.758" y2="648.164" style="stroke:#e26f46; stroke-width:3.2; stroke-opacity:1"/>
<line clip-path="url(#clip042)" x1="961.758" y1="632.164" x2="977.758" y2="616.164" style="stroke:#e26f46; stroke-width:3.2; stroke-opacity:1"/>
<line clip-path="url(#clip042)" x1="1056.98" y1="642.464" x2="1040.98" y2="626.464" style="stroke:#e26f46; stroke-width:3.2; stroke-opacity:1"/>
<line clip-path="url(#clip042)" x1="1056.98" y1="642.464" x2="1040.98" y2="658.464" style="stroke:#e26f46; stroke-width:3.2; stroke-opacity:1"/>
<line clip-path="url(#clip042)" x1="1056.98" y1="642.464" x2="1072.98" y2="658.464" style="stroke:#e26f46; stroke-width:3.2; stroke-opacity:1"/>
<line clip-path="url(#clip042)" x1="1056.98" y1="642.464" x2="1072.98" y2="626.464" style="stroke:#e26f46; stroke-width:3.2; stroke-opacity:1"/>
<line clip-path="url(#clip042)" x1="1152.2" y1="643.915" x2="1136.2" y2="627.915" style="stroke:#e26f46; stroke-width:3.2; stroke-opacity:1"/>
<line clip-path="url(#clip042)" x1="1152.2" y1="643.915" x2="1136.2" y2="659.915" style="stroke:#e26f46; stroke-width:3.2; stroke-opacity:1"/>
<line clip-path="url(#clip042)" x1="1152.2" y1="643.915" x2="1168.2" y2="659.915" style="stroke:#e26f46; stroke-width:3.2; stroke-opacity:1"/>
<line clip-path="url(#clip042)" x1="1152.2" y1="643.915" x2="1168.2" y2="627.915" style="stroke:#e26f46; stroke-width:3.2; stroke-opacity:1"/>
<path clip-path="url(#clip042)" d="M295.211 80.6229 L283.899 75.9349 L279.211 64.6229 L283.899 53.3109 L295.211 48.6229 L306.523 53.3109 L311.211 64.6229 L306.523 75.9349 Z" fill="#009af9" fill-rule="evenodd" fill-opacity="1" stroke="#000000" stroke-opacity="1" stroke-width="3.2"/>
<path clip-path="url(#clip042)" d="M390.432 387.087 L379.12 382.399 L374.432 371.087 L379.12 359.775 L390.432 355.087 L401.744 359.775 L406.432 371.087 L401.744 382.399 Z" fill="#009af9" fill-rule="evenodd" fill-opacity="1" stroke="#000000" stroke-opacity="1" stroke-width="3.2"/>
<path clip-path="url(#clip042)" d="M485.653 488.857 L474.341 484.169 L469.653 472.857 L474.341 461.545 L485.653 456.857 L496.965 461.545 L501.653 472.857 L496.965 484.169 Z" fill="#009af9" fill-rule="evenodd" fill-opacity="1" stroke="#000000" stroke-opacity="1" stroke-width="3.2"/>
<path clip-path="url(#clip042)" d="M580.874 510.928 L569.562 506.24 L564.874 494.928 L569.562 483.616 L580.874 478.928 L592.186 483.616 L596.874 494.928 L592.186 506.24 Z" fill="#009af9" fill-rule="evenodd" fill-opacity="1" stroke="#000000" stroke-opacity="1" stroke-width="3.2"/>
<path clip-path="url(#clip042)" d="M676.095 584.343 L664.783 579.655 L660.095 568.343 L664.783 557.031 L676.095 552.343 L687.407 557.031 L692.095 568.343 L687.407 579.655 Z" fill="#009af9" fill-rule="evenodd" fill-opacity="1" stroke="#000000" stroke-opacity="1" stroke-width="3.2"/>
<path clip-path="url(#clip042)" d="M771.316 615.355 L760.004 610.667 L755.316 599.355 L760.004 588.043 L771.316 583.355 L782.628 588.043 L787.316 599.355 L782.628 610.667 Z" fill="#009af9" fill-rule="evenodd" fill-opacity="1" stroke="#000000" stroke-opacity="1" stroke-width="3.2"/>
<path clip-path="url(#clip042)" d="M866.537 632.458 L855.225 627.77 L850.537 616.458 L855.225 605.146 L866.537 600.458 L877.849 605.146 L882.537 616.458 L877.849 627.77 Z" fill="#009af9" fill-rule="evenodd" fill-opacity="1" stroke="#000000" stroke-opacity="1" stroke-width="3.2"/>
<path clip-path="url(#clip042)" d="M961.758 648.164 L950.446 643.476 L945.758 632.164 L950.446 620.852 L961.758 616.164 L973.07 620.852 L977.758 632.164 L973.07 643.476 Z" fill="#009af9" fill-rule="evenodd" fill-opacity="1" stroke="#000000" stroke-opacity="1" stroke-width="3.2"/>
<path clip-path="url(#clip042)" d="M1056.98 658.464 L1045.67 653.776 L1040.98 642.464 L1045.67 631.152 L1056.98 626.464 L1068.29 631.152 L1072.98 642.464 L1068.29 653.776 Z" fill="#009af9" fill-rule="evenodd" fill-opacity="1" stroke="#000000" stroke-opacity="1" stroke-width="3.2"/>
<path clip-path="url(#clip042)" d="M1152.2 659.915 L1140.89 655.227 L1136.2 643.915 L1140.89 632.603 L1152.2 627.915 L1163.51 632.603 L1168.2 643.915 L1163.51 655.227 Z" fill="#009af9" fill-rule="evenodd" fill-opacity="1" stroke="#000000" stroke-opacity="1" stroke-width="3.2"/>
<polyline clip-path="url(#clip042)" style="stroke:#009af9; stroke-linecap:round; stroke-linejoin:round; stroke-width:5.2; stroke-opacity:1; fill:none" points="295.211,64.6229 308.814,116.523 322.417,172.988 336.02,237.694 349.623,287.971 363.226,319.661 376.829,346.956 390.432,371.087 404.035,394.303 417.638,426.573 431.241,441.661 444.844,451.516 458.447,461.523 472.05,471.447 485.653,472.857 499.256,474.492 512.859,476.428 526.462,478.759 540.065,481.606 553.668,485.117 567.271,489.503 580.874,494.928 594.477,501.844 608.08,510.228 621.683,521.083 635.286,531.15 648.889,542.114 662.492,555.142 676.095,568.343 689.698,574.767 703.301,581.295 716.904,586.01 730.507,589.968 744.11,593.428 757.713,596.496 771.316,599.355 784.919,602.044 798.522,604.572 812.125,607.031 825.728,609.323 839.331,611.769 852.934,614.008 866.537,616.458 880.14,618.233 893.743,620.316 907.346,622.34 920.949,624.541 934.552,626.9 948.155,629.43 961.758,632.164 975.361,635.143 988.964,638.401 1002.57,640.688 1016.17,641.242 1029.77,641.614 1043.38,642.085 1056.98,642.464 1070.58,642.758 1084.19,643.031 1097.79,643.285 1111.39,643.52 1124.99,643.738 1138.6,643.915 1152.2,643.915 "/>
<polyline clip-path="url(#clip042)" style="stroke:#e26f46; stroke-linecap:round; stroke-linejoin:round; stroke-width:5.2; stroke-opacity:1; fill:none" points="295.211,64.6229 308.814,116.523 322.417,172.988 336.02,237.694 349.623,287.971 363.226,319.661 376.829,346.956 390.432,371.087 404.035,394.303 417.638,426.573 431.241,441.661 444.844,451.516 458.447,461.523 472.05,471.447 485.653,472.857 499.256,474.492 512.859,476.428 526.462,478.759 540.065,481.606 553.668,485.117 567.271,489.503 580.874,494.928 594.477,501.844 608.08,510.228 621.683,521.083 635.286,531.15 648.889,542.114 662.492,555.142 676.095,568.343 689.698,574.767 703.301,581.295 716.904,586.01 730.507,589.968 744.11,593.428 757.713,596.496 771.316,599.355 784.919,602.044 798.522,604.572 812.125,607.031 825.728,609.323 839.331,611.769 852.934,614.008 866.537,616.458 880.14,618.233 893.743,620.316 907.346,622.34 920.949,624.541 934.552,626.9 948.155,629.43 961.758,632.164 975.361,635.143 988.964,638.401 1002.57,640.688 1016.17,641.242 1029.77,641.614 1043.38,642.085 1056.98,642.464 1070.58,642.758 1084.19,643.031 1097.79,643.285 1111.39,643.52 1124.99,643.738 1138.6,643.915 1152.2,643.915 "/>
<path clip-path="url(#clip040)" d="M826.535 223.232 L1147.63 223.232 L1147.63 67.7124 L826.535 67.7124  Z" fill="#ffffff" fill-rule="evenodd" fill-opacity="1"/>
<polyline clip-path="url(#clip040)" style="stroke:#000000; stroke-linecap:round; stroke-linejoin:round; stroke-width:4; stroke-opacity:1; fill:none" points="826.535,223.232 1147.63,223.232 1147.63,67.7124 826.535,67.7124 826.535,223.232 "/>
<polyline clip-path="url(#clip040)" style="stroke:#009af9; stroke-linecap:round; stroke-linejoin:round; stroke-width:5.2; stroke-opacity:1; fill:none" points="836.629,119.552 897.189,119.552 "/>
<path clip-path="url(#clip040)" d="M866.909 128.898 L860.302 126.16 L857.563 119.552 L860.302 112.945 L866.909 110.207 L873.517 112.945 L876.255 119.552 L873.517 126.16 Z" fill="#009af9" fill-rule="evenodd" fill-opacity="1" stroke="#000000" stroke-opacity="1" stroke-width="4.55111"/>
<path clip-path="url(#clip040)" d="M911.959 106.115 L911.959 132.99 L917.607 132.99 Q924.76 132.99 928.07 129.749 Q931.403 126.508 931.403 119.518 Q931.403 112.573 928.07 109.356 Q924.76 106.115 917.607 106.115 L911.959 106.115 M907.283 102.272 L916.889 102.272 Q926.935 102.272 931.635 106.462 Q936.334 110.629 936.334 119.518 Q936.334 128.453 931.611 132.643 Q926.889 136.832 916.889 136.832 L907.283 136.832 L907.283 102.272 Z" fill="#000000" fill-rule="nonzero" fill-opacity="1" /><path clip-path="url(#clip040)" d="M969.667 104.934 L969.667 109.865 Q967.306 107.666 964.62 106.578 Q961.958 105.49 958.949 105.49 Q953.023 105.49 949.875 109.124 Q946.727 112.735 946.727 119.587 Q946.727 126.416 949.875 130.05 Q953.023 133.661 958.949 133.661 Q961.958 133.661 964.62 132.573 Q967.306 131.485 969.667 129.286 L969.667 134.17 Q967.213 135.837 964.458 136.67 Q961.727 137.504 958.671 137.504 Q950.824 137.504 946.31 132.712 Q941.797 127.897 941.797 119.587 Q941.797 111.254 946.31 106.462 Q950.824 101.647 958.671 101.647 Q961.773 101.647 964.505 102.481 Q967.259 103.291 969.667 104.934 Z" fill="#000000" fill-rule="nonzero" fill-opacity="1" /><path clip-path="url(#clip040)" d="M988.44 106.879 L982.097 124.078 L994.805 124.078 L988.44 106.879 M985.801 102.272 L991.102 102.272 L1004.27 136.832 L999.412 136.832 L996.264 127.967 L980.685 127.967 L977.537 136.832 L972.607 136.832 L985.801 102.272 Z" fill="#000000" fill-rule="nonzero" fill-opacity="1" /><path clip-path="url(#clip040)" d="M1005.94 121.948 L1018.42 121.948 L1018.42 125.745 L1005.94 125.745 L1005.94 121.948 Z" fill="#000000" fill-rule="nonzero" fill-opacity="1" /><path clip-path="url(#clip040)" d="M1025.38 102.272 L1045.25 102.272 L1045.25 106.208 L1030.06 106.208 L1030.06 116.393 L1043.76 116.393 L1043.76 120.328 L1030.06 120.328 L1030.06 136.832 L1025.38 136.832 L1025.38 102.272 Z" fill="#000000" fill-rule="nonzero" fill-opacity="1" /><path clip-path="url(#clip040)" d="M1049.57 102.272 L1054.3 102.272 L1061.56 131.485 L1068.81 102.272 L1074.06 102.272 L1081.33 131.485 L1088.58 102.272 L1093.32 102.272 L1084.64 136.832 L1078.76 136.832 L1071.47 106.833 L1064.11 136.832 L1058.23 136.832 L1049.57 102.272 Z" fill="#000000" fill-rule="nonzero" fill-opacity="1" /><polyline clip-path="url(#clip040)" style="stroke:#e26f46; stroke-linecap:round; stroke-linejoin:round; stroke-width:5.2; stroke-opacity:1; fill:none" points="836.629,171.392 897.189,171.392 "/>
<line clip-path="url(#clip040)" x1="866.909" y1="171.392" x2="857.563" y2="162.047" style="stroke:#e26f46; stroke-width:5.2; stroke-opacity:1"/>
<line clip-path="url(#clip040)" x1="866.909" y1="171.392" x2="857.563" y2="180.738" style="stroke:#e26f46; stroke-width:5.2; stroke-opacity:1"/>
<line clip-path="url(#clip040)" x1="866.909" y1="171.392" x2="876.255" y2="180.738" style="stroke:#e26f46; stroke-width:5.2; stroke-opacity:1"/>
<line clip-path="url(#clip040)" x1="866.909" y1="171.392" x2="876.255" y2="162.047" style="stroke:#e26f46; stroke-width:5.2; stroke-opacity:1"/>
<path clip-path="url(#clip040)" d="M911.959 157.955 L911.959 184.83 L917.607 184.83 Q924.76 184.83 928.07 181.589 Q931.403 178.348 931.403 171.358 Q931.403 164.413 928.07 161.196 Q924.76 157.955 917.607 157.955 L911.959 157.955 M907.283 154.112 L916.889 154.112 Q926.935 154.112 931.635 158.302 Q936.334 162.469 936.334 171.358 Q936.334 180.293 931.611 184.483 Q926.889 188.672 916.889 188.672 L907.283 188.672 L907.283 154.112 Z" fill="#000000" fill-rule="nonzero" fill-opacity="1" /><path clip-path="url(#clip040)" d="M969.667 156.774 L969.667 161.705 Q967.306 159.506 964.62 158.418 Q961.958 157.33 958.949 157.33 Q953.023 157.33 949.875 160.964 Q946.727 164.575 946.727 171.427 Q946.727 178.256 949.875 181.89 Q953.023 185.501 958.949 185.501 Q961.958 185.501 964.62 184.413 Q967.306 183.325 969.667 181.126 L969.667 186.01 Q967.213 187.677 964.458 188.51 Q961.727 189.344 958.671 189.344 Q950.824 189.344 946.31 184.552 Q941.797 179.737 941.797 171.427 Q941.797 163.094 946.31 158.302 Q950.824 153.487 958.671 153.487 Q961.773 153.487 964.505 154.321 Q967.259 155.131 969.667 156.774 Z" fill="#000000" fill-rule="nonzero" fill-opacity="1" /><path clip-path="url(#clip040)" d="M988.44 158.719 L982.097 175.918 L994.805 175.918 L988.44 158.719 M985.801 154.112 L991.102 154.112 L1004.27 188.672 L999.412 188.672 L996.264 179.807 L980.685 179.807 L977.537 188.672 L972.607 188.672 L985.801 154.112 Z" fill="#000000" fill-rule="nonzero" fill-opacity="1" /><path clip-path="url(#clip040)" d="M1005.94 173.788 L1018.42 173.788 L1018.42 177.585 L1005.94 177.585 L1005.94 173.788 Z" fill="#000000" fill-rule="nonzero" fill-opacity="1" /><path clip-path="url(#clip040)" d="M1025.38 154.112 L1045.25 154.112 L1045.25 158.048 L1030.06 158.048 L1030.06 168.233 L1043.76 168.233 L1043.76 172.168 L1030.06 172.168 L1030.06 188.672 L1025.38 188.672 L1025.38 154.112 Z" fill="#000000" fill-rule="nonzero" fill-opacity="1" /><path clip-path="url(#clip040)" d="M1049.57 154.112 L1054.3 154.112 L1061.56 183.325 L1068.81 154.112 L1074.06 154.112 L1081.33 183.325 L1088.58 154.112 L1093.32 154.112 L1084.64 188.672 L1078.76 188.672 L1071.47 158.673 L1064.11 188.672 L1058.23 188.672 L1049.57 154.112 Z" fill="#000000" fill-rule="nonzero" fill-opacity="1" /><path clip-path="url(#clip040)" d="M1095.27 173.788 L1107.74 173.788 L1107.74 177.585 L1095.27 177.585 L1095.27 173.788 Z" fill="#000000" fill-rule="nonzero" fill-opacity="1" /><path clip-path="url(#clip040)" d="M1117.7 172.168 L1117.7 184.83 L1125.2 184.83 Q1128.97 184.83 1130.78 183.279 Q1132.61 181.705 1132.61 178.487 Q1132.61 175.247 1130.78 173.719 Q1128.97 172.168 1125.2 172.168 L1117.7 172.168 M1117.7 157.955 L1117.7 168.372 L1124.62 168.372 Q1128.05 168.372 1129.71 167.098 Q1131.4 165.802 1131.4 163.163 Q1131.4 160.548 1129.71 159.251 Q1128.05 157.955 1124.62 157.955 L1117.7 157.955 M1113.02 154.112 L1124.97 154.112 Q1130.31 154.112 1133.21 156.335 Q1136.1 158.557 1136.1 162.654 Q1136.1 165.825 1134.62 167.7 Q1133.14 169.575 1130.27 170.038 Q1133.72 170.779 1135.61 173.14 Q1137.54 175.478 1137.54 178.997 Q1137.54 183.626 1134.39 186.149 Q1131.24 188.672 1125.43 188.672 L1113.02 188.672 L1113.02 154.112 Z" fill="#000000" fill-rule="nonzero" fill-opacity="1" /><path clip-path="url(#clip040)" d="M1444.35 661.294 L2352.76 661.294 L2352.76 47.2441 L1444.35 47.2441  Z" fill="#ffffff" fill-rule="evenodd" fill-opacity="1"/>
<defs>
  <clipPath id="clip043">
    <rect x="1444" y="47" width="909" height="615"/>
  </clipPath>
</defs>
<polyline clip-path="url(#clip043)" style="stroke:#000000; stroke-linecap:round; stroke-linejoin:round; stroke-width:2; stroke-opacity:0.1; fill:none" points="1467.64,661.294 1467.64,47.2441 "/>
<polyline clip-path="url(#clip043)" style="stroke:#000000; stroke-linecap:round; stroke-linejoin:round; stroke-width:2; stroke-opacity:0.1; fill:none" points="1674.82,661.294 1674.82,47.2441 "/>
<polyline clip-path="url(#clip043)" style="stroke:#000000; stroke-linecap:round; stroke-linejoin:round; stroke-width:2; stroke-opacity:0.1; fill:none" points="1882.01,661.294 1882.01,47.2441 "/>
<polyline clip-path="url(#clip043)" style="stroke:#000000; stroke-linecap:round; stroke-linejoin:round; stroke-width:2; stroke-opacity:0.1; fill:none" points="2089.2,661.294 2089.2,47.2441 "/>
<polyline clip-path="url(#clip043)" style="stroke:#000000; stroke-linecap:round; stroke-linejoin:round; stroke-width:2; stroke-opacity:0.1; fill:none" points="2296.39,661.294 2296.39,47.2441 "/>
<polyline clip-path="url(#clip043)" style="stroke:#000000; stroke-linecap:round; stroke-linejoin:round; stroke-width:2; stroke-opacity:0.1; fill:none" points="1444.35,460.866 2352.76,460.866 "/>
<polyline clip-path="url(#clip043)" style="stroke:#000000; stroke-linecap:round; stroke-linejoin:round; stroke-width:2; stroke-opacity:0.1; fill:none" points="1444.35,230.822 2352.76,230.822 "/>
<polyline clip-path="url(#clip040)" style="stroke:#000000; stroke-linecap:round; stroke-linejoin:round; stroke-width:4; stroke-opacity:1; fill:none" points="1444.35,661.294 2352.76,661.294 "/>
<polyline clip-path="url(#clip040)" style="stroke:#000000; stroke-linecap:round; stroke-linejoin:round; stroke-width:4; stroke-opacity:1; fill:none" points="1467.64,661.294 1467.64,642.396 "/>
<polyline clip-path="url(#clip040)" style="stroke:#000000; stroke-linecap:round; stroke-linejoin:round; stroke-width:4; stroke-opacity:1; fill:none" points="1674.82,661.294 1674.82,642.396 "/>
<polyline clip-path="url(#clip040)" style="stroke:#000000; stroke-linecap:round; stroke-linejoin:round; stroke-width:4; stroke-opacity:1; fill:none" points="1882.01,661.294 1882.01,642.396 "/>
<polyline clip-path="url(#clip040)" style="stroke:#000000; stroke-linecap:round; stroke-linejoin:round; stroke-width:4; stroke-opacity:1; fill:none" points="2089.2,661.294 2089.2,642.396 "/>
<polyline clip-path="url(#clip040)" style="stroke:#000000; stroke-linecap:round; stroke-linejoin:round; stroke-width:4; stroke-opacity:1; fill:none" points="2296.39,661.294 2296.39,642.396 "/>
<path clip-path="url(#clip040)" d="M1445.02 692.213 Q1441.41 692.213 1439.58 695.777 Q1437.78 699.319 1437.78 706.449 Q1437.78 713.555 1439.58 717.12 Q1441.41 720.661 1445.02 720.661 Q1448.66 720.661 1450.46 717.12 Q1452.29 713.555 1452.29 706.449 Q1452.29 699.319 1450.46 695.777 Q1448.66 692.213 1445.02 692.213 M1445.02 688.509 Q1450.83 688.509 1453.89 693.115 Q1456.97 697.699 1456.97 706.449 Q1456.97 715.175 1453.89 719.782 Q1450.83 724.365 1445.02 724.365 Q1439.21 724.365 1436.13 719.782 Q1433.08 715.175 1433.08 706.449 Q1433.08 697.699 1436.13 693.115 Q1439.21 688.509 1445.02 688.509 Z" fill="#000000" fill-rule="nonzero" fill-opacity="1" /><path clip-path="url(#clip040)" d="M1465.18 717.814 L1470.07 717.814 L1470.07 723.694 L1465.18 723.694 L1465.18 717.814 Z" fill="#000000" fill-rule="nonzero" fill-opacity="1" /><path clip-path="url(#clip040)" d="M1490.25 692.213 Q1486.64 692.213 1484.81 695.777 Q1483.01 699.319 1483.01 706.449 Q1483.01 713.555 1484.81 717.12 Q1486.64 720.661 1490.25 720.661 Q1493.89 720.661 1495.69 717.12 Q1497.52 713.555 1497.52 706.449 Q1497.52 699.319 1495.69 695.777 Q1493.89 692.213 1490.25 692.213 M1490.25 688.509 Q1496.06 688.509 1499.12 693.115 Q1502.2 697.699 1502.2 706.449 Q1502.2 715.175 1499.12 719.782 Q1496.06 724.365 1490.25 724.365 Q1484.44 724.365 1481.36 719.782 Q1478.31 715.175 1478.31 706.449 Q1478.31 697.699 1481.36 693.115 Q1484.44 688.509 1490.25 688.509 Z" fill="#000000" fill-rule="nonzero" fill-opacity="1" /><path clip-path="url(#clip040)" d="M1652.82 692.213 Q1649.21 692.213 1647.38 695.777 Q1645.58 699.319 1645.58 706.449 Q1645.58 713.555 1647.38 717.12 Q1649.21 720.661 1652.82 720.661 Q1656.46 720.661 1658.26 717.12 Q1660.09 713.555 1660.09 706.449 Q1660.09 699.319 1658.26 695.777 Q1656.46 692.213 1652.82 692.213 M1652.82 688.509 Q1658.63 688.509 1661.69 693.115 Q1664.77 697.699 1664.77 706.449 Q1664.77 715.175 1661.69 719.782 Q1658.63 724.365 1652.82 724.365 Q1647.01 724.365 1643.93 719.782 Q1640.88 715.175 1640.88 706.449 Q1640.88 697.699 1643.93 693.115 Q1647.01 688.509 1652.82 688.509 Z" fill="#000000" fill-rule="nonzero" fill-opacity="1" /><path clip-path="url(#clip040)" d="M1672.98 717.814 L1677.87 717.814 L1677.87 723.694 L1672.98 723.694 L1672.98 717.814 Z" fill="#000000" fill-rule="nonzero" fill-opacity="1" /><path clip-path="url(#clip040)" d="M1688.86 719.759 L1696.5 719.759 L1696.5 693.393 L1688.19 695.06 L1688.19 690.801 L1696.46 689.134 L1701.13 689.134 L1701.13 719.759 L1708.77 719.759 L1708.77 723.694 L1688.86 723.694 L1688.86 719.759 Z" fill="#000000" fill-rule="nonzero" fill-opacity="1" /><path clip-path="url(#clip040)" d="M1860.2 692.213 Q1856.59 692.213 1854.76 695.777 Q1852.95 699.319 1852.95 706.449 Q1852.95 713.555 1854.76 717.12 Q1856.59 720.661 1860.2 720.661 Q1863.83 720.661 1865.64 717.12 Q1867.46 713.555 1867.46 706.449 Q1867.46 699.319 1865.64 695.777 Q1863.83 692.213 1860.2 692.213 M1860.2 688.509 Q1866.01 688.509 1869.06 693.115 Q1872.14 697.699 1872.14 706.449 Q1872.14 715.175 1869.06 719.782 Q1866.01 724.365 1860.2 724.365 Q1854.39 724.365 1851.31 719.782 Q1848.25 715.175 1848.25 706.449 Q1848.25 697.699 1851.31 693.115 Q1854.39 688.509 1860.2 688.509 Z" fill="#000000" fill-rule="nonzero" fill-opacity="1" /><path clip-path="url(#clip040)" d="M1880.36 717.814 L1885.24 717.814 L1885.24 723.694 L1880.36 723.694 L1880.36 717.814 Z" fill="#000000" fill-rule="nonzero" fill-opacity="1" /><path clip-path="url(#clip040)" d="M1899.46 719.759 L1915.77 719.759 L1915.77 723.694 L1893.83 723.694 L1893.83 719.759 Q1896.49 717.004 1901.08 712.374 Q1905.68 707.722 1906.86 706.379 Q1909.11 703.856 1909.99 702.12 Q1910.89 700.361 1910.89 698.671 Q1910.89 695.916 1908.95 694.18 Q1907.02 692.444 1903.92 692.444 Q1901.72 692.444 1899.27 693.208 Q1896.84 693.972 1894.06 695.523 L1894.06 690.801 Q1896.89 689.666 1899.34 689.088 Q1901.79 688.509 1903.83 688.509 Q1909.2 688.509 1912.4 691.194 Q1915.59 693.879 1915.59 698.37 Q1915.59 700.5 1914.78 702.421 Q1913.99 704.319 1911.89 706.912 Q1911.31 707.583 1908.21 710.8 Q1905.1 713.995 1899.46 719.759 Z" fill="#000000" fill-rule="nonzero" fill-opacity="1" /><path clip-path="url(#clip040)" d="M2066.91 692.213 Q2063.3 692.213 2061.47 695.777 Q2059.66 699.319 2059.66 706.449 Q2059.66 713.555 2061.47 717.12 Q2063.3 720.661 2066.91 720.661 Q2070.54 720.661 2072.35 717.12 Q2074.18 713.555 2074.18 706.449 Q2074.18 699.319 2072.35 695.777 Q2070.54 692.213 2066.91 692.213 M2066.91 688.509 Q2072.72 688.509 2075.78 693.115 Q2078.85 697.699 2078.85 706.449 Q2078.85 715.175 2075.78 719.782 Q2072.72 724.365 2066.91 724.365 Q2061.1 724.365 2058.02 719.782 Q2054.97 715.175 2054.97 706.449 Q2054.97 697.699 2058.02 693.115 Q2061.1 688.509 2066.91 688.509 Z" fill="#000000" fill-rule="nonzero" fill-opacity="1" /><path clip-path="url(#clip040)" d="M2087.07 717.814 L2091.96 717.814 L2091.96 723.694 L2087.07 723.694 L2087.07 717.814 Z" fill="#000000" fill-rule="nonzero" fill-opacity="1" /><path clip-path="url(#clip040)" d="M2116.31 705.06 Q2119.66 705.777 2121.54 708.046 Q2123.44 710.314 2123.44 713.648 Q2123.44 718.763 2119.92 721.564 Q2116.4 724.365 2109.92 724.365 Q2107.74 724.365 2105.43 723.925 Q2103.14 723.509 2100.68 722.652 L2100.68 718.138 Q2102.63 719.273 2104.94 719.851 Q2107.26 720.43 2109.78 720.43 Q2114.18 720.43 2116.47 718.694 Q2118.78 716.958 2118.78 713.648 Q2118.78 710.592 2116.63 708.879 Q2114.5 707.143 2110.68 707.143 L2106.66 707.143 L2106.66 703.3 L2110.87 703.3 Q2114.32 703.3 2116.15 701.935 Q2117.97 700.546 2117.97 697.953 Q2117.97 695.291 2116.08 693.879 Q2114.2 692.444 2110.68 692.444 Q2108.76 692.444 2106.56 692.861 Q2104.36 693.277 2101.72 694.157 L2101.72 689.99 Q2104.39 689.25 2106.7 688.879 Q2109.04 688.509 2111.1 688.509 Q2116.42 688.509 2119.53 690.939 Q2122.63 693.347 2122.63 697.467 Q2122.63 700.338 2120.98 702.328 Q2119.34 704.296 2116.31 705.06 Z" fill="#000000" fill-rule="nonzero" fill-opacity="1" /><path clip-path="url(#clip040)" d="M2273.53 692.213 Q2269.92 692.213 2268.09 695.777 Q2266.29 699.319 2266.29 706.449 Q2266.29 713.555 2268.09 717.12 Q2269.92 720.661 2273.53 720.661 Q2277.17 720.661 2278.97 717.12 Q2280.8 713.555 2280.8 706.449 Q2280.8 699.319 2278.97 695.777 Q2277.17 692.213 2273.53 692.213 M2273.53 688.509 Q2279.34 688.509 2282.4 693.115 Q2285.48 697.699 2285.48 706.449 Q2285.48 715.175 2282.4 719.782 Q2279.34 724.365 2273.53 724.365 Q2267.72 724.365 2264.64 719.782 Q2261.59 715.175 2261.59 706.449 Q2261.59 697.699 2264.64 693.115 Q2267.72 688.509 2273.53 688.509 Z" fill="#000000" fill-rule="nonzero" fill-opacity="1" /><path clip-path="url(#clip040)" d="M2293.69 717.814 L2298.58 717.814 L2298.58 723.694 L2293.69 723.694 L2293.69 717.814 Z" fill="#000000" fill-rule="nonzero" fill-opacity="1" /><path clip-path="url(#clip040)" d="M2321.61 693.208 L2309.8 711.657 L2321.61 711.657 L2321.61 693.208 M2320.38 689.134 L2326.26 689.134 L2326.26 711.657 L2331.19 711.657 L2331.19 715.546 L2326.26 715.546 L2326.26 723.694 L2321.61 723.694 L2321.61 715.546 L2306.01 715.546 L2306.01 711.032 L2320.38 689.134 Z" fill="#000000" fill-rule="nonzero" fill-opacity="1" /><polyline clip-path="url(#clip040)" style="stroke:#000000; stroke-linecap:round; stroke-linejoin:round; stroke-width:4; stroke-opacity:1; fill:none" points="1444.35,661.294 1444.35,47.2441 "/>
<polyline clip-path="url(#clip040)" style="stroke:#000000; stroke-linecap:round; stroke-linejoin:round; stroke-width:4; stroke-opacity:1; fill:none" points="1444.35,460.866 1463.25,460.866 "/>
<polyline clip-path="url(#clip040)" style="stroke:#000000; stroke-linecap:round; stroke-linejoin:round; stroke-width:4; stroke-opacity:1; fill:none" points="1444.35,230.822 1463.25,230.822 "/>
<path clip-path="url(#clip040)" d="M1276.82 480.658 L1284.46 480.658 L1284.46 454.292 L1276.15 455.959 L1276.15 451.7 L1284.41 450.033 L1289.09 450.033 L1289.09 480.658 L1296.72 480.658 L1296.72 484.593 L1276.82 484.593 L1276.82 480.658 Z" fill="#000000" fill-rule="nonzero" fill-opacity="1" /><path clip-path="url(#clip040)" d="M1316.17 453.112 Q1312.56 453.112 1310.73 456.677 Q1308.92 460.218 1308.92 467.348 Q1308.92 474.454 1310.73 478.019 Q1312.56 481.561 1316.17 481.561 Q1319.8 481.561 1321.61 478.019 Q1323.44 474.454 1323.44 467.348 Q1323.44 460.218 1321.61 456.677 Q1319.8 453.112 1316.17 453.112 M1316.17 449.408 Q1321.98 449.408 1325.03 454.015 Q1328.11 458.598 1328.11 467.348 Q1328.11 476.075 1325.03 480.681 Q1321.98 485.264 1316.17 485.264 Q1310.36 485.264 1307.28 480.681 Q1304.22 476.075 1304.22 467.348 Q1304.22 458.598 1307.28 454.015 Q1310.36 449.408 1316.17 449.408 Z" fill="#000000" fill-rule="nonzero" fill-opacity="1" /><path clip-path="url(#clip040)" d="M1329.3 429.103 L1344.21 429.103 L1344.21 432.3 L1332.78 432.3 L1332.78 439.184 Q1333.61 438.902 1334.43 438.77 Q1335.26 438.62 1336.09 438.62 Q1340.79 438.62 1343.54 441.196 Q1346.28 443.773 1346.28 448.174 Q1346.28 452.707 1343.46 455.227 Q1340.64 457.728 1335.5 457.728 Q1333.74 457.728 1331.89 457.427 Q1330.07 457.126 1328.11 456.524 L1328.11 452.707 Q1329.81 453.628 1331.61 454.079 Q1333.42 454.531 1335.43 454.531 Q1338.68 454.531 1340.58 452.819 Q1342.48 451.108 1342.48 448.174 Q1342.48 445.24 1340.58 443.528 Q1338.68 441.817 1335.43 441.817 Q1333.91 441.817 1332.38 442.155 Q1330.88 442.494 1329.3 443.209 L1329.3 429.103 Z" fill="#000000" fill-rule="nonzero" fill-opacity="1" /><path clip-path="url(#clip040)" d="M1353.77 452.406 L1357.74 452.406 L1357.74 457.183 L1353.77 457.183 L1353.77 452.406 Z" fill="#000000" fill-rule="nonzero" fill-opacity="1" /><path clip-path="url(#clip040)" d="M1374.14 431.604 Q1371.2 431.604 1369.72 434.501 Q1368.25 437.378 1368.25 443.171 Q1368.25 448.945 1369.72 451.841 Q1371.2 454.719 1374.14 454.719 Q1377.09 454.719 1378.56 451.841 Q1380.04 448.945 1380.04 443.171 Q1380.04 437.378 1378.56 434.501 Q1377.09 431.604 1374.14 431.604 M1374.14 428.595 Q1378.86 428.595 1381.34 432.338 Q1383.84 436.062 1383.84 443.171 Q1383.84 450.262 1381.34 454.004 Q1378.86 457.728 1374.14 457.728 Q1369.42 457.728 1366.91 454.004 Q1364.43 450.262 1364.43 443.171 Q1364.43 436.062 1366.91 432.338 Q1369.42 428.595 1374.14 428.595 Z" fill="#000000" fill-rule="nonzero" fill-opacity="1" /><path clip-path="url(#clip040)" d="M1398.64 431.604 Q1395.71 431.604 1394.22 434.501 Q1392.76 437.378 1392.76 443.171 Q1392.76 448.945 1394.22 451.841 Q1395.71 454.719 1398.64 454.719 Q1401.6 454.719 1403.06 451.841 Q1404.55 448.945 1404.55 443.171 Q1404.55 437.378 1403.06 434.501 Q1401.6 431.604 1398.64 431.604 M1398.64 428.595 Q1403.36 428.595 1405.85 432.338 Q1408.35 436.062 1408.35 443.171 Q1408.35 450.262 1405.85 454.004 Q1403.36 457.728 1398.64 457.728 Q1393.92 457.728 1391.42 454.004 Q1388.94 450.262 1388.94 443.171 Q1388.94 436.062 1391.42 432.338 Q1393.92 428.595 1398.64 428.595 Z" fill="#000000" fill-rule="nonzero" fill-opacity="1" /><path clip-path="url(#clip040)" d="M1277.63 250.614 L1285.27 250.614 L1285.27 224.248 L1276.95 225.915 L1276.95 221.656 L1285.22 219.989 L1289.89 219.989 L1289.89 250.614 L1297.53 250.614 L1297.53 254.549 L1277.63 254.549 L1277.63 250.614 Z" fill="#000000" fill-rule="nonzero" fill-opacity="1" /><path clip-path="url(#clip040)" d="M1316.98 223.068 Q1313.37 223.068 1311.54 226.633 Q1309.73 230.174 1309.73 237.304 Q1309.73 244.41 1311.54 247.975 Q1313.37 251.517 1316.98 251.517 Q1320.61 251.517 1322.42 247.975 Q1324.25 244.41 1324.25 237.304 Q1324.25 230.174 1322.42 226.633 Q1320.61 223.068 1316.98 223.068 M1316.98 219.364 Q1322.79 219.364 1325.84 223.971 Q1328.92 228.554 1328.92 237.304 Q1328.92 246.031 1325.84 250.637 Q1322.79 255.22 1316.98 255.22 Q1311.17 255.22 1308.09 250.637 Q1305.03 246.031 1305.03 237.304 Q1305.03 228.554 1308.09 223.971 Q1311.17 219.364 1316.98 219.364 Z" fill="#000000" fill-rule="nonzero" fill-opacity="1" /><path clip-path="url(#clip040)" d="M1330.11 199.059 L1345.02 199.059 L1345.02 202.256 L1333.59 202.256 L1333.59 209.14 Q1334.41 208.858 1335.24 208.726 Q1336.07 208.575 1336.9 208.575 Q1341.6 208.575 1344.34 211.152 Q1347.09 213.729 1347.09 218.13 Q1347.09 222.663 1344.27 225.183 Q1341.45 227.684 1336.31 227.684 Q1334.55 227.684 1332.7 227.383 Q1330.88 227.082 1328.92 226.48 L1328.92 222.663 Q1330.61 223.584 1332.42 224.035 Q1334.23 224.487 1336.24 224.487 Q1339.49 224.487 1341.39 222.775 Q1343.29 221.064 1343.29 218.13 Q1343.29 215.196 1341.39 213.484 Q1339.49 211.773 1336.24 211.773 Q1334.71 211.773 1333.19 212.111 Q1331.69 212.45 1330.11 213.165 L1330.11 199.059 Z" fill="#000000" fill-rule="nonzero" fill-opacity="1" /><path clip-path="url(#clip040)" d="M1354.58 222.362 L1358.54 222.362 L1358.54 227.139 L1354.58 227.139 L1354.58 222.362 Z" fill="#000000" fill-rule="nonzero" fill-opacity="1" /><path clip-path="url(#clip040)" d="M1370.09 223.941 L1383.35 223.941 L1383.35 227.139 L1365.52 227.139 L1365.52 223.941 Q1367.69 221.703 1371.41 217.942 Q1375.15 214.161 1376.11 213.071 Q1377.94 211.021 1378.65 209.61 Q1379.38 208.181 1379.38 206.808 Q1379.38 204.569 1377.8 203.159 Q1376.24 201.748 1373.72 201.748 Q1371.94 201.748 1369.94 202.369 Q1367.97 202.99 1365.71 204.25 L1365.71 200.413 Q1368 199.491 1370 199.021 Q1371.99 198.551 1373.65 198.551 Q1378.01 198.551 1380.61 200.733 Q1383.2 202.914 1383.2 206.563 Q1383.2 208.293 1382.54 209.854 Q1381.9 211.397 1380.19 213.503 Q1379.72 214.049 1377.2 216.663 Q1374.68 219.258 1370.09 223.941 Z" fill="#000000" fill-rule="nonzero" fill-opacity="1" /><path clip-path="url(#clip040)" d="M1391.36 199.059 L1406.28 199.059 L1406.28 202.256 L1394.84 202.256 L1394.84 209.14 Q1395.67 208.858 1396.5 208.726 Q1397.33 208.575 1398.15 208.575 Q1402.86 208.575 1405.6 211.152 Q1408.35 213.729 1408.35 218.13 Q1408.35 222.663 1405.53 225.183 Q1402.71 227.684 1397.57 227.684 Q1395.8 227.684 1393.96 227.383 Q1392.14 227.082 1390.18 226.48 L1390.18 222.663 Q1391.87 223.584 1393.68 224.035 Q1395.48 224.487 1397.5 224.487 Q1400.75 224.487 1402.65 222.775 Q1404.55 221.064 1404.55 218.13 Q1404.55 215.196 1402.65 213.484 Q1400.75 211.773 1397.5 211.773 Q1395.97 211.773 1394.45 212.111 Q1392.94 212.45 1391.36 213.165 L1391.36 199.059 Z" fill="#000000" fill-rule="nonzero" fill-opacity="1" /><line clip-path="url(#clip043)" x1="1470.06" y1="64.6229" x2="1454.06" y2="48.6229" style="stroke:#e26f46; stroke-width:3.2; stroke-opacity:1"/>
<line clip-path="url(#clip043)" x1="1470.06" y1="64.6229" x2="1454.06" y2="80.6229" style="stroke:#e26f46; stroke-width:3.2; stroke-opacity:1"/>
<line clip-path="url(#clip043)" x1="1470.06" y1="64.6229" x2="1486.06" y2="80.6229" style="stroke:#e26f46; stroke-width:3.2; stroke-opacity:1"/>
<line clip-path="url(#clip043)" x1="1470.06" y1="64.6229" x2="1486.06" y2="48.6229" style="stroke:#e26f46; stroke-width:3.2; stroke-opacity:1"/>
<line clip-path="url(#clip043)" x1="1482.81" y1="371.087" x2="1466.81" y2="355.087" style="stroke:#e26f46; stroke-width:3.2; stroke-opacity:1"/>
<line clip-path="url(#clip043)" x1="1482.81" y1="371.087" x2="1466.81" y2="387.087" style="stroke:#e26f46; stroke-width:3.2; stroke-opacity:1"/>
<line clip-path="url(#clip043)" x1="1482.81" y1="371.087" x2="1498.81" y2="387.087" style="stroke:#e26f46; stroke-width:3.2; stroke-opacity:1"/>
<line clip-path="url(#clip043)" x1="1482.81" y1="371.087" x2="1498.81" y2="355.087" style="stroke:#e26f46; stroke-width:3.2; stroke-opacity:1"/>
<line clip-path="url(#clip043)" x1="1490.62" y1="472.857" x2="1474.62" y2="456.857" style="stroke:#e26f46; stroke-width:3.2; stroke-opacity:1"/>
<line clip-path="url(#clip043)" x1="1490.62" y1="472.857" x2="1474.62" y2="488.857" style="stroke:#e26f46; stroke-width:3.2; stroke-opacity:1"/>
<line clip-path="url(#clip043)" x1="1490.62" y1="472.857" x2="1506.62" y2="488.857" style="stroke:#e26f46; stroke-width:3.2; stroke-opacity:1"/>
<line clip-path="url(#clip043)" x1="1490.62" y1="472.857" x2="1506.62" y2="456.857" style="stroke:#e26f46; stroke-width:3.2; stroke-opacity:1"/>
<line clip-path="url(#clip043)" x1="1497.21" y1="494.928" x2="1481.21" y2="478.928" style="stroke:#e26f46; stroke-width:3.2; stroke-opacity:1"/>
<line clip-path="url(#clip043)" x1="1497.21" y1="494.928" x2="1481.21" y2="510.928" style="stroke:#e26f46; stroke-width:3.2; stroke-opacity:1"/>
<line clip-path="url(#clip043)" x1="1497.21" y1="494.928" x2="1513.21" y2="510.928" style="stroke:#e26f46; stroke-width:3.2; stroke-opacity:1"/>
<line clip-path="url(#clip043)" x1="1497.21" y1="494.928" x2="1513.21" y2="478.928" style="stroke:#e26f46; stroke-width:3.2; stroke-opacity:1"/>
<line clip-path="url(#clip043)" x1="1503.24" y1="568.343" x2="1487.24" y2="552.343" style="stroke:#e26f46; stroke-width:3.2; stroke-opacity:1"/>
<line clip-path="url(#clip043)" x1="1503.24" y1="568.343" x2="1487.24" y2="584.343" style="stroke:#e26f46; stroke-width:3.2; stroke-opacity:1"/>
<line clip-path="url(#clip043)" x1="1503.24" y1="568.343" x2="1519.24" y2="584.343" style="stroke:#e26f46; stroke-width:3.2; stroke-opacity:1"/>
<line clip-path="url(#clip043)" x1="1503.24" y1="568.343" x2="1519.24" y2="552.343" style="stroke:#e26f46; stroke-width:3.2; stroke-opacity:1"/>
<line clip-path="url(#clip043)" x1="1507.99" y1="599.355" x2="1491.99" y2="583.355" style="stroke:#e26f46; stroke-width:3.2; stroke-opacity:1"/>
<line clip-path="url(#clip043)" x1="1507.99" y1="599.355" x2="1491.99" y2="615.355" style="stroke:#e26f46; stroke-width:3.2; stroke-opacity:1"/>
<line clip-path="url(#clip043)" x1="1507.99" y1="599.355" x2="1523.99" y2="615.355" style="stroke:#e26f46; stroke-width:3.2; stroke-opacity:1"/>
<line clip-path="url(#clip043)" x1="1507.99" y1="599.355" x2="1523.99" y2="583.355" style="stroke:#e26f46; stroke-width:3.2; stroke-opacity:1"/>
<line clip-path="url(#clip043)" x1="1512.76" y1="616.458" x2="1496.76" y2="600.458" style="stroke:#e26f46; stroke-width:3.2; stroke-opacity:1"/>
<line clip-path="url(#clip043)" x1="1512.76" y1="616.458" x2="1496.76" y2="632.458" style="stroke:#e26f46; stroke-width:3.2; stroke-opacity:1"/>
<line clip-path="url(#clip043)" x1="1512.76" y1="616.458" x2="1528.76" y2="632.458" style="stroke:#e26f46; stroke-width:3.2; stroke-opacity:1"/>
<line clip-path="url(#clip043)" x1="1512.76" y1="616.458" x2="1528.76" y2="600.458" style="stroke:#e26f46; stroke-width:3.2; stroke-opacity:1"/>
<line clip-path="url(#clip043)" x1="1516.03" y1="632.164" x2="1500.03" y2="616.164" style="stroke:#e26f46; stroke-width:3.2; stroke-opacity:1"/>
<line clip-path="url(#clip043)" x1="1516.03" y1="632.164" x2="1500.03" y2="648.164" style="stroke:#e26f46; stroke-width:3.2; stroke-opacity:1"/>
<line clip-path="url(#clip043)" x1="1516.03" y1="632.164" x2="1532.03" y2="648.164" style="stroke:#e26f46; stroke-width:3.2; stroke-opacity:1"/>
<line clip-path="url(#clip043)" x1="1516.03" y1="632.164" x2="1532.03" y2="616.164" style="stroke:#e26f46; stroke-width:3.2; stroke-opacity:1"/>
<line clip-path="url(#clip043)" x1="1519.16" y1="642.464" x2="1503.16" y2="626.464" style="stroke:#e26f46; stroke-width:3.2; stroke-opacity:1"/>
<line clip-path="url(#clip043)" x1="1519.16" y1="642.464" x2="1503.16" y2="658.464" style="stroke:#e26f46; stroke-width:3.2; stroke-opacity:1"/>
<line clip-path="url(#clip043)" x1="1519.16" y1="642.464" x2="1535.16" y2="658.464" style="stroke:#e26f46; stroke-width:3.2; stroke-opacity:1"/>
<line clip-path="url(#clip043)" x1="1519.16" y1="642.464" x2="1535.16" y2="626.464" style="stroke:#e26f46; stroke-width:3.2; stroke-opacity:1"/>
<line clip-path="url(#clip043)" x1="1522.71" y1="643.915" x2="1506.71" y2="627.915" style="stroke:#e26f46; stroke-width:3.2; stroke-opacity:1"/>
<line clip-path="url(#clip043)" x1="1522.71" y1="643.915" x2="1506.71" y2="659.915" style="stroke:#e26f46; stroke-width:3.2; stroke-opacity:1"/>
<line clip-path="url(#clip043)" x1="1522.71" y1="643.915" x2="1538.71" y2="659.915" style="stroke:#e26f46; stroke-width:3.2; stroke-opacity:1"/>
<line clip-path="url(#clip043)" x1="1522.71" y1="643.915" x2="1538.71" y2="627.915" style="stroke:#e26f46; stroke-width:3.2; stroke-opacity:1"/>
<path clip-path="url(#clip043)" d="M2276.27 80.6229 L2264.96 75.9349 L2260.27 64.6229 L2264.96 53.3109 L2276.27 48.6229 L2287.58 53.3109 L2292.27 64.6229 L2287.58 75.9349 Z" fill="#009af9" fill-rule="evenodd" fill-opacity="1" stroke="#000000" stroke-opacity="1" stroke-width="3.2"/>
<path clip-path="url(#clip043)" d="M2288.18 387.087 L2276.87 382.399 L2272.18 371.087 L2276.87 359.775 L2288.18 355.087 L2299.5 359.775 L2304.18 371.087 L2299.5 382.399 Z" fill="#009af9" fill-rule="evenodd" fill-opacity="1" stroke="#000000" stroke-opacity="1" stroke-width="3.2"/>
<path clip-path="url(#clip043)" d="M2296.09 488.857 L2284.78 484.169 L2280.09 472.857 L2284.78 461.545 L2296.09 456.857 L2307.41 461.545 L2312.09 472.857 L2307.41 484.169 Z" fill="#009af9" fill-rule="evenodd" fill-opacity="1" stroke="#000000" stroke-opacity="1" stroke-width="3.2"/>
<path clip-path="url(#clip043)" d="M2302.56 510.928 L2291.25 506.24 L2286.56 494.928 L2291.25 483.616 L2302.56 478.928 L2313.88 483.616 L2318.56 494.928 L2313.88 506.24 Z" fill="#009af9" fill-rule="evenodd" fill-opacity="1" stroke="#000000" stroke-opacity="1" stroke-width="3.2"/>
<path clip-path="url(#clip043)" d="M2308.61 584.343 L2297.29 579.655 L2292.61 568.343 L2297.29 557.031 L2308.61 552.343 L2319.92 557.031 L2324.61 568.343 L2319.92 579.655 Z" fill="#009af9" fill-rule="evenodd" fill-opacity="1" stroke="#000000" stroke-opacity="1" stroke-width="3.2"/>
<path clip-path="url(#clip043)" d="M2313.01 615.355 L2301.69 610.667 L2297.01 599.355 L2301.69 588.043 L2313.01 583.355 L2324.32 588.043 L2329.01 599.355 L2324.32 610.667 Z" fill="#009af9" fill-rule="evenodd" fill-opacity="1" stroke="#000000" stroke-opacity="1" stroke-width="3.2"/>
<path clip-path="url(#clip043)" d="M2317.47 632.458 L2306.15 627.77 L2301.47 616.458 L2306.15 605.146 L2317.47 600.458 L2328.78 605.146 L2333.47 616.458 L2328.78 627.77 Z" fill="#009af9" fill-rule="evenodd" fill-opacity="1" stroke="#000000" stroke-opacity="1" stroke-width="3.2"/>
<path clip-path="url(#clip043)" d="M2320.73 648.164 L2309.42 643.476 L2304.73 632.164 L2309.42 620.852 L2320.73 616.164 L2332.05 620.852 L2336.73 632.164 L2332.05 643.476 Z" fill="#009af9" fill-rule="evenodd" fill-opacity="1" stroke="#000000" stroke-opacity="1" stroke-width="3.2"/>
<path clip-path="url(#clip043)" d="M2323.72 658.464 L2312.41 653.776 L2307.72 642.464 L2312.41 631.152 L2323.72 626.464 L2335.03 631.152 L2339.72 642.464 L2335.03 653.776 Z" fill="#009af9" fill-rule="evenodd" fill-opacity="1" stroke="#000000" stroke-opacity="1" stroke-width="3.2"/>
<path clip-path="url(#clip043)" d="M2326.75 659.915 L2315.44 655.227 L2310.75 643.915 L2315.44 632.603 L2326.75 627.915 L2338.06 632.603 L2342.75 643.915 L2338.06 655.227 Z" fill="#009af9" fill-rule="evenodd" fill-opacity="1" stroke="#000000" stroke-opacity="1" stroke-width="3.2"/>
<polyline clip-path="url(#clip043)" style="stroke:#009af9; stroke-linecap:round; stroke-linejoin:round; stroke-width:5.2; stroke-opacity:1; fill:none" points="2276.27,64.6229 2278.04,116.523 2279.62,172.988 2281.54,237.694 2283.2,287.971 2284.98,319.661 2286.58,346.956 2288.18,371.087 2289.52,394.303 2291.54,426.573 2293.1,441.661 2293.85,451.516 2294.46,461.523 2295.3,471.447 2296.09,472.857 2296.71,474.492 2297.49,476.428 2298.17,478.759 2299.19,481.606 2300.53,485.117 2301.61,489.503 2302.56,494.928 2303.45,501.844 2304.28,510.228 2305.03,521.083 2305.96,531.15 2306.79,542.114 2307.78,555.142 2308.61,568.343 2309.53,574.767 2310.25,581.295 2310.83,586.01 2311.46,589.968 2311.98,593.428 2312.5,596.496 2313.01,599.355 2313.55,602.044 2314.12,604.572 2314.85,607.031 2315.78,609.323 2316.48,611.769 2317.03,614.008 2317.47,616.458 2317.99,618.233 2318.47,620.316 2318.84,622.34 2319.2,624.541 2319.57,626.9 2319.99,629.43 2320.73,632.164 2321.24,635.143 2321.64,638.401 2322.06,640.688 2322.57,641.242 2322.99,641.614 2323.36,642.085 2323.72,642.464 2324.07,642.758 2324.46,643.031 2325.13,643.285 2325.65,643.52 2326.03,643.738 2326.42,643.915 2326.75,643.915 2327.05,643.915 "/>
<polyline clip-path="url(#clip043)" style="stroke:#e26f46; stroke-linecap:round; stroke-linejoin:round; stroke-width:5.2; stroke-opacity:1; fill:none" points="1470.06,64.6229 1471.6,116.523 1473.27,172.988 1475.34,237.694 1477.27,287.971 1479.2,319.661 1481.06,346.956 1482.81,371.087 1484.29,394.303 1486.22,426.573 1487.73,441.661 1488.51,451.516 1489.13,461.523 1489.85,471.447 1490.62,472.857 1491.25,474.492 1491.97,476.428 1492.63,478.759 1493.75,481.606 1495.06,485.117 1496.25,489.503 1497.21,494.928 1498.18,501.844 1499.06,510.228 1499.89,521.083 1500.91,531.15 1501.78,542.114 1502.6,555.142 1503.24,568.343 1504.22,574.767 1505.08,581.295 1505.8,586.01 1506.39,589.968 1506.91,593.428 1507.46,596.496 1507.99,599.355 1508.86,602.044 1509.51,604.572 1510.15,607.031 1511.14,609.323 1511.72,611.769 1512.28,614.008 1512.76,616.458 1513.29,618.233 1513.66,620.316 1514.02,622.34 1514.4,624.541 1514.87,626.9 1515.29,629.43 1516.03,632.164 1516.63,635.143 1517.07,638.401 1517.47,640.688 1517.84,641.242 1518.24,641.614 1518.63,642.085 1519.16,642.464 1519.6,642.758 1520.05,643.031 1520.79,643.285 1521.38,643.52 1521.81,643.738 1522.21,643.915 1522.71,643.915 1523.11,643.915 "/>
<path clip-path="url(#clip040)" d="M269.501 1436.14 L1177.91 1436.14 L1177.91 822.09 L269.501 822.09  Z" fill="#ffffff" fill-rule="evenodd" fill-opacity="1"/>
<defs>
  <clipPath id="clip044">
    <rect x="269" y="822" width="909" height="615"/>
  </clipPath>
</defs>
<path clip-path="url(#clip040)" d="Mnan nan Lnan nan Lnan nan Lnan nan Lnan nan Lnan nan Lnan nan Lnan nan Lnan nan Lnan nan Lnan nan Lnan nan Z" fill="#000000" fill-rule="nonzero" fill-opacity="1" /><path clip-path="url(#clip040)" d="Mnan nan Qnan nan nan nan Qnan nan nan nan Qnan nan nan nan Qnan nan nan nan Qnan nan nan nan Qnan nan nan nan Qnan nan nan nan Qnan nan nan nan Mnan nan Qnan nan nan nan Qnan nan nan nan Qnan nan nan nan Qnan nan nan nan Qnan nan nan nan Qnan nan nan nan Qnan nan nan nan Qnan nan nan nan Z" fill="#000000" fill-rule="nonzero" fill-opacity="1" /><path clip-path="url(#clip040)" d="Mnan nan Lnan nan Lnan nan Lnan nan Lnan nan Qnan nan nan nan Qnan nan nan nan Qnan nan nan nan Qnan nan nan nan Qnan nan nan nan Qnan nan nan nan Qnan nan nan nan Qnan nan nan nan Lnan nan Qnan nan nan nan Qnan nan nan nan Qnan nan nan nan Qnan nan nan nan Qnan nan nan nan Qnan nan nan nan Qnan nan nan nan Qnan nan nan nan Z" fill="#000000" fill-rule="nonzero" fill-opacity="1" /><path clip-path="url(#clip040)" d="Mnan nan Qnan nan nan nan Qnan nan nan nan Qnan nan nan nan Qnan nan nan nan Qnan nan nan nan Qnan nan nan nan Qnan nan nan nan Qnan nan nan nan Mnan nan Qnan nan nan nan Qnan nan nan nan Qnan nan nan nan Qnan nan nan nan Qnan nan nan nan Qnan nan nan nan Qnan nan nan nan Qnan nan nan nan Z" fill="#000000" fill-rule="nonzero" fill-opacity="1" /><path clip-path="url(#clip040)" d="Mnan nan Qnan nan nan nan Qnan nan nan nan Qnan nan nan nan Qnan nan nan nan Qnan nan nan nan Qnan nan nan nan Lnan nan Qnan nan nan nan Qnan nan nan nan Qnan nan nan nan Qnan nan nan nan Qnan nan nan nan Qnan nan nan nan Lnan nan Lnan nan Lnan nan Qnan nan nan nan Qnan nan nan nan Qnan nan nan nan Qnan nan nan nan Qnan nan nan nan Qnan nan nan nan Lnan nan Qnan nan nan nan Qnan nan nan nan Qnan nan nan nan Qnan nan nan nan Qnan nan nan nan Qnan nan nan nan Z" fill="#000000" fill-rule="nonzero" fill-opacity="1" /><path clip-path="url(#clip040)" d="Mnan nan Qnan nan nan nan Qnan nan nan nan Qnan nan nan nan Qnan nan nan nan Qnan nan nan nan Qnan nan nan nan Qnan nan nan nan Qnan nan nan nan Mnan nan Qnan nan nan nan Qnan nan nan nan Qnan nan nan nan Qnan nan nan nan Qnan nan nan nan Qnan nan nan nan Qnan nan nan nan Qnan nan nan nan Z" fill="#000000" fill-rule="nonzero" fill-opacity="1" /><path clip-path="url(#clip040)" d="Mnan nan Lnan nan Lnan nan Lnan nan Mnan nan Lnan nan Lnan nan Lnan nan Lnan nan Lnan nan Lnan nan Lnan nan Lnan nan Lnan nan Lnan nan Lnan nan Z" fill="#000000" fill-rule="nonzero" fill-opacity="1" /><path clip-path="url(#clip040)" d="Mnan nan Qnan nan nan nan Qnan nan nan nan Qnan nan nan nan Qnan nan nan nan Qnan nan nan nan Qnan nan nan nan Qnan nan nan nan Qnan nan nan nan Mnan nan Qnan nan nan nan Qnan nan nan nan Qnan nan nan nan Qnan nan nan nan Qnan nan nan nan Qnan nan nan nan Qnan nan nan nan Qnan nan nan nan Z" fill="#000000" fill-rule="nonzero" fill-opacity="1" /><path clip-path="url(#clip040)" d="Mnan nan Lnan nan Lnan nan Lnan nan Lnan nan Qnan nan nan nan Qnan nan nan nan Qnan nan nan nan Qnan nan nan nan Qnan nan nan nan Qnan nan nan nan Qnan nan nan nan Qnan nan nan nan Lnan nan Qnan nan nan nan Qnan nan nan nan Qnan nan nan nan Qnan nan nan nan Qnan nan nan nan Qnan nan nan nan Qnan nan nan nan Qnan nan nan nan Lnan nan Z" fill="#000000" fill-rule="nonzero" fill-opacity="1" /><path clip-path="url(#clip040)" d="Mnan nan Qnan nan nan nan Qnan nan nan nan Qnan nan nan nan Qnan nan nan nan Qnan nan nan nan Qnan nan nan nan Qnan nan nan nan Qnan nan nan nan Mnan nan Qnan nan nan nan Qnan nan nan nan Qnan nan nan nan Qnan nan nan nan Qnan nan nan nan Qnan nan nan nan Qnan nan nan nan Qnan nan nan nan Z" fill="#000000" fill-rule="nonzero" fill-opacity="1" /><path clip-path="url(#clip040)" d="Mnan nan Qnan nan nan nan Qnan nan nan nan Qnan nan nan nan Qnan nan nan nan Qnan nan nan nan Qnan nan nan nan Qnan nan nan nan Qnan nan nan nan Mnan nan Lnan nan Qnan nan nan nan Qnan nan nan nan Qnan nan nan nan Qnan nan nan nan Qnan nan nan nan Qnan nan nan nan Qnan nan nan nan Qnan nan nan nan Qnan nan nan nan Qnan nan nan nan Qnan nan nan nan Qnan nan nan nan Qnan nan nan nan Qnan nan nan nan Qnan nan nan nan Qnan nan nan nan Z" fill="#000000" fill-rule="nonzero" fill-opacity="1" /><path clip-path="url(#clip040)" d="Mnan nan Qnan nan nan nan Qnan nan nan nan Qnan nan nan nan Qnan nan nan nan Qnan nan nan nan Qnan nan nan nan Qnan nan nan nan Qnan nan nan nan Mnan nan Qnan nan nan nan Qnan nan nan nan Qnan nan nan nan Qnan nan nan nan Qnan nan nan nan Qnan nan nan nan Qnan nan nan nan Qnan nan nan nan Z" fill="#000000" fill-rule="nonzero" fill-opacity="1" /><path clip-path="url(#clip040)" d="Mnan nan Lnan nan Lnan nan Lnan nan Lnan nan Z" fill="#000000" fill-rule="nonzero" fill-opacity="1" /><path clip-path="url(#clip040)" d="Mnan nan Lnan nan Lnan nan Lnan nan Lnan nan Lnan nan Qnan nan nan nan Qnan nan nan nan Lnan nan Lnan nan Lnan nan Qnan nan nan nan Qnan nan nan nan Lnan nan Lnan nan Lnan nan Lnan nan Lnan nan Lnan nan Z" fill="#000000" fill-rule="nonzero" fill-opacity="1" /><path clip-path="url(#clip040)" d="Mnan nan Lnan nan Lnan nan Qnan nan nan nan Qnan nan nan nan Qnan nan nan nan Qnan nan nan nan Lnan nan Qnan nan nan nan Qnan nan nan nan Qnan nan nan nan Qnan nan nan nan Qnan nan nan nan Qnan nan nan nan Qnan nan nan nan Qnan nan nan nan Mnan nan Qnan nan nan nan Qnan nan nan nan Qnan nan nan nan Qnan nan nan nan Lnan nan Z" fill="#000000" fill-rule="nonzero" fill-opacity="1" /><path clip-path="url(#clip040)" d="Mnan nan Qnan nan nan nan Qnan nan nan nan Qnan nan nan nan Qnan nan nan nan Lnan nan Lnan nan Lnan nan Lnan nan Lnan nan Qnan nan nan nan Qnan nan nan nan Qnan nan nan nan Qnan nan nan nan Lnan nan Z" fill="#000000" fill-rule="nonzero" fill-opacity="1" /><path clip-path="url(#clip040)" d="Mnan nan Qnan nan nan nan Qnan nan nan nan Qnan nan nan nan Qnan nan nan nan Qnan nan nan nan Qnan nan nan nan Lnan nan Lnan nan Mnan nan Lnan nan Lnan nan Lnan nan Qnan nan nan nan Qnan nan nan nan Qnan nan nan nan Qnan nan nan nan Qnan nan nan nan Qnan nan nan nan Lnan nan Lnan nan Qnan nan nan nan Qnan nan nan nan Qnan nan nan nan Qnan nan nan nan Lnan nan Qnan nan nan nan Qnan nan nan nan Qnan nan nan nan Qnan nan nan nan Z" fill="#000000" fill-rule="nonzero" fill-opacity="1" /><path clip-path="url(#clip040)" d="Mnan nan Lnan nan Lnan nan Lnan nan Lnan nan Lnan nan Qnan nan nan nan Qnan nan nan nan Lnan nan Lnan nan Lnan nan Qnan nan nan nan Qnan nan nan nan Lnan nan Lnan nan Lnan nan Lnan nan Lnan nan Lnan nan Z" fill="#000000" fill-rule="nonzero" fill-opacity="1" /><path clip-path="url(#clip040)" d="Mnan nan Lnan nan Lnan nan Lnan nan Lnan nan Mnan nan Lnan nan Lnan nan Lnan nan Lnan nan Z" fill="#000000" fill-rule="nonzero" fill-opacity="1" /><path clip-path="url(#clip040)" d="Mnan nan Qnan nan nan nan Qnan nan nan nan Qnan nan nan nan Qnan nan nan nan Qnan nan nan nan Qnan nan nan nan Qnan nan nan nan Qnan nan nan nan Mnan nan Qnan nan nan nan Qnan nan nan nan Qnan nan nan nan Qnan nan nan nan Qnan nan nan nan Qnan nan nan nan Qnan nan nan nan Qnan nan nan nan Z" fill="#000000" fill-rule="nonzero" fill-opacity="1" /><path clip-path="url(#clip040)" d="Mnan nan Lnan nan Lnan nan Lnan nan Qnan nan nan nan Qnan nan nan nan Qnan nan nan nan Qnan nan nan nan Lnan nan Lnan nan Lnan nan Lnan nan Lnan nan Qnan nan nan nan Qnan nan nan nan Qnan nan nan nan Qnan nan nan nan Z" fill="#000000" fill-rule="nonzero" fill-opacity="1" /><path clip-path="url(#clip040)" d="Mnan nan Lnan nan Qnan nan nan nan Qnan nan nan nan Qnan nan nan nan Qnan nan nan nan Qnan nan nan nan Qnan nan nan nan Lnan nan Qnan nan nan nan Qnan nan nan nan Qnan nan nan nan Qnan nan nan nan Qnan nan nan nan Qnan nan nan nan Lnan nan Qnan nan nan nan Qnan nan nan nan Qnan nan nan nan Qnan nan nan nan Qnan nan nan nan Qnan nan nan nan Lnan nan Qnan nan nan nan Qnan nan nan nan Qnan nan nan nan Qnan nan nan nan Qnan nan nan nan Qnan nan nan nan Z" fill="#000000" fill-rule="nonzero" fill-opacity="1" /><path clip-path="url(#clip040)" d="Mnan nan Lnan nan Lnan nan Lnan nan Lnan nan Lnan nan Lnan nan Lnan nan Lnan nan Lnan nan Lnan nan Lnan nan Z" fill="#000000" fill-rule="nonzero" fill-opacity="1" /><path clip-path="url(#clip040)" d="Mnan nan Qnan nan nan nan Qnan nan nan nan Qnan nan nan nan Qnan nan nan nan Qnan nan nan nan Qnan nan nan nan Qnan nan nan nan Qnan nan nan nan Mnan nan Qnan nan nan nan Qnan nan nan nan Qnan nan nan nan Qnan nan nan nan Qnan nan nan nan Qnan nan nan nan Qnan nan nan nan Qnan nan nan nan Z" fill="#000000" fill-rule="nonzero" fill-opacity="1" /><path clip-path="url(#clip040)" d="Mnan nan Lnan nan Lnan nan Lnan nan Lnan nan Z" fill="#000000" fill-rule="nonzero" fill-opacity="1" /><path clip-path="url(#clip040)" d="Mnan nan Lnan nan Lnan nan Lnan nan Lnan nan Z" fill="#000000" fill-rule="nonzero" fill-opacity="1" /><path clip-path="url(#clip040)" d="Mnan nan Lnan nan Lnan nan Lnan nan Qnan nan nan nan Qnan nan nan nan Qnan nan nan nan Qnan nan nan nan Lnan nan Lnan nan Lnan nan Lnan nan Lnan nan Qnan nan nan nan Qnan nan nan nan Qnan nan nan nan Qnan nan nan nan Z" fill="#000000" fill-rule="nonzero" fill-opacity="1" /><path clip-path="url(#clip040)" d="Mnan nan Lnan nan Lnan nan Qnan nan nan nan Qnan nan nan nan Lnan nan Lnan nan Lnan nan Lnan nan Lnan nan Lnan nan Lnan nan Lnan nan Lnan nan Lnan nan Lnan nan Qnan nan nan nan Qnan nan nan nan Lnan nan Z" fill="#000000" fill-rule="nonzero" fill-opacity="1" /><path clip-path="url(#clip040)" d="Mnan nan Lnan nan Lnan nan Lnan nan Lnan nan Lnan nan Lnan nan Lnan nan Lnan nan Lnan nan Lnan nan Lnan nan Z" fill="#000000" fill-rule="nonzero" fill-opacity="1" /><path clip-path="url(#clip040)" d="Mnan nan Qnan nan nan nan Qnan nan nan nan Qnan nan nan nan Qnan nan nan nan Qnan nan nan nan Qnan nan nan nan Qnan nan nan nan Qnan nan nan nan Mnan nan Qnan nan nan nan Qnan nan nan nan Qnan nan nan nan Qnan nan nan nan Qnan nan nan nan Qnan nan nan nan Qnan nan nan nan Qnan nan nan nan Z" fill="#000000" fill-rule="nonzero" fill-opacity="1" /><path clip-path="url(#clip040)" d="Mnan nan Lnan nan Lnan nan Lnan nan Lnan nan Lnan nan Lnan nan Lnan nan Lnan nan Lnan nan Lnan nan Z" fill="#000000" fill-rule="nonzero" fill-opacity="1" /><path clip-path="url(#clip040)" d="Mnan nan Qnan nan nan nan Qnan nan nan nan Qnan nan nan nan Qnan nan nan nan Qnan nan nan nan Qnan nan nan nan Lnan nan Lnan nan Mnan nan Lnan nan Lnan nan Lnan nan Qnan nan nan nan Qnan nan nan nan Qnan nan nan nan Qnan nan nan nan Qnan nan nan nan Qnan nan nan nan Lnan nan Lnan nan Qnan nan nan nan Qnan nan nan nan Qnan nan nan nan Qnan nan nan nan Lnan nan Qnan nan nan nan Qnan nan nan nan Qnan nan nan nan Qnan nan nan nan Z" fill="#000000" fill-rule="nonzero" fill-opacity="1" /><path clip-path="url(#clip040)" d="Mnan nan Lnan nan Lnan nan Lnan nan Lnan nan Lnan nan Lnan nan Lnan nan Lnan nan Lnan nan Lnan nan Z" fill="#000000" fill-rule="nonzero" fill-opacity="1" /><path clip-path="url(#clip040)" d="M26.1895 1223.99 L53.0644 1223.99 L53.0644 1218.34 Q53.0644 1211.19 49.8237 1207.88 Q46.583 1204.54 39.5923 1204.54 Q32.6478 1204.54 29.4303 1207.88 Q26.1895 1211.19 26.1895 1218.34 L26.1895 1223.99 M22.347 1228.66 L22.347 1219.06 Q22.347 1209.01 26.5368 1204.31 Q30.7034 1199.61 39.5923 1199.61 Q48.5274 1199.61 52.7172 1204.33 Q56.907 1209.06 56.907 1219.06 L56.907 1228.66 L22.347 1228.66 Z" fill="#000000" fill-rule="nonzero" fill-opacity="1" /><path clip-path="url(#clip040)" d="M25.009 1166.28 L29.9395 1166.28 Q27.7405 1168.64 26.6525 1171.33 Q25.5645 1173.99 25.5645 1177 Q25.5645 1182.92 29.1988 1186.07 Q32.8099 1189.22 39.6617 1189.22 Q46.4904 1189.22 50.1246 1186.07 Q53.7357 1182.92 53.7357 1177 Q53.7357 1173.99 52.6477 1171.33 Q51.5598 1168.64 49.3607 1166.28 L54.245 1166.28 Q55.9116 1168.73 56.7449 1171.49 Q57.5783 1174.22 57.5783 1177.27 Q57.5783 1185.12 52.7866 1189.64 Q47.9718 1194.15 39.6617 1194.15 Q31.3284 1194.15 26.5368 1189.64 Q21.722 1185.12 21.722 1177.27 Q21.722 1174.17 22.5553 1171.44 Q23.3655 1168.69 25.009 1166.28 Z" fill="#000000" fill-rule="nonzero" fill-opacity="1" /><path clip-path="url(#clip040)" d="M26.9534 1147.51 L44.1524 1153.85 L44.1524 1141.14 L26.9534 1147.51 M22.347 1150.14 L22.347 1144.84 L56.907 1131.67 L56.907 1136.53 L48.0413 1139.68 L48.0413 1155.26 L56.907 1158.41 L56.907 1163.34 L22.347 1150.14 Z" fill="#000000" fill-rule="nonzero" fill-opacity="1" /><path clip-path="url(#clip040)" d="M43.6432 1094.68 Q39.0136 1094.68 36.4673 1096.6 Q33.921 1098.5 33.921 1101.95 Q33.921 1105.38 36.4673 1107.3 Q39.0136 1109.2 43.6432 1109.2 Q48.2496 1109.2 50.7959 1107.3 Q53.3422 1105.38 53.3422 1101.95 Q53.3422 1098.5 50.7959 1096.6 Q48.2496 1094.68 43.6432 1094.68 M53.6894 1090.42 Q60.3097 1090.42 63.5273 1093.36 Q66.768 1096.3 66.768 1102.37 Q66.768 1104.61 66.4208 1106.6 Q66.0967 1108.59 65.4023 1110.47 L61.2588 1110.47 Q62.2773 1108.59 62.7634 1106.77 Q63.2495 1104.94 63.2495 1103.04 Q63.2495 1098.85 61.0505 1096.77 Q58.8746 1094.68 54.4533 1094.68 L52.3468 1094.68 Q54.6385 1096 55.7727 1098.06 Q56.907 1100.12 56.907 1102.99 Q56.907 1107.76 53.2727 1110.68 Q49.6385 1113.59 43.6432 1113.59 Q37.6247 1113.59 33.9904 1110.68 Q30.3562 1107.76 30.3562 1102.99 Q30.3562 1100.12 31.4904 1098.06 Q32.6247 1096 34.9164 1094.68 L30.9812 1094.68 L30.9812 1090.42 L53.6894 1090.42 Z" fill="#000000" fill-rule="nonzero" fill-opacity="1" /><path clip-path="url(#clip040)" d="M43.8746 1069.87 Q43.8746 1075.03 45.0552 1077.02 Q46.2357 1079.01 49.0829 1079.01 Q51.3514 1079.01 52.694 1077.53 Q54.0135 1076.02 54.0135 1073.46 Q54.0135 1069.91 51.5135 1067.78 Q48.9903 1065.63 44.8237 1065.63 L43.8746 1065.63 L43.8746 1069.87 M42.1154 1061.37 L56.907 1061.37 L56.907 1065.63 L52.9718 1065.63 Q55.3329 1067.09 56.4672 1069.27 Q57.5783 1071.44 57.5783 1074.59 Q57.5783 1078.57 55.3561 1080.93 Q53.1107 1083.27 49.3607 1083.27 Q44.9857 1083.27 42.7635 1080.35 Q40.5413 1077.41 40.5413 1071.6 L40.5413 1065.63 L40.1247 1065.63 Q37.1849 1065.63 35.5876 1067.58 Q33.9673 1069.5 33.9673 1072.99 Q33.9673 1075.21 34.4997 1077.32 Q35.0321 1079.43 36.0969 1081.37 L32.1617 1081.37 Q31.259 1079.03 30.8192 1076.84 Q30.3562 1074.64 30.3562 1072.55 Q30.3562 1066.93 33.2728 1064.15 Q36.1895 1061.37 42.1154 1061.37 Z" fill="#000000" fill-rule="nonzero" fill-opacity="1" /><path clip-path="url(#clip040)" d="M53.0181 1048.48 L66.768 1048.48 L66.768 1052.76 L30.9812 1052.76 L30.9812 1048.48 L34.9164 1048.48 Q32.6015 1047.14 31.4904 1045.1 Q30.3562 1043.04 30.3562 1040.19 Q30.3562 1035.47 34.1062 1032.53 Q37.8561 1029.57 43.9672 1029.57 Q50.0783 1029.57 53.8283 1032.53 Q57.5783 1035.47 57.5783 1040.19 Q57.5783 1043.04 56.4672 1045.1 Q55.3329 1047.14 53.0181 1048.48 M43.9672 1033.99 Q39.2682 1033.99 36.6062 1035.93 Q33.921 1037.85 33.921 1041.23 Q33.921 1044.61 36.6062 1046.56 Q39.2682 1048.48 43.9672 1048.48 Q48.6663 1048.48 51.3514 1046.56 Q54.0135 1044.61 54.0135 1041.23 Q54.0135 1037.85 51.3514 1035.93 Q48.6663 1033.99 43.9672 1033.99 Z" fill="#000000" fill-rule="nonzero" fill-opacity="1" /><polyline clip-path="url(#clip044)" style="stroke:#009af9; stroke-linecap:round; stroke-linejoin:round; stroke-width:5.2; stroke-opacity:1; fill:none" points="4436.56,1492.51 6508.44,1690.56 8580.32,1719.97 10652.2,1667.2 12724.1,1818.89 14796,2068.7 16867.9,2216.18 18939.7,2186.37 21011.6,2375.5 23083.5,2272.86 25155.4,2534.56 27227.3,2742.39 29299.2,2854.66 31371,2879.12 33442.9,3605.23 35514.8,3462.65 37586.7,3449.24 39658.6,3373.47 41730.5,3267.55 43802.3,3166.19 45874.2,3078.35 47946.1,2947.34 50018,2974.11 52089.9,2724.03 54161.8,2736.71 56233.6,2733.69 58305.5,2756.61 60377.4,2777.05 62449.3,2723.71 64521.2,3002.85 66593.1,2988.7 68664.9,3070.79 70736.8,3071.73 72808.7,3308.43 74880.6,3239.4 76952.5,3413.96 79024.4,3418.08 81096.2,3497.25 83168.1,3514.01 85240,3321.3 87311.9,3230.98 89383.8,3244.67 91455.7,3661.94 93527.6,3382.25 95599.4,3174.41 97671.3,3624.62 99743.2,3674.98 101815,3618.81 103887,3674.19 105959,3675.79 108031,3615.33 110103,3617.62 112175,3583.52 114246,3460.79 116318,3901.4 118390,3017.95 120462,3241.82 122534,4569.9 124606,4599.96 126678,4630.02 128750,4660.08 130821,4690.13 132893,4727.01 "/>
<polyline clip-path="url(#clip044)" style="stroke:#e26f46; stroke-linecap:round; stroke-linejoin:round; stroke-width:5.2; stroke-opacity:1; fill:none" points="4436.56,1492.51 6508.44,1690.56 8580.32,1719.97 10652.2,1667.2 12724.1,1818.89 14796,2068.7 16867.9,2216.18 18939.7,2186.37 21011.6,2375.5 23083.5,2272.86 25155.4,2534.56 27227.3,2742.39 29299.2,2854.66 31371,2879.12 33442.9,3605.23 35514.8,3462.65 37586.7,3449.24 39658.6,3373.47 41730.5,3267.55 43802.3,3166.19 45874.2,3078.35 47946.1,2947.34 50018,2974.11 52089.9,2724.03 54161.8,2736.71 56233.6,2733.69 58305.5,2756.61 60377.4,2777.05 62449.3,2723.71 64521.2,3002.85 66593.1,2988.7 68664.9,3070.79 70736.8,3071.73 72808.7,3308.43 74880.6,3239.4 76952.5,3413.96 79024.4,3418.08 81096.2,3497.25 83168.1,3514.01 85240,3321.3 87311.9,3230.98 89383.8,3244.67 91455.7,3661.94 93527.6,3382.25 95599.4,3174.41 97671.3,3624.62 99743.2,3674.98 101815,3618.81 103887,3674.19 105959,3675.79 108031,3615.33 110103,3617.62 112175,3583.52 114246,3460.79 116318,3901.4 118390,3017.95 120462,3241.82 122534,4569.9 124606,4599.96 126678,4630.02 128750,4660.08 130821,4690.13 132893,4727.01 "/>
<path clip-path="url(#clip040)" d="M1444.35 1436.14 L2352.76 1436.14 L2352.76 822.09 L1444.35 822.09  Z" fill="#ffffff" fill-rule="evenodd" fill-opacity="1"/>
<defs>
  <clipPath id="clip045">
    <rect x="1444" y="822" width="909" height="615"/>
  </clipPath>
</defs>
<path clip-path="url(#clip040)" d="Mnan nan Qnan nan nan nan Qnan nan nan nan Qnan nan nan nan Qnan nan nan nan Qnan nan nan nan Qnan nan nan nan Qnan nan nan nan Qnan nan nan nan Mnan nan Qnan nan nan nan Qnan nan nan nan Qnan nan nan nan Qnan nan nan nan Qnan nan nan nan Qnan nan nan nan Qnan nan nan nan Qnan nan nan nan Z" fill="#000000" fill-rule="nonzero" fill-opacity="1" /><path clip-path="url(#clip040)" d="Mnan nan Lnan nan Lnan nan Lnan nan Lnan nan Z" fill="#000000" fill-rule="nonzero" fill-opacity="1" /><path clip-path="url(#clip040)" d="Mnan nan Qnan nan nan nan Qnan nan nan nan Qnan nan nan nan Qnan nan nan nan Qnan nan nan nan Qnan nan nan nan Qnan nan nan nan Qnan nan nan nan Mnan nan Qnan nan nan nan Qnan nan nan nan Qnan nan nan nan Qnan nan nan nan Qnan nan nan nan Qnan nan nan nan Qnan nan nan nan Qnan nan nan nan Z" fill="#000000" fill-rule="nonzero" fill-opacity="1" /><path clip-path="url(#clip040)" d="Mnan nan Qnan nan nan nan Qnan nan nan nan Qnan nan nan nan Qnan nan nan nan Qnan nan nan nan Qnan nan nan nan Qnan nan nan nan Qnan nan nan nan Mnan nan Qnan nan nan nan Qnan nan nan nan Qnan nan nan nan Qnan nan nan nan Qnan nan nan nan Qnan nan nan nan Qnan nan nan nan Qnan nan nan nan Z" fill="#000000" fill-rule="nonzero" fill-opacity="1" /><path clip-path="url(#clip040)" d="Mnan nan Lnan nan Lnan nan Lnan nan Lnan nan Z" fill="#000000" fill-rule="nonzero" fill-opacity="1" /><path clip-path="url(#clip040)" d="Mnan nan Lnan nan Lnan nan Lnan nan Lnan nan Lnan nan Lnan nan Lnan nan Lnan nan Lnan nan Lnan nan Lnan nan Z" fill="#000000" fill-rule="nonzero" fill-opacity="1" /><path clip-path="url(#clip040)" d="Mnan nan Qnan nan nan nan Qnan nan nan nan Qnan nan nan nan Qnan nan nan nan Qnan nan nan nan Qnan nan nan nan Qnan nan nan nan Qnan nan nan nan Mnan nan Qnan nan nan nan Qnan nan nan nan Qnan nan nan nan Qnan nan nan nan Qnan nan nan nan Qnan nan nan nan Qnan nan nan nan Qnan nan nan nan Z" fill="#000000" fill-rule="nonzero" fill-opacity="1" /><path clip-path="url(#clip040)" d="Mnan nan Lnan nan Lnan nan Lnan nan Lnan nan Z" fill="#000000" fill-rule="nonzero" fill-opacity="1" /><path clip-path="url(#clip040)" d="Mnan nan Lnan nan Lnan nan Lnan nan Lnan nan Qnan nan nan nan Qnan nan nan nan Qnan nan nan nan Qnan nan nan nan Qnan nan nan nan Qnan nan nan nan Qnan nan nan nan Qnan nan nan nan Lnan nan Qnan nan nan nan Qnan nan nan nan Qnan nan nan nan Qnan nan nan nan Qnan nan nan nan Qnan nan nan nan Qnan nan nan nan Qnan nan nan nan Z" fill="#000000" fill-rule="nonzero" fill-opacity="1" /><path clip-path="url(#clip040)" d="Mnan nan Qnan nan nan nan Qnan nan nan nan Qnan nan nan nan Qnan nan nan nan Qnan nan nan nan Qnan nan nan nan Qnan nan nan nan Qnan nan nan nan Mnan nan Qnan nan nan nan Qnan nan nan nan Qnan nan nan nan Qnan nan nan nan Qnan nan nan nan Qnan nan nan nan Qnan nan nan nan Qnan nan nan nan Z" fill="#000000" fill-rule="nonzero" fill-opacity="1" /><path clip-path="url(#clip040)" d="Mnan nan Lnan nan Lnan nan Lnan nan Lnan nan Z" fill="#000000" fill-rule="nonzero" fill-opacity="1" /><path clip-path="url(#clip040)" d="Mnan nan Qnan nan nan nan Qnan nan nan nan Qnan nan nan nan Qnan nan nan nan Qnan nan nan nan Qnan nan nan nan Lnan nan Qnan nan nan nan Qnan nan nan nan Qnan nan nan nan Qnan nan nan nan Qnan nan nan nan Qnan nan nan nan Lnan nan Lnan nan Lnan nan Qnan nan nan nan Qnan nan nan nan Qnan nan nan nan Qnan nan nan nan Qnan nan nan nan Qnan nan nan nan Lnan nan Qnan nan nan nan Qnan nan nan nan Qnan nan nan nan Qnan nan nan nan Qnan nan nan nan Qnan nan nan nan Z" fill="#000000" fill-rule="nonzero" fill-opacity="1" /><path clip-path="url(#clip040)" d="Mnan nan Qnan nan nan nan Qnan nan nan nan Qnan nan nan nan Qnan nan nan nan Qnan nan nan nan Qnan nan nan nan Qnan nan nan nan Qnan nan nan nan Mnan nan Qnan nan nan nan Qnan nan nan nan Qnan nan nan nan Qnan nan nan nan Qnan nan nan nan Qnan nan nan nan Qnan nan nan nan Qnan nan nan nan Z" fill="#000000" fill-rule="nonzero" fill-opacity="1" /><path clip-path="url(#clip040)" d="Mnan nan Lnan nan Lnan nan Lnan nan Lnan nan Z" fill="#000000" fill-rule="nonzero" fill-opacity="1" /><path clip-path="url(#clip040)" d="Mnan nan Lnan nan Lnan nan Lnan nan Mnan nan Lnan nan Lnan nan Lnan nan Lnan nan Lnan nan Lnan nan Lnan nan Lnan nan Lnan nan Lnan nan Lnan nan Z" fill="#000000" fill-rule="nonzero" fill-opacity="1" /><path clip-path="url(#clip040)" d="Mnan nan Lnan nan Lnan nan Lnan nan Lnan nan Lnan nan Lnan nan Lnan nan Lnan nan Z" fill="#000000" fill-rule="nonzero" fill-opacity="1" /><path clip-path="url(#clip040)" d="Mnan nan Lnan nan Lnan nan Lnan nan Lnan nan Mnan nan Lnan nan Lnan nan Lnan nan Lnan nan Z" fill="#000000" fill-rule="nonzero" fill-opacity="1" /><path clip-path="url(#clip040)" d="Mnan nan Qnan nan nan nan Qnan nan nan nan Qnan nan nan nan Qnan nan nan nan Lnan nan Lnan nan Lnan nan Qnan nan nan nan Qnan nan nan nan Qnan nan nan nan Qnan nan nan nan Lnan nan Lnan nan Lnan nan Qnan nan nan nan Qnan nan nan nan Qnan nan nan nan Qnan nan nan nan Lnan nan Lnan nan Lnan nan Lnan nan Lnan nan Qnan nan nan nan Qnan nan nan nan Qnan nan nan nan Qnan nan nan nan Z" fill="#000000" fill-rule="nonzero" fill-opacity="1" /><path clip-path="url(#clip040)" d="Mnan nan Lnan nan Lnan nan Qnan nan nan nan Qnan nan nan nan Qnan nan nan nan Qnan nan nan nan Lnan nan Qnan nan nan nan Qnan nan nan nan Qnan nan nan nan Qnan nan nan nan Qnan nan nan nan Qnan nan nan nan Qnan nan nan nan Qnan nan nan nan Mnan nan Qnan nan nan nan Qnan nan nan nan Qnan nan nan nan Qnan nan nan nan Lnan nan Z" fill="#000000" fill-rule="nonzero" fill-opacity="1" /><path clip-path="url(#clip040)" d="Mnan nan Qnan nan nan nan Qnan nan nan nan Qnan nan nan nan Qnan nan nan nan Lnan nan Qnan nan nan nan Qnan nan nan nan Qnan nan nan nan Qnan nan nan nan Lnan nan Z" fill="#000000" fill-rule="nonzero" fill-opacity="1" /><path clip-path="url(#clip040)" d="Mnan nan Lnan nan Qnan nan nan nan Qnan nan nan nan Qnan nan nan nan Qnan nan nan nan Qnan nan nan nan Qnan nan nan nan Lnan nan Qnan nan nan nan Qnan nan nan nan Qnan nan nan nan Qnan nan nan nan Qnan nan nan nan Qnan nan nan nan Lnan nan Qnan nan nan nan Qnan nan nan nan Qnan nan nan nan Qnan nan nan nan Qnan nan nan nan Qnan nan nan nan Lnan nan Qnan nan nan nan Qnan nan nan nan Qnan nan nan nan Qnan nan nan nan Qnan nan nan nan Qnan nan nan nan Z" fill="#000000" fill-rule="nonzero" fill-opacity="1" /><path clip-path="url(#clip040)" d="Mnan nan Lnan nan Qnan nan nan nan Qnan nan nan nan Qnan nan nan nan Qnan nan nan nan Lnan nan Qnan nan nan nan Qnan nan nan nan Qnan nan nan nan Qnan nan nan nan Z" fill="#000000" fill-rule="nonzero" fill-opacity="1" /><path clip-path="url(#clip040)" d="Mnan nan Lnan nan Lnan nan Lnan nan Lnan nan Lnan nan Lnan nan Lnan nan Lnan nan Lnan nan Lnan nan Lnan nan Z" fill="#000000" fill-rule="nonzero" fill-opacity="1" /><path clip-path="url(#clip040)" d="Mnan nan Qnan nan nan nan Qnan nan nan nan Qnan nan nan nan Qnan nan nan nan Qnan nan nan nan Qnan nan nan nan Qnan nan nan nan Qnan nan nan nan Mnan nan Qnan nan nan nan Qnan nan nan nan Qnan nan nan nan Qnan nan nan nan Qnan nan nan nan Qnan nan nan nan Qnan nan nan nan Qnan nan nan nan Z" fill="#000000" fill-rule="nonzero" fill-opacity="1" /><path clip-path="url(#clip040)" d="Mnan nan Lnan nan Lnan nan Lnan nan Lnan nan Z" fill="#000000" fill-rule="nonzero" fill-opacity="1" /><path clip-path="url(#clip040)" d="Mnan nan Lnan nan Lnan nan Lnan nan Lnan nan Z" fill="#000000" fill-rule="nonzero" fill-opacity="1" /><path clip-path="url(#clip040)" d="Mnan nan Lnan nan Lnan nan Lnan nan Qnan nan nan nan Qnan nan nan nan Qnan nan nan nan Qnan nan nan nan Lnan nan Lnan nan Lnan nan Lnan nan Lnan nan Qnan nan nan nan Qnan nan nan nan Qnan nan nan nan Qnan nan nan nan Z" fill="#000000" fill-rule="nonzero" fill-opacity="1" /><path clip-path="url(#clip040)" d="Mnan nan Lnan nan Lnan nan Qnan nan nan nan Qnan nan nan nan Lnan nan Lnan nan Lnan nan Lnan nan Lnan nan Lnan nan Lnan nan Lnan nan Lnan nan Lnan nan Lnan nan Qnan nan nan nan Qnan nan nan nan Lnan nan Z" fill="#000000" fill-rule="nonzero" fill-opacity="1" /><path clip-path="url(#clip040)" d="Mnan nan Lnan nan Lnan nan Lnan nan Lnan nan Lnan nan Lnan nan Lnan nan Lnan nan Lnan nan Lnan nan Lnan nan Z" fill="#000000" fill-rule="nonzero" fill-opacity="1" /><path clip-path="url(#clip040)" d="Mnan nan Qnan nan nan nan Qnan nan nan nan Qnan nan nan nan Qnan nan nan nan Qnan nan nan nan Qnan nan nan nan Qnan nan nan nan Qnan nan nan nan Mnan nan Qnan nan nan nan Qnan nan nan nan Qnan nan nan nan Qnan nan nan nan Qnan nan nan nan Qnan nan nan nan Qnan nan nan nan Qnan nan nan nan Z" fill="#000000" fill-rule="nonzero" fill-opacity="1" /><path clip-path="url(#clip040)" d="Mnan nan Lnan nan Lnan nan Lnan nan Lnan nan Lnan nan Lnan nan Lnan nan Lnan nan Lnan nan Lnan nan Z" fill="#000000" fill-rule="nonzero" fill-opacity="1" /><path clip-path="url(#clip040)" d="Mnan nan Qnan nan nan nan Qnan nan nan nan Qnan nan nan nan Qnan nan nan nan Qnan nan nan nan Qnan nan nan nan Lnan nan Lnan nan Mnan nan Lnan nan Lnan nan Lnan nan Qnan nan nan nan Qnan nan nan nan Qnan nan nan nan Qnan nan nan nan Qnan nan nan nan Qnan nan nan nan Lnan nan Lnan nan Qnan nan nan nan Qnan nan nan nan Qnan nan nan nan Qnan nan nan nan Lnan nan Qnan nan nan nan Qnan nan nan nan Qnan nan nan nan Qnan nan nan nan Z" fill="#000000" fill-rule="nonzero" fill-opacity="1" /><path clip-path="url(#clip040)" d="Mnan nan Lnan nan Lnan nan Lnan nan Lnan nan Lnan nan Lnan nan Lnan nan Lnan nan Lnan nan Lnan nan Z" fill="#000000" fill-rule="nonzero" fill-opacity="1" /><polyline clip-path="url(#clip045)" style="stroke:#009af9; stroke-linecap:round; stroke-linejoin:round; stroke-width:5.2; stroke-opacity:1; fill:none" points="2276.27,1492.51 2278.04,1690.56 2279.62,1719.97 2281.54,1667.2 2283.2,1818.89 2284.98,2068.7 2286.58,2216.18 2288.18,2186.37 2289.52,2375.5 2291.54,2272.86 2293.1,2534.56 2293.85,2742.39 2294.46,2854.66 2295.3,2879.12 2296.09,3605.23 2296.71,3462.65 2297.49,3449.24 2298.17,3373.47 2299.19,3267.55 2300.53,3166.19 2301.61,3078.35 2302.56,2947.34 2303.45,2974.11 2304.28,2724.03 2305.03,2736.71 2305.96,2733.69 2306.79,2756.61 2307.78,2777.05 2308.61,2723.71 2309.53,3002.85 2310.25,2988.7 2310.83,3070.79 2311.46,3071.73 2311.98,3308.43 2312.5,3239.4 2313.01,3413.96 2313.55,3418.08 2314.12,3497.25 2314.85,3514.01 2315.78,3321.3 2316.48,3230.98 2317.03,3244.67 2317.47,3661.94 2317.99,3382.25 2318.47,3174.41 2318.84,3624.62 2319.2,3674.98 2319.57,3618.81 2319.99,3674.19 2320.73,3675.79 2321.24,3615.33 2321.64,3617.62 2322.06,3583.52 2322.57,3460.79 2322.99,3901.4 2323.36,3017.95 2323.72,3241.82 2324.07,4569.9 2324.46,4599.96 2325.13,4630.02 2325.65,4660.08 2326.03,4690.13 2326.42,4727.01 "/>
<polyline clip-path="url(#clip045)" style="stroke:#e26f46; stroke-linecap:round; stroke-linejoin:round; stroke-width:5.2; stroke-opacity:1; fill:none" points="1470.06,1492.51 1471.6,1690.56 1473.27,1719.97 1475.34,1667.2 1477.27,1818.89 1479.2,2068.7 1481.06,2216.18 1482.81,2186.37 1484.29,2375.5 1486.22,2272.86 1487.73,2534.56 1488.51,2742.39 1489.13,2854.66 1489.85,2879.12 1490.62,3605.23 1491.25,3462.65 1491.97,3449.24 1492.63,3373.47 1493.75,3267.55 1495.06,3166.19 1496.25,3078.35 1497.21,2947.34 1498.18,2974.11 1499.06,2724.03 1499.89,2736.71 1500.91,2733.69 1501.78,2756.61 1502.6,2777.05 1503.24,2723.71 1504.22,3002.85 1505.08,2988.7 1505.8,3070.79 1506.39,3071.73 1506.91,3308.43 1507.46,3239.4 1507.99,3413.96 1508.86,3418.08 1509.51,3497.25 1510.15,3514.01 1511.14,3321.3 1511.72,3230.98 1512.28,3244.67 1512.76,3661.94 1513.29,3382.25 1513.66,3174.41 1514.02,3624.62 1514.4,3674.98 1514.87,3618.81 1515.29,3674.19 1516.03,3675.79 1516.63,3615.33 1517.07,3617.62 1517.47,3583.52 1517.84,3460.79 1518.24,3901.4 1518.63,3017.95 1519.16,3241.82 1519.6,4569.9 1520.05,4599.96 1520.79,4630.02 1521.38,4660.08 1521.81,4690.13 1522.21,4727.01 "/>
</svg>
