<?xml version="1.0" encoding="utf-8"?>
<svg xmlns="http://www.w3.org/2000/svg" xmlns:xlink="http://www.w3.org/1999/xlink" width="600" height="400" viewBox="0 0 2400 1600">
<defs>
  <clipPath id="clip090">
    <rect x="0" y="0" width="2400" height="1600"/>
  </clipPath>
</defs>
<path clip-path="url(#clip090)" d="M0 1600 L2400 1600 L2400 0 L0 0  Z" fill="#ffffff" fill-rule="evenodd" fill-opacity="1"/>
<defs>
  <clipPath id="clip091">
    <rect x="480" y="0" width="1681" height="1600"/>
  </clipPath>
</defs>
<path clip-path="url(#clip090)" d="M815.092 1190.29 L2112.76 1190.29 L2112.76 343.407 L815.092 343.407  Z" fill="#ffffff" fill-rule="evenodd" fill-opacity="1"/>
<defs>
  <clipPath id="clip092">
    <rect x="815" y="343" width="1299" height="848"/>
  </clipPath>
</defs>
<polyline clip-path="url(#clip092)" style="stroke:#000000; stroke-linecap:round; stroke-linejoin:round; stroke-width:2; stroke-opacity:0.1; fill:none" points="864.717,1190.29 864.717,343.407 "/>
<polyline clip-path="url(#clip092)" style="stroke:#000000; stroke-linecap:round; stroke-linejoin:round; stroke-width:2; stroke-opacity:0.1; fill:none" points="1064.45,1190.29 1064.45,343.407 "/>
<polyline clip-path="url(#clip092)" style="stroke:#000000; stroke-linecap:round; stroke-linejoin:round; stroke-width:2; stroke-opacity:0.1; fill:none" points="1264.19,1190.29 1264.19,343.407 "/>
<polyline clip-path="url(#clip092)" style="stroke:#000000; stroke-linecap:round; stroke-linejoin:round; stroke-width:2; stroke-opacity:0.1; fill:none" points="1463.92,1190.29 1463.92,343.407 "/>
<polyline clip-path="url(#clip092)" style="stroke:#000000; stroke-linecap:round; stroke-linejoin:round; stroke-width:2; stroke-opacity:0.1; fill:none" points="1663.66,1190.29 1663.66,343.407 "/>
<polyline clip-path="url(#clip092)" style="stroke:#000000; stroke-linecap:round; stroke-linejoin:round; stroke-width:2; stroke-opacity:0.1; fill:none" points="1863.39,1190.29 1863.39,343.407 "/>
<polyline clip-path="url(#clip092)" style="stroke:#000000; stroke-linecap:round; stroke-linejoin:round; stroke-width:2; stroke-opacity:0.1; fill:none" points="2063.13,1190.29 2063.13,343.407 "/>
<polyline clip-path="url(#clip092)" style="stroke:#000000; stroke-linecap:round; stroke-linejoin:round; stroke-width:2; stroke-opacity:0.1; fill:none" points="815.092,1166.32 2112.76,1166.32 "/>
<polyline clip-path="url(#clip092)" style="stroke:#000000; stroke-linecap:round; stroke-linejoin:round; stroke-width:2; stroke-opacity:0.1; fill:none" points="815.092,966.582 2112.76,966.582 "/>
<polyline clip-path="url(#clip092)" style="stroke:#000000; stroke-linecap:round; stroke-linejoin:round; stroke-width:2; stroke-opacity:0.1; fill:none" points="815.092,766.846 2112.76,766.846 "/>
<polyline clip-path="url(#clip092)" style="stroke:#000000; stroke-linecap:round; stroke-linejoin:round; stroke-width:2; stroke-opacity:0.1; fill:none" points="815.092,567.11 2112.76,567.11 "/>
<polyline clip-path="url(#clip092)" style="stroke:#000000; stroke-linecap:round; stroke-linejoin:round; stroke-width:2; stroke-opacity:0.1; fill:none" points="815.092,367.375 2112.76,367.375 "/>
<polyline clip-path="url(#clip090)" style="stroke:#000000; stroke-linecap:round; stroke-linejoin:round; stroke-width:4; stroke-opacity:1; fill:none" points="815.092,966.582 2112.76,966.582 "/>
<polyline clip-path="url(#clip090)" style="stroke:#000000; stroke-linecap:round; stroke-linejoin:round; stroke-width:4; stroke-opacity:0; fill:none" points="864.717,966.582 864.717,966.582 "/>
<polyline clip-path="url(#clip090)" style="stroke:#000000; stroke-linecap:round; stroke-linejoin:round; stroke-width:4; stroke-opacity:0; fill:none" points="1064.45,966.582 1064.45,966.582 "/>
<polyline clip-path="url(#clip090)" style="stroke:#000000; stroke-linecap:round; stroke-linejoin:round; stroke-width:4; stroke-opacity:0; fill:none" points="1264.19,966.582 1264.19,966.582 "/>
<polyline clip-path="url(#clip090)" style="stroke:#000000; stroke-linecap:round; stroke-linejoin:round; stroke-width:4; stroke-opacity:0; fill:none" points="1463.92,966.582 1463.92,966.582 "/>
<polyline clip-path="url(#clip090)" style="stroke:#000000; stroke-linecap:round; stroke-linejoin:round; stroke-width:4; stroke-opacity:0; fill:none" points="1663.66,966.582 1663.66,966.582 "/>
<polyline clip-path="url(#clip090)" style="stroke:#000000; stroke-linecap:round; stroke-linejoin:round; stroke-width:4; stroke-opacity:0; fill:none" points="1863.39,966.582 1863.39,966.582 "/>
<polyline clip-path="url(#clip090)" style="stroke:#000000; stroke-linecap:round; stroke-linejoin:round; stroke-width:4; stroke-opacity:0; fill:none" points="2063.13,966.582 2063.13,966.582 "/>
<path clip-path="url(#clip090)" d="M834.659 1235.86 L864.335 1235.86 L864.335 1239.79 L834.659 1239.79 L834.659 1235.86 Z" fill="#000000" fill-rule="nonzero" fill-opacity="1" /><path clip-path="url(#clip090)" d="M878.455 1248.75 L894.775 1248.75 L894.775 1252.69 L872.83 1252.69 L872.83 1248.75 Q875.492 1246 880.076 1241.37 Q884.682 1236.71 885.863 1235.37 Q888.108 1232.85 888.988 1231.11 Q889.89 1229.35 889.89 1227.66 Q889.89 1224.91 887.946 1223.17 Q886.025 1221.44 882.923 1221.44 Q880.724 1221.44 878.27 1222.2 Q875.84 1222.96 873.062 1224.51 L873.062 1219.79 Q875.886 1218.66 878.34 1218.08 Q880.793 1217.5 882.83 1217.5 Q888.201 1217.5 891.395 1220.19 Q894.589 1222.87 894.589 1227.36 Q894.589 1229.49 893.779 1231.41 Q892.992 1233.31 890.886 1235.9 Q890.307 1236.57 887.205 1239.79 Q884.103 1242.99 878.455 1248.75 Z" fill="#000000" fill-rule="nonzero" fill-opacity="1" /><path clip-path="url(#clip090)" d="M1034.21 1235.86 L1063.89 1235.86 L1063.89 1239.79 L1034.21 1239.79 L1034.21 1235.86 Z" fill="#000000" fill-rule="nonzero" fill-opacity="1" /><path clip-path="url(#clip090)" d="M1074.79 1248.75 L1082.43 1248.75 L1082.43 1222.38 L1074.12 1224.05 L1074.12 1219.79 L1082.38 1218.13 L1087.06 1218.13 L1087.06 1248.75 L1094.7 1248.75 L1094.7 1252.69 L1074.79 1252.69 L1074.79 1248.75 Z" fill="#000000" fill-rule="nonzero" fill-opacity="1" /><path clip-path="url(#clip090)" d="M1264.19 1221.2 Q1260.58 1221.2 1258.75 1224.77 Q1256.94 1228.31 1256.94 1235.44 Q1256.94 1242.55 1258.75 1246.11 Q1260.58 1249.65 1264.19 1249.65 Q1267.82 1249.65 1269.63 1246.11 Q1271.46 1242.55 1271.46 1235.44 Q1271.46 1228.31 1269.63 1224.77 Q1267.82 1221.2 1264.19 1221.2 M1264.19 1217.5 Q1270 1217.5 1273.05 1222.11 Q1276.13 1226.69 1276.13 1235.44 Q1276.13 1244.17 1273.05 1248.77 Q1270 1253.36 1264.19 1253.36 Q1258.38 1253.36 1255.3 1248.77 Q1252.24 1244.17 1252.24 1235.44 Q1252.24 1226.69 1255.3 1222.11 Q1258.38 1217.5 1264.19 1217.5 Z" fill="#000000" fill-rule="nonzero" fill-opacity="1" /><path clip-path="url(#clip090)" d="M1454.31 1248.75 L1461.94 1248.75 L1461.94 1222.38 L1453.63 1224.05 L1453.63 1219.79 L1461.9 1218.13 L1466.57 1218.13 L1466.57 1248.75 L1474.21 1248.75 L1474.21 1252.69 L1454.31 1252.69 L1454.31 1248.75 Z" fill="#000000" fill-rule="nonzero" fill-opacity="1" /><path clip-path="url(#clip090)" d="M1658.31 1248.75 L1674.63 1248.75 L1674.63 1252.69 L1652.69 1252.69 L1652.69 1248.75 Q1655.35 1246 1659.93 1241.37 Q1664.54 1236.71 1665.72 1235.37 Q1667.96 1232.85 1668.84 1231.11 Q1669.75 1229.35 1669.75 1227.66 Q1669.75 1224.91 1667.8 1223.17 Q1665.88 1221.44 1662.78 1221.44 Q1660.58 1221.44 1658.13 1222.2 Q1655.7 1222.96 1652.92 1224.51 L1652.92 1219.79 Q1655.74 1218.66 1658.2 1218.08 Q1660.65 1217.5 1662.69 1217.5 Q1668.06 1217.5 1671.25 1220.19 Q1674.45 1222.87 1674.45 1227.36 Q1674.45 1229.49 1673.64 1231.41 Q1672.85 1233.31 1670.74 1235.9 Q1670.16 1236.57 1667.06 1239.79 Q1663.96 1242.99 1658.31 1248.75 Z" fill="#000000" fill-rule="nonzero" fill-opacity="1" /><path clip-path="url(#clip090)" d="M1867.64 1234.05 Q1871 1234.77 1872.87 1237.04 Q1874.77 1239.31 1874.77 1242.64 Q1874.77 1247.75 1871.25 1250.56 Q1867.74 1253.36 1861.25 1253.36 Q1859.08 1253.36 1856.76 1252.92 Q1854.47 1252.5 1852.02 1251.64 L1852.02 1247.13 Q1853.96 1248.26 1856.28 1248.84 Q1858.59 1249.42 1861.11 1249.42 Q1865.51 1249.42 1867.8 1247.69 Q1870.12 1245.95 1870.12 1242.64 Q1870.12 1239.58 1867.97 1237.87 Q1865.84 1236.13 1862.02 1236.13 L1857.99 1236.13 L1857.99 1232.29 L1862.2 1232.29 Q1865.65 1232.29 1867.48 1230.93 Q1869.31 1229.54 1869.31 1226.94 Q1869.31 1224.28 1867.41 1222.87 Q1865.54 1221.44 1862.02 1221.44 Q1860.1 1221.44 1857.9 1221.85 Q1855.7 1222.27 1853.06 1223.15 L1853.06 1218.98 Q1855.72 1218.24 1858.04 1217.87 Q1860.37 1217.5 1862.43 1217.5 Q1867.76 1217.5 1870.86 1219.93 Q1873.96 1222.34 1873.96 1226.46 Q1873.96 1229.33 1872.32 1231.32 Q1870.67 1233.29 1867.64 1234.05 Z" fill="#000000" fill-rule="nonzero" fill-opacity="1" /><path clip-path="url(#clip090)" d="M2066.14 1222.2 L2054.33 1240.65 L2066.14 1240.65 L2066.14 1222.2 M2064.91 1218.13 L2070.79 1218.13 L2070.79 1240.65 L2075.72 1240.65 L2075.72 1244.54 L2070.79 1244.54 L2070.79 1252.69 L2066.14 1252.69 L2066.14 1244.54 L2050.54 1244.54 L2050.54 1240.02 L2064.91 1218.13 Z" fill="#000000" fill-rule="nonzero" fill-opacity="1" /><polyline clip-path="url(#clip090)" style="stroke:#000000; stroke-linecap:round; stroke-linejoin:round; stroke-width:4; stroke-opacity:1; fill:none" points="1264.19,1190.29 1264.19,343.407 "/>
<polyline clip-path="url(#clip090)" style="stroke:#000000; stroke-linecap:round; stroke-linejoin:round; stroke-width:4; stroke-opacity:0; fill:none" points="1264.19,1166.32 1264.19,1166.32 "/>
<polyline clip-path="url(#clip090)" style="stroke:#000000; stroke-linecap:round; stroke-linejoin:round; stroke-width:4; stroke-opacity:0; fill:none" points="1264.19,966.582 1264.19,966.582 "/>
<polyline clip-path="url(#clip090)" style="stroke:#000000; stroke-linecap:round; stroke-linejoin:round; stroke-width:4; stroke-opacity:0; fill:none" points="1264.19,766.846 1264.19,766.846 "/>
<polyline clip-path="url(#clip090)" style="stroke:#000000; stroke-linecap:round; stroke-linejoin:round; stroke-width:4; stroke-opacity:0; fill:none" points="1264.19,567.11 1264.19,567.11 "/>
<polyline clip-path="url(#clip090)" style="stroke:#000000; stroke-linecap:round; stroke-linejoin:round; stroke-width:4; stroke-opacity:0; fill:none" points="1264.19,367.375 1264.19,367.375 "/>
<path clip-path="url(#clip090)" d="M718.606 1166.77 L748.281 1166.77 L748.281 1170.7 L718.606 1170.7 L718.606 1166.77 Z" fill="#000000" fill-rule="nonzero" fill-opacity="1" /><path clip-path="url(#clip090)" d="M759.184 1179.66 L766.823 1179.66 L766.823 1153.3 L758.513 1154.96 L758.513 1150.7 L766.777 1149.04 L771.453 1149.04 L771.453 1179.66 L779.092 1179.66 L779.092 1183.6 L759.184 1183.6 L759.184 1179.66 Z" fill="#000000" fill-rule="nonzero" fill-opacity="1" /><path clip-path="url(#clip090)" d="M767.147 952.38 Q763.536 952.38 761.707 955.945 Q759.902 959.487 759.902 966.616 Q759.902 973.723 761.707 977.288 Q763.536 980.829 767.147 980.829 Q770.781 980.829 772.587 977.288 Q774.416 973.723 774.416 966.616 Q774.416 959.487 772.587 955.945 Q770.781 952.38 767.147 952.38 M767.147 948.677 Q772.957 948.677 776.013 953.283 Q779.092 957.866 779.092 966.616 Q779.092 975.343 776.013 979.95 Q772.957 984.533 767.147 984.533 Q761.337 984.533 758.258 979.95 Q755.203 975.343 755.203 966.616 Q755.203 957.866 758.258 953.283 Q761.337 948.677 767.147 948.677 Z" fill="#000000" fill-rule="nonzero" fill-opacity="1" /><path clip-path="url(#clip090)" d="M759.184 780.191 L766.823 780.191 L766.823 753.825 L758.513 755.492 L758.513 751.233 L766.777 749.566 L771.453 749.566 L771.453 780.191 L779.092 780.191 L779.092 784.126 L759.184 784.126 L759.184 780.191 Z" fill="#000000" fill-rule="nonzero" fill-opacity="1" /><path clip-path="url(#clip090)" d="M762.772 580.455 L779.092 580.455 L779.092 584.39 L757.147 584.39 L757.147 580.455 Q759.809 577.701 764.393 573.071 Q768.999 568.418 770.18 567.076 Q772.425 564.553 773.305 562.816 Q774.207 561.057 774.207 559.367 Q774.207 556.613 772.263 554.877 Q770.342 553.141 767.24 553.141 Q765.041 553.141 762.587 553.904 Q760.156 554.668 757.379 556.219 L757.379 551.497 Q760.203 550.363 762.656 549.784 Q765.11 549.205 767.147 549.205 Q772.517 549.205 775.712 551.891 Q778.906 554.576 778.906 559.066 Q778.906 561.196 778.096 563.117 Q777.309 565.015 775.203 567.608 Q774.624 568.279 771.522 571.497 Q768.42 574.691 762.772 580.455 Z" fill="#000000" fill-rule="nonzero" fill-opacity="1" /><path clip-path="url(#clip090)" d="M771.962 366.021 Q775.318 366.738 777.193 369.007 Q779.092 371.275 779.092 374.609 Q779.092 379.724 775.573 382.525 Q772.055 385.326 765.573 385.326 Q763.397 385.326 761.082 384.886 Q758.791 384.47 756.337 383.613 L756.337 379.099 Q758.281 380.234 760.596 380.812 Q762.911 381.391 765.434 381.391 Q769.832 381.391 772.124 379.655 Q774.439 377.919 774.439 374.609 Q774.439 371.553 772.286 369.84 Q770.156 368.104 766.337 368.104 L762.309 368.104 L762.309 364.261 L766.522 364.261 Q769.971 364.261 771.8 362.896 Q773.629 361.507 773.629 358.914 Q773.629 356.252 771.73 354.84 Q769.855 353.405 766.337 353.405 Q764.416 353.405 762.217 353.822 Q760.018 354.238 757.379 355.118 L757.379 350.951 Q760.041 350.211 762.355 349.84 Q764.693 349.47 766.754 349.47 Q772.078 349.47 775.179 351.9 Q778.281 354.308 778.281 358.428 Q778.281 361.298 776.638 363.289 Q774.994 365.257 771.962 366.021 Z" fill="#000000" fill-rule="nonzero" fill-opacity="1" /><path clip-path="url(#clip092)" d="M1064.45 1166.32 L1064.45 1166.32 L1104.4 1166.32 L1144.35 1166.32 L1184.29 1166.32 L1224.24 1166.32 L1264.19 1166.32 L1304.14 1166.32 L1344.08 1166.32 L1384.03 1166.32 L1423.98 1166.32 L1463.92 1166.32 L1503.87 1166.32 L1543.82 1166.32 L1583.77 1166.32 L1623.71 1166.32 L1663.66 1166.32 L1703.61 1166.32 L1743.55 1166.32 L1783.5 1166.32 L1823.45 1166.32 L1863.39 1166.32 L1863.39 1166.32 L1863.39 1166.32 L1863.39 1166.32 L1863.39 1126.37 L1863.39 1086.42 L1863.39 1046.48 L1863.39 1006.53 L1863.39 966.582 L1863.39 926.634 L1863.39 886.687 L1863.39 846.74 L1863.39 806.793 L1863.39 766.846 L1863.39 726.899 L1863.39 686.952 L1863.39 647.005 L1863.39 607.058 L1863.39 567.11 L1863.39 527.163 L1863.39 487.216 L1863.39 447.269 L1863.39 407.322 L1863.39 367.375 L1863.39 367.375 L1863.39 367.375 L1863.39 367.375 L1823.45 367.375 L1783.5 367.375 L1743.55 367.375 L1703.61 367.375 L1663.66 367.375 L1623.71 367.375 L1583.77 367.375 L1543.82 367.375 L1503.87 367.375 L1463.92 367.375 L1423.98 367.375 L1384.03 367.375 L1344.08 367.375 L1304.14 367.375 L1264.19 367.375 L1224.24 367.375 L1184.29 367.375 L1144.35 367.375 L1104.4 367.375 L1064.45 367.375 L1064.45 367.375 L1064.45 367.375 L1064.45 367.375 L1064.45 407.322 L1064.45 447.269 L1064.45 487.216 L1064.45 527.163 L1064.45 567.11 L1064.45 607.058 L1064.45 647.005 L1064.45 686.952 L1064.45 726.899 L1064.45 766.846 L1064.45 806.793 L1064.45 846.74 L1064.45 886.687 L1064.45 926.634 L1064.45 966.582 L1064.45 1006.53 L1064.45 1046.48 L1064.45 1086.42 L1064.45 1126.37 L1064.45 1166.32 L1064.45 1166.32 L1064.45 1166.32  Z" fill="#000003" fill-rule="evenodd" fill-opacity="1"/>
<path clip-path="url(#clip092)" d="M1064.45 1166.32 L1064.45 1166.32 L1104.4 1166.32 L1144.35 1166.32 L1184.29 1166.32 L1224.24 1166.32 L1264.19 1166.32 L1304.14 1166.32 L1344.08 1166.32 L1384.03 1166.32 L1423.98 1166.32 L1463.92 1166.32 L1503.87 1166.32 L1543.82 1166.32 L1583.77 1166.32 L1623.71 1166.32 L1663.66 1166.32 L1703.61 1166.32 L1743.55 1166.32 L1783.5 1166.32 L1823.45 1166.32 L1863.39 1166.32 L1863.39 1166.32 L1863.39 1166.32 L1863.39 1166.32 L1863.39 1126.37 L1863.39 1126.37 L1863.39 1110.56 L1823.45 1100.57 L1789.49 1086.42 L1783.5 1083.43 L1743.55 1055.46 L1733.57 1046.48 L1703.61 1012.77 L1699.07 1006.53 L1677.28 966.582 L1663.66 929.131 L1662.89 926.634 L1656.75 886.687 L1656.75 846.74 L1662.89 806.793 L1663.66 804.296 L1677.28 766.846 L1699.07 726.899 L1703.61 720.657 L1733.57 686.952 L1743.55 677.964 L1783.5 650.001 L1789.49 647.005 L1823.45 632.857 L1863.39 622.87 L1863.39 647.005 L1863.39 607.058 L1863.39 567.11 L1863.39 527.163 L1863.39 487.216 L1863.39 447.269 L1863.39 407.322 L1863.39 367.375 L1863.39 367.375 L1863.39 367.375 L1863.39 367.375 L1823.45 367.375 L1783.5 367.375 L1743.55 367.375 L1703.61 367.375 L1663.66 367.375 L1623.71 367.375 L1583.77 367.375 L1543.82 367.375 L1503.87 367.375 L1463.92 367.375 L1423.98 367.375 L1384.03 367.375 L1344.08 367.375 L1304.14 367.375 L1264.19 367.375 L1224.24 367.375 L1184.29 367.375 L1144.35 367.375 L1104.4 367.375 L1064.45 367.375 L1064.45 367.375 L1064.45 367.375 L1064.45 367.375 L1064.45 407.322 L1064.45 447.269 L1064.45 487.216 L1064.45 527.163 L1064.45 567.11 L1064.45 607.058 L1064.45 647.005 L1064.45 686.952 L1064.45 726.899 L1064.45 766.846 L1064.45 806.793 L1064.45 846.74 L1064.45 886.687 L1064.45 926.634 L1064.45 966.582 L1064.45 1006.53 L1064.45 1046.48 L1064.45 1086.42 L1064.45 1126.37 L1064.45 1166.32 L1064.45 1166.32 L1064.45 1166.32  Z" fill="#0b0726" fill-rule="evenodd" fill-opacity="1"/>
<path clip-path="url(#clip092)" d="M1064.45 1166.32 L1064.45 1166.32 L1104.4 1166.32 L1144.35 1166.32 L1184.29 1166.32 L1224.24 1166.32 L1264.19 1166.32 L1304.14 1166.32 L1344.08 1166.32 L1384.03 1166.32 L1423.98 1166.32 L1463.92 1166.32 L1503.87 1166.32 L1543.82 1166.32 L1583.77 1166.32 L1623.71 1166.32 L1663.66 1166.32 L1703.61 1166.32 L1703.61 1166.32 L1728.02 1166.32 L1703.61 1150.62 L1672.74 1126.37 L1663.66 1118.05 L1634.47 1086.42 L1623.71 1072.44 L1606.4 1046.48 L1585.1 1006.53 L1583.77 1003.2 L1570.84 966.582 L1561.44 926.634 L1556.74 886.687 L1556.74 846.74 L1561.44 806.793 L1570.84 766.846 L1583.77 730.228 L1585.1 726.899 L1606.4 686.952 L1623.71 660.986 L1634.47 647.005 L1663.66 615.38 L1672.74 607.058 L1703.61 582.804 L1728.02 567.11 L1743.55 558.372 L1783.5 540.895 L1823.45 528.412 L1830.11 527.163 L1863.39 521.615 L1863.39 527.163 L1863.39 487.216 L1863.39 447.269 L1863.39 407.322 L1863.39 367.375 L1863.39 367.375 L1863.39 367.375 L1863.39 367.375 L1823.45 367.375 L1783.5 367.375 L1743.55 367.375 L1703.61 367.375 L1663.66 367.375 L1623.71 367.375 L1583.77 367.375 L1543.82 367.375 L1503.87 367.375 L1463.92 367.375 L1423.98 367.375 L1384.03 367.375 L1344.08 367.375 L1304.14 367.375 L1264.19 367.375 L1224.24 367.375 L1184.29 367.375 L1144.35 367.375 L1104.4 367.375 L1064.45 367.375 L1064.45 367.375 L1064.45 367.375 L1064.45 367.375 L1064.45 407.322 L1064.45 447.269 L1064.45 487.216 L1064.45 527.163 L1064.45 567.11 L1064.45 607.058 L1064.45 647.005 L1064.45 686.952 L1064.45 726.899 L1064.45 766.846 L1064.45 806.793 L1064.45 846.74 L1064.45 886.687 L1064.45 926.634 L1064.45 966.582 L1064.45 1006.53 L1064.45 1046.48 L1064.45 1086.42 L1064.45 1126.37 L1064.45 1166.32 L1064.45 1166.32 L1064.45 1166.32  Z" fill="#240b4e" fill-rule="evenodd" fill-opacity="1"/>
<path clip-path="url(#clip092)" d="M1064.45 1166.32 L1064.45 1166.32 L1104.4 1166.32 L1144.35 1166.32 L1184.29 1166.32 L1224.24 1166.32 L1264.19 1166.32 L1304.14 1166.32 L1344.08 1166.32 L1384.03 1166.32 L1423.98 1166.32 L1463.92 1166.32 L1503.87 1166.32 L1543.82 1166.32 L1583.77 1166.32 L1583.77 1166.32 L1603.07 1166.32 L1583.77 1145.63 L1567.9 1126.37 L1543.82 1092.25 L1540.14 1086.42 L1519.11 1046.48 L1503.87 1010.27 L1502.44 1006.53 L1491.03 966.582 L1483.42 926.634 L1479.62 886.687 L1479.62 846.74 L1483.42 806.793 L1491.03 766.846 L1502.44 726.899 L1503.87 723.154 L1519.11 686.952 L1540.14 647.005 L1543.82 641.179 L1567.9 607.058 L1583.77 587.797 L1603.07 567.11 L1623.71 547.761 L1649.06 527.163 L1663.66 516.622 L1703.61 492.21 L1713.59 487.216 L1743.55 473.734 L1783.5 459.752 L1823.45 449.766 L1840.09 447.269 L1863.39 444.091 L1863.39 447.269 L1863.39 407.322 L1863.39 367.375 L1863.39 367.375 L1863.39 367.375 L1863.39 367.375 L1823.45 367.375 L1783.5 367.375 L1743.55 367.375 L1703.61 367.375 L1663.66 367.375 L1623.71 367.375 L1583.77 367.375 L1543.82 367.375 L1503.87 367.375 L1463.92 367.375 L1423.98 367.375 L1384.03 367.375 L1344.08 367.375 L1304.14 367.375 L1264.19 367.375 L1224.24 367.375 L1184.29 367.375 L1144.35 367.375 L1104.4 367.375 L1064.45 367.375 L1064.45 367.375 L1064.45 367.375 L1064.45 367.375 L1064.45 407.322 L1064.45 447.269 L1064.45 487.216 L1064.45 527.163 L1064.45 567.11 L1064.45 607.058 L1064.45 647.005 L1064.45 686.952 L1064.45 726.899 L1064.45 766.846 L1064.45 806.793 L1064.45 846.74 L1064.45 886.687 L1064.45 926.634 L1064.45 966.582 L1064.45 1006.53 L1064.45 1046.48 L1064.45 1086.42 L1064.45 1126.37 L1064.45 1166.32 L1064.45 1166.32 L1064.45 1166.32  Z" fill="#410967" fill-rule="evenodd" fill-opacity="1"/>
<path clip-path="url(#clip092)" d="M1064.45 1166.32 L1064.45 1166.32 L1104.4 1166.32 L1144.35 1166.32 L1184.29 1166.32 L1224.24 1166.32 L1264.19 1166.32 L1304.14 1166.32 L1344.08 1166.32 L1384.03 1166.32 L1423.98 1166.32 L1463.92 1166.32 L1503.87 1166.32 L1503.87 1166.32 L1516.49 1166.32 L1503.87 1149.2 L1488.65 1126.37 L1465.83 1086.42 L1463.92 1082.43 L1448.29 1046.48 L1434.4 1006.53 L1423.98 966.582 L1423.98 966.582 L1417.59 926.634 L1414.39 886.687 L1414.39 846.74 L1417.59 806.793 L1423.98 766.846 L1423.98 766.846 L1434.4 726.899 L1448.29 686.952 L1463.92 650.999 L1465.83 647.005 L1488.65 607.058 L1503.87 584.231 L1516.49 567.11 L1543.82 534.653 L1550.87 527.163 L1583.77 496.093 L1594.42 487.216 L1623.71 465.245 L1651.37 447.269 L1663.66 440.006 L1703.61 420.032 L1734.68 407.322 L1743.55 403.993 L1783.5 392.342 L1823.45 384.019 L1863.39 379.026 L1863.39 407.322 L1863.39 367.375 L1863.39 367.375 L1863.39 367.375 L1863.39 367.375 L1823.45 367.375 L1783.5 367.375 L1743.55 367.375 L1703.61 367.375 L1663.66 367.375 L1623.71 367.375 L1583.77 367.375 L1543.82 367.375 L1503.87 367.375 L1463.92 367.375 L1423.98 367.375 L1384.03 367.375 L1344.08 367.375 L1304.14 367.375 L1264.19 367.375 L1224.24 367.375 L1184.29 367.375 L1144.35 367.375 L1104.4 367.375 L1064.45 367.375 L1064.45 367.375 L1064.45 367.375 L1064.45 367.375 L1064.45 407.322 L1064.45 447.269 L1064.45 487.216 L1064.45 527.163 L1064.45 567.11 L1064.45 607.058 L1064.45 647.005 L1064.45 686.952 L1064.45 726.899 L1064.45 766.846 L1064.45 806.793 L1064.45 846.74 L1064.45 886.687 L1064.45 926.634 L1064.45 966.582 L1064.45 1006.53 L1064.45 1046.48 L1064.45 1086.42 L1064.45 1126.37 L1064.45 1166.32 L1064.45 1166.32 L1064.45 1166.32  Z" fill="#5d126e" fill-rule="evenodd" fill-opacity="1"/>
<path clip-path="url(#clip092)" d="M1064.45 1166.32 L1064.45 1166.32 L1104.4 1166.32 L1144.35 1166.32 L1184.29 1166.32 L1224.24 1166.32 L1264.19 1166.32 L1304.14 1166.32 L1344.08 1166.32 L1384.03 1166.32 L1423.98 1166.32 L1423.98 1166.32 L1446.12 1166.32 L1423.98 1129.94 L1421.98 1126.37 L1402.8 1086.42 L1386.83 1046.48 L1384.03 1037.74 L1374.78 1006.53 L1365.91 966.582 L1359.99 926.634 L1357.03 886.687 L1357.03 846.74 L1359.99 806.793 L1365.91 766.846 L1374.78 726.899 L1384.03 695.69 L1386.83 686.952 L1402.8 647.005 L1421.98 607.058 L1423.98 603.491 L1446.12 567.11 L1463.92 541.519 L1474.86 527.163 L1503.87 493.319 L1509.65 487.216 L1543.82 454.759 L1552.63 447.269 L1583.77 423.21 L1607.07 407.322 L1623.71 396.919 L1663.66 375.281 L1680.91 367.375 L1663.66 367.375 L1663.66 367.375 L1623.71 367.375 L1583.77 367.375 L1543.82 367.375 L1503.87 367.375 L1463.92 367.375 L1423.98 367.375 L1384.03 367.375 L1344.08 367.375 L1304.14 367.375 L1264.19 367.375 L1224.24 367.375 L1184.29 367.375 L1144.35 367.375 L1104.4 367.375 L1064.45 367.375 L1064.45 367.375 L1064.45 367.375 L1064.45 367.375 L1064.45 407.322 L1064.45 447.269 L1064.45 487.216 L1064.45 527.163 L1064.45 567.11 L1064.45 607.058 L1064.45 647.005 L1064.45 686.952 L1064.45 726.899 L1064.45 766.846 L1064.45 806.793 L1064.45 846.74 L1064.45 886.687 L1064.45 926.634 L1064.45 966.582 L1064.45 1006.53 L1064.45 1046.48 L1064.45 1086.42 L1064.45 1126.37 L1064.45 1166.32 L1064.45 1166.32 L1064.45 1166.32  Z" fill="#781c6d" fill-rule="evenodd" fill-opacity="1"/>
<path clip-path="url(#clip092)" d="M1064.45 1166.32 L1064.45 1166.32 L1104.4 1166.32 L1144.35 1166.32 L1184.29 1166.32 L1224.24 1166.32 L1264.19 1166.32 L1304.14 1166.32 L1344.08 1166.32 L1384.03 1166.32 L1384.03 1166.32 L1384.83 1166.32 L1384.03 1164.89 L1364.06 1126.37 L1346.3 1086.42 L1344.08 1080.43 L1332.37 1046.48 L1321.35 1006.53 L1313.09 966.582 L1307.58 926.634 L1304.82 886.687 L1304.82 846.74 L1307.58 806.793 L1313.09 766.846 L1321.35 726.899 L1332.37 686.952 L1344.08 652.997 L1346.3 647.005 L1364.06 607.058 L1384.03 568.537 L1384.83 567.11 L1410.39 527.163 L1423.98 508.299 L1440.48 487.216 L1463.92 460.252 L1476.29 447.269 L1503.87 420.94 L1519.64 407.322 L1543.82 388.181 L1573.19 367.375 L1543.82 367.375 L1543.82 367.375 L1503.87 367.375 L1463.92 367.375 L1423.98 367.375 L1384.03 367.375 L1344.08 367.375 L1304.14 367.375 L1264.19 367.375 L1224.24 367.375 L1184.29 367.375 L1144.35 367.375 L1104.4 367.375 L1064.45 367.375 L1064.45 367.375 L1064.45 367.375 L1064.45 367.375 L1064.45 407.322 L1064.45 447.269 L1064.45 487.216 L1064.45 527.163 L1064.45 567.11 L1064.45 607.058 L1064.45 647.005 L1064.45 686.952 L1064.45 726.899 L1064.45 766.846 L1064.45 806.793 L1064.45 846.74 L1064.45 886.687 L1064.45 926.634 L1064.45 966.582 L1064.45 1006.53 L1064.45 1046.48 L1064.45 1086.42 L1064.45 1126.37 L1064.45 1166.32 L1064.45 1166.32 L1064.45 1166.32  Z" fill="#932567" fill-rule="evenodd" fill-opacity="1"/>
<path clip-path="url(#clip092)" d="M1064.45 1166.32 L1064.45 1166.32 L1104.4 1166.32 L1144.35 1166.32 L1184.29 1166.32 L1224.24 1166.32 L1264.19 1166.32 L1304.14 1166.32 L1304.14 1166.32 L1330.65 1166.32 L1311.37 1126.37 L1304.14 1108.89 L1295.44 1086.42 L1282.55 1046.48 L1272.24 1006.53 L1264.51 966.582 L1264.19 964.085 L1259.65 926.634 L1257.23 886.687 L1257.23 846.74 L1259.65 806.793 L1264.19 769.343 L1264.51 766.846 L1272.24 726.899 L1282.55 686.952 L1295.44 647.005 L1304.14 624.534 L1311.37 607.058 L1330.65 567.11 L1344.08 542.768 L1353.33 527.163 L1379.96 487.216 L1384.03 481.723 L1411.59 447.269 L1423.98 433.197 L1448.73 407.322 L1463.92 392.758 L1492.93 367.375 L1463.92 367.375 L1463.92 367.375 L1423.98 367.375 L1384.03 367.375 L1344.08 367.375 L1304.14 367.375 L1264.19 367.375 L1224.24 367.375 L1184.29 367.375 L1144.35 367.375 L1104.4 367.375 L1064.45 367.375 L1064.45 367.375 L1064.45 367.375 L1064.45 367.375 L1064.45 407.322 L1064.45 447.269 L1064.45 487.216 L1064.45 527.163 L1064.45 567.11 L1064.45 607.058 L1064.45 647.005 L1064.45 686.952 L1064.45 726.899 L1064.45 766.846 L1064.45 806.793 L1064.45 846.74 L1064.45 886.687 L1064.45 926.634 L1064.45 966.582 L1064.45 1006.53 L1064.45 1046.48 L1064.45 1086.42 L1064.45 1126.37 L1064.45 1166.32 L1064.45 1166.32 L1064.45 1166.32  Z" fill="#ae305b" fill-rule="evenodd" fill-opacity="1"/>
<path clip-path="url(#clip092)" d="M1064.45 1166.32 L1064.45 1166.32 L1104.4 1166.32 L1144.35 1166.32 L1184.29 1166.32 L1224.24 1166.32 L1264.19 1166.32 L1264.19 1166.32 L1280.94 1166.32 L1264.19 1129.22 L1262.98 1126.37 L1248.45 1086.42 L1236.35 1046.48 L1226.66 1006.53 L1224.24 993.213 L1219.68 966.582 L1215.11 926.634 L1212.83 886.687 L1212.83 846.74 L1215.11 806.793 L1219.68 766.846 L1224.24 740.215 L1226.66 726.899 L1236.35 686.952 L1248.45 647.005 L1262.98 607.058 L1264.19 604.204 L1280.94 567.11 L1301.56 527.163 L1304.14 522.725 L1326.18 487.216 L1344.08 461.251 L1354.44 447.269 L1384.03 410.953 L1387.23 407.322 L1423.98 369.039 L1425.71 367.375 L1423.98 367.375 L1423.98 367.375 L1384.03 367.375 L1344.08 367.375 L1304.14 367.375 L1264.19 367.375 L1224.24 367.375 L1184.29 367.375 L1144.35 367.375 L1104.4 367.375 L1064.45 367.375 L1064.45 367.375 L1064.45 367.375 L1064.45 367.375 L1064.45 407.322 L1064.45 447.269 L1064.45 487.216 L1064.45 527.163 L1064.45 567.11 L1064.45 607.058 L1064.45 647.005 L1064.45 686.952 L1064.45 726.899 L1064.45 766.846 L1064.45 806.793 L1064.45 846.74 L1064.45 886.687 L1064.45 926.634 L1064.45 966.582 L1064.45 1006.53 L1064.45 1046.48 L1064.45 1086.42 L1064.45 1126.37 L1064.45 1166.32 L1064.45 1166.32 L1064.45 1166.32  Z" fill="#c73e4c" fill-rule="evenodd" fill-opacity="1"/>
<path clip-path="url(#clip092)" d="M1064.45 1166.32 L1064.45 1166.32 L1104.4 1166.32 L1144.35 1166.32 L1184.29 1166.32 L1224.24 1166.32 L1224.24 1166.32 L1234.83 1166.32 L1224.24 1141.35 L1218.25 1126.37 L1204.55 1086.42 L1193.14 1046.48 L1184.29 1007.78 L1184.02 1006.53 L1177.55 966.582 L1173.23 926.634 L1171.07 886.687 L1171.07 846.74 L1173.23 806.793 L1177.55 766.846 L1184.02 726.899 L1184.29 725.651 L1193.14 686.952 L1204.55 647.005 L1218.25 607.058 L1224.24 592.077 L1234.83 567.11 L1254.2 527.163 L1264.19 508.854 L1276.75 487.216 L1302.52 447.269 L1304.14 444.999 L1332.72 407.322 L1344.08 393.59 L1367.38 367.375 L1344.08 367.375 L1344.08 367.375 L1304.14 367.375 L1264.19 367.375 L1224.24 367.375 L1184.29 367.375 L1144.35 367.375 L1104.4 367.375 L1064.45 367.375 L1064.45 367.375 L1064.45 367.375 L1064.45 367.375 L1064.45 407.322 L1064.45 447.269 L1064.45 487.216 L1064.45 527.163 L1064.45 567.11 L1064.45 607.058 L1064.45 647.005 L1064.45 686.952 L1064.45 726.899 L1064.45 766.846 L1064.45 806.793 L1064.45 846.74 L1064.45 886.687 L1064.45 926.634 L1064.45 966.582 L1064.45 1006.53 L1064.45 1046.48 L1064.45 1086.42 L1064.45 1126.37 L1064.45 1166.32 L1064.45 1166.32 L1064.45 1166.32  Z" fill="#dc5039" fill-rule="evenodd" fill-opacity="1"/>
<path clip-path="url(#clip092)" d="M1064.45 1166.32 L1064.45 1166.32 L1104.4 1166.32 L1144.35 1166.32 L1184.29 1166.32 L1184.29 1166.32 L1191.71 1166.32 L1184.29 1147.77 L1176.2 1126.37 L1163.24 1086.42 L1152.44 1046.48 L1144.35 1009.03 L1143.83 1006.53 L1137.69 966.582 L1133.59 926.634 L1131.54 886.687 L1131.54 846.74 L1133.59 806.793 L1137.69 766.846 L1143.83 726.899 L1144.35 724.402 L1152.44 686.952 L1163.24 647.005 L1176.2 607.058 L1184.29 585.657 L1191.71 567.11 L1209.97 527.163 L1224.24 499.422 L1230.9 487.216 L1255.11 447.269 L1264.19 433.651 L1282.87 407.322 L1304.14 379.858 L1314.47 367.375 L1304.14 367.375 L1304.14 367.375 L1264.19 367.375 L1224.24 367.375 L1184.29 367.375 L1144.35 367.375 L1104.4 367.375 L1064.45 367.375 L1064.45 367.375 L1064.45 367.375 L1064.45 367.375 L1064.45 407.322 L1064.45 447.269 L1064.45 487.216 L1064.45 527.163 L1064.45 567.11 L1064.45 607.058 L1064.45 647.005 L1064.45 686.952 L1064.45 726.899 L1064.45 766.846 L1064.45 806.793 L1064.45 846.74 L1064.45 886.687 L1064.45 926.634 L1064.45 966.582 L1064.45 1006.53 L1064.45 1046.48 L1064.45 1086.42 L1064.45 1126.37 L1064.45 1166.32 L1064.45 1166.32 L1064.45 1166.32  Z" fill="#ed6825" fill-rule="evenodd" fill-opacity="1"/>
<path clip-path="url(#clip092)" d="M1064.45 1166.32 L1064.45 1166.32 L1104.4 1166.32 L1144.35 1166.32 L1144.35 1166.32 L1151.09 1166.32 L1144.35 1148.48 L1136.41 1126.37 L1124.12 1086.42 L1113.87 1046.48 L1105.68 1006.53 L1104.4 998.206 L1099.77 966.582 L1095.87 926.634 L1093.93 886.687 L1093.93 846.74 L1095.87 806.793 L1099.77 766.846 L1104.4 735.221 L1105.68 726.899 L1113.87 686.952 L1124.12 647.005 L1136.41 607.058 L1144.35 584.944 L1151.09 567.11 L1168.37 527.163 L1184.29 494.429 L1188 487.216 L1210.83 447.269 L1224.24 425.934 L1236.65 407.322 L1264.19 369.455 L1265.8 367.375 L1264.19 367.375 L1264.19 367.375 L1224.24 367.375 L1184.29 367.375 L1144.35 367.375 L1104.4 367.375 L1064.45 367.375 L1064.45 367.375 L1064.45 367.375 L1064.45 367.375 L1064.45 407.322 L1064.45 447.269 L1064.45 487.216 L1064.45 527.163 L1064.45 567.11 L1064.45 607.058 L1064.45 647.005 L1064.45 686.952 L1064.45 726.899 L1064.45 766.846 L1064.45 806.793 L1064.45 846.74 L1064.45 886.687 L1064.45 926.634 L1064.45 966.582 L1064.45 1006.53 L1064.45 1046.48 L1064.45 1086.42 L1064.45 1126.37 L1064.45 1166.32 L1064.45 1166.32 L1064.45 1166.32  Z" fill="#f7850e" fill-rule="evenodd" fill-opacity="1"/>
<path clip-path="url(#clip092)" d="M1064.45 1166.32 L1064.45 1166.32 L1104.4 1166.32 L1104.4 1166.32 L1112.59 1166.32 L1104.4 1143.49 L1098.55 1126.37 L1086.86 1086.42 L1077.12 1046.48 L1069.32 1006.53 L1064.45 973.239 L1064.45 1006.53 L1064.45 1006.53 L1064.45 1046.48 L1064.45 1086.42 L1064.45 1126.37 L1064.45 1166.32 L1064.45 1166.32 L1064.45 1166.32 M1064.45 766.846 L1064.45 760.188 L1069.32 726.899 L1077.12 686.952 L1086.86 647.005 L1098.55 607.058 L1104.4 589.937 L1112.59 567.11 L1128.98 527.163 L1144.35 493.874 L1147.59 487.216 L1169.18 447.269 L1184.29 421.848 L1193.42 407.322 L1220.82 367.375 L1184.29 367.375 L1184.29 367.375 L1144.35 367.375 L1104.4 367.375 L1064.45 367.375 L1064.45 367.375 L1064.45 367.375 L1064.45 367.375 L1064.45 407.322 L1064.45 447.269 L1064.45 487.216 L1064.45 527.163 L1064.45 567.11 L1064.45 607.058 L1064.45 647.005 L1064.45 686.952 L1064.45 726.899 L1064.45 766.846  Z" fill="#fba40a" fill-rule="evenodd" fill-opacity="1"/>
<path clip-path="url(#clip092)" d="M1064.45 1166.32 L1064.45 1166.32 L1064.45 1166.32 L1075.9 1166.32 L1064.45 1132.79 L1064.45 1166.32 L1064.45 1166.32 L1064.45 1166.32 L1064.45 1166.32 M1064.45 607.058 L1064.45 600.637 L1075.9 567.11 L1091.49 527.163 L1104.4 497.758 L1109.26 487.216 L1129.75 447.269 L1144.35 421.394 L1152.71 407.322 L1178.63 367.375 L1144.35 367.375 L1144.35 367.375 L1104.4 367.375 L1064.45 367.375 L1064.45 367.375 L1064.45 367.375 L1064.45 367.375 L1064.45 407.322 L1064.45 447.269 L1064.45 487.216 L1064.45 527.163 L1064.45 567.11 L1064.45 607.058  Z" fill="#f9c52c" fill-rule="evenodd" fill-opacity="1"/>
<path clip-path="url(#clip092)" d="M1064.45 527.163 L1064.45 506.08 L1072.73 487.216 L1092.22 447.269 L1104.4 424.572 L1114.13 407.322 L1138.71 367.375 L1104.4 367.375 L1104.4 367.375 L1064.45 367.375 L1064.45 367.375 L1064.45 367.375 L1064.45 367.375 L1064.45 407.322 L1064.45 447.269 L1064.45 487.216 L1064.45 527.163  Z" fill="#f2e660" fill-rule="evenodd" fill-opacity="1"/>
<path clip-path="url(#clip092)" d="M1064.45 447.269 L1064.45 431.381 L1077.36 407.322 L1100.75 367.375 L1064.45 367.375 L1064.45 367.375 L1064.45 367.375 L1064.45 367.375 L1064.45 367.375 L1064.45 407.322 L1064.45 447.269  Z" fill="#fcfea4" fill-rule="evenodd" fill-opacity="1"/>
<polyline clip-path="url(#clip092)" style="stroke:#000003; stroke-linecap:round; stroke-linejoin:round; stroke-width:4; stroke-opacity:1; fill:none" points="1064.45,1166.32 1064.45,1166.32 1104.4,1166.32 1144.35,1166.32 1184.29,1166.32 1224.24,1166.32 1264.19,1166.32 1304.14,1166.32 1344.08,1166.32 1384.03,1166.32 1423.98,1166.32 1463.92,1166.32 1503.87,1166.32 1543.82,1166.32 1583.77,1166.32 1623.71,1166.32 1663.66,1166.32 1703.61,1166.32 1743.55,1166.32 1783.5,1166.32 1823.45,1166.32 1863.39,1166.32 1863.39,1126.37 1863.39,1086.42 1863.39,1046.48 1863.39,1006.53 1863.39,966.582 1863.39,926.634 1863.39,886.687 1863.39,846.74 1863.39,806.793 1863.39,766.846 1863.39,726.899 1863.39,686.952 1863.39,647.005 1863.39,607.058 1863.39,567.11 1863.39,527.163 1863.39,487.216 1863.39,447.269 1863.39,407.322 1863.39,367.375 1823.45,367.375 1783.5,367.375 1743.55,367.375 1703.61,367.375 1663.66,367.375 1623.71,367.375 1583.77,367.375 1543.82,367.375 1503.87,367.375 1463.92,367.375 1423.98,367.375 1384.03,367.375 1344.08,367.375 1304.14,367.375 1264.19,367.375 1224.24,367.375 1184.29,367.375 1144.35,367.375 1104.4,367.375 1064.45,367.375 1064.45,407.322 1064.45,447.269 1064.45,487.216 1064.45,527.163 1064.45,567.11 1064.45,607.058 1064.45,647.005 1064.45,686.952 1064.45,726.899 1064.45,766.846 1064.45,806.793 1064.45,846.74 1064.45,886.687 1064.45,926.634 1064.45,966.582 1064.45,1006.53 1064.45,1046.48 1064.45,1086.42 1064.45,1126.37 1064.45,1166.32 "/>
<polyline clip-path="url(#clip092)" style="stroke:#000003; stroke-linecap:round; stroke-linejoin:round; stroke-width:4; stroke-opacity:1; fill:none" points="1064.45,1166.32 1064.45,1166.32 1104.4,1166.32 1144.35,1166.32 1184.29,1166.32 1224.24,1166.32 1264.19,1166.32 1304.14,1166.32 1344.08,1166.32 1384.03,1166.32 1423.98,1166.32 1463.92,1166.32 1503.87,1166.32 1543.82,1166.32 1583.77,1166.32 1623.71,1166.32 1663.66,1166.32 1703.61,1166.32 1743.55,1166.32 1783.5,1166.32 1823.45,1166.32 1863.39,1166.32 1863.39,1126.37 1863.39,1110.56 1823.45,1100.57 1789.49,1086.42 1783.5,1083.43 1743.55,1055.46 1733.57,1046.48 1703.61,1012.77 1699.07,1006.53 1677.28,966.582 1663.66,929.131 1662.89,926.634 1656.75,886.687 1656.75,846.74 1662.89,806.793 1663.66,804.296 1677.28,766.846 1699.07,726.899 1703.61,720.657 1733.57,686.952 1743.55,677.964 1783.5,650.001 1789.49,647.005 1823.45,632.857 1863.39,622.87 1863.39,647.005 1863.39,607.058 1863.39,567.11 1863.39,527.163 1863.39,487.216 1863.39,447.269 1863.39,407.322 1863.39,367.375 1823.45,367.375 1783.5,367.375 1743.55,367.375 1703.61,367.375 1663.66,367.375 1623.71,367.375 1583.77,367.375 1543.82,367.375 1503.87,367.375 1463.92,367.375 1423.98,367.375 1384.03,367.375 1344.08,367.375 1304.14,367.375 1264.19,367.375 1224.24,367.375 1184.29,367.375 1144.35,367.375 1104.4,367.375 1064.45,367.375 1064.45,407.322 1064.45,447.269 1064.45,487.216 1064.45,527.163 1064.45,567.11 1064.45,607.058 1064.45,647.005 1064.45,686.952 1064.45,726.899 1064.45,766.846 1064.45,806.793 1064.45,846.74 1064.45,886.687 1064.45,926.634 1064.45,966.582 1064.45,1006.53 1064.45,1046.48 1064.45,1086.42 1064.45,1126.37 1064.45,1166.32 "/>
<polyline clip-path="url(#clip092)" style="stroke:#000003; stroke-linecap:round; stroke-linejoin:round; stroke-width:4; stroke-opacity:1; fill:none" points="1064.45,1166.32 1064.45,1166.32 1104.4,1166.32 1144.35,1166.32 1184.29,1166.32 1224.24,1166.32 1264.19,1166.32 1304.14,1166.32 1344.08,1166.32 1384.03,1166.32 1423.98,1166.32 1463.92,1166.32 1503.87,1166.32 1543.82,1166.32 1583.77,1166.32 1623.71,1166.32 1663.66,1166.32 1703.61,1166.32 1728.02,1166.32 1703.61,1150.62 1672.74,1126.37 1663.66,1118.05 1634.47,1086.42 1623.71,1072.44 1606.4,1046.48 1585.1,1006.53 1583.77,1003.2 1570.84,966.582 1561.44,926.634 1556.74,886.687 1556.74,846.74 1561.44,806.793 1570.84,766.846 1583.77,730.228 1585.1,726.899 1606.4,686.952 1623.71,660.986 1634.47,647.005 1663.66,615.38 1672.74,607.058 1703.61,582.804 1728.02,567.11 1743.55,558.372 1783.5,540.895 1823.45,528.412 1830.11,527.163 1863.39,521.615 1863.39,527.163 1863.39,487.216 1863.39,447.269 1863.39,407.322 1863.39,367.375 1823.45,367.375 1783.5,367.375 1743.55,367.375 1703.61,367.375 1663.66,367.375 1623.71,367.375 1583.77,367.375 1543.82,367.375 1503.87,367.375 1463.92,367.375 1423.98,367.375 1384.03,367.375 1344.08,367.375 1304.14,367.375 1264.19,367.375 1224.24,367.375 1184.29,367.375 1144.35,367.375 1104.4,367.375 1064.45,367.375 1064.45,407.322 1064.45,447.269 1064.45,487.216 1064.45,527.163 1064.45,567.11 1064.45,607.058 1064.45,647.005 1064.45,686.952 1064.45,726.899 1064.45,766.846 1064.45,806.793 1064.45,846.74 1064.45,886.687 1064.45,926.634 1064.45,966.582 1064.45,1006.53 1064.45,1046.48 1064.45,1086.42 1064.45,1126.37 1064.45,1166.32 "/>
<polyline clip-path="url(#clip092)" style="stroke:#000003; stroke-linecap:round; stroke-linejoin:round; stroke-width:4; stroke-opacity:1; fill:none" points="1064.45,1166.32 1064.45,1166.32 1104.4,1166.32 1144.35,1166.32 1184.29,1166.32 1224.24,1166.32 1264.19,1166.32 1304.14,1166.32 1344.08,1166.32 1384.03,1166.32 1423.98,1166.32 1463.92,1166.32 1503.87,1166.32 1543.82,1166.32 1583.77,1166.32 1603.07,1166.32 1583.77,1145.63 1567.9,1126.37 1543.82,1092.25 1540.14,1086.42 1519.11,1046.48 1503.87,1010.27 1502.44,1006.53 1491.03,966.582 1483.42,926.634 1479.62,886.687 1479.62,846.74 1483.42,806.793 1491.03,766.846 1502.44,726.899 1503.87,723.154 1519.11,686.952 1540.14,647.005 1543.82,641.179 1567.9,607.058 1583.77,587.797 1603.07,567.11 1623.71,547.761 1649.06,527.163 1663.66,516.622 1703.61,492.21 1713.59,487.216 1743.55,473.734 1783.5,459.752 1823.45,449.766 1840.09,447.269 1863.39,444.091 1863.39,447.269 1863.39,407.322 1863.39,367.375 1823.45,367.375 1783.5,367.375 1743.55,367.375 1703.61,367.375 1663.66,367.375 1623.71,367.375 1583.77,367.375 1543.82,367.375 1503.87,367.375 1463.92,367.375 1423.98,367.375 1384.03,367.375 1344.08,367.375 1304.14,367.375 1264.19,367.375 1224.24,367.375 1184.29,367.375 1144.35,367.375 1104.4,367.375 1064.45,367.375 1064.45,407.322 1064.45,447.269 1064.45,487.216 1064.45,527.163 1064.45,567.11 1064.45,607.058 1064.45,647.005 1064.45,686.952 1064.45,726.899 1064.45,766.846 1064.45,806.793 1064.45,846.74 1064.45,886.687 1064.45,926.634 1064.45,966.582 1064.45,1006.53 1064.45,1046.48 1064.45,1086.42 1064.45,1126.37 1064.45,1166.32 "/>
<polyline clip-path="url(#clip092)" style="stroke:#000003; stroke-linecap:round; stroke-linejoin:round; stroke-width:4; stroke-opacity:1; fill:none" points="1064.45,1166.32 1064.45,1166.32 1104.4,1166.32 1144.35,1166.32 1184.29,1166.32 1224.24,1166.32 1264.19,1166.32 1304.14,1166.32 1344.08,1166.32 1384.03,1166.32 1423.98,1166.32 1463.92,1166.32 1503.87,1166.32 1516.49,1166.32 1503.87,1149.2 1488.65,1126.37 1465.83,1086.42 1463.92,1082.43 1448.29,1046.48 1434.4,1006.53 1423.98,966.582 1417.59,926.634 1414.39,886.687 1414.39,846.74 1417.59,806.793 1423.98,766.846 1434.4,726.899 1448.29,686.952 1463.92,650.999 1465.83,647.005 1488.65,607.058 1503.87,584.231 1516.49,567.11 1543.82,534.653 1550.87,527.163 1583.77,496.093 1594.42,487.216 1623.71,465.245 1651.37,447.269 1663.66,440.006 1703.61,420.032 1734.68,407.322 1743.55,403.993 1783.5,392.342 1823.45,384.019 1863.39,379.026 1863.39,407.322 1863.39,367.375 1823.45,367.375 1783.5,367.375 1743.55,367.375 1703.61,367.375 1663.66,367.375 1623.71,367.375 1583.77,367.375 1543.82,367.375 1503.87,367.375 1463.92,367.375 1423.98,367.375 1384.03,367.375 1344.08,367.375 1304.14,367.375 1264.19,367.375 1224.24,367.375 1184.29,367.375 1144.35,367.375 1104.4,367.375 1064.45,367.375 1064.45,407.322 1064.45,447.269 1064.45,487.216 1064.45,527.163 1064.45,567.11 1064.45,607.058 1064.45,647.005 1064.45,686.952 1064.45,726.899 1064.45,766.846 1064.45,806.793 1064.45,846.74 1064.45,886.687 1064.45,926.634 1064.45,966.582 1064.45,1006.53 1064.45,1046.48 1064.45,1086.42 1064.45,1126.37 1064.45,1166.32 "/>
<polyline clip-path="url(#clip092)" style="stroke:#000003; stroke-linecap:round; stroke-linejoin:round; stroke-width:4; stroke-opacity:1; fill:none" points="1064.45,1166.32 1064.45,1166.32 1104.4,1166.32 1144.35,1166.32 1184.29,1166.32 1224.24,1166.32 1264.19,1166.32 1304.14,1166.32 1344.08,1166.32 1384.03,1166.32 1423.98,1166.32 1446.12,1166.32 1423.98,1129.94 1421.98,1126.37 1402.8,1086.42 1386.83,1046.48 1384.03,1037.74 1374.78,1006.53 1365.91,966.582 1359.99,926.634 1357.03,886.687 1357.03,846.74 1359.99,806.793 1365.91,766.846 1374.78,726.899 1384.03,695.69 1386.83,686.952 1402.8,647.005 1421.98,607.058 1423.98,603.491 1446.12,567.11 1463.92,541.519 1474.86,527.163 1503.87,493.319 1509.65,487.216 1543.82,454.759 1552.63,447.269 1583.77,423.21 1607.07,407.322 1623.71,396.919 1663.66,375.281 1680.91,367.375 1663.66,367.375 1623.71,367.375 1583.77,367.375 1543.82,367.375 1503.87,367.375 1463.92,367.375 1423.98,367.375 1384.03,367.375 1344.08,367.375 1304.14,367.375 1264.19,367.375 1224.24,367.375 1184.29,367.375 1144.35,367.375 1104.4,367.375 1064.45,367.375 1064.45,407.322 1064.45,447.269 1064.45,487.216 1064.45,527.163 1064.45,567.11 1064.45,607.058 1064.45,647.005 1064.45,686.952 1064.45,726.899 1064.45,766.846 1064.45,806.793 1064.45,846.74 1064.45,886.687 1064.45,926.634 1064.45,966.582 1064.45,1006.53 1064.45,1046.48 1064.45,1086.42 1064.45,1126.37 1064.45,1166.32 "/>
<polyline clip-path="url(#clip092)" style="stroke:#000003; stroke-linecap:round; stroke-linejoin:round; stroke-width:4; stroke-opacity:1; fill:none" points="1064.45,1166.32 1064.45,1166.32 1104.4,1166.32 1144.35,1166.32 1184.29,1166.32 1224.24,1166.32 1264.19,1166.32 1304.14,1166.32 1344.08,1166.32 1384.03,1166.32 1384.83,1166.32 1384.03,1164.89 1364.06,1126.37 1346.3,1086.42 1344.08,1080.43 1332.37,1046.48 1321.35,1006.53 1313.09,966.582 1307.58,926.634 1304.82,886.687 1304.82,846.74 1307.58,806.793 1313.09,766.846 1321.35,726.899 1332.37,686.952 1344.08,652.997 1346.3,647.005 1364.06,607.058 1384.03,568.537 1384.83,567.11 1410.39,527.163 1423.98,508.299 1440.48,487.216 1463.92,460.252 1476.29,447.269 1503.87,420.94 1519.64,407.322 1543.82,388.181 1573.19,367.375 1543.82,367.375 1503.87,367.375 1463.92,367.375 1423.98,367.375 1384.03,367.375 1344.08,367.375 1304.14,367.375 1264.19,367.375 1224.24,367.375 1184.29,367.375 1144.35,367.375 1104.4,367.375 1064.45,367.375 1064.45,407.322 1064.45,447.269 1064.45,487.216 1064.45,527.163 1064.45,567.11 1064.45,607.058 1064.45,647.005 1064.45,686.952 1064.45,726.899 1064.45,766.846 1064.45,806.793 1064.45,846.74 1064.45,886.687 1064.45,926.634 1064.45,966.582 1064.45,1006.53 1064.45,1046.48 1064.45,1086.42 1064.45,1126.37 1064.45,1166.32 "/>
<polyline clip-path="url(#clip092)" style="stroke:#000003; stroke-linecap:round; stroke-linejoin:round; stroke-width:4; stroke-opacity:1; fill:none" points="1064.45,1166.32 1064.45,1166.32 1104.4,1166.32 1144.35,1166.32 1184.29,1166.32 1224.24,1166.32 1264.19,1166.32 1304.14,1166.32 1330.65,1166.32 1311.37,1126.37 1304.14,1108.89 1295.44,1086.42 1282.55,1046.48 1272.24,1006.53 1264.51,966.582 1264.19,964.085 1259.65,926.634 1257.23,886.687 1257.23,846.74 1259.65,806.793 1264.19,769.343 1264.51,766.846 1272.24,726.899 1282.55,686.952 1295.44,647.005 1304.14,624.534 1311.37,607.058 1330.65,567.11 1344.08,542.768 1353.33,527.163 1379.96,487.216 1384.03,481.723 1411.59,447.269 1423.98,433.197 1448.73,407.322 1463.92,392.758 1492.93,367.375 1463.92,367.375 1423.98,367.375 1384.03,367.375 1344.08,367.375 1304.14,367.375 1264.19,367.375 1224.24,367.375 1184.29,367.375 1144.35,367.375 1104.4,367.375 1064.45,367.375 1064.45,407.322 1064.45,447.269 1064.45,487.216 1064.45,527.163 1064.45,567.11 1064.45,607.058 1064.45,647.005 1064.45,686.952 1064.45,726.899 1064.45,766.846 1064.45,806.793 1064.45,846.74 1064.45,886.687 1064.45,926.634 1064.45,966.582 1064.45,1006.53 1064.45,1046.48 1064.45,1086.42 1064.45,1126.37 1064.45,1166.32 "/>
<polyline clip-path="url(#clip092)" style="stroke:#000003; stroke-linecap:round; stroke-linejoin:round; stroke-width:4; stroke-opacity:1; fill:none" points="1064.45,1166.32 1064.45,1166.32 1104.4,1166.32 1144.35,1166.32 1184.29,1166.32 1224.24,1166.32 1264.19,1166.32 1280.94,1166.32 1264.19,1129.22 1262.98,1126.37 1248.45,1086.42 1236.35,1046.48 1226.66,1006.53 1224.24,993.213 1219.68,966.582 1215.11,926.634 1212.83,886.687 1212.83,846.74 1215.11,806.793 1219.68,766.846 1224.24,740.215 1226.66,726.899 1236.35,686.952 1248.45,647.005 1262.98,607.058 1264.19,604.204 1280.94,567.11 1301.56,527.163 1304.14,522.725 1326.18,487.216 1344.08,461.251 1354.44,447.269 1384.03,410.953 1387.23,407.322 1423.98,369.039 1425.71,367.375 1423.98,367.375 1384.03,367.375 1344.08,367.375 1304.14,367.375 1264.19,367.375 1224.24,367.375 1184.29,367.375 1144.35,367.375 1104.4,367.375 1064.45,367.375 1064.45,407.322 1064.45,447.269 1064.45,487.216 1064.45,527.163 1064.45,567.11 1064.45,607.058 1064.45,647.005 1064.45,686.952 1064.45,726.899 1064.45,766.846 1064.45,806.793 1064.45,846.74 1064.45,886.687 1064.45,926.634 1064.45,966.582 1064.45,1006.53 1064.45,1046.48 1064.45,1086.42 1064.45,1126.37 1064.45,1166.32 "/>
<polyline clip-path="url(#clip092)" style="stroke:#000003; stroke-linecap:round; stroke-linejoin:round; stroke-width:4; stroke-opacity:1; fill:none" points="1064.45,1166.32 1064.45,1166.32 1104.4,1166.32 1144.35,1166.32 1184.29,1166.32 1224.24,1166.32 1234.83,1166.32 1224.24,1141.35 1218.25,1126.37 1204.55,1086.42 1193.14,1046.48 1184.29,1007.78 1184.02,1006.53 1177.55,966.582 1173.23,926.634 1171.07,886.687 1171.07,846.74 1173.23,806.793 1177.55,766.846 1184.02,726.899 1184.29,725.651 1193.14,686.952 1204.55,647.005 1218.25,607.058 1224.24,592.077 1234.83,567.11 1254.2,527.163 1264.19,508.854 1276.75,487.216 1302.52,447.269 1304.14,444.999 1332.72,407.322 1344.08,393.59 1367.38,367.375 1344.08,367.375 1304.14,367.375 1264.19,367.375 1224.24,367.375 1184.29,367.375 1144.35,367.375 1104.4,367.375 1064.45,367.375 1064.45,407.322 1064.45,447.269 1064.45,487.216 1064.45,527.163 1064.45,567.11 1064.45,607.058 1064.45,647.005 1064.45,686.952 1064.45,726.899 1064.45,766.846 1064.45,806.793 1064.45,846.74 1064.45,886.687 1064.45,926.634 1064.45,966.582 1064.45,1006.53 1064.45,1046.48 1064.45,1086.42 1064.45,1126.37 1064.45,1166.32 "/>
<polyline clip-path="url(#clip092)" style="stroke:#000003; stroke-linecap:round; stroke-linejoin:round; stroke-width:4; stroke-opacity:1; fill:none" points="1064.45,1166.32 1064.45,1166.32 1104.4,1166.32 1144.35,1166.32 1184.29,1166.32 1191.71,1166.32 1184.29,1147.77 1176.2,1126.37 1163.24,1086.42 1152.44,1046.48 1144.35,1009.03 1143.83,1006.53 1137.69,966.582 1133.59,926.634 1131.54,886.687 1131.54,846.74 1133.59,806.793 1137.69,766.846 1143.83,726.899 1144.35,724.402 1152.44,686.952 1163.24,647.005 1176.2,607.058 1184.29,585.657 1191.71,567.11 1209.97,527.163 1224.24,499.422 1230.9,487.216 1255.11,447.269 1264.19,433.651 1282.87,407.322 1304.14,379.858 1314.47,367.375 1304.14,367.375 1264.19,367.375 1224.24,367.375 1184.29,367.375 1144.35,367.375 1104.4,367.375 1064.45,367.375 1064.45,407.322 1064.45,447.269 1064.45,487.216 1064.45,527.163 1064.45,567.11 1064.45,607.058 1064.45,647.005 1064.45,686.952 1064.45,726.899 1064.45,766.846 1064.45,806.793 1064.45,846.74 1064.45,886.687 1064.45,926.634 1064.45,966.582 1064.45,1006.53 1064.45,1046.48 1064.45,1086.42 1064.45,1126.37 1064.45,1166.32 "/>
<polyline clip-path="url(#clip092)" style="stroke:#000003; stroke-linecap:round; stroke-linejoin:round; stroke-width:4; stroke-opacity:1; fill:none" points="1064.45,1166.32 1064.45,1166.32 1104.4,1166.32 1144.35,1166.32 1151.09,1166.32 1144.35,1148.48 1136.41,1126.37 1124.12,1086.42 1113.87,1046.48 1105.68,1006.53 1104.4,998.206 1099.77,966.582 1095.87,926.634 1093.93,886.687 1093.93,846.74 1095.87,806.793 1099.77,766.846 1104.4,735.221 1105.68,726.899 1113.87,686.952 1124.12,647.005 1136.41,607.058 1144.35,584.944 1151.09,567.11 1168.37,527.163 1184.29,494.429 1188,487.216 1210.83,447.269 1224.24,425.934 1236.65,407.322 1264.19,369.455 1265.8,367.375 1264.19,367.375 1224.24,367.375 1184.29,367.375 1144.35,367.375 1104.4,367.375 1064.45,367.375 1064.45,407.322 1064.45,447.269 1064.45,487.216 1064.45,527.163 1064.45,567.11 1064.45,607.058 1064.45,647.005 1064.45,686.952 1064.45,726.899 1064.45,766.846 1064.45,806.793 1064.45,846.74 1064.45,886.687 1064.45,926.634 1064.45,966.582 1064.45,1006.53 1064.45,1046.48 1064.45,1086.42 1064.45,1126.37 1064.45,1166.32 "/>
<polyline clip-path="url(#clip092)" style="stroke:#000003; stroke-linecap:round; stroke-linejoin:round; stroke-width:4; stroke-opacity:1; fill:none" points="1064.45,1166.32 1064.45,1166.32 1104.4,1166.32 1112.59,1166.32 1104.4,1143.49 1098.55,1126.37 1086.86,1086.42 1077.12,1046.48 1069.32,1006.53 1064.45,973.239 1064.45,1006.53 1064.45,1046.48 1064.45,1086.42 1064.45,1126.37 1064.45,1166.32 "/>
<polyline clip-path="url(#clip092)" style="stroke:#000003; stroke-linecap:round; stroke-linejoin:round; stroke-width:4; stroke-opacity:1; fill:none" points="1064.45,766.846 1064.45,760.188 1069.32,726.899 1077.12,686.952 1086.86,647.005 1098.55,607.058 1104.4,589.937 1112.59,567.11 1128.98,527.163 1144.35,493.874 1147.59,487.216 1169.18,447.269 1184.29,421.848 1193.42,407.322 1220.82,367.375 1184.29,367.375 1144.35,367.375 1104.4,367.375 1064.45,367.375 1064.45,407.322 1064.45,447.269 1064.45,487.216 1064.45,527.163 1064.45,567.11 1064.45,607.058 1064.45,647.005 1064.45,686.952 1064.45,726.899 1064.45,766.846 "/>
<polyline clip-path="url(#clip092)" style="stroke:#000003; stroke-linecap:round; stroke-linejoin:round; stroke-width:4; stroke-opacity:1; fill:none" points="1064.45,1166.32 1064.45,1166.32 1075.9,1166.32 1064.45,1132.79 1064.45,1166.32 "/>
<polyline clip-path="url(#clip092)" style="stroke:#000003; stroke-linecap:round; stroke-linejoin:round; stroke-width:4; stroke-opacity:1; fill:none" points="1064.45,607.058 1064.45,600.637 1075.9,567.11 1091.49,527.163 1104.4,497.758 1109.26,487.216 1129.75,447.269 1144.35,421.394 1152.71,407.322 1178.63,367.375 1144.35,367.375 1104.4,367.375 1064.45,367.375 1064.45,407.322 1064.45,447.269 1064.45,487.216 1064.45,527.163 1064.45,567.11 1064.45,607.058 "/>
<polyline clip-path="url(#clip092)" style="stroke:#000003; stroke-linecap:round; stroke-linejoin:round; stroke-width:4; stroke-opacity:1; fill:none" points="1064.45,527.163 1064.45,506.08 1072.73,487.216 1092.22,447.269 1104.4,424.572 1114.13,407.322 1138.71,367.375 1104.4,367.375 1064.45,367.375 1064.45,407.322 1064.45,447.269 1064.45,487.216 1064.45,527.163 "/>
<polyline clip-path="url(#clip092)" style="stroke:#000003; stroke-linecap:round; stroke-linejoin:round; stroke-width:4; stroke-opacity:1; fill:none" points="1064.45,447.269 1064.45,431.381 1077.36,407.322 1100.75,367.375 1064.45,367.375 1064.45,407.322 1064.45,447.269 "/>
<path clip-path="url(#clip092)" d="M1064.45 766.846 L1264.19 567.11 L1663.66 766.846 L1663.66 966.582 L1264.19 1166.32 L1064.45 766.846 L1064.45 766.846  Z" fill="#0000ff" fill-rule="evenodd" fill-opacity="0.5"/>
<polyline clip-path="url(#clip092)" style="stroke:#000000; stroke-linecap:round; stroke-linejoin:round; stroke-width:4; stroke-opacity:0.5; fill:none" points="1064.45,766.846 1264.19,567.11 1663.66,766.846 1663.66,966.582 1264.19,1166.32 1064.45,766.846 "/>
<circle clip-path="url(#clip092)" cx="1264.19" cy="966.582" r="21.6" fill="#ffd700" fill-rule="evenodd" fill-opacity="1" stroke="#000000" stroke-opacity="1" stroke-width="3.2"/>
<circle clip-path="url(#clip092)" cx="1663.66" cy="766.846" r="21.6" fill="#800080" fill-rule="evenodd" fill-opacity="1" stroke="#000000" stroke-opacity="1" stroke-width="3.2"/>
<circle clip-path="url(#clip092)" cx="1663.66" cy="828.493" r="21.6" fill="#ee7600" fill-rule="evenodd" fill-opacity="1" stroke="#000000" stroke-opacity="1" stroke-width="3.2"/>
<circle clip-path="url(#clip092)" cx="1663.66" cy="866.714" r="21.6" fill="#cd2626" fill-rule="evenodd" fill-opacity="1" stroke="#000000" stroke-opacity="1" stroke-width="3.2"/>
<path clip-path="url(#clip092)" d="M1663.66 742.846 L1639.66 766.846 L1663.66 790.846 L1687.66 766.846 L1663.66 742.846 Z" fill="#ffd700" fill-rule="evenodd" fill-opacity="1" stroke="#000000" stroke-opacity="1" stroke-width="3.2"/>
<path clip-path="url(#clip092)" d="M1663.66 942.582 L1639.66 966.582 L1663.66 990.582 L1687.66 966.582 L1663.66 942.582 Z" fill="#800080" fill-rule="evenodd" fill-opacity="1" stroke="#000000" stroke-opacity="1" stroke-width="3.2"/>
<defs>
  <clipPath id="clip093">
    <rect x="2160" y="343" width="73" height="848"/>
  </clipPath>
</defs>
<path clip-path="url(#clip093)" d="M2160.76 1190.29 L2232.76 1190.29 L2232.76 1137.36 L2160.76 1137.36  Z" fill="#000003" fill-rule="evenodd" fill-opacity="1"/>
<path clip-path="url(#clip093)" d="M2160.76 1137.36 L2232.76 1137.36 L2232.76 1084.43 L2160.76 1084.43  Z" fill="#0b0726" fill-rule="evenodd" fill-opacity="1"/>
<path clip-path="url(#clip093)" d="M2160.76 1084.43 L2232.76 1084.43 L2232.76 1031.5 L2160.76 1031.5  Z" fill="#240b4e" fill-rule="evenodd" fill-opacity="1"/>
<path clip-path="url(#clip093)" d="M2160.76 1031.5 L2232.76 1031.5 L2232.76 978.566 L2160.76 978.566  Z" fill="#410967" fill-rule="evenodd" fill-opacity="1"/>
<path clip-path="url(#clip093)" d="M2160.76 978.566 L2232.76 978.566 L2232.76 925.636 L2160.76 925.636  Z" fill="#5d126e" fill-rule="evenodd" fill-opacity="1"/>
<path clip-path="url(#clip093)" d="M2160.76 925.636 L2232.76 925.636 L2232.76 872.706 L2160.76 872.706  Z" fill="#781c6d" fill-rule="evenodd" fill-opacity="1"/>
<path clip-path="url(#clip093)" d="M2160.76 872.706 L2232.76 872.706 L2232.76 819.776 L2160.76 819.776  Z" fill="#932567" fill-rule="evenodd" fill-opacity="1"/>
<path clip-path="url(#clip093)" d="M2160.76 819.776 L2232.76 819.776 L2232.76 766.846 L2160.76 766.846  Z" fill="#ae305b" fill-rule="evenodd" fill-opacity="1"/>
<path clip-path="url(#clip093)" d="M2160.76 766.846 L2232.76 766.846 L2232.76 713.916 L2160.76 713.916  Z" fill="#c73e4c" fill-rule="evenodd" fill-opacity="1"/>
<path clip-path="url(#clip093)" d="M2160.76 713.916 L2232.76 713.916 L2232.76 660.986 L2160.76 660.986  Z" fill="#dc5039" fill-rule="evenodd" fill-opacity="1"/>
<path clip-path="url(#clip093)" d="M2160.76 660.986 L2232.76 660.986 L2232.76 608.056 L2160.76 608.056  Z" fill="#ed6825" fill-rule="evenodd" fill-opacity="1"/>
<path clip-path="url(#clip093)" d="M2160.76 608.056 L2232.76 608.056 L2232.76 555.126 L2160.76 555.126  Z" fill="#f7850e" fill-rule="evenodd" fill-opacity="1"/>
<path clip-path="url(#clip093)" d="M2160.76 555.126 L2232.76 555.126 L2232.76 502.196 L2160.76 502.196  Z" fill="#fba40a" fill-rule="evenodd" fill-opacity="1"/>
<path clip-path="url(#clip093)" d="M2160.76 502.196 L2232.76 502.196 L2232.76 449.266 L2160.76 449.266  Z" fill="#f9c52c" fill-rule="evenodd" fill-opacity="1"/>
<path clip-path="url(#clip093)" d="M2160.76 449.266 L2232.76 449.266 L2232.76 396.336 L2160.76 396.336  Z" fill="#f2e660" fill-rule="evenodd" fill-opacity="1"/>
<path clip-path="url(#clip093)" d="M2160.76 396.336 L2232.76 396.336 L2232.76 343.407 L2160.76 343.407  Z" fill="#fcfea4" fill-rule="evenodd" fill-opacity="1"/>
<path clip-path="url(#clip090)" d="M2274.38 1024.16 L2290.7 1024.16 L2290.7 1028.1 L2268.76 1028.1 L2268.76 1024.16 Q2271.42 1021.41 2276 1016.78 Q2280.61 1012.12 2281.79 1010.78 Q2284.03 1008.26 2284.91 1006.52 Q2285.82 1004.76 2285.82 1003.07 Q2285.82 1000.32 2283.87 998.582 Q2281.95 996.846 2278.85 996.846 Q2276.65 996.846 2274.2 997.61 Q2271.77 998.374 2268.99 999.924 L2268.99 995.202 Q2271.81 994.068 2274.27 993.489 Q2276.72 992.911 2278.76 992.911 Q2284.13 992.911 2287.32 995.596 Q2290.52 998.281 2290.52 1002.77 Q2290.52 1004.9 2289.7 1006.82 Q2288.92 1008.72 2286.81 1011.31 Q2286.23 1011.98 2283.13 1015.2 Q2280.03 1018.4 2274.38 1024.16 Z" fill="#000000" fill-rule="nonzero" fill-opacity="1" /><path clip-path="url(#clip090)" d="M2300.51 1022.22 L2305.4 1022.22 L2305.4 1028.1 L2300.51 1028.1 L2300.51 1022.22 Z" fill="#000000" fill-rule="nonzero" fill-opacity="1" /><path clip-path="url(#clip090)" d="M2315.63 993.536 L2333.99 993.536 L2333.99 997.471 L2319.91 997.471 L2319.91 1005.94 Q2320.93 1005.6 2321.95 1005.43 Q2322.97 1005.25 2323.99 1005.25 Q2329.77 1005.25 2333.15 1008.42 Q2336.53 1011.59 2336.53 1017.01 Q2336.53 1022.59 2333.06 1025.69 Q2329.59 1028.77 2323.27 1028.77 Q2321.09 1028.77 2318.83 1028.4 Q2316.58 1028.03 2314.17 1027.29 L2314.17 1022.59 Q2316.26 1023.72 2318.48 1024.28 Q2320.7 1024.83 2323.18 1024.83 Q2327.18 1024.83 2329.52 1022.73 Q2331.86 1020.62 2331.86 1017.01 Q2331.86 1013.4 2329.52 1011.29 Q2327.18 1009.18 2323.18 1009.18 Q2321.3 1009.18 2319.43 1009.6 Q2317.58 1010.02 2315.63 1010.9 L2315.63 993.536 Z" fill="#000000" fill-rule="nonzero" fill-opacity="1" /><polyline clip-path="url(#clip090)" style="stroke:#000000; stroke-linecap:round; stroke-linejoin:round; stroke-width:4; stroke-opacity:1; fill:none" points="2232.76,1014.44 2256.76,1014.44 "/>
<path clip-path="url(#clip090)" d="M2270.21 815.918 L2288.57 815.918 L2288.57 819.854 L2274.5 819.854 L2274.5 828.326 Q2275.52 827.978 2276.53 827.816 Q2277.55 827.631 2278.57 827.631 Q2284.36 827.631 2287.74 830.803 Q2291.12 833.974 2291.12 839.39 Q2291.12 844.969 2287.64 848.071 Q2284.17 851.15 2277.85 851.15 Q2275.68 851.15 2273.41 850.779 Q2271.16 850.409 2268.76 849.668 L2268.76 844.969 Q2270.84 846.103 2273.06 846.659 Q2275.28 847.215 2277.76 847.215 Q2281.77 847.215 2284.1 845.108 Q2286.44 843.002 2286.44 839.39 Q2286.44 835.779 2284.1 833.673 Q2281.77 831.566 2277.76 831.566 Q2275.89 831.566 2274.01 831.983 Q2272.16 832.4 2270.21 833.279 L2270.21 815.918 Z" fill="#000000" fill-rule="nonzero" fill-opacity="1" /><path clip-path="url(#clip090)" d="M2300.33 844.599 L2305.21 844.599 L2305.21 850.478 L2300.33 850.478 L2300.33 844.599 Z" fill="#000000" fill-rule="nonzero" fill-opacity="1" /><path clip-path="url(#clip090)" d="M2325.4 818.997 Q2321.79 818.997 2319.96 822.562 Q2318.15 826.104 2318.15 833.233 Q2318.15 840.34 2319.96 843.904 Q2321.79 847.446 2325.4 847.446 Q2329.03 847.446 2330.84 843.904 Q2332.67 840.34 2332.67 833.233 Q2332.67 826.104 2330.84 822.562 Q2329.03 818.997 2325.4 818.997 M2325.4 815.293 Q2331.21 815.293 2334.26 819.9 Q2337.34 824.483 2337.34 833.233 Q2337.34 841.96 2334.26 846.566 Q2331.21 851.15 2325.4 851.15 Q2319.59 851.15 2316.51 846.566 Q2313.45 841.96 2313.45 833.233 Q2313.45 824.483 2316.51 819.9 Q2319.59 815.293 2325.4 815.293 Z" fill="#000000" fill-rule="nonzero" fill-opacity="1" /><polyline clip-path="url(#clip090)" style="stroke:#000000; stroke-linecap:round; stroke-linejoin:round; stroke-width:4; stroke-opacity:1; fill:none" points="2232.76,836.827 2256.76,836.827 "/>
<path clip-path="url(#clip090)" d="M2268.76 638.301 L2290.98 638.301 L2290.98 640.292 L2278.43 672.861 L2273.55 672.861 L2285.35 642.236 L2268.76 642.236 L2268.76 638.301 Z" fill="#000000" fill-rule="nonzero" fill-opacity="1" /><path clip-path="url(#clip090)" d="M2300.1 666.982 L2304.98 666.982 L2304.98 672.861 L2300.1 672.861 L2300.1 666.982 Z" fill="#000000" fill-rule="nonzero" fill-opacity="1" /><path clip-path="url(#clip090)" d="M2315.21 638.301 L2333.57 638.301 L2333.57 642.236 L2319.5 642.236 L2319.5 650.708 Q2320.51 650.361 2321.53 650.199 Q2322.55 650.014 2323.57 650.014 Q2329.36 650.014 2332.74 653.185 Q2336.12 656.357 2336.12 661.773 Q2336.12 667.352 2332.64 670.454 Q2329.17 673.532 2322.85 673.532 Q2320.68 673.532 2318.41 673.162 Q2316.16 672.792 2313.76 672.051 L2313.76 667.352 Q2315.84 668.486 2318.06 669.042 Q2320.28 669.597 2322.76 669.597 Q2326.76 669.597 2329.1 667.491 Q2331.44 665.384 2331.44 661.773 Q2331.44 658.162 2329.1 656.056 Q2326.76 653.949 2322.76 653.949 Q2320.89 653.949 2319.01 654.366 Q2317.16 654.783 2315.21 655.662 L2315.21 638.301 Z" fill="#000000" fill-rule="nonzero" fill-opacity="1" /><polyline clip-path="url(#clip090)" style="stroke:#000000; stroke-linecap:round; stroke-linejoin:round; stroke-width:4; stroke-opacity:1; fill:none" points="2232.76,659.21 2256.76,659.21 "/>
<path clip-path="url(#clip090)" d="M2269.43 491.309 L2277.07 491.309 L2277.07 464.943 L2268.76 466.61 L2268.76 462.351 L2277.02 460.684 L2281.7 460.684 L2281.7 491.309 L2289.33 491.309 L2289.33 495.244 L2269.43 495.244 L2269.43 491.309 Z" fill="#000000" fill-rule="nonzero" fill-opacity="1" /><path clip-path="url(#clip090)" d="M2308.78 463.763 Q2305.17 463.763 2303.34 467.327 Q2301.53 470.869 2301.53 477.999 Q2301.53 485.105 2303.34 488.67 Q2305.17 492.212 2308.78 492.212 Q2312.41 492.212 2314.22 488.67 Q2316.05 485.105 2316.05 477.999 Q2316.05 470.869 2314.22 467.327 Q2312.41 463.763 2308.78 463.763 M2308.78 460.059 Q2314.59 460.059 2317.64 464.665 Q2320.72 469.249 2320.72 477.999 Q2320.72 486.725 2317.64 491.332 Q2314.59 495.915 2308.78 495.915 Q2302.97 495.915 2299.89 491.332 Q2296.83 486.725 2296.83 477.999 Q2296.83 469.249 2299.89 464.665 Q2302.97 460.059 2308.78 460.059 Z" fill="#000000" fill-rule="nonzero" fill-opacity="1" /><path clip-path="url(#clip090)" d="M2328.94 489.364 L2333.83 489.364 L2333.83 495.244 L2328.94 495.244 L2328.94 489.364 Z" fill="#000000" fill-rule="nonzero" fill-opacity="1" /><path clip-path="url(#clip090)" d="M2354.01 463.763 Q2350.4 463.763 2348.57 467.327 Q2346.76 470.869 2346.76 477.999 Q2346.76 485.105 2348.57 488.67 Q2350.4 492.212 2354.01 492.212 Q2357.64 492.212 2359.45 488.67 Q2361.28 485.105 2361.28 477.999 Q2361.28 470.869 2359.45 467.327 Q2357.64 463.763 2354.01 463.763 M2354.01 460.059 Q2359.82 460.059 2362.88 464.665 Q2365.95 469.249 2365.95 477.999 Q2365.95 486.725 2362.88 491.332 Q2359.82 495.915 2354.01 495.915 Q2348.2 495.915 2345.12 491.332 Q2342.07 486.725 2342.07 477.999 Q2342.07 469.249 2345.12 464.665 Q2348.2 460.059 2354.01 460.059 Z" fill="#000000" fill-rule="nonzero" fill-opacity="1" /><polyline clip-path="url(#clip090)" style="stroke:#000000; stroke-linecap:round; stroke-linejoin:round; stroke-width:4; stroke-opacity:1; fill:none" points="2232.76,481.593 2256.76,481.593 "/>
<polyline clip-path="url(#clip090)" style="stroke:#000000; stroke-linecap:round; stroke-linejoin:round; stroke-width:4; stroke-opacity:1; fill:none" points="2232.76,1190.29 2232.76,343.407 "/>
<path clip-path="url(#clip090)" d="M147.478 996.259 L689.096 996.259 L689.096 581.539 L147.478 581.539  Z" fill="#ffffff" fill-rule="evenodd" fill-opacity="1"/>
<polyline clip-path="url(#clip090)" style="stroke:#000000; stroke-linecap:round; stroke-linejoin:round; stroke-width:4; stroke-opacity:1; fill:none" points="147.478,996.259 689.096,996.259 689.096,581.539 147.478,581.539 147.478,996.259 "/>
<path clip-path="url(#clip090)" d="M169.314 654.115 L300.333 654.115 L300.333 612.643 L169.314 612.643 L169.314 654.115  Z" fill="#0000ff" fill-rule="evenodd" fill-opacity="0.5"/>
<polyline clip-path="url(#clip090)" style="stroke:#000000; stroke-linecap:round; stroke-linejoin:round; stroke-width:4; stroke-opacity:1; fill:none" points="169.314,654.115 300.333,654.115 300.333,612.643 169.314,612.643 169.314,654.115 "/>
<path clip-path="url(#clip090)" d="M338.674 614.641 L338.674 618.183 L334.6 618.183 Q332.308 618.183 331.405 619.109 Q330.526 620.035 330.526 622.442 L330.526 624.734 L337.54 624.734 L337.54 628.044 L330.526 628.044 L330.526 650.659 L326.243 650.659 L326.243 628.044 L322.169 628.044 L322.169 624.734 L326.243 624.734 L326.243 622.928 Q326.243 618.599 328.257 616.632 Q330.271 614.641 334.646 614.641 L338.674 614.641 Z" fill="#000000" fill-rule="nonzero" fill-opacity="1" /><path clip-path="url(#clip090)" d="M364.414 636.632 L364.414 638.715 L344.831 638.715 Q345.109 643.113 347.47 645.428 Q349.854 647.72 354.09 647.72 Q356.544 647.72 358.836 647.118 Q361.151 646.516 363.419 645.312 L363.419 649.34 Q361.127 650.312 358.72 650.821 Q356.313 651.331 353.836 651.331 Q347.632 651.331 343.998 647.72 Q340.387 644.109 340.387 637.951 Q340.387 631.585 343.813 627.859 Q347.262 624.109 353.095 624.109 Q358.327 624.109 361.359 627.488 Q364.414 630.845 364.414 636.632 M360.155 635.382 Q360.109 631.886 358.188 629.803 Q356.289 627.72 353.141 627.72 Q349.577 627.72 347.424 629.734 Q345.294 631.748 344.97 635.405 L360.155 635.382 Z" fill="#000000" fill-rule="nonzero" fill-opacity="1" /><path clip-path="url(#clip090)" d="M383.187 637.627 Q378.025 637.627 376.035 638.808 Q374.044 639.988 374.044 642.835 Q374.044 645.104 375.525 646.447 Q377.03 647.766 379.6 647.766 Q383.141 647.766 385.271 645.266 Q387.424 642.743 387.424 638.576 L387.424 637.627 L383.187 637.627 M391.683 635.868 L391.683 650.659 L387.424 650.659 L387.424 646.724 Q385.965 649.085 383.789 650.22 Q381.613 651.331 378.465 651.331 Q374.484 651.331 372.123 649.109 Q369.785 646.863 369.785 643.113 Q369.785 638.738 372.701 636.516 Q375.641 634.294 381.451 634.294 L387.424 634.294 L387.424 633.877 Q387.424 630.937 385.479 629.34 Q383.558 627.72 380.062 627.72 Q377.84 627.72 375.734 628.252 Q373.627 628.785 371.683 629.849 L371.683 625.914 Q374.021 625.011 376.22 624.572 Q378.419 624.109 380.502 624.109 Q386.127 624.109 388.905 627.025 Q391.683 629.942 391.683 635.868 Z" fill="#000000" fill-rule="nonzero" fill-opacity="1" /><path clip-path="url(#clip090)" d="M416.984 625.498 L416.984 629.525 Q415.178 628.599 413.234 628.136 Q411.289 627.673 409.206 627.673 Q406.035 627.673 404.437 628.646 Q402.863 629.618 402.863 631.562 Q402.863 633.044 403.998 633.9 Q405.132 634.734 408.558 635.497 L410.016 635.822 Q414.553 636.794 416.451 638.576 Q418.372 640.335 418.372 643.507 Q418.372 647.118 415.502 649.224 Q412.655 651.331 407.655 651.331 Q405.572 651.331 403.303 650.914 Q401.058 650.521 398.558 649.71 L398.558 645.312 Q400.919 646.539 403.211 647.164 Q405.502 647.766 407.748 647.766 Q410.757 647.766 412.377 646.747 Q413.998 645.706 413.998 643.831 Q413.998 642.095 412.817 641.169 Q411.66 640.243 407.701 639.386 L406.22 639.039 Q402.261 638.206 400.502 636.493 Q398.743 634.757 398.743 631.748 Q398.743 628.09 401.336 626.099 Q403.928 624.109 408.697 624.109 Q411.058 624.109 413.141 624.456 Q415.224 624.803 416.984 625.498 Z" fill="#000000" fill-rule="nonzero" fill-opacity="1" /><path clip-path="url(#clip090)" d="M425.155 624.734 L429.414 624.734 L429.414 650.659 L425.155 650.659 L425.155 624.734 M425.155 614.641 L429.414 614.641 L429.414 620.035 L425.155 620.035 L425.155 614.641 Z" fill="#000000" fill-rule="nonzero" fill-opacity="1" /><path clip-path="url(#clip090)" d="M456.937 637.72 Q456.937 633.021 454.993 630.359 Q453.071 627.673 449.692 627.673 Q446.312 627.673 444.368 630.359 Q442.446 633.021 442.446 637.72 Q442.446 642.419 444.368 645.104 Q446.312 647.766 449.692 647.766 Q453.071 647.766 454.993 645.104 Q456.937 642.419 456.937 637.72 M442.446 628.669 Q443.789 626.354 445.826 625.243 Q447.886 624.109 450.733 624.109 Q455.456 624.109 458.395 627.859 Q461.358 631.609 461.358 637.72 Q461.358 643.831 458.395 647.581 Q455.456 651.331 450.733 651.331 Q447.886 651.331 445.826 650.22 Q443.789 649.085 442.446 646.771 L442.446 650.659 L438.164 650.659 L438.164 614.641 L442.446 614.641 L442.446 628.669 Z" fill="#000000" fill-rule="nonzero" fill-opacity="1" /><path clip-path="url(#clip090)" d="M468.419 614.641 L472.678 614.641 L472.678 650.659 L468.419 650.659 L468.419 614.641 Z" fill="#000000" fill-rule="nonzero" fill-opacity="1" /><path clip-path="url(#clip090)" d="M503.766 636.632 L503.766 638.715 L484.182 638.715 Q484.46 643.113 486.821 645.428 Q489.205 647.72 493.442 647.72 Q495.895 647.72 498.187 647.118 Q500.502 646.516 502.77 645.312 L502.77 649.34 Q500.479 650.312 498.071 650.821 Q495.664 651.331 493.187 651.331 Q486.983 651.331 483.349 647.72 Q479.738 644.109 479.738 637.951 Q479.738 631.585 483.164 627.859 Q486.613 624.109 492.446 624.109 Q497.678 624.109 500.71 627.488 Q503.766 630.845 503.766 636.632 M499.506 635.382 Q499.46 631.886 497.539 629.803 Q495.641 627.72 492.492 627.72 Q488.928 627.72 486.775 629.734 Q484.645 631.748 484.321 635.405 L499.506 635.382 Z" fill="#000000" fill-rule="nonzero" fill-opacity="1" /><path clip-path="url(#clip090)" d="M540.849 628.715 Q540.131 628.298 539.275 628.113 Q538.441 627.905 537.423 627.905 Q533.812 627.905 531.867 630.266 Q529.946 632.604 529.946 637.002 L529.946 650.659 L525.664 650.659 L525.664 624.734 L529.946 624.734 L529.946 628.761 Q531.289 626.4 533.441 625.266 Q535.594 624.109 538.673 624.109 Q539.113 624.109 539.645 624.178 Q540.177 624.224 540.826 624.34 L540.849 628.715 Z" fill="#000000" fill-rule="nonzero" fill-opacity="1" /><path clip-path="url(#clip090)" d="M566.45 636.632 L566.45 638.715 L546.867 638.715 Q547.145 643.113 549.506 645.428 Q551.89 647.72 556.126 647.72 Q558.58 647.72 560.872 647.118 Q563.187 646.516 565.455 645.312 L565.455 649.34 Q563.163 650.312 560.756 650.821 Q558.349 651.331 555.872 651.331 Q549.668 651.331 546.034 647.72 Q542.423 644.109 542.423 637.951 Q542.423 631.585 545.849 627.859 Q549.298 624.109 555.131 624.109 Q560.362 624.109 563.395 627.488 Q566.45 630.845 566.45 636.632 M562.191 635.382 Q562.145 631.886 560.224 629.803 Q558.325 627.72 555.177 627.72 Q551.613 627.72 549.46 629.734 Q547.33 631.748 547.006 635.405 L562.191 635.382 Z" fill="#000000" fill-rule="nonzero" fill-opacity="1" /><path clip-path="url(#clip090)" d="M590.501 637.396 Q590.501 632.766 588.58 630.22 Q586.682 627.673 583.233 627.673 Q579.807 627.673 577.886 630.22 Q575.987 632.766 575.987 637.396 Q575.987 642.002 577.886 644.548 Q579.807 647.095 583.233 647.095 Q586.682 647.095 588.58 644.548 Q590.501 642.002 590.501 637.396 M594.76 647.442 Q594.76 654.062 591.821 657.28 Q588.881 660.521 582.816 660.521 Q580.571 660.521 578.58 660.173 Q576.589 659.849 574.714 659.155 L574.714 655.011 Q576.589 656.03 578.418 656.516 Q580.247 657.002 582.145 657.002 Q586.335 657.002 588.418 654.803 Q590.501 652.627 590.501 648.206 L590.501 646.099 Q589.182 648.391 587.122 649.525 Q585.061 650.659 582.191 650.659 Q577.423 650.659 574.506 647.025 Q571.589 643.391 571.589 637.396 Q571.589 631.377 574.506 627.743 Q577.423 624.109 582.191 624.109 Q585.061 624.109 587.122 625.243 Q589.182 626.377 590.501 628.669 L590.501 624.734 L594.76 624.734 L594.76 647.442 Z" fill="#000000" fill-rule="nonzero" fill-opacity="1" /><path clip-path="url(#clip090)" d="M603.534 624.734 L607.793 624.734 L607.793 650.659 L603.534 650.659 L603.534 624.734 M603.534 614.641 L607.793 614.641 L607.793 620.035 L603.534 620.035 L603.534 614.641 Z" fill="#000000" fill-rule="nonzero" fill-opacity="1" /><path clip-path="url(#clip090)" d="M626.751 627.72 Q623.325 627.72 621.334 630.405 Q619.344 633.067 619.344 637.72 Q619.344 642.372 621.311 645.058 Q623.302 647.72 626.751 647.72 Q630.154 647.72 632.144 645.034 Q634.135 642.349 634.135 637.72 Q634.135 633.113 632.144 630.428 Q630.154 627.72 626.751 627.72 M626.751 624.109 Q632.307 624.109 635.478 627.72 Q638.649 631.331 638.649 637.72 Q638.649 644.085 635.478 647.72 Q632.307 651.331 626.751 651.331 Q621.172 651.331 618.001 647.72 Q614.853 644.085 614.853 637.72 Q614.853 631.331 618.001 627.72 Q621.172 624.109 626.751 624.109 Z" fill="#000000" fill-rule="nonzero" fill-opacity="1" /><path clip-path="url(#clip090)" d="M667.26 635.011 L667.26 650.659 L663.001 650.659 L663.001 635.15 Q663.001 631.47 661.566 629.641 Q660.13 627.812 657.26 627.812 Q653.811 627.812 651.82 630.011 Q649.83 632.21 649.83 636.007 L649.83 650.659 L645.547 650.659 L645.547 624.734 L649.83 624.734 L649.83 628.761 Q651.357 626.423 653.418 625.266 Q655.501 624.109 658.209 624.109 Q662.677 624.109 664.968 626.886 Q667.26 629.641 667.26 635.011 Z" fill="#000000" fill-rule="nonzero" fill-opacity="1" /><circle clip-path="url(#clip090)" cx="234.824" cy="685.219" r="21.2677" fill="#ffd700" fill-rule="evenodd" fill-opacity="1" stroke="#000000" stroke-opacity="1" stroke-width="3.15077"/>
<path clip-path="url(#clip090)" d="M346.822 676.574 L337.447 689.189 L347.308 702.499 L342.285 702.499 L334.739 692.314 L327.192 702.499 L322.169 702.499 L332.239 688.935 L323.026 676.574 L328.049 676.574 L334.924 685.81 L341.799 676.574 L346.822 676.574 Z" fill="#000000" fill-rule="nonzero" fill-opacity="1" /><path clip-path="url(#clip090)" d="M373.025 710.37 L373.025 713.68 L348.396 713.68 L348.396 710.37 L373.025 710.37 Z" fill="#000000" fill-rule="nonzero" fill-opacity="1" /><path clip-path="url(#clip090)" d="M387.632 671.018 Q384.021 671.018 382.192 674.583 Q380.387 678.125 380.387 685.254 Q380.387 692.361 382.192 695.925 Q384.021 699.467 387.632 699.467 Q391.266 699.467 393.072 695.925 Q394.9 692.361 394.9 685.254 Q394.9 678.125 393.072 674.583 Q391.266 671.018 387.632 671.018 M387.632 667.314 Q393.442 667.314 396.498 671.921 Q399.576 676.504 399.576 685.254 Q399.576 693.981 396.498 698.587 Q393.442 703.171 387.632 703.171 Q381.822 703.171 378.743 698.587 Q375.688 693.981 375.688 685.254 Q375.688 676.504 378.743 671.921 Q381.822 667.314 387.632 667.314 Z" fill="#000000" fill-rule="nonzero" fill-opacity="1" /><circle clip-path="url(#clip090)" cx="234.824" cy="737.059" r="21.2677" fill="#800080" fill-rule="evenodd" fill-opacity="1" stroke="#000000" stroke-opacity="1" stroke-width="3.15077"/>
<path clip-path="url(#clip090)" d="M346.822 728.414 L337.447 741.029 L347.308 754.339 L342.285 754.339 L334.739 744.154 L327.192 754.339 L322.169 754.339 L332.239 740.775 L323.026 728.414 L328.049 728.414 L334.924 737.65 L341.799 728.414 L346.822 728.414 Z" fill="#000000" fill-rule="nonzero" fill-opacity="1" /><path clip-path="url(#clip090)" d="M373.025 762.21 L373.025 765.52 L348.396 765.52 L348.396 762.21 L373.025 762.21 Z" fill="#000000" fill-rule="nonzero" fill-opacity="1" /><path clip-path="url(#clip090)" d="M378.442 750.404 L386.081 750.404 L386.081 724.039 L377.771 725.705 L377.771 721.446 L386.035 719.779 L390.711 719.779 L390.711 750.404 L398.349 750.404 L398.349 754.339 L378.442 754.339 L378.442 750.404 Z" fill="#000000" fill-rule="nonzero" fill-opacity="1" /><circle clip-path="url(#clip090)" cx="234.824" cy="788.899" r="21.2677" fill="#ee7600" fill-rule="evenodd" fill-opacity="1" stroke="#000000" stroke-opacity="1" stroke-width="3.15077"/>
<path clip-path="url(#clip090)" d="M346.822 780.254 L337.447 792.869 L347.308 806.179 L342.285 806.179 L334.739 795.994 L327.192 806.179 L322.169 806.179 L332.239 792.615 L323.026 780.254 L328.049 780.254 L334.924 789.49 L341.799 780.254 L346.822 780.254 Z" fill="#000000" fill-rule="nonzero" fill-opacity="1" /><path clip-path="url(#clip090)" d="M373.025 814.05 L373.025 817.36 L348.396 817.36 L348.396 814.05 L373.025 814.05 Z" fill="#000000" fill-rule="nonzero" fill-opacity="1" /><path clip-path="url(#clip090)" d="M381.66 802.244 L397.979 802.244 L397.979 806.179 L376.035 806.179 L376.035 802.244 Q378.697 799.49 383.28 794.86 Q387.887 790.207 389.067 788.865 Q391.312 786.342 392.192 784.605 Q393.095 782.846 393.095 781.156 Q393.095 778.402 391.15 776.666 Q389.229 774.93 386.127 774.93 Q383.928 774.93 381.475 775.693 Q379.044 776.457 376.266 778.008 L376.266 773.286 Q379.09 772.152 381.544 771.573 Q383.998 770.994 386.035 770.994 Q391.405 770.994 394.599 773.68 Q397.794 776.365 397.794 780.856 Q397.794 782.985 396.984 784.906 Q396.197 786.805 394.09 789.397 Q393.512 790.068 390.41 793.286 Q387.308 796.48 381.66 802.244 Z" fill="#000000" fill-rule="nonzero" fill-opacity="1" /><circle clip-path="url(#clip090)" cx="234.824" cy="840.739" r="21.2677" fill="#cd2626" fill-rule="evenodd" fill-opacity="1" stroke="#000000" stroke-opacity="1" stroke-width="3.15077"/>
<path clip-path="url(#clip090)" d="M346.822 832.094 L337.447 844.709 L347.308 858.019 L342.285 858.019 L334.739 847.834 L327.192 858.019 L322.169 858.019 L332.239 844.455 L323.026 832.094 L328.049 832.094 L334.924 841.33 L341.799 832.094 L346.822 832.094 Z" fill="#000000" fill-rule="nonzero" fill-opacity="1" /><path clip-path="url(#clip090)" d="M373.025 865.89 L373.025 869.2 L348.396 869.2 L348.396 865.89 L373.025 865.89 Z" fill="#000000" fill-rule="nonzero" fill-opacity="1" /><path clip-path="url(#clip090)" d="M378.442 854.084 L386.081 854.084 L386.081 827.719 L377.771 829.385 L377.771 825.126 L386.035 823.459 L390.711 823.459 L390.711 854.084 L398.349 854.084 L398.349 858.019 L378.442 858.019 L378.442 854.084 Z" fill="#000000" fill-rule="nonzero" fill-opacity="1" /><path clip-path="url(#clip090)" d="M408.604 854.084 L416.243 854.084 L416.243 827.719 L407.933 829.385 L407.933 825.126 L416.197 823.459 L420.872 823.459 L420.872 854.084 L428.511 854.084 L428.511 858.019 L408.604 858.019 L408.604 854.084 Z" fill="#000000" fill-rule="nonzero" fill-opacity="1" /><path clip-path="url(#clip090)" d="M234.824 868.949 L211.193 892.579 L234.824 916.21 L258.454 892.579 L234.824 868.949 Z" fill="#ffd700" fill-rule="evenodd" fill-opacity="1" stroke="#000000" stroke-opacity="1" stroke-width="3.15077"/>
<path clip-path="url(#clip090)" d="M322.169 883.934 L326.683 883.934 L334.785 905.693 L342.887 883.934 L347.401 883.934 L337.678 909.859 L331.891 909.859 L322.169 883.934 Z" fill="#000000" fill-rule="nonzero" fill-opacity="1" /><path clip-path="url(#clip090)" d="M372.979 917.73 L372.979 921.04 L348.35 921.04 L348.35 917.73 L372.979 917.73 Z" fill="#000000" fill-rule="nonzero" fill-opacity="1" /><path clip-path="url(#clip090)" d="M378.396 905.924 L386.035 905.924 L386.035 879.559 L377.725 881.225 L377.725 876.966 L385.988 875.299 L390.664 875.299 L390.664 905.924 L398.303 905.924 L398.303 909.859 L378.396 909.859 L378.396 905.924 Z" fill="#000000" fill-rule="nonzero" fill-opacity="1" /><path clip-path="url(#clip090)" d="M234.824 920.789 L211.193 944.419 L234.824 968.05 L258.454 944.419 L234.824 920.789 Z" fill="#800080" fill-rule="evenodd" fill-opacity="1" stroke="#000000" stroke-opacity="1" stroke-width="3.15077"/>
<path clip-path="url(#clip090)" d="M322.169 935.774 L326.683 935.774 L334.785 957.533 L342.887 935.774 L347.401 935.774 L337.678 961.699 L331.891 961.699 L322.169 935.774 Z" fill="#000000" fill-rule="nonzero" fill-opacity="1" /><path clip-path="url(#clip090)" d="M372.979 969.57 L372.979 972.88 L348.35 972.88 L348.35 969.57 L372.979 969.57 Z" fill="#000000" fill-rule="nonzero" fill-opacity="1" /><path clip-path="url(#clip090)" d="M381.613 957.764 L397.933 957.764 L397.933 961.699 L375.988 961.699 L375.988 957.764 Q378.65 955.01 383.234 950.38 Q387.84 945.727 389.021 944.385 Q391.266 941.862 392.146 940.125 Q393.049 938.366 393.049 936.676 Q393.049 933.922 391.104 932.186 Q389.183 930.45 386.081 930.45 Q383.882 930.45 381.428 931.213 Q378.998 931.977 376.22 933.528 L376.22 928.806 Q379.044 927.672 381.498 927.093 Q383.951 926.514 385.988 926.514 Q391.359 926.514 394.553 929.2 Q397.748 931.885 397.748 936.376 Q397.748 938.505 396.937 940.426 Q396.15 942.325 394.044 944.917 Q393.465 945.588 390.363 948.806 Q387.262 952 381.613 957.764 Z" fill="#000000" fill-rule="nonzero" fill-opacity="1" /></svg>
