<?xml version="1.0" encoding="utf-8"?>
<svg xmlns="http://www.w3.org/2000/svg" xmlns:xlink="http://www.w3.org/1999/xlink" width="600" height="400" viewBox="0 0 2400 1600">
<defs>
  <clipPath id="clip580">
    <rect x="0" y="0" width="2400" height="1600"/>
  </clipPath>
</defs>
<path clip-path="url(#clip580)" d="M0 1600 L2400 1600 L2400 0 L0 0  Z" fill="#ffffff" fill-rule="evenodd" fill-opacity="1"/>
<defs>
  <clipPath id="clip581">
    <rect x="1438" y="822" width="915" height="603"/>
  </clipPath>
</defs>
<path clip-path="url(#clip580)" d="M263.916 649.011 L1177.91 649.011 L1177.91 47.2441 L263.916 47.2441  Z" fill="#ffffff" fill-rule="evenodd" fill-opacity="1"/>
<defs>
  <clipPath id="clip582">
    <rect x="263" y="47" width="915" height="603"/>
  </clipPath>
</defs>
<polyline clip-path="url(#clip582)" style="stroke:#000000; stroke-linecap:round; stroke-linejoin:round; stroke-width:2; stroke-opacity:0.1; fill:none" points="644.524,649.011 644.524,47.2441 "/>
<polyline clip-path="url(#clip582)" style="stroke:#000000; stroke-linecap:round; stroke-linejoin:round; stroke-width:2; stroke-opacity:0.1; fill:none" points="1152.04,649.011 1152.04,47.2441 "/>
<polyline clip-path="url(#clip582)" style="stroke:#000000; stroke-linecap:round; stroke-linejoin:round; stroke-width:2; stroke-opacity:0.1; fill:none" points="263.916,631.98 1177.91,631.98 "/>
<polyline clip-path="url(#clip582)" style="stroke:#000000; stroke-linecap:round; stroke-linejoin:round; stroke-width:2; stroke-opacity:0.1; fill:none" points="263.916,259.196 1177.91,259.196 "/>
<polyline clip-path="url(#clip580)" style="stroke:#000000; stroke-linecap:round; stroke-linejoin:round; stroke-width:4; stroke-opacity:1; fill:none" points="263.916,649.011 1177.91,649.011 "/>
<polyline clip-path="url(#clip580)" style="stroke:#000000; stroke-linecap:round; stroke-linejoin:round; stroke-width:4; stroke-opacity:1; fill:none" points="644.524,649.011 644.524,630.113 "/>
<polyline clip-path="url(#clip580)" style="stroke:#000000; stroke-linecap:round; stroke-linejoin:round; stroke-width:4; stroke-opacity:1; fill:none" points="1152.04,649.011 1152.04,630.113 "/>
<path clip-path="url(#clip580)" d="M610.851 723.135 L618.49 723.135 L618.49 696.77 L610.18 698.437 L610.18 694.177 L618.444 692.511 L623.12 692.511 L623.12 723.135 L630.758 723.135 L630.758 727.071 L610.851 727.071 L610.851 723.135 Z" fill="#000000" fill-rule="nonzero" fill-opacity="1" /><path clip-path="url(#clip580)" d="M650.203 695.589 Q646.592 695.589 644.763 699.154 Q642.957 702.696 642.957 709.825 Q642.957 716.932 644.763 720.497 Q646.592 724.038 650.203 724.038 Q653.837 724.038 655.643 720.497 Q657.471 716.932 657.471 709.825 Q657.471 702.696 655.643 699.154 Q653.837 695.589 650.203 695.589 M650.203 691.886 Q656.013 691.886 659.068 696.492 Q662.147 701.075 662.147 709.825 Q662.147 718.552 659.068 723.159 Q656.013 727.742 650.203 727.742 Q644.393 727.742 641.314 723.159 Q638.258 718.552 638.258 709.825 Q638.258 701.075 641.314 696.492 Q644.393 691.886 650.203 691.886 Z" fill="#000000" fill-rule="nonzero" fill-opacity="1" /><path clip-path="url(#clip580)" d="M662.693 696.463 L668.899 696.463 L668.899 675.041 L662.147 676.395 L662.147 672.934 L668.862 671.58 L672.661 671.58 L672.661 696.463 L678.867 696.463 L678.867 699.66 L662.693 699.66 L662.693 696.463 Z" fill="#000000" fill-rule="nonzero" fill-opacity="1" /><path clip-path="url(#clip580)" d="M1117.81 723.135 L1125.45 723.135 L1125.45 696.77 L1117.14 698.437 L1117.14 694.177 L1125.41 692.511 L1130.08 692.511 L1130.08 723.135 L1137.72 723.135 L1137.72 727.071 L1117.81 727.071 L1117.81 723.135 Z" fill="#000000" fill-rule="nonzero" fill-opacity="1" /><path clip-path="url(#clip580)" d="M1157.17 695.589 Q1153.56 695.589 1151.73 699.154 Q1149.92 702.696 1149.92 709.825 Q1149.92 716.932 1151.73 720.497 Q1153.56 724.038 1157.17 724.038 Q1160.8 724.038 1162.61 720.497 Q1164.44 716.932 1164.44 709.825 Q1164.44 702.696 1162.61 699.154 Q1160.8 695.589 1157.17 695.589 M1157.17 691.886 Q1162.98 691.886 1166.03 696.492 Q1169.11 701.075 1169.11 709.825 Q1169.11 718.552 1166.03 723.159 Q1162.98 727.742 1157.17 727.742 Q1151.36 727.742 1148.28 723.159 Q1145.22 718.552 1145.22 709.825 Q1145.22 701.075 1148.28 696.492 Q1151.36 691.886 1157.17 691.886 Z" fill="#000000" fill-rule="nonzero" fill-opacity="1" /><path clip-path="url(#clip580)" d="M1173.68 696.463 L1186.94 696.463 L1186.94 699.66 L1169.11 699.66 L1169.11 696.463 Q1171.27 694.225 1175 690.463 Q1178.74 686.683 1179.7 685.592 Q1181.52 683.542 1182.24 682.131 Q1182.97 680.702 1182.97 679.329 Q1182.97 677.091 1181.39 675.68 Q1179.83 674.27 1177.31 674.27 Q1175.52 674.27 1173.53 674.89 Q1171.56 675.511 1169.3 676.771 L1169.3 672.934 Q1171.59 672.013 1173.59 671.543 Q1175.58 671.072 1177.24 671.072 Q1181.6 671.072 1184.19 673.254 Q1186.79 675.436 1186.79 679.085 Q1186.79 680.815 1186.13 682.376 Q1185.49 683.918 1183.78 686.025 Q1183.31 686.57 1180.79 689.184 Q1178.27 691.78 1173.68 696.463 Z" fill="#000000" fill-rule="nonzero" fill-opacity="1" /><polyline clip-path="url(#clip580)" style="stroke:#000000; stroke-linecap:round; stroke-linejoin:round; stroke-width:4; stroke-opacity:1; fill:none" points="263.916,649.011 263.916,47.2441 "/>
<polyline clip-path="url(#clip580)" style="stroke:#000000; stroke-linecap:round; stroke-linejoin:round; stroke-width:4; stroke-opacity:1; fill:none" points="263.916,631.98 282.813,631.98 "/>
<polyline clip-path="url(#clip580)" style="stroke:#000000; stroke-linecap:round; stroke-linejoin:round; stroke-width:4; stroke-opacity:1; fill:none" points="263.916,259.196 282.813,259.196 "/>
<path clip-path="url(#clip580)" d="M127.776 651.772 L135.415 651.772 L135.415 625.406 L127.104 627.073 L127.104 622.814 L135.368 621.147 L140.044 621.147 L140.044 651.772 L147.683 651.772 L147.683 655.707 L127.776 655.707 L127.776 651.772 Z" fill="#000000" fill-rule="nonzero" fill-opacity="1" /><path clip-path="url(#clip580)" d="M167.127 624.226 Q163.516 624.226 161.688 627.791 Q159.882 631.332 159.882 638.462 Q159.882 645.568 161.688 649.133 Q163.516 652.675 167.127 652.675 Q170.762 652.675 172.567 649.133 Q174.396 645.568 174.396 638.462 Q174.396 631.332 172.567 627.791 Q170.762 624.226 167.127 624.226 M167.127 620.522 Q172.938 620.522 175.993 625.129 Q179.072 629.712 179.072 638.462 Q179.072 647.189 175.993 651.795 Q172.938 656.378 167.127 656.378 Q161.317 656.378 158.239 651.795 Q155.183 647.189 155.183 638.462 Q155.183 629.712 158.239 625.129 Q161.317 620.522 167.127 620.522 Z" fill="#000000" fill-rule="nonzero" fill-opacity="1" /><path clip-path="url(#clip580)" d="M179.072 614.623 L203.183 614.623 L203.183 617.821 L179.072 617.821 L179.072 614.623 Z" fill="#000000" fill-rule="nonzero" fill-opacity="1" /><path clip-path="url(#clip580)" d="M214.656 625.099 L227.916 625.099 L227.916 628.297 L210.086 628.297 L210.086 625.099 Q212.249 622.861 215.973 619.1 Q219.715 615.319 220.675 614.229 Q222.499 612.178 223.214 610.768 Q223.947 609.338 223.947 607.966 Q223.947 605.727 222.367 604.317 Q220.806 602.906 218.286 602.906 Q216.499 602.906 214.506 603.527 Q212.531 604.148 210.274 605.408 L210.274 601.571 Q212.568 600.649 214.562 600.179 Q216.556 599.709 218.211 599.709 Q222.574 599.709 225.17 601.891 Q227.765 604.072 227.765 607.721 Q227.765 609.451 227.107 611.012 Q226.467 612.555 224.756 614.661 Q224.286 615.207 221.765 617.821 Q219.245 620.416 214.656 625.099 Z" fill="#000000" fill-rule="nonzero" fill-opacity="1" /><path clip-path="url(#clip580)" d="M127.475 278.988 L135.114 278.988 L135.114 252.623 L126.803 254.289 L126.803 250.03 L135.067 248.363 L139.743 248.363 L139.743 278.988 L147.382 278.988 L147.382 282.923 L127.475 282.923 L127.475 278.988 Z" fill="#000000" fill-rule="nonzero" fill-opacity="1" /><path clip-path="url(#clip580)" d="M166.826 251.442 Q163.215 251.442 161.387 255.007 Q159.581 258.549 159.581 265.678 Q159.581 272.785 161.387 276.349 Q163.215 279.891 166.826 279.891 Q170.461 279.891 172.266 276.349 Q174.095 272.785 174.095 265.678 Q174.095 258.549 172.266 255.007 Q170.461 251.442 166.826 251.442 M166.826 247.738 Q172.637 247.738 175.692 252.345 Q178.771 256.928 178.771 265.678 Q178.771 274.405 175.692 279.011 Q172.637 283.595 166.826 283.595 Q161.016 283.595 157.938 279.011 Q154.882 274.405 154.882 265.678 Q154.882 256.928 157.938 252.345 Q161.016 247.738 166.826 247.738 Z" fill="#000000" fill-rule="nonzero" fill-opacity="1" /><path clip-path="url(#clip580)" d="M178.771 241.84 L202.882 241.84 L202.882 245.037 L178.771 245.037 L178.771 241.84 Z" fill="#000000" fill-rule="nonzero" fill-opacity="1" /><path clip-path="url(#clip580)" d="M211.741 252.316 L217.947 252.316 L217.947 230.894 L211.195 232.248 L211.195 228.787 L217.91 227.433 L221.709 227.433 L221.709 252.316 L227.916 252.316 L227.916 255.513 L211.741 255.513 L211.741 252.316 Z" fill="#000000" fill-rule="nonzero" fill-opacity="1" /><path clip-path="url(#clip580)" d="M49.7181 413.312 L62.7041 413.312 L62.7041 407.433 Q62.7041 404.169 61.0143 402.386 Q59.3245 400.604 56.1995 400.604 Q53.0977 400.604 51.4079 402.386 Q49.7181 404.169 49.7181 407.433 L49.7181 413.312 M45.8755 417.988 L45.8755 407.433 Q45.8755 401.622 48.5144 398.66 Q51.1301 395.673 56.1995 395.673 Q61.3152 395.673 63.931 398.66 Q66.5467 401.622 66.5467 407.433 L66.5467 413.312 L80.4355 413.312 L80.4355 417.988 L45.8755 417.988 Z" fill="#000000" fill-rule="nonzero" fill-opacity="1" /><path clip-path="url(#clip580)" d="M58.4912 375.396 Q58.0745 376.113 57.8893 376.97 Q57.681 377.803 57.681 378.822 Q57.681 382.433 60.0421 384.377 Q62.38 386.298 66.7782 386.298 L80.4355 386.298 L80.4355 390.581 L54.5097 390.581 L54.5097 386.298 L58.5375 386.298 Q56.1764 384.956 55.0421 382.803 Q53.8847 380.65 53.8847 377.572 Q53.8847 377.132 53.9542 376.599 Q54.0004 376.067 54.1162 375.419 L58.4912 375.396 Z" fill="#000000" fill-rule="nonzero" fill-opacity="1" /><path clip-path="url(#clip580)" d="M54.5097 370.928 L54.5097 366.669 L80.4355 366.669 L80.4355 370.928 L54.5097 370.928 M44.4172 370.928 L44.4172 366.669 L49.8107 366.669 L49.8107 370.928 L44.4172 370.928 Z" fill="#000000" fill-rule="nonzero" fill-opacity="1" /><path clip-path="url(#clip580)" d="M59.4865 337.572 Q56.6162 335.975 55.2504 333.752 Q53.8847 331.53 53.8847 328.521 Q53.8847 324.47 56.7319 322.271 Q59.556 320.072 64.7874 320.072 L80.4355 320.072 L80.4355 324.354 L64.9263 324.354 Q61.1995 324.354 59.3939 325.674 Q57.5884 326.993 57.5884 329.702 Q57.5884 333.012 59.7875 334.933 Q61.9865 336.854 65.7828 336.854 L80.4355 336.854 L80.4355 341.137 L64.9263 341.137 Q61.1763 341.137 59.3939 342.456 Q57.5884 343.776 57.5884 346.53 Q57.5884 349.794 59.8106 351.715 Q62.0097 353.637 65.7828 353.637 L80.4355 353.637 L80.4355 357.919 L54.5097 357.919 L54.5097 353.637 L58.5375 353.637 Q56.1532 352.178 55.019 350.141 Q53.8847 348.104 53.8847 345.303 Q53.8847 342.479 55.3199 340.512 Q56.7551 338.521 59.4865 337.572 Z" fill="#000000" fill-rule="nonzero" fill-opacity="1" /><path clip-path="url(#clip580)" d="M67.4032 299.794 Q67.4032 304.956 68.5837 306.947 Q69.7643 308.938 72.6115 308.938 Q74.88 308.938 76.2226 307.456 Q77.542 305.952 77.542 303.382 Q77.542 299.841 75.042 297.711 Q72.5189 295.558 68.3522 295.558 L67.4032 295.558 L67.4032 299.794 M65.6439 291.299 L80.4355 291.299 L80.4355 295.558 L76.5003 295.558 Q78.8614 297.017 79.9957 299.192 Q81.1068 301.368 81.1068 304.516 Q81.1068 308.498 78.8846 310.859 Q76.6392 313.197 72.8892 313.197 Q68.5143 313.197 66.2921 310.28 Q64.0698 307.341 64.0698 301.53 L64.0698 295.558 L63.6532 295.558 Q60.7134 295.558 59.1162 297.503 Q57.4958 299.424 57.4958 302.919 Q57.4958 305.141 58.0282 307.248 Q58.5606 309.354 59.6254 311.299 L55.6903 311.299 Q54.7875 308.961 54.3477 306.762 Q53.8847 304.563 53.8847 302.479 Q53.8847 296.855 56.8014 294.077 Q59.718 291.299 65.6439 291.299 Z" fill="#000000" fill-rule="nonzero" fill-opacity="1" /><path clip-path="url(#clip580)" d="M44.4172 282.526 L44.4172 278.267 L80.4355 278.267 L80.4355 282.526 L44.4172 282.526 Z" fill="#000000" fill-rule="nonzero" fill-opacity="1" /><polyline clip-path="url(#clip582)" style="stroke:#009af9; stroke-linecap:round; stroke-linejoin:round; stroke-width:5.2; stroke-opacity:1; fill:none" points="289.783,64.2752 379.153,110.85 442.562,146.977 491.745,176.494 531.931,201.451 565.908,223.069 595.34,242.138 621.301,259.196 644.524,274.626 665.531,288.713 684.71,301.672 702.352,313.67 718.686,324.84 733.893,335.288 748.118,345.103 761.481,354.357 774.079,363.111 785.996,371.415 797.302,379.314 808.056,386.845 818.309,394.042 828.107,400.932 837.488,407.541 846.486,413.891 855.13,420.001 863.449,425.889 871.465,431.57 879.199,437.059 886.671,442.367 893.899,447.508 900.897,452.489 907.679,457.323 914.259,462.016 920.648,466.576 926.857,471.012 932.896,475.33 938.775,479.535 944.5,483.634 950.08,487.632 955.523,491.533 960.834,495.343 966.021,499.065 971.088,502.703 976.041,506.261 980.885,509.743 985.626,513.151 990.266,516.49 994.811,519.76 999.264,522.966 1003.63,526.11 1007.91,529.194 1012.11,532.22 1016.23,535.191 1020.27,538.108 1024.24,540.974 1028.14,543.789 1031.98,546.557 1035.75,549.278 1039.45,551.954 1043.09,554.587 1046.68,557.177 1050.2,559.727 1053.67,562.237 1057.09,564.708 1060.46,567.143 1063.77,569.542 1067.04,571.905 1070.26,574.235 1073.43,576.531 1076.55,578.795 1079.64,581.029 1082.68,583.231 1085.67,585.404 1088.63,587.549 1091.55,589.665 1094.43,591.754 1097.28,593.817 1100.09,595.853 1102.86,597.864 1105.6,599.851 1108.3,601.813 1110.97,603.752 1113.61,605.668 1116.22,607.562 1118.8,609.433 1121.35,611.284 1123.87,613.113 1126.36,614.922 1128.82,616.711 1131.25,618.48 1133.66,620.23 1136.05,621.962 1138.4,623.675 1140.74,625.371 1143.04,627.048 1145.33,628.709 1147.59,630.352 1149.83,631.98 1152.04,631.98 "/>
<polyline clip-path="url(#clip582)" style="stroke:#e26f46; stroke-linecap:round; stroke-linejoin:round; stroke-width:5.2; stroke-opacity:1; fill:none" points="289.783,64.2752 379.153,110.85 442.562,146.977 491.745,176.494 531.931,201.451 565.908,223.069 595.34,242.138 621.301,259.196 644.524,274.626 665.531,288.713 684.71,301.672 702.352,313.67 718.686,324.84 733.893,335.288 748.118,345.103 761.481,354.357 774.079,363.111 785.996,371.415 797.302,379.314 808.056,386.845 818.309,394.042 828.107,400.932 837.488,407.541 846.486,413.891 855.13,420.001 863.449,425.889 871.465,431.57 879.199,437.059 886.671,442.367 893.899,447.508 900.897,452.489 907.679,457.323 914.259,462.016 920.648,466.576 926.857,471.012 932.896,475.33 938.775,479.535 944.5,483.634 950.08,487.632 955.523,491.533 960.834,495.343 966.021,499.065 971.088,502.703 976.041,506.261 980.885,509.743 985.626,513.151 990.266,516.49 994.811,519.76 999.264,522.966 1003.63,526.11 1007.91,529.194 1012.11,532.22 1016.23,535.191 1020.27,538.108 1024.24,540.974 1028.14,543.789 1031.98,546.557 1035.75,549.278 1039.45,551.954 1043.09,554.587 1046.68,557.177 1050.2,559.727 1053.67,562.237 1057.09,564.708 1060.46,567.143 1063.77,569.542 1067.04,571.905 1070.26,574.235 1073.43,576.531 1076.55,578.795 1079.64,581.029 1082.68,583.231 1085.67,585.404 1088.63,587.549 1091.55,589.665 1094.43,591.754 1097.28,593.817 1100.09,595.853 1102.86,597.864 1105.6,599.851 1108.3,601.813 1110.97,603.752 1113.61,605.668 1116.22,607.562 1118.8,609.433 1121.35,611.284 1123.87,613.113 1126.36,614.922 1128.82,616.711 1131.25,618.48 1133.66,620.23 1136.05,621.962 1138.4,623.675 1140.74,625.371 1143.04,627.048 1145.33,628.709 1147.59,630.352 1149.83,631.98 1152.04,631.98 "/>
<polyline clip-path="url(#clip582)" style="stroke:#3da44d; stroke-linecap:round; stroke-linejoin:round; stroke-width:5.2; stroke-opacity:1; fill:none" points="289.783,64.2752 379.153,110.85 442.562,146.977 491.745,176.494 531.931,201.451 565.908,223.069 595.34,242.138 621.301,259.196 644.524,274.626 665.531,288.713 684.71,301.672 702.352,313.67 718.686,324.84 733.893,335.288 748.118,345.103 761.481,354.357 774.079,363.111 785.996,371.415 797.302,379.314 808.056,386.845 818.309,394.042 828.107,400.932 837.488,407.541 846.486,413.891 855.13,420.001 863.449,425.889 871.465,431.57 879.199,437.059 886.671,442.367 893.899,447.508 900.897,452.489 907.679,457.323 914.259,462.016 920.648,466.576 926.857,471.012 932.896,475.33 938.775,479.535 944.5,483.634 950.08,487.632 955.523,491.533 960.834,495.343 966.021,499.065 971.088,502.703 976.041,506.261 980.885,509.743 985.626,513.151 990.266,516.49 994.811,519.76 999.264,522.966 1003.63,526.11 1007.91,529.194 1012.11,532.22 1016.23,535.191 1020.27,538.108 1024.24,540.974 1028.14,543.789 1031.98,546.557 1035.75,549.278 1039.45,551.954 1043.09,554.587 1046.68,557.177 1050.2,559.727 1053.67,562.237 1057.09,564.708 1060.46,567.143 1063.77,569.542 1067.04,571.905 1070.26,574.235 1073.43,576.531 1076.55,578.795 1079.64,581.029 1082.68,583.231 1085.67,585.404 1088.63,587.549 1091.55,589.665 1094.43,591.754 1097.28,593.817 1100.09,595.853 1102.86,597.864 1105.6,599.851 1108.3,601.813 1110.97,603.752 1113.61,605.668 1116.22,607.562 1118.8,609.433 1121.35,611.284 1123.87,613.113 1126.36,614.922 1128.82,616.711 1131.25,618.48 1133.66,620.23 1136.05,621.962 1138.4,623.675 1140.74,625.371 1143.04,627.048 1145.33,628.709 1147.59,630.352 1149.83,631.98 1152.04,631.98 "/>
<polyline clip-path="url(#clip582)" style="stroke:#c271d2; stroke-linecap:round; stroke-linejoin:round; stroke-width:5.2; stroke-opacity:1; fill:none" points="289.783,64.2752 379.153,110.85 442.562,146.977 491.745,176.494 531.931,201.451 565.908,223.069 595.34,242.138 621.301,259.196 644.524,274.626 665.531,288.713 684.71,301.672 702.352,313.67 718.686,324.84 733.893,335.288 748.118,345.103 761.481,354.357 774.079,363.111 785.996,371.415 797.302,379.314 808.056,386.845 818.309,394.042 828.107,400.932 837.488,407.541 846.486,413.891 855.13,420.001 863.449,425.889 871.465,431.57 879.199,437.059 886.671,442.367 893.899,447.508 900.897,452.489 907.679,457.323 914.259,462.016 920.648,466.576 926.857,471.012 932.896,475.33 938.775,479.535 944.5,483.634 950.08,487.632 955.523,491.533 960.834,495.343 966.021,499.065 971.088,502.703 976.041,506.261 980.885,509.743 985.626,513.151 990.266,516.49 994.811,519.76 999.264,522.966 1003.63,526.11 1007.91,529.194 1012.11,532.22 1016.23,535.191 1020.27,538.108 1024.24,540.974 1028.14,543.789 1031.98,546.557 1035.75,549.278 1039.45,551.954 1043.09,554.587 1046.68,557.177 1050.2,559.727 1053.67,562.237 1057.09,564.708 1060.46,567.143 1063.77,569.542 1067.04,571.905 1070.26,574.235 1073.43,576.531 1076.55,578.795 1079.64,581.029 1082.68,583.231 1085.67,585.404 1088.63,587.549 1091.55,589.665 1094.43,591.754 1097.28,593.817 1100.09,595.853 1102.86,597.864 1105.6,599.851 1108.3,601.813 1110.97,603.752 1113.61,605.668 1116.22,607.562 1118.8,609.433 1121.35,611.284 1123.87,613.113 1126.36,614.922 1128.82,616.711 1131.25,618.48 1133.66,620.23 1136.05,621.962 1138.4,623.675 1140.74,625.371 1143.04,627.048 1145.33,628.709 1147.59,630.352 1149.83,631.98 1152.04,631.98 "/>
<path clip-path="url(#clip580)" d="M842.087 326.503 L1147.44 326.503 L1147.44 67.303 L842.087 67.303  Z" fill="#ffffff" fill-rule="evenodd" fill-opacity="1"/>
<polyline clip-path="url(#clip580)" style="stroke:#000000; stroke-linecap:round; stroke-linejoin:round; stroke-width:4; stroke-opacity:1; fill:none" points="842.087,326.503 1147.44,326.503 1147.44,67.303 842.087,67.303 842.087,326.503 "/>
<polyline clip-path="url(#clip580)" style="stroke:#009af9; stroke-linecap:round; stroke-linejoin:round; stroke-width:5.2; stroke-opacity:1; fill:none" points="852.242,119.143 913.175,119.143 "/>
<path clip-path="url(#clip580)" d="M928.007 119.918 L928.007 132.58 L935.507 132.58 Q939.28 132.58 941.085 131.029 Q942.914 129.455 942.914 126.238 Q942.914 122.997 941.085 121.469 Q939.28 119.918 935.507 119.918 L928.007 119.918 M928.007 105.706 L928.007 116.122 L934.928 116.122 Q938.354 116.122 940.02 114.849 Q941.71 113.553 941.71 110.914 Q941.71 108.298 940.02 107.002 Q938.354 105.706 934.928 105.706 L928.007 105.706 M923.331 101.863 L935.275 101.863 Q940.622 101.863 943.516 104.085 Q946.409 106.307 946.409 110.405 Q946.409 113.576 944.928 115.451 Q943.446 117.326 940.576 117.789 Q944.025 118.53 945.923 120.891 Q947.845 123.229 947.845 126.747 Q947.845 131.377 944.696 133.9 Q941.548 136.423 935.738 136.423 L923.331 136.423 L923.331 101.863 Z" fill="#000000" fill-rule="nonzero" fill-opacity="1" /><path clip-path="url(#clip580)" d="M960.53 105.706 L960.53 118.692 L966.409 118.692 Q969.673 118.692 971.456 117.002 Q973.238 115.312 973.238 112.187 Q973.238 109.085 971.456 107.395 Q969.673 105.706 966.409 105.706 L960.53 105.706 M955.854 101.863 L966.409 101.863 Q972.219 101.863 975.182 104.502 Q978.168 107.118 978.168 112.187 Q978.168 117.303 975.182 119.918 Q972.219 122.534 966.409 122.534 L960.53 122.534 L960.53 136.423 L955.854 136.423 L955.854 101.863 Z" fill="#000000" fill-rule="nonzero" fill-opacity="1" /><path clip-path="url(#clip580)" d="M1010.32 104.525 L1010.32 109.456 Q1007.96 107.256 1005.27 106.169 Q1002.61 105.081 999.603 105.081 Q993.678 105.081 990.529 108.715 Q987.381 112.326 987.381 119.178 Q987.381 126.006 990.529 129.641 Q993.678 133.252 999.603 133.252 Q1002.61 133.252 1005.27 132.164 Q1007.96 131.076 1010.32 128.877 L1010.32 133.761 Q1007.87 135.428 1005.11 136.261 Q1002.38 137.094 999.326 137.094 Q991.479 137.094 986.965 132.303 Q982.451 127.488 982.451 119.178 Q982.451 110.844 986.965 106.053 Q991.479 101.238 999.326 101.238 Q1002.43 101.238 1005.16 102.071 Q1007.91 102.881 1010.32 104.525 Z" fill="#000000" fill-rule="nonzero" fill-opacity="1" /><path clip-path="url(#clip580)" d="M1041.11 131.492 L1041.11 122.21 L1033.47 122.21 L1033.47 118.368 L1045.74 118.368 L1045.74 133.205 Q1043.03 135.127 1039.77 136.122 Q1036.5 137.094 1032.8 137.094 Q1024.7 137.094 1020.11 132.372 Q1015.55 127.627 1015.55 119.178 Q1015.55 110.706 1020.11 105.983 Q1024.7 101.238 1032.8 101.238 Q1036.18 101.238 1039.21 102.071 Q1042.27 102.905 1044.83 104.525 L1044.83 109.502 Q1042.24 107.303 1039.33 106.192 Q1036.41 105.081 1033.19 105.081 Q1026.85 105.081 1023.65 108.622 Q1020.48 112.164 1020.48 119.178 Q1020.48 126.168 1023.65 129.71 Q1026.85 133.252 1033.19 133.252 Q1035.67 133.252 1037.61 132.835 Q1039.56 132.395 1041.11 131.492 Z" fill="#000000" fill-rule="nonzero" fill-opacity="1" /><path clip-path="url(#clip580)" d="M1069.35 101.863 L1089.21 101.863 L1089.21 105.798 L1074.02 105.798 L1074.02 115.983 L1087.73 115.983 L1087.73 119.918 L1074.02 119.918 L1074.02 136.423 L1069.35 136.423 L1069.35 101.863 Z" fill="#000000" fill-rule="nonzero" fill-opacity="1" /><path clip-path="url(#clip580)" d="M1093.54 101.863 L1098.26 101.863 L1105.53 131.076 L1112.77 101.863 L1118.03 101.863 L1125.3 131.076 L1132.54 101.863 L1137.29 101.863 L1128.61 136.423 L1122.73 136.423 L1115.44 106.423 L1108.08 136.423 L1102.2 136.423 L1093.54 101.863 Z" fill="#000000" fill-rule="nonzero" fill-opacity="1" /><polyline clip-path="url(#clip580)" style="stroke:#e26f46; stroke-linecap:round; stroke-linejoin:round; stroke-width:5.2; stroke-opacity:1; fill:none" points="852.242,170.983 913.175,170.983 "/>
<path clip-path="url(#clip580)" d="M923.331 153.703 L943.192 153.703 L943.192 157.638 L928.007 157.638 L928.007 167.823 L941.71 167.823 L941.71 171.758 L928.007 171.758 L928.007 188.263 L923.331 188.263 L923.331 153.703 Z" fill="#000000" fill-rule="nonzero" fill-opacity="1" /><path clip-path="url(#clip580)" d="M947.52 153.703 L952.243 153.703 L959.511 182.916 L966.756 153.703 L972.011 153.703 L979.28 182.916 L986.525 153.703 L991.27 153.703 L982.59 188.263 L976.71 188.263 L969.418 158.263 L962.057 188.263 L956.178 188.263 L947.52 153.703 Z" fill="#000000" fill-rule="nonzero" fill-opacity="1" /><path clip-path="url(#clip580)" d="M1017.22 171.758 L1017.22 184.42 L1024.72 184.42 Q1028.49 184.42 1030.3 182.869 Q1032.13 181.295 1032.13 178.078 Q1032.13 174.837 1030.3 173.309 Q1028.49 171.758 1024.72 171.758 L1017.22 171.758 M1017.22 157.546 L1017.22 167.962 L1024.14 167.962 Q1027.57 167.962 1029.23 166.689 Q1030.92 165.393 1030.92 162.754 Q1030.92 160.138 1029.23 158.842 Q1027.57 157.546 1024.14 157.546 L1017.22 157.546 M1012.54 153.703 L1024.49 153.703 Q1029.83 153.703 1032.73 155.925 Q1035.62 158.147 1035.62 162.245 Q1035.62 165.416 1034.14 167.291 Q1032.66 169.166 1029.79 169.629 Q1033.24 170.37 1035.14 172.731 Q1037.06 175.069 1037.06 178.587 Q1037.06 183.217 1033.91 185.74 Q1030.76 188.263 1024.95 188.263 L1012.54 188.263 L1012.54 153.703 Z" fill="#000000" fill-rule="nonzero" fill-opacity="1" /><path clip-path="url(#clip580)" d="M1049.74 157.546 L1049.74 170.532 L1055.62 170.532 Q1058.89 170.532 1060.67 168.842 Q1062.45 167.152 1062.45 164.027 Q1062.45 160.925 1060.67 159.235 Q1058.89 157.546 1055.62 157.546 L1049.74 157.546 M1045.07 153.703 L1055.62 153.703 Q1061.43 153.703 1064.39 156.342 Q1067.38 158.958 1067.38 164.027 Q1067.38 169.143 1064.39 171.758 Q1061.43 174.374 1055.62 174.374 L1049.74 174.374 L1049.74 188.263 L1045.07 188.263 L1045.07 153.703 Z" fill="#000000" fill-rule="nonzero" fill-opacity="1" /><path clip-path="url(#clip580)" d="M1099.53 156.365 L1099.53 161.296 Q1097.17 159.096 1094.49 158.009 Q1091.83 156.921 1088.82 156.921 Q1082.89 156.921 1079.74 160.555 Q1076.59 164.166 1076.59 171.018 Q1076.59 177.846 1079.74 181.481 Q1082.89 185.092 1088.82 185.092 Q1091.83 185.092 1094.49 184.004 Q1097.17 182.916 1099.53 180.717 L1099.53 185.601 Q1097.08 187.268 1094.33 188.101 Q1091.59 188.934 1088.54 188.934 Q1080.69 188.934 1076.18 184.143 Q1071.66 179.328 1071.66 171.018 Q1071.66 162.684 1076.18 157.893 Q1080.69 153.078 1088.54 153.078 Q1091.64 153.078 1094.37 153.911 Q1097.13 154.721 1099.53 156.365 Z" fill="#000000" fill-rule="nonzero" fill-opacity="1" /><path clip-path="url(#clip580)" d="M1130.32 183.332 L1130.32 174.05 L1122.68 174.05 L1122.68 170.208 L1134.95 170.208 L1134.95 185.045 Q1132.24 186.967 1128.98 187.962 Q1125.71 188.934 1122.01 188.934 Q1113.91 188.934 1109.33 184.212 Q1104.76 179.467 1104.76 171.018 Q1104.76 162.546 1109.33 157.823 Q1113.91 153.078 1122.01 153.078 Q1125.39 153.078 1128.42 153.911 Q1131.48 154.745 1134.05 156.365 L1134.05 161.342 Q1131.45 159.143 1128.54 158.032 Q1125.62 156.921 1122.4 156.921 Q1116.06 156.921 1112.87 160.462 Q1109.7 164.004 1109.7 171.018 Q1109.7 178.008 1112.87 181.55 Q1116.06 185.092 1122.4 185.092 Q1124.88 185.092 1126.83 184.675 Q1128.77 184.235 1130.32 183.332 Z" fill="#000000" fill-rule="nonzero" fill-opacity="1" /><polyline clip-path="url(#clip580)" style="stroke:#3da44d; stroke-linecap:round; stroke-linejoin:round; stroke-width:5.2; stroke-opacity:1; fill:none" points="852.242,222.823 913.175,222.823 "/>
<path clip-path="url(#clip580)" d="M928.007 223.598 L928.007 236.26 L935.507 236.26 Q939.28 236.26 941.085 234.709 Q942.914 233.135 942.914 229.918 Q942.914 226.677 941.085 225.149 Q939.28 223.598 935.507 223.598 L928.007 223.598 M928.007 209.386 L928.007 219.802 L934.928 219.802 Q938.354 219.802 940.02 218.529 Q941.71 217.233 941.71 214.594 Q941.71 211.978 940.02 210.682 Q938.354 209.386 934.928 209.386 L928.007 209.386 M923.331 205.543 L935.275 205.543 Q940.622 205.543 943.516 207.765 Q946.409 209.987 946.409 214.085 Q946.409 217.256 944.928 219.131 Q943.446 221.006 940.576 221.469 Q944.025 222.21 945.923 224.571 Q947.845 226.909 947.845 230.427 Q947.845 235.057 944.696 237.58 Q941.548 240.103 935.738 240.103 L923.331 240.103 L923.331 205.543 Z" fill="#000000" fill-rule="nonzero" fill-opacity="1" /><path clip-path="url(#clip580)" d="M960.53 209.386 L960.53 222.372 L966.409 222.372 Q969.673 222.372 971.456 220.682 Q973.238 218.992 973.238 215.867 Q973.238 212.765 971.456 211.075 Q969.673 209.386 966.409 209.386 L960.53 209.386 M955.854 205.543 L966.409 205.543 Q972.219 205.543 975.182 208.182 Q978.168 210.798 978.168 215.867 Q978.168 220.983 975.182 223.598 Q972.219 226.214 966.409 226.214 L960.53 226.214 L960.53 240.103 L955.854 240.103 L955.854 205.543 Z" fill="#000000" fill-rule="nonzero" fill-opacity="1" /><path clip-path="url(#clip580)" d="M1010.32 208.205 L1010.32 213.136 Q1007.96 210.936 1005.27 209.849 Q1002.61 208.761 999.603 208.761 Q993.678 208.761 990.529 212.395 Q987.381 216.006 987.381 222.858 Q987.381 229.686 990.529 233.321 Q993.678 236.932 999.603 236.932 Q1002.61 236.932 1005.27 235.844 Q1007.96 234.756 1010.32 232.557 L1010.32 237.441 Q1007.87 239.108 1005.11 239.941 Q1002.38 240.774 999.326 240.774 Q991.479 240.774 986.965 235.983 Q982.451 231.168 982.451 222.858 Q982.451 214.524 986.965 209.733 Q991.479 204.918 999.326 204.918 Q1002.43 204.918 1005.16 205.751 Q1007.91 206.561 1010.32 208.205 Z" fill="#000000" fill-rule="nonzero" fill-opacity="1" /><path clip-path="url(#clip580)" d="M1041.11 235.172 L1041.11 225.89 L1033.47 225.89 L1033.47 222.048 L1045.74 222.048 L1045.74 236.885 Q1043.03 238.807 1039.77 239.802 Q1036.5 240.774 1032.8 240.774 Q1024.7 240.774 1020.11 236.052 Q1015.55 231.307 1015.55 222.858 Q1015.55 214.386 1020.11 209.663 Q1024.7 204.918 1032.8 204.918 Q1036.18 204.918 1039.21 205.751 Q1042.27 206.585 1044.83 208.205 L1044.83 213.182 Q1042.24 210.983 1039.33 209.872 Q1036.41 208.761 1033.19 208.761 Q1026.85 208.761 1023.65 212.302 Q1020.48 215.844 1020.48 222.858 Q1020.48 229.848 1023.65 233.39 Q1026.85 236.932 1033.19 236.932 Q1035.67 236.932 1037.61 236.515 Q1039.56 236.075 1041.11 235.172 Z" fill="#000000" fill-rule="nonzero" fill-opacity="1" /><polyline clip-path="url(#clip580)" style="stroke:#c271d2; stroke-linecap:round; stroke-linejoin:round; stroke-width:5.2; stroke-opacity:1; fill:none" points="852.242,274.663 913.175,274.663 "/>
<path clip-path="url(#clip580)" d="M923.331 257.383 L943.192 257.383 L943.192 261.318 L928.007 261.318 L928.007 271.503 L941.71 271.503 L941.71 275.438 L928.007 275.438 L928.007 291.943 L923.331 291.943 L923.331 257.383 Z" fill="#000000" fill-rule="nonzero" fill-opacity="1" /><path clip-path="url(#clip580)" d="M947.52 257.383 L952.243 257.383 L959.511 286.596 L966.756 257.383 L972.011 257.383 L979.28 286.596 L986.525 257.383 L991.27 257.383 L982.59 291.943 L976.71 291.943 L969.418 261.943 L962.057 291.943 L956.178 291.943 L947.52 257.383 Z" fill="#000000" fill-rule="nonzero" fill-opacity="1" /><path clip-path="url(#clip580)" d="M1438.76 649.011 L2352.76 649.011 L2352.76 47.2441 L1438.76 47.2441  Z" fill="#ffffff" fill-rule="evenodd" fill-opacity="1"/>
<defs>
  <clipPath id="clip583">
    <rect x="1438" y="47" width="915" height="603"/>
  </clipPath>
</defs>
<polyline clip-path="url(#clip583)" style="stroke:#000000; stroke-linecap:round; stroke-linejoin:round; stroke-width:2; stroke-opacity:0.1; fill:none" points="1548.72,649.011 1548.72,47.2441 "/>
<polyline clip-path="url(#clip583)" style="stroke:#000000; stroke-linecap:round; stroke-linejoin:round; stroke-width:2; stroke-opacity:0.1; fill:none" points="1842.33,649.011 1842.33,47.2441 "/>
<polyline clip-path="url(#clip583)" style="stroke:#000000; stroke-linecap:round; stroke-linejoin:round; stroke-width:2; stroke-opacity:0.1; fill:none" points="2135.94,649.011 2135.94,47.2441 "/>
<polyline clip-path="url(#clip583)" style="stroke:#000000; stroke-linecap:round; stroke-linejoin:round; stroke-width:2; stroke-opacity:0.1; fill:none" points="1438.76,631.98 2352.76,631.98 "/>
<polyline clip-path="url(#clip583)" style="stroke:#000000; stroke-linecap:round; stroke-linejoin:round; stroke-width:2; stroke-opacity:0.1; fill:none" points="1438.76,259.196 2352.76,259.196 "/>
<polyline clip-path="url(#clip580)" style="stroke:#000000; stroke-linecap:round; stroke-linejoin:round; stroke-width:4; stroke-opacity:1; fill:none" points="1438.76,649.011 2352.76,649.011 "/>
<polyline clip-path="url(#clip580)" style="stroke:#000000; stroke-linecap:round; stroke-linejoin:round; stroke-width:4; stroke-opacity:1; fill:none" points="1548.72,649.011 1548.72,630.113 "/>
<polyline clip-path="url(#clip580)" style="stroke:#000000; stroke-linecap:round; stroke-linejoin:round; stroke-width:4; stroke-opacity:1; fill:none" points="1842.33,649.011 1842.33,630.113 "/>
<polyline clip-path="url(#clip580)" style="stroke:#000000; stroke-linecap:round; stroke-linejoin:round; stroke-width:4; stroke-opacity:1; fill:none" points="2135.94,649.011 2135.94,630.113 "/>
<path clip-path="url(#clip580)" d="M1498.6 723.135 L1506.24 723.135 L1506.24 696.77 L1497.93 698.437 L1497.93 694.177 L1506.2 692.511 L1510.87 692.511 L1510.87 723.135 L1518.51 723.135 L1518.51 727.071 L1498.6 727.071 L1498.6 723.135 Z" fill="#000000" fill-rule="nonzero" fill-opacity="1" /><path clip-path="url(#clip580)" d="M1537.95 695.589 Q1534.34 695.589 1532.51 699.154 Q1530.71 702.696 1530.71 709.825 Q1530.71 716.932 1532.51 720.497 Q1534.34 724.038 1537.95 724.038 Q1541.59 724.038 1543.39 720.497 Q1545.22 716.932 1545.22 709.825 Q1545.22 702.696 1543.39 699.154 Q1541.59 695.589 1537.95 695.589 M1537.95 691.886 Q1543.76 691.886 1546.82 696.492 Q1549.9 701.075 1549.9 709.825 Q1549.9 718.552 1546.82 723.159 Q1543.76 727.742 1537.95 727.742 Q1532.14 727.742 1529.07 723.159 Q1526.01 718.552 1526.01 709.825 Q1526.01 701.075 1529.07 696.492 Q1532.14 691.886 1537.95 691.886 Z" fill="#000000" fill-rule="nonzero" fill-opacity="1" /><path clip-path="url(#clip580)" d="M1549.9 685.987 L1574.01 685.987 L1574.01 689.184 L1549.9 689.184 L1549.9 685.987 Z" fill="#000000" fill-rule="nonzero" fill-opacity="1" /><path clip-path="url(#clip580)" d="M1593.72 684.52 Q1596.45 685.103 1597.97 686.946 Q1599.51 688.789 1599.51 691.498 Q1599.51 695.654 1596.65 697.93 Q1593.8 700.206 1588.53 700.206 Q1586.76 700.206 1584.88 699.848 Q1583.02 699.51 1581.03 698.814 L1581.03 695.146 Q1582.61 696.068 1584.49 696.538 Q1586.37 697.008 1588.42 697.008 Q1591.99 697.008 1593.85 695.598 Q1595.73 694.187 1595.73 691.498 Q1595.73 689.015 1593.98 687.623 Q1592.25 686.213 1589.15 686.213 L1585.88 686.213 L1585.88 683.091 L1589.3 683.091 Q1592.1 683.091 1593.59 681.981 Q1595.07 680.852 1595.07 678.746 Q1595.07 676.583 1593.53 675.436 Q1592.01 674.27 1589.15 674.27 Q1587.59 674.27 1585.8 674.608 Q1584.02 674.947 1581.87 675.662 L1581.87 672.276 Q1584.03 671.674 1585.92 671.373 Q1587.82 671.072 1589.49 671.072 Q1593.81 671.072 1596.34 673.047 Q1598.86 675.003 1598.86 678.351 Q1598.86 680.683 1597.52 682.301 Q1596.18 683.899 1593.72 684.52 Z" fill="#000000" fill-rule="nonzero" fill-opacity="1" /><path clip-path="url(#clip580)" d="M1792.6 723.135 L1800.24 723.135 L1800.24 696.77 L1791.93 698.437 L1791.93 694.177 L1800.19 692.511 L1804.86 692.511 L1804.86 723.135 L1812.5 723.135 L1812.5 727.071 L1792.6 727.071 L1792.6 723.135 Z" fill="#000000" fill-rule="nonzero" fill-opacity="1" /><path clip-path="url(#clip580)" d="M1831.95 695.589 Q1828.34 695.589 1826.51 699.154 Q1824.7 702.696 1824.7 709.825 Q1824.7 716.932 1826.51 720.497 Q1828.34 724.038 1831.95 724.038 Q1835.58 724.038 1837.39 720.497 Q1839.22 716.932 1839.22 709.825 Q1839.22 702.696 1837.39 699.154 Q1835.58 695.589 1831.95 695.589 M1831.95 691.886 Q1837.76 691.886 1840.81 696.492 Q1843.89 701.075 1843.89 709.825 Q1843.89 718.552 1840.81 723.159 Q1837.76 727.742 1831.95 727.742 Q1826.14 727.742 1823.06 723.159 Q1820 718.552 1820 709.825 Q1820 701.075 1823.06 696.492 Q1826.14 691.886 1831.95 691.886 Z" fill="#000000" fill-rule="nonzero" fill-opacity="1" /><path clip-path="url(#clip580)" d="M1843.89 685.987 L1868 685.987 L1868 689.184 L1843.89 689.184 L1843.89 685.987 Z" fill="#000000" fill-rule="nonzero" fill-opacity="1" /><path clip-path="url(#clip580)" d="M1879.48 696.463 L1892.74 696.463 L1892.74 699.66 L1874.91 699.66 L1874.91 696.463 Q1877.07 694.225 1880.79 690.463 Q1884.54 686.683 1885.5 685.592 Q1887.32 683.542 1888.03 682.131 Q1888.77 680.702 1888.77 679.329 Q1888.77 677.091 1887.19 675.68 Q1885.63 674.27 1883.11 674.27 Q1881.32 674.27 1879.33 674.89 Q1877.35 675.511 1875.09 676.771 L1875.09 672.934 Q1877.39 672.013 1879.38 671.543 Q1881.38 671.072 1883.03 671.072 Q1887.39 671.072 1889.99 673.254 Q1892.59 675.436 1892.59 679.085 Q1892.59 680.815 1891.93 682.376 Q1891.29 683.918 1889.58 686.025 Q1889.11 686.57 1886.59 689.184 Q1884.07 691.78 1879.48 696.463 Z" fill="#000000" fill-rule="nonzero" fill-opacity="1" /><path clip-path="url(#clip580)" d="M2086.05 723.135 L2093.69 723.135 L2093.69 696.77 L2085.38 698.437 L2085.38 694.177 L2093.65 692.511 L2098.32 692.511 L2098.32 723.135 L2105.96 723.135 L2105.96 727.071 L2086.05 727.071 L2086.05 723.135 Z" fill="#000000" fill-rule="nonzero" fill-opacity="1" /><path clip-path="url(#clip580)" d="M2125.41 695.589 Q2121.79 695.589 2119.97 699.154 Q2118.16 702.696 2118.16 709.825 Q2118.16 716.932 2119.97 720.497 Q2121.79 724.038 2125.41 724.038 Q2129.04 724.038 2130.85 720.497 Q2132.67 716.932 2132.67 709.825 Q2132.67 702.696 2130.85 699.154 Q2129.04 695.589 2125.41 695.589 M2125.41 691.886 Q2131.22 691.886 2134.27 696.492 Q2137.35 701.075 2137.35 709.825 Q2137.35 718.552 2134.27 723.159 Q2131.22 727.742 2125.41 727.742 Q2119.6 727.742 2116.52 723.159 Q2113.46 718.552 2113.46 709.825 Q2113.46 701.075 2116.52 696.492 Q2119.6 691.886 2125.41 691.886 Z" fill="#000000" fill-rule="nonzero" fill-opacity="1" /><path clip-path="url(#clip580)" d="M2137.35 685.987 L2161.46 685.987 L2161.46 689.184 L2137.35 689.184 L2137.35 685.987 Z" fill="#000000" fill-rule="nonzero" fill-opacity="1" /><path clip-path="url(#clip580)" d="M2170.32 696.463 L2176.53 696.463 L2176.53 675.041 L2169.77 676.395 L2169.77 672.934 L2176.49 671.58 L2180.29 671.58 L2180.29 696.463 L2186.49 696.463 L2186.49 699.66 L2170.32 699.66 L2170.32 696.463 Z" fill="#000000" fill-rule="nonzero" fill-opacity="1" /><polyline clip-path="url(#clip580)" style="stroke:#000000; stroke-linecap:round; stroke-linejoin:round; stroke-width:4; stroke-opacity:1; fill:none" points="1438.76,649.011 1438.76,47.2441 "/>
<polyline clip-path="url(#clip580)" style="stroke:#000000; stroke-linecap:round; stroke-linejoin:round; stroke-width:4; stroke-opacity:1; fill:none" points="1438.76,631.98 1457.66,631.98 "/>
<polyline clip-path="url(#clip580)" style="stroke:#000000; stroke-linecap:round; stroke-linejoin:round; stroke-width:4; stroke-opacity:1; fill:none" points="1438.76,259.196 1457.66,259.196 "/>
<path clip-path="url(#clip580)" d="M1302.62 651.772 L1310.26 651.772 L1310.26 625.406 L1301.95 627.073 L1301.95 622.814 L1310.21 621.147 L1314.89 621.147 L1314.89 651.772 L1322.53 651.772 L1322.53 655.707 L1302.62 655.707 L1302.62 651.772 Z" fill="#000000" fill-rule="nonzero" fill-opacity="1" /><path clip-path="url(#clip580)" d="M1341.97 624.226 Q1338.36 624.226 1336.53 627.791 Q1334.73 631.332 1334.73 638.462 Q1334.73 645.568 1336.53 649.133 Q1338.36 652.675 1341.97 652.675 Q1345.61 652.675 1347.41 649.133 Q1349.24 645.568 1349.24 638.462 Q1349.24 631.332 1347.41 627.791 Q1345.61 624.226 1341.97 624.226 M1341.97 620.522 Q1347.78 620.522 1350.84 625.129 Q1353.92 629.712 1353.92 638.462 Q1353.92 647.189 1350.84 651.795 Q1347.78 656.378 1341.97 656.378 Q1336.16 656.378 1333.08 651.795 Q1330.03 647.189 1330.03 638.462 Q1330.03 629.712 1333.08 625.129 Q1336.16 620.522 1341.97 620.522 Z" fill="#000000" fill-rule="nonzero" fill-opacity="1" /><path clip-path="url(#clip580)" d="M1353.92 614.623 L1378.03 614.623 L1378.03 617.821 L1353.92 617.821 L1353.92 614.623 Z" fill="#000000" fill-rule="nonzero" fill-opacity="1" /><path clip-path="url(#clip580)" d="M1389.5 625.099 L1402.76 625.099 L1402.76 628.297 L1384.93 628.297 L1384.93 625.099 Q1387.09 622.861 1390.82 619.1 Q1394.56 615.319 1395.52 614.229 Q1397.34 612.178 1398.06 610.768 Q1398.79 609.338 1398.79 607.966 Q1398.79 605.727 1397.21 604.317 Q1395.65 602.906 1393.13 602.906 Q1391.35 602.906 1389.35 603.527 Q1387.38 604.148 1385.12 605.408 L1385.12 601.571 Q1387.41 600.649 1389.41 600.179 Q1391.4 599.709 1393.06 599.709 Q1397.42 599.709 1400.02 601.891 Q1402.61 604.072 1402.61 607.721 Q1402.61 609.451 1401.95 611.012 Q1401.31 612.555 1399.6 614.661 Q1399.13 615.207 1396.61 617.821 Q1394.09 620.416 1389.5 625.099 Z" fill="#000000" fill-rule="nonzero" fill-opacity="1" /><path clip-path="url(#clip580)" d="M1302.32 278.988 L1309.96 278.988 L1309.96 252.623 L1301.65 254.289 L1301.65 250.03 L1309.91 248.363 L1314.59 248.363 L1314.59 278.988 L1322.23 278.988 L1322.23 282.923 L1302.32 282.923 L1302.32 278.988 Z" fill="#000000" fill-rule="nonzero" fill-opacity="1" /><path clip-path="url(#clip580)" d="M1341.67 251.442 Q1338.06 251.442 1336.23 255.007 Q1334.43 258.549 1334.43 265.678 Q1334.43 272.785 1336.23 276.349 Q1338.06 279.891 1341.67 279.891 Q1345.31 279.891 1347.11 276.349 Q1348.94 272.785 1348.94 265.678 Q1348.94 258.549 1347.11 255.007 Q1345.31 251.442 1341.67 251.442 M1341.67 247.738 Q1347.48 247.738 1350.54 252.345 Q1353.62 256.928 1353.62 265.678 Q1353.62 274.405 1350.54 279.011 Q1347.48 283.595 1341.67 283.595 Q1335.86 283.595 1332.78 279.011 Q1329.73 274.405 1329.73 265.678 Q1329.73 256.928 1332.78 252.345 Q1335.86 247.738 1341.67 247.738 Z" fill="#000000" fill-rule="nonzero" fill-opacity="1" /><path clip-path="url(#clip580)" d="M1353.62 241.84 L1377.73 241.84 L1377.73 245.037 L1353.62 245.037 L1353.62 241.84 Z" fill="#000000" fill-rule="nonzero" fill-opacity="1" /><path clip-path="url(#clip580)" d="M1386.59 252.316 L1392.79 252.316 L1392.79 230.894 L1386.04 232.248 L1386.04 228.787 L1392.76 227.433 L1396.55 227.433 L1396.55 252.316 L1402.76 252.316 L1402.76 255.513 L1386.59 255.513 L1386.59 252.316 Z" fill="#000000" fill-rule="nonzero" fill-opacity="1" /><polyline clip-path="url(#clip583)" style="stroke:#009af9; stroke-linecap:round; stroke-linejoin:round; stroke-width:5.2; stroke-opacity:1; fill:none" points="2285.42,64.2752 2285.45,110.85 2326.27,146.977 2326.29,176.494 2326.3,201.451 2326.31,223.069 2326.32,242.138 2326.33,259.196 2326.33,274.626 2326.34,288.713 2326.34,301.672 2326.35,313.67 2326.35,324.84 2326.36,335.288 2326.37,345.103 2326.37,354.357 2326.38,363.111 2326.38,371.415 2326.39,379.314 2326.4,386.845 2326.4,394.042 2326.41,400.932 2326.41,407.541 2326.42,413.891 2326.42,420.001 2326.43,425.889 2326.44,431.57 2326.44,437.059 2326.45,442.367 2326.45,447.508 2326.46,452.489 2326.46,457.323 2326.47,462.016 2326.48,466.576 2326.48,471.012 2326.49,475.33 2326.5,479.535 2326.5,483.634 2326.51,487.632 2326.51,491.533 2326.52,495.343 2326.53,499.065 2326.53,502.703 2326.54,506.261 2326.54,509.743 2326.55,513.151 2326.56,516.49 2326.56,519.76 2326.57,522.966 2326.57,526.11 2326.58,529.194 2326.58,532.22 2326.59,535.191 2326.6,538.108 2326.61,540.974 2326.61,543.789 2326.62,546.557 2326.63,549.278 2326.63,551.954 2326.64,554.587 2326.64,557.177 2326.65,559.727 2326.66,562.237 2326.66,564.708 2326.67,567.143 2326.67,569.542 2326.68,571.905 2326.69,574.235 2326.69,576.531 2326.7,578.795 2326.7,581.029 2326.71,583.231 2326.72,585.404 2326.72,587.549 2326.73,589.665 2326.73,591.754 2326.74,593.817 2326.75,595.853 2326.75,597.864 2326.76,599.851 2326.76,601.813 2326.77,603.752 2326.78,605.668 2326.78,607.562 2326.79,609.433 2326.8,611.284 2326.8,613.113 2326.81,614.922 2326.81,616.711 2326.82,618.48 2326.83,620.23 2326.83,621.962 2326.84,623.675 2326.84,625.371 2326.85,627.048 2326.86,628.709 2326.86,630.352 2326.87,631.98 2326.87,631.98 2326.89,631.98 "/>
<polyline clip-path="url(#clip583)" style="stroke:#e26f46; stroke-linecap:round; stroke-linejoin:round; stroke-width:5.2; stroke-opacity:1; fill:none" points="2216.43,64.2752 2216.49,110.85 2216.5,146.977 2216.52,176.494 2216.53,201.451 2216.54,223.069 2216.55,242.138 2216.57,259.196 2216.58,274.626 2216.59,288.713 2216.6,301.672 2216.62,313.67 2216.63,324.84 2216.64,335.288 2216.65,345.103 2216.67,354.357 2216.68,363.111 2216.69,371.415 2216.7,379.314 2216.72,386.845 2216.75,394.042 2216.77,400.932 2216.78,407.541 2216.8,413.891 2216.81,420.001 2216.82,425.889 2216.84,431.57 2216.85,437.059 2216.86,442.367 2216.87,447.508 2216.89,452.489 2216.9,457.323 2216.91,462.016 2216.93,466.576 2216.94,471.012 2216.96,475.33 2216.97,479.535 2216.98,483.634 2217,487.632 2217.01,491.533 2217.03,495.343 2217.04,499.065 2217.06,502.703 2217.07,506.261 2217.08,509.743 2217.1,513.151 2217.11,516.49 2217.13,519.76 2217.14,522.966 2217.16,526.11 2217.17,529.194 2217.19,532.22 2217.2,535.191 2217.22,538.108 2217.23,540.974 2217.25,543.789 2217.26,546.557 2217.28,549.278 2217.29,551.954 2217.31,554.587 2217.32,557.177 2217.34,559.727 2217.35,562.237 2217.37,564.708 2217.39,567.143 2217.41,569.542 2217.43,571.905 2217.45,574.235 2217.46,576.531 2217.48,578.795 2217.5,581.029 2217.51,583.231 2217.53,585.404 2217.55,587.549 2217.56,589.665 2217.58,591.754 2217.6,593.817 2217.62,595.853 2217.63,597.864 2217.65,599.851 2217.67,601.813 2217.69,603.752 2217.71,605.668 2217.72,607.562 2217.74,609.433 2217.76,611.284 2217.78,613.113 2217.8,614.922 2217.82,616.711 2217.84,618.48 2217.86,620.23 2217.88,621.962 2217.9,623.675 2217.91,625.371 2217.93,627.048 2217.95,628.709 2217.97,630.352 2217.99,631.98 2218.01,631.98 2218.05,631.98 "/>
<polyline clip-path="url(#clip583)" style="stroke:#3da44d; stroke-linecap:round; stroke-linejoin:round; stroke-width:5.2; stroke-opacity:1; fill:none" points="1743.7,64.2752 1744.94,110.85 1745.87,146.977 1746.53,176.494 1747.17,201.451 1747.78,223.069 1748.4,242.138 1749.01,259.196 1749.61,274.626 1750.2,288.713 1750.79,301.672 1751.37,313.67 1751.94,324.84 1752.51,335.288 1753.08,345.103 1753.66,354.357 1754.27,363.111 1754.84,371.415 1755.39,379.314 1755.96,386.845 1756.55,394.042 1757.12,400.932 1757.68,407.541 1758.25,413.891 1758.85,420.001 1759.42,425.889 1759.98,431.57 1760.99,437.059 1761.59,442.367 1762.14,447.508 1762.72,452.489 1763.27,457.323 1763.82,462.016 1764.36,466.576 1764.91,471.012 1765.45,475.33 1765.99,479.535 1766.54,483.634 1767.07,487.632 1767.63,491.533 1768.17,495.343 1768.73,499.065 1769.27,502.703 1769.85,506.261 1770.44,509.743 1771.02,513.151 1771.59,516.49 1772.15,519.76 1772.72,522.966 1773.3,526.11 1773.85,529.194 1774.41,532.22 1775.01,535.191 1775.59,538.108 1776.14,540.974 1776.7,543.789 1777.24,546.557 1777.79,549.278 1778.37,551.954 1778.94,554.587 1779.53,557.177 1780.09,559.727 1780.66,562.237 1781.22,564.708 1781.82,567.143 1782.38,569.542 1783.26,571.905 1783.87,574.235 1784.48,576.531 1785.05,578.795 1785.65,581.029 1786.2,583.231 1786.78,585.404 1787.33,587.549 1788.09,589.665 1788.67,591.754 1789.26,593.817 1789.85,595.853 1790.44,597.864 1791.03,599.851 1791.63,601.813 1792.2,603.752 1792.82,605.668 1793.44,607.562 1794,609.433 1794.61,611.284 1795.19,613.113 1795.78,614.922 1796.37,616.711 1796.96,618.48 1797.54,620.23 1798.15,621.962 1798.77,623.675 1799.39,625.371 1800.05,627.048 1800.73,628.709 1801.31,630.352 1802.15,631.98 1802.76,631.98 1803.68,631.98 "/>
<polyline clip-path="url(#clip583)" style="stroke:#c271d2; stroke-linecap:round; stroke-linejoin:round; stroke-width:5.2; stroke-opacity:1; fill:none" points="1464.63,64.2752 1470.2,110.85 1473.9,146.977 1477.17,176.494 1480.49,201.451 1483.51,223.069 1486.62,242.138 1489.5,259.196 1492.45,274.626 1495.21,288.713 1497.94,301.672 1500.55,313.67 1503.24,324.84 1505.89,335.288 1508.32,345.103 1510.91,354.357 1513.42,363.111 1515.75,371.415 1517.87,379.314 1520.15,386.845 1522.29,394.042 1524.41,400.932 1526.58,407.541 1528.66,413.891 1530.76,420.001 1532.78,425.889 1534.83,431.57 1536.81,437.059 1538.8,442.367 1540.67,447.508 1542.47,452.489 1544.34,457.323 1546.12,462.016 1547.94,466.576 1549.76,471.012 1551.52,475.33 1553.14,479.535 1554.84,483.634 1556.52,487.632 1558.1,491.533 1559.72,495.343 1561.34,499.065 1564.56,502.703 1566.25,506.261 1567.81,509.743 1569.44,513.151 1570.98,516.49 1572.46,519.76 1573.88,522.966 1575.25,526.11 1576.73,529.194 1578.14,532.22 1579.53,535.191 1580.95,538.108 1582.32,540.974 1583.79,543.789 1585.1,546.557 1586.36,549.278 1587.7,551.954 1589.03,554.587 1590.33,557.177 1591.58,559.727 1592.81,562.237 1594.13,564.708 1595.41,567.143 1596.64,569.542 1597.82,571.905 1599.01,574.235 1600.21,576.531 1601.45,578.795 1602.68,581.029 1603.85,583.231 1604.99,585.404 1606.13,587.549 1607.26,589.665 1608.37,591.754 1609.54,593.817 1610.59,595.853 1611.76,597.864 1614.76,599.851 1617.53,601.813 1620.38,603.752 1623.02,605.668 1625.57,607.562 1628.2,609.433 1630.68,611.284 1633.13,613.113 1635.5,614.922 1637.69,616.711 1640.17,618.48 1642.27,620.23 1645.35,621.962 1647.47,623.675 1649.55,625.371 1651.85,627.048 1653.78,628.709 1655.99,630.352 1657.86,631.98 1659.85,631.98 1661.89,631.98 "/>
<path clip-path="url(#clip580)" d="M263.916 1423.86 L1177.91 1423.86 L1177.91 822.09 L263.916 822.09  Z" fill="#ffffff" fill-rule="evenodd" fill-opacity="1"/>
<defs>
  <clipPath id="clip584">
    <rect x="263" y="822" width="915" height="603"/>
  </clipPath>
</defs>
<polyline clip-path="url(#clip584)" style="stroke:#000000; stroke-linecap:round; stroke-linejoin:round; stroke-width:2; stroke-opacity:0.1; fill:none" points="644.524,1423.86 644.524,822.09 "/>
<polyline clip-path="url(#clip584)" style="stroke:#000000; stroke-linecap:round; stroke-linejoin:round; stroke-width:2; stroke-opacity:0.1; fill:none" points="1152.04,1423.86 1152.04,822.09 "/>
<polyline clip-path="url(#clip584)" style="stroke:#000000; stroke-linecap:round; stroke-linejoin:round; stroke-width:2; stroke-opacity:0.1; fill:none" points="263.916,1154.48 1177.91,1154.48 "/>
<polyline clip-path="url(#clip584)" style="stroke:#000000; stroke-linecap:round; stroke-linejoin:round; stroke-width:2; stroke-opacity:0.1; fill:none" points="263.916,829.333 1177.91,829.333 "/>
<polyline clip-path="url(#clip580)" style="stroke:#000000; stroke-linecap:round; stroke-linejoin:round; stroke-width:4; stroke-opacity:1; fill:none" points="263.916,1423.86 1177.91,1423.86 "/>
<polyline clip-path="url(#clip580)" style="stroke:#000000; stroke-linecap:round; stroke-linejoin:round; stroke-width:4; stroke-opacity:1; fill:none" points="644.524,1423.86 644.524,1404.96 "/>
<polyline clip-path="url(#clip580)" style="stroke:#000000; stroke-linecap:round; stroke-linejoin:round; stroke-width:4; stroke-opacity:1; fill:none" points="1152.04,1423.86 1152.04,1404.96 "/>
<path clip-path="url(#clip580)" d="M610.851 1497.98 L618.49 1497.98 L618.49 1471.62 L610.18 1473.28 L610.18 1469.02 L618.444 1467.36 L623.12 1467.36 L623.12 1497.98 L630.758 1497.98 L630.758 1501.92 L610.851 1501.92 L610.851 1497.98 Z" fill="#000000" fill-rule="nonzero" fill-opacity="1" /><path clip-path="url(#clip580)" d="M650.203 1470.44 Q646.592 1470.44 644.763 1474 Q642.957 1477.54 642.957 1484.67 Q642.957 1491.78 644.763 1495.34 Q646.592 1498.88 650.203 1498.88 Q653.837 1498.88 655.643 1495.34 Q657.471 1491.78 657.471 1484.67 Q657.471 1477.54 655.643 1474 Q653.837 1470.44 650.203 1470.44 M650.203 1466.73 Q656.013 1466.73 659.068 1471.34 Q662.147 1475.92 662.147 1484.67 Q662.147 1493.4 659.068 1498 Q656.013 1502.59 650.203 1502.59 Q644.393 1502.59 641.314 1498 Q638.258 1493.4 638.258 1484.67 Q638.258 1475.92 641.314 1471.34 Q644.393 1466.73 650.203 1466.73 Z" fill="#000000" fill-rule="nonzero" fill-opacity="1" /><path clip-path="url(#clip580)" d="M662.693 1471.31 L668.899 1471.31 L668.899 1449.89 L662.147 1451.24 L662.147 1447.78 L668.862 1446.43 L672.661 1446.43 L672.661 1471.31 L678.867 1471.31 L678.867 1474.51 L662.693 1474.51 L662.693 1471.31 Z" fill="#000000" fill-rule="nonzero" fill-opacity="1" /><path clip-path="url(#clip580)" d="M1117.81 1497.98 L1125.45 1497.98 L1125.45 1471.62 L1117.14 1473.28 L1117.14 1469.02 L1125.41 1467.36 L1130.08 1467.36 L1130.08 1497.98 L1137.72 1497.98 L1137.72 1501.92 L1117.81 1501.92 L1117.81 1497.98 Z" fill="#000000" fill-rule="nonzero" fill-opacity="1" /><path clip-path="url(#clip580)" d="M1157.17 1470.44 Q1153.56 1470.44 1151.73 1474 Q1149.92 1477.54 1149.92 1484.67 Q1149.92 1491.78 1151.73 1495.34 Q1153.56 1498.88 1157.17 1498.88 Q1160.8 1498.88 1162.61 1495.34 Q1164.44 1491.78 1164.44 1484.67 Q1164.44 1477.54 1162.61 1474 Q1160.8 1470.44 1157.17 1470.44 M1157.17 1466.73 Q1162.98 1466.73 1166.03 1471.34 Q1169.11 1475.92 1169.11 1484.67 Q1169.11 1493.4 1166.03 1498 Q1162.98 1502.59 1157.17 1502.59 Q1151.36 1502.59 1148.28 1498 Q1145.22 1493.4 1145.22 1484.67 Q1145.22 1475.92 1148.28 1471.34 Q1151.36 1466.73 1157.17 1466.73 Z" fill="#000000" fill-rule="nonzero" fill-opacity="1" /><path clip-path="url(#clip580)" d="M1173.68 1471.31 L1186.94 1471.31 L1186.94 1474.51 L1169.11 1474.51 L1169.11 1471.31 Q1171.27 1469.07 1175 1465.31 Q1178.74 1461.53 1179.7 1460.44 Q1181.52 1458.39 1182.24 1456.98 Q1182.97 1455.55 1182.97 1454.18 Q1182.97 1451.94 1181.39 1450.53 Q1179.83 1449.12 1177.31 1449.12 Q1175.52 1449.12 1173.53 1449.74 Q1171.56 1450.36 1169.3 1451.62 L1169.3 1447.78 Q1171.59 1446.86 1173.59 1446.39 Q1175.58 1445.92 1177.24 1445.92 Q1181.6 1445.92 1184.19 1448.1 Q1186.79 1450.28 1186.79 1453.93 Q1186.79 1455.66 1186.13 1457.22 Q1185.49 1458.76 1183.78 1460.87 Q1183.31 1461.42 1180.79 1464.03 Q1178.27 1466.63 1173.68 1471.31 Z" fill="#000000" fill-rule="nonzero" fill-opacity="1" /><path clip-path="url(#clip580)" d="M611.504 1537.03 L616.179 1537.03 L616.179 1571.59 L611.504 1571.59 L611.504 1537.03 Z" fill="#000000" fill-rule="nonzero" fill-opacity="1" /><path clip-path="url(#clip580)" d="M629.513 1538.31 L629.513 1545.67 L638.286 1545.67 L638.286 1548.98 L629.513 1548.98 L629.513 1563.05 Q629.513 1566.22 630.369 1567.13 Q631.249 1568.03 633.911 1568.03 L638.286 1568.03 L638.286 1571.59 L633.911 1571.59 Q628.98 1571.59 627.105 1569.76 Q625.23 1567.91 625.23 1563.05 L625.23 1548.98 L622.105 1548.98 L622.105 1545.67 L625.23 1545.67 L625.23 1538.31 L629.513 1538.31 Z" fill="#000000" fill-rule="nonzero" fill-opacity="1" /><path clip-path="url(#clip580)" d="M666.063 1557.57 L666.063 1559.65 L646.48 1559.65 Q646.758 1564.05 649.119 1566.36 Q651.503 1568.65 655.739 1568.65 Q658.193 1568.65 660.485 1568.05 Q662.8 1567.45 665.068 1566.25 L665.068 1570.27 Q662.776 1571.25 660.369 1571.76 Q657.962 1572.26 655.485 1572.26 Q649.281 1572.26 645.647 1568.65 Q642.036 1565.04 642.036 1558.89 Q642.036 1552.52 645.462 1548.79 Q648.911 1545.04 654.744 1545.04 Q659.976 1545.04 663.008 1548.42 Q666.063 1551.78 666.063 1557.57 M661.804 1556.32 Q661.758 1552.82 659.837 1550.74 Q657.939 1548.65 654.79 1548.65 Q651.226 1548.65 649.073 1550.67 Q646.943 1552.68 646.619 1556.34 L661.804 1556.32 Z" fill="#000000" fill-rule="nonzero" fill-opacity="1" /><path clip-path="url(#clip580)" d="M688.077 1549.65 Q687.36 1549.23 686.503 1549.05 Q685.67 1548.84 684.651 1548.84 Q681.04 1548.84 679.096 1551.2 Q677.175 1553.54 677.175 1557.94 L677.175 1571.59 L672.892 1571.59 L672.892 1545.67 L677.175 1545.67 L677.175 1549.7 Q678.517 1547.33 680.67 1546.2 Q682.823 1545.04 685.901 1545.04 Q686.341 1545.04 686.874 1545.11 Q687.406 1545.16 688.054 1545.27 L688.077 1549.65 Z" fill="#000000" fill-rule="nonzero" fill-opacity="1" /><path clip-path="url(#clip580)" d="M704.327 1558.56 Q699.165 1558.56 697.174 1559.74 Q695.184 1560.92 695.184 1563.77 Q695.184 1566.04 696.665 1567.38 Q698.17 1568.7 700.739 1568.7 Q704.281 1568.7 706.41 1566.2 Q708.563 1563.68 708.563 1559.51 L708.563 1558.56 L704.327 1558.56 M712.822 1556.8 L712.822 1571.59 L708.563 1571.59 L708.563 1567.66 Q707.105 1570.02 704.929 1571.15 Q702.753 1572.26 699.605 1572.26 Q695.623 1572.26 693.262 1570.04 Q690.924 1567.8 690.924 1564.05 Q690.924 1559.67 693.841 1557.45 Q696.781 1555.23 702.591 1555.23 L708.563 1555.23 L708.563 1554.81 Q708.563 1551.87 706.619 1550.27 Q704.698 1548.65 701.202 1548.65 Q698.98 1548.65 696.873 1549.19 Q694.767 1549.72 692.823 1550.78 L692.823 1546.85 Q695.161 1545.95 697.36 1545.51 Q699.559 1545.04 701.642 1545.04 Q707.267 1545.04 710.045 1547.96 Q712.822 1550.88 712.822 1556.8 Z" fill="#000000" fill-rule="nonzero" fill-opacity="1" /><path clip-path="url(#clip580)" d="M725.809 1538.31 L725.809 1545.67 L734.582 1545.67 L734.582 1548.98 L725.809 1548.98 L725.809 1563.05 Q725.809 1566.22 726.665 1567.13 Q727.545 1568.03 730.207 1568.03 L734.582 1568.03 L734.582 1571.59 L730.207 1571.59 Q725.276 1571.59 723.401 1569.76 Q721.526 1567.91 721.526 1563.05 L721.526 1548.98 L718.401 1548.98 L718.401 1545.67 L721.526 1545.67 L721.526 1538.31 L725.809 1538.31 Z" fill="#000000" fill-rule="nonzero" fill-opacity="1" /><path clip-path="url(#clip580)" d="M740.183 1545.67 L744.443 1545.67 L744.443 1571.59 L740.183 1571.59 L740.183 1545.67 M740.183 1535.58 L744.443 1535.58 L744.443 1540.97 L740.183 1540.97 L740.183 1535.58 Z" fill="#000000" fill-rule="nonzero" fill-opacity="1" /><path clip-path="url(#clip580)" d="M763.401 1548.65 Q759.975 1548.65 757.984 1551.34 Q755.994 1554 755.994 1558.65 Q755.994 1563.31 757.961 1565.99 Q759.952 1568.65 763.401 1568.65 Q766.804 1568.65 768.794 1565.97 Q770.785 1563.28 770.785 1558.65 Q770.785 1554.05 768.794 1551.36 Q766.804 1548.65 763.401 1548.65 M763.401 1545.04 Q768.956 1545.04 772.128 1548.65 Q775.299 1552.26 775.299 1558.65 Q775.299 1565.02 772.128 1568.65 Q768.956 1572.26 763.401 1572.26 Q757.822 1572.26 754.651 1568.65 Q751.503 1565.02 751.503 1558.65 Q751.503 1552.26 754.651 1548.65 Q757.822 1545.04 763.401 1545.04 Z" fill="#000000" fill-rule="nonzero" fill-opacity="1" /><path clip-path="url(#clip580)" d="M803.91 1555.95 L803.91 1571.59 L799.651 1571.59 L799.651 1556.08 Q799.651 1552.4 798.216 1550.58 Q796.78 1548.75 793.91 1548.75 Q790.461 1548.75 788.47 1550.95 Q786.479 1553.14 786.479 1556.94 L786.479 1571.59 L782.197 1571.59 L782.197 1545.67 L786.479 1545.67 L786.479 1549.7 Q788.007 1547.36 790.067 1546.2 Q792.151 1545.04 794.859 1545.04 Q799.327 1545.04 801.618 1547.82 Q803.91 1550.58 803.91 1555.95 Z" fill="#000000" fill-rule="nonzero" fill-opacity="1" /><path clip-path="url(#clip580)" d="M828.933 1546.43 L828.933 1550.46 Q827.127 1549.53 825.183 1549.07 Q823.239 1548.61 821.155 1548.61 Q817.984 1548.61 816.387 1549.58 Q814.813 1550.55 814.813 1552.5 Q814.813 1553.98 815.947 1554.83 Q817.081 1555.67 820.507 1556.43 L821.965 1556.76 Q826.502 1557.73 828.401 1559.51 Q830.322 1561.27 830.322 1564.44 Q830.322 1568.05 827.451 1570.16 Q824.604 1572.26 819.604 1572.26 Q817.521 1572.26 815.252 1571.85 Q813.007 1571.45 810.507 1570.64 L810.507 1566.25 Q812.868 1567.47 815.16 1568.1 Q817.452 1568.7 819.697 1568.7 Q822.706 1568.7 824.327 1567.68 Q825.947 1566.64 825.947 1564.76 Q825.947 1563.03 824.766 1562.1 Q823.609 1561.18 819.651 1560.32 L818.169 1559.97 Q814.211 1559.14 812.452 1557.43 Q810.692 1555.69 810.692 1552.68 Q810.692 1549.02 813.285 1547.03 Q815.877 1545.04 820.646 1545.04 Q823.007 1545.04 825.09 1545.39 Q827.174 1545.74 828.933 1546.43 Z" fill="#000000" fill-rule="nonzero" fill-opacity="1" /><polyline clip-path="url(#clip580)" style="stroke:#000000; stroke-linecap:round; stroke-linejoin:round; stroke-width:4; stroke-opacity:1; fill:none" points="263.916,1423.86 263.916,822.09 "/>
<polyline clip-path="url(#clip580)" style="stroke:#000000; stroke-linecap:round; stroke-linejoin:round; stroke-width:4; stroke-opacity:1; fill:none" points="263.916,1154.48 282.813,1154.48 "/>
<polyline clip-path="url(#clip580)" style="stroke:#000000; stroke-linecap:round; stroke-linejoin:round; stroke-width:4; stroke-opacity:1; fill:none" points="263.916,829.333 282.813,829.333 "/>
<path clip-path="url(#clip580)" d="M101.971 1174.28 L109.61 1174.28 L109.61 1147.91 L101.3 1149.58 L101.3 1145.32 L109.564 1143.65 L114.24 1143.65 L114.24 1174.28 L121.879 1174.28 L121.879 1178.21 L101.971 1178.21 L101.971 1174.28 Z" fill="#000000" fill-rule="nonzero" fill-opacity="1" /><path clip-path="url(#clip580)" d="M141.323 1146.73 Q137.712 1146.73 135.883 1150.29 Q134.078 1153.84 134.078 1160.97 Q134.078 1168.07 135.883 1171.64 Q137.712 1175.18 141.323 1175.18 Q144.957 1175.18 146.763 1171.64 Q148.592 1168.07 148.592 1160.97 Q148.592 1153.84 146.763 1150.29 Q144.957 1146.73 141.323 1146.73 M141.323 1143.03 Q147.133 1143.03 150.189 1147.63 Q153.267 1152.22 153.267 1160.97 Q153.267 1169.69 150.189 1174.3 Q147.133 1178.88 141.323 1178.88 Q135.513 1178.88 132.434 1174.3 Q129.379 1169.69 129.379 1160.97 Q129.379 1152.22 132.434 1147.63 Q135.513 1143.03 141.323 1143.03 Z" fill="#000000" fill-rule="nonzero" fill-opacity="1" /><path clip-path="url(#clip580)" d="M153.267 1137.13 L177.379 1137.13 L177.379 1140.32 L153.267 1140.32 L153.267 1137.13 Z" fill="#000000" fill-rule="nonzero" fill-opacity="1" /><path clip-path="url(#clip580)" d="M186.237 1147.6 L192.444 1147.6 L192.444 1126.18 L185.692 1127.54 L185.692 1124.08 L192.406 1122.72 L196.206 1122.72 L196.206 1147.6 L202.412 1147.6 L202.412 1150.8 L186.237 1150.8 L186.237 1147.6 Z" fill="#000000" fill-rule="nonzero" fill-opacity="1" /><path clip-path="url(#clip580)" d="M218.211 1125.22 Q215.277 1125.22 213.791 1128.12 Q212.324 1131 212.324 1136.79 Q212.324 1142.56 213.791 1145.46 Q215.277 1148.34 218.211 1148.34 Q221.164 1148.34 222.631 1145.46 Q224.116 1142.56 224.116 1136.79 Q224.116 1131 222.631 1128.12 Q221.164 1125.22 218.211 1125.22 M218.211 1122.21 Q222.931 1122.21 225.414 1125.96 Q227.916 1129.68 227.916 1136.79 Q227.916 1143.88 225.414 1147.62 Q222.931 1151.35 218.211 1151.35 Q213.49 1151.35 210.989 1147.62 Q208.506 1143.88 208.506 1136.79 Q208.506 1129.68 210.989 1125.96 Q213.49 1122.21 218.211 1122.21 Z" fill="#000000" fill-rule="nonzero" fill-opacity="1" /><path clip-path="url(#clip580)" d="M157.21 849.126 L164.849 849.126 L164.849 822.76 L156.539 824.427 L156.539 820.167 L164.802 818.501 L169.478 818.501 L169.478 849.126 L177.117 849.126 L177.117 853.061 L157.21 853.061 L157.21 849.126 Z" fill="#000000" fill-rule="nonzero" fill-opacity="1" /><path clip-path="url(#clip580)" d="M196.562 821.579 Q192.95 821.579 191.122 825.144 Q189.316 828.686 189.316 835.816 Q189.316 842.922 191.122 846.487 Q192.95 850.028 196.562 850.028 Q200.196 850.028 202.001 846.487 Q203.83 842.922 203.83 835.816 Q203.83 828.686 202.001 825.144 Q200.196 821.579 196.562 821.579 M196.562 817.876 Q202.372 817.876 205.427 822.482 Q208.506 827.066 208.506 835.816 Q208.506 844.542 205.427 849.149 Q202.372 853.732 196.562 853.732 Q190.751 853.732 187.673 849.149 Q184.617 844.542 184.617 835.816 Q184.617 827.066 187.673 822.482 Q190.751 817.876 196.562 817.876 Z" fill="#000000" fill-rule="nonzero" fill-opacity="1" /><path clip-path="url(#clip580)" d="M218.211 800.072 Q215.277 800.072 213.791 802.968 Q212.324 805.846 212.324 811.639 Q212.324 817.413 213.791 820.309 Q215.277 823.187 218.211 823.187 Q221.164 823.187 222.631 820.309 Q224.116 817.413 224.116 811.639 Q224.116 805.846 222.631 802.968 Q221.164 800.072 218.211 800.072 M218.211 797.063 Q222.931 797.063 225.414 800.805 Q227.916 804.529 227.916 811.639 Q227.916 818.729 225.414 822.472 Q222.931 826.196 218.211 826.196 Q213.49 826.196 210.989 822.472 Q208.506 818.729 208.506 811.639 Q208.506 804.529 210.989 800.805 Q213.49 797.063 218.211 797.063 Z" fill="#000000" fill-rule="nonzero" fill-opacity="1" /><path clip-path="url(#clip580)" d="M20.3722 1208.57 L20.3722 1188.71 L24.3073 1188.71 L24.3073 1203.9 L34.4925 1203.9 L34.4925 1190.2 L38.4276 1190.2 L38.4276 1203.9 L54.9322 1203.9 L54.9322 1208.57 L20.3722 1208.57 Z" fill="#000000" fill-rule="nonzero" fill-opacity="1" /><path clip-path="url(#clip580)" d="M20.3722 1184.39 L20.3722 1179.66 L49.585 1172.39 L20.3722 1165.15 L20.3722 1159.89 L49.585 1152.63 L20.3722 1145.38 L20.3722 1140.64 L54.9322 1149.32 L54.9322 1155.2 L24.9323 1162.49 L54.9322 1169.85 L54.9322 1175.73 L20.3722 1184.39 Z" fill="#000000" fill-rule="nonzero" fill-opacity="1" /><path clip-path="url(#clip580)" d="M41.6683 1102.49 Q37.0387 1102.49 34.4925 1104.41 Q31.9462 1106.31 31.9462 1109.76 Q31.9462 1113.18 34.4925 1115.1 Q37.0387 1117 41.6683 1117 Q46.2748 1117 48.8211 1115.1 Q51.3674 1113.18 51.3674 1109.76 Q51.3674 1106.31 48.8211 1104.41 Q46.2748 1102.49 41.6683 1102.49 M51.7146 1098.23 Q58.3349 1098.23 61.5525 1101.17 Q64.7932 1104.11 64.7932 1110.17 Q64.7932 1112.42 64.446 1114.41 Q64.1219 1116.4 63.4275 1118.27 L59.284 1118.27 Q60.3025 1116.4 60.7886 1114.57 Q61.2747 1112.74 61.2747 1110.84 Q61.2747 1106.65 59.0757 1104.57 Q56.8997 1102.49 52.4785 1102.49 L50.372 1102.49 Q52.6637 1103.81 53.7979 1105.87 Q54.9322 1107.93 54.9322 1110.8 Q54.9322 1115.57 51.2979 1118.48 Q47.6637 1121.4 41.6683 1121.4 Q35.6499 1121.4 32.0156 1118.48 Q28.3814 1115.57 28.3814 1110.8 Q28.3814 1107.93 29.5156 1105.87 Q30.6499 1103.81 32.9415 1102.49 L29.0064 1102.49 L29.0064 1098.23 L51.7146 1098.23 Z" fill="#000000" fill-rule="nonzero" fill-opacity="1" /><path clip-path="url(#clip580)" d="M41.8998 1077.67 Q41.8998 1082.83 43.0804 1084.83 Q44.2609 1086.82 47.1081 1086.82 Q49.3766 1086.82 50.7192 1085.33 Q52.0387 1083.83 52.0387 1081.26 Q52.0387 1077.72 49.5387 1075.59 Q47.0155 1073.44 42.8489 1073.44 L41.8998 1073.44 L41.8998 1077.67 M40.1406 1069.18 L54.9322 1069.18 L54.9322 1073.44 L50.997 1073.44 Q53.3581 1074.89 54.4923 1077.07 Q55.6035 1079.25 55.6035 1082.39 Q55.6035 1086.38 53.3812 1088.74 Q51.1359 1091.08 47.3859 1091.08 Q43.0109 1091.08 40.7887 1088.16 Q38.5665 1085.22 38.5665 1079.41 L38.5665 1073.44 L38.1498 1073.44 Q35.21 1073.44 33.6128 1075.38 Q31.9925 1077.3 31.9925 1080.8 Q31.9925 1083.02 32.5249 1085.13 Q33.0573 1087.23 34.1221 1089.18 L30.1869 1089.18 Q29.2841 1086.84 28.8443 1084.64 Q28.3814 1082.44 28.3814 1080.36 Q28.3814 1074.73 31.298 1071.96 Q34.2147 1069.18 40.1406 1069.18 Z" fill="#000000" fill-rule="nonzero" fill-opacity="1" /><path clip-path="url(#clip580)" d="M51.0433 1056.28 L64.7932 1056.28 L64.7932 1060.57 L29.0064 1060.57 L29.0064 1056.28 L32.9415 1056.28 Q30.6267 1054.94 29.5156 1052.9 Q28.3814 1050.84 28.3814 1048 Q28.3814 1043.27 32.1314 1040.33 Q35.8813 1037.37 41.9924 1037.37 Q48.1035 1037.37 51.8535 1040.33 Q55.6035 1043.27 55.6035 1048 Q55.6035 1050.84 54.4923 1052.9 Q53.3581 1054.94 51.0433 1056.28 M41.9924 1041.79 Q37.2934 1041.79 34.6313 1043.74 Q31.9462 1045.66 31.9462 1049.04 Q31.9462 1052.42 34.6313 1054.36 Q37.2934 1056.28 41.9924 1056.28 Q46.6915 1056.28 49.3766 1054.36 Q52.0387 1052.42 52.0387 1049.04 Q52.0387 1045.66 49.3766 1043.74 Q46.6915 1041.79 41.9924 1041.79 Z" fill="#000000" fill-rule="nonzero" fill-opacity="1" /><polyline clip-path="url(#clip584)" style="stroke:#009af9; stroke-linecap:round; stroke-linejoin:round; stroke-width:5.2; stroke-opacity:1; fill:none" points="289.783,839.121 379.153,844.847 442.562,848.909 491.745,852.06 531.931,854.635 565.908,856.812 595.34,858.697 621.301,860.36 644.524,861.848 665.531,863.194 684.71,864.423 702.352,865.553 718.686,866.6 733.893,867.574 748.118,868.485 761.481,869.341 774.079,870.148 785.996,870.912 797.302,871.636 808.056,872.325 818.309,872.982 828.107,873.61 837.488,874.211 846.486,874.787 855.13,875.341 863.449,875.874 871.465,876.388 879.199,876.883 886.671,877.362 893.899,877.825 900.897,878.273 907.679,878.708 914.259,879.129 920.648,879.539 926.857,879.936 932.896,880.323 938.775,880.7 944.5,881.067 950.08,881.424 955.523,881.773 960.834,882.113 966.021,882.446 971.088,882.77 976.041,883.087 980.885,883.398 985.626,883.702 990.266,883.999 994.811,884.29 999.264,884.575 1003.63,884.855 1007.91,885.129 1012.11,885.398 1016.23,885.662 1020.27,885.921 1024.24,886.176 1028.14,886.426 1031.98,886.671 1035.75,886.913 1039.45,887.15 1043.09,887.383 1046.68,887.613 1050.2,887.839 1053.67,888.061 1057.09,888.28 1060.46,888.496 1063.77,888.708 1067.04,888.917 1070.26,889.123 1073.43,889.327 1076.55,889.527 1079.64,889.724 1082.68,889.919 1085.67,890.111 1088.63,890.301 1091.55,890.488 1094.43,890.673 1097.28,890.855 1100.09,891.035 1102.86,891.212 1105.6,891.388 1108.3,891.561 1110.97,891.732 1113.61,891.901 1116.22,892.068 1118.8,892.234 1121.35,892.397 1123.87,892.558 1126.36,892.718 1128.82,892.875 1131.25,893.032 1133.66,893.186 1136.05,893.339 1138.4,893.49 1140.74,893.639 1143.04,893.787 1145.33,893.933 1147.59,894.078 1149.83,894.221 1152.04,1371.74 "/>
<polyline clip-path="url(#clip584)" style="stroke:#e26f46; stroke-linecap:round; stroke-linejoin:round; stroke-width:5.2; stroke-opacity:1; fill:none" points="289.783,839.121 379.153,844.847 442.562,848.909 491.745,852.06 531.931,854.635 565.908,856.812 595.34,858.697 621.301,860.36 644.524,861.848 665.531,863.194 684.71,864.423 702.352,865.553 718.686,866.6 733.893,867.574 748.118,868.485 761.481,869.341 774.079,870.148 785.996,870.912 797.302,871.636 808.056,872.325 818.309,872.982 828.107,873.61 837.488,874.211 846.486,874.787 855.13,875.341 863.449,875.874 871.465,876.388 879.199,876.883 886.671,877.362 893.899,877.825 900.897,878.273 907.679,878.708 914.259,879.129 920.648,879.539 926.857,879.936 932.896,880.323 938.775,880.7 944.5,881.067 950.08,881.424 955.523,881.773 960.834,882.113 966.021,882.446 971.088,882.77 976.041,883.087 980.885,883.398 985.626,883.702 990.266,883.999 994.811,884.29 999.264,884.575 1003.63,884.855 1007.91,885.129 1012.11,885.398 1016.23,885.662 1020.27,885.921 1024.24,886.176 1028.14,886.426 1031.98,886.671 1035.75,886.913 1039.45,887.15 1043.09,887.383 1046.68,887.613 1050.2,887.839 1053.67,888.061 1057.09,888.28 1060.46,888.496 1063.77,888.708 1067.04,888.917 1070.26,889.123 1073.43,889.327 1076.55,889.527 1079.64,889.724 1082.68,889.919 1085.67,890.111 1088.63,890.301 1091.55,890.488 1094.43,890.673 1097.28,890.855 1100.09,891.035 1102.86,891.212 1105.6,891.388 1108.3,891.561 1110.97,891.732 1113.61,891.901 1116.22,892.068 1118.8,892.234 1121.35,892.397 1123.87,892.558 1126.36,892.718 1128.82,892.875 1131.25,893.032 1133.66,893.186 1136.05,893.339 1138.4,893.49 1140.74,893.639 1143.04,893.787 1145.33,893.933 1147.59,894.078 1149.83,894.221 1152.04,1397.04 1152.04,1406.83 "/>
<polyline clip-path="url(#clip584)" style="stroke:#3da44d; stroke-linecap:round; stroke-linejoin:round; stroke-width:5.2; stroke-opacity:1; fill:none" points="289.783,839.121 379.153,844.847 442.562,848.909 491.745,852.06 531.931,854.635 565.908,856.812 595.34,858.697 621.301,860.36 644.524,861.848 665.531,863.194 684.71,864.423 702.352,865.553 718.686,866.6 733.893,867.574 748.118,868.485 761.481,869.341 774.079,870.148 785.996,870.912 797.302,871.636 808.056,872.325 818.309,872.982 828.107,873.61 837.488,874.211 846.486,874.787 855.13,875.341 863.449,875.874 871.465,876.388 879.199,876.883 886.671,877.362 893.899,877.825 900.897,878.273 907.679,878.708 914.259,879.129 920.648,879.539 926.857,879.936 932.896,880.323 938.775,880.7 944.5,881.067 950.08,881.424 955.523,881.773 960.834,882.113 966.021,882.446 971.088,882.77 976.041,883.087 980.885,883.398 985.626,883.702 990.266,883.999 994.811,884.29 999.264,884.575 1003.63,884.855 1007.91,885.129 1012.11,885.398 1016.23,885.662 1020.27,885.921 1024.24,886.176 1028.14,886.426 1031.98,886.671 1035.75,886.913 1039.45,887.15 1043.09,887.383 1046.68,887.613 1050.2,887.839 1053.67,888.061 1057.09,888.28 1060.46,888.496 1063.77,888.708 1067.04,888.917 1070.26,889.123 1073.43,889.327 1076.55,889.527 1079.64,889.724 1082.68,889.919 1085.67,890.111 1088.63,890.301 1091.55,890.488 1094.43,890.673 1097.28,890.855 1100.09,891.035 1102.86,891.212 1105.6,891.388 1108.3,891.561 1110.97,891.732 1113.61,891.901 1116.22,892.068 1118.8,892.234 1121.35,892.397 1123.87,892.558 1126.36,892.718 1128.82,892.875 1131.25,893.032 1133.66,893.186 1136.05,893.339 1138.4,893.49 1140.74,893.639 1143.04,893.787 1145.33,893.933 1147.59,894.078 1149.83,894.221 1152.04,1397.04 "/>
<polyline clip-path="url(#clip584)" style="stroke:#c271d2; stroke-linecap:round; stroke-linejoin:round; stroke-width:5.2; stroke-opacity:1; fill:none" points="289.783,839.121 379.153,844.847 442.562,848.909 491.745,852.06 531.931,854.635 565.908,856.812 595.34,858.697 621.301,860.36 644.524,861.848 665.531,863.194 684.71,864.423 702.352,865.553 718.686,866.6 733.893,867.574 748.118,868.485 761.481,869.341 774.079,870.148 785.996,870.912 797.302,871.636 808.056,872.325 818.309,872.982 828.107,873.61 837.488,874.211 846.486,874.787 855.13,875.341 863.449,875.874 871.465,876.388 879.199,876.883 886.671,877.362 893.899,877.825 900.897,878.273 907.679,878.708 914.259,879.129 920.648,879.539 926.857,879.936 932.896,880.323 938.775,880.7 944.5,881.067 950.08,881.424 955.523,881.773 960.834,882.113 966.021,882.446 971.088,882.77 976.041,883.087 980.885,883.398 985.626,883.702 990.266,883.999 994.811,884.29 999.264,884.575 1003.63,884.855 1007.91,885.129 1012.11,885.398 1016.23,885.662 1020.27,885.921 1024.24,886.176 1028.14,886.426 1031.98,886.671 1035.75,886.913 1039.45,887.15 1043.09,887.383 1046.68,887.613 1050.2,887.839 1053.67,888.061 1057.09,888.28 1060.46,888.496 1063.77,888.708 1067.04,888.917 1070.26,889.123 1073.43,889.327 1076.55,889.527 1079.64,889.724 1082.68,889.919 1085.67,890.111 1088.63,890.301 1091.55,890.488 1094.43,890.673 1097.28,890.855 1100.09,891.035 1102.86,891.212 1105.6,891.388 1108.3,891.561 1110.97,891.732 1113.61,891.901 1116.22,892.068 1118.8,892.234 1121.35,892.397 1123.87,892.558 1126.36,892.718 1128.82,892.875 1131.25,893.032 1133.66,893.186 1136.05,893.339 1138.4,893.49 1140.74,893.639 1143.04,893.787 1145.33,893.933 1147.59,894.078 1149.83,894.221 1152.04,1374.31 "/>
<path clip-path="url(#clip580)" d="M1438.76 1423.86 L2352.76 1423.86 L2352.76 822.09 L1438.76 822.09  Z" fill="#ffffff" fill-rule="evenodd" fill-opacity="1"/>
<polyline clip-path="url(#clip581)" style="stroke:#000000; stroke-linecap:round; stroke-linejoin:round; stroke-width:2; stroke-opacity:0.1; fill:none" points="1548.72,1423.86 1548.72,822.09 "/>
<polyline clip-path="url(#clip581)" style="stroke:#000000; stroke-linecap:round; stroke-linejoin:round; stroke-width:2; stroke-opacity:0.1; fill:none" points="1842.33,1423.86 1842.33,822.09 "/>
<polyline clip-path="url(#clip581)" style="stroke:#000000; stroke-linecap:round; stroke-linejoin:round; stroke-width:2; stroke-opacity:0.1; fill:none" points="2135.94,1423.86 2135.94,822.09 "/>
<polyline clip-path="url(#clip581)" style="stroke:#000000; stroke-linecap:round; stroke-linejoin:round; stroke-width:2; stroke-opacity:0.1; fill:none" points="1438.76,1154.48 2352.76,1154.48 "/>
<polyline clip-path="url(#clip581)" style="stroke:#000000; stroke-linecap:round; stroke-linejoin:round; stroke-width:2; stroke-opacity:0.1; fill:none" points="1438.76,829.333 2352.76,829.333 "/>
<polyline clip-path="url(#clip580)" style="stroke:#000000; stroke-linecap:round; stroke-linejoin:round; stroke-width:4; stroke-opacity:1; fill:none" points="1438.76,1423.86 2352.76,1423.86 "/>
<polyline clip-path="url(#clip580)" style="stroke:#000000; stroke-linecap:round; stroke-linejoin:round; stroke-width:4; stroke-opacity:1; fill:none" points="1548.72,1423.86 1548.72,1404.96 "/>
<polyline clip-path="url(#clip580)" style="stroke:#000000; stroke-linecap:round; stroke-linejoin:round; stroke-width:4; stroke-opacity:1; fill:none" points="1842.33,1423.86 1842.33,1404.96 "/>
<polyline clip-path="url(#clip580)" style="stroke:#000000; stroke-linecap:round; stroke-linejoin:round; stroke-width:4; stroke-opacity:1; fill:none" points="2135.94,1423.86 2135.94,1404.96 "/>
<path clip-path="url(#clip580)" d="M1498.6 1497.98 L1506.24 1497.98 L1506.24 1471.62 L1497.93 1473.28 L1497.93 1469.02 L1506.2 1467.36 L1510.87 1467.36 L1510.87 1497.98 L1518.51 1497.98 L1518.51 1501.92 L1498.6 1501.92 L1498.6 1497.98 Z" fill="#000000" fill-rule="nonzero" fill-opacity="1" /><path clip-path="url(#clip580)" d="M1537.95 1470.44 Q1534.34 1470.44 1532.51 1474 Q1530.71 1477.54 1530.71 1484.67 Q1530.71 1491.78 1532.51 1495.34 Q1534.34 1498.88 1537.95 1498.88 Q1541.59 1498.88 1543.39 1495.34 Q1545.22 1491.78 1545.22 1484.67 Q1545.22 1477.54 1543.39 1474 Q1541.59 1470.44 1537.95 1470.44 M1537.95 1466.73 Q1543.76 1466.73 1546.82 1471.34 Q1549.9 1475.92 1549.9 1484.67 Q1549.9 1493.4 1546.82 1498 Q1543.76 1502.59 1537.95 1502.59 Q1532.14 1502.59 1529.07 1498 Q1526.01 1493.4 1526.01 1484.67 Q1526.01 1475.92 1529.07 1471.34 Q1532.14 1466.73 1537.95 1466.73 Z" fill="#000000" fill-rule="nonzero" fill-opacity="1" /><path clip-path="url(#clip580)" d="M1549.9 1460.83 L1574.01 1460.83 L1574.01 1464.03 L1549.9 1464.03 L1549.9 1460.83 Z" fill="#000000" fill-rule="nonzero" fill-opacity="1" /><path clip-path="url(#clip580)" d="M1593.72 1459.37 Q1596.45 1459.95 1597.97 1461.79 Q1599.51 1463.64 1599.51 1466.34 Q1599.51 1470.5 1596.65 1472.78 Q1593.8 1475.05 1588.53 1475.05 Q1586.76 1475.05 1584.88 1474.69 Q1583.02 1474.36 1581.03 1473.66 L1581.03 1469.99 Q1582.61 1470.91 1584.49 1471.38 Q1586.37 1471.85 1588.42 1471.85 Q1591.99 1471.85 1593.85 1470.44 Q1595.73 1469.03 1595.73 1466.34 Q1595.73 1463.86 1593.98 1462.47 Q1592.25 1461.06 1589.15 1461.06 L1585.88 1461.06 L1585.88 1457.94 L1589.3 1457.94 Q1592.1 1457.94 1593.59 1456.83 Q1595.07 1455.7 1595.07 1453.59 Q1595.07 1451.43 1593.53 1450.28 Q1592.01 1449.12 1589.15 1449.12 Q1587.59 1449.12 1585.8 1449.45 Q1584.02 1449.79 1581.87 1450.51 L1581.87 1447.12 Q1584.03 1446.52 1585.92 1446.22 Q1587.82 1445.92 1589.49 1445.92 Q1593.81 1445.92 1596.34 1447.89 Q1598.86 1449.85 1598.86 1453.2 Q1598.86 1455.53 1597.52 1457.15 Q1596.18 1458.75 1593.72 1459.37 Z" fill="#000000" fill-rule="nonzero" fill-opacity="1" /><path clip-path="url(#clip580)" d="M1792.6 1497.98 L1800.24 1497.98 L1800.24 1471.62 L1791.93 1473.28 L1791.93 1469.02 L1800.19 1467.36 L1804.86 1467.36 L1804.86 1497.98 L1812.5 1497.98 L1812.5 1501.92 L1792.6 1501.92 L1792.6 1497.98 Z" fill="#000000" fill-rule="nonzero" fill-opacity="1" /><path clip-path="url(#clip580)" d="M1831.95 1470.44 Q1828.34 1470.44 1826.51 1474 Q1824.7 1477.54 1824.7 1484.67 Q1824.7 1491.78 1826.51 1495.34 Q1828.34 1498.88 1831.95 1498.88 Q1835.58 1498.88 1837.39 1495.34 Q1839.22 1491.78 1839.22 1484.67 Q1839.22 1477.54 1837.39 1474 Q1835.58 1470.44 1831.95 1470.44 M1831.95 1466.73 Q1837.76 1466.73 1840.81 1471.34 Q1843.89 1475.92 1843.89 1484.67 Q1843.89 1493.4 1840.81 1498 Q1837.76 1502.59 1831.95 1502.59 Q1826.14 1502.59 1823.06 1498 Q1820 1493.4 1820 1484.67 Q1820 1475.92 1823.06 1471.34 Q1826.14 1466.73 1831.95 1466.73 Z" fill="#000000" fill-rule="nonzero" fill-opacity="1" /><path clip-path="url(#clip580)" d="M1843.89 1460.83 L1868 1460.83 L1868 1464.03 L1843.89 1464.03 L1843.89 1460.83 Z" fill="#000000" fill-rule="nonzero" fill-opacity="1" /><path clip-path="url(#clip580)" d="M1879.48 1471.31 L1892.74 1471.31 L1892.74 1474.51 L1874.91 1474.51 L1874.91 1471.31 Q1877.07 1469.07 1880.79 1465.31 Q1884.54 1461.53 1885.5 1460.44 Q1887.32 1458.39 1888.03 1456.98 Q1888.77 1455.55 1888.77 1454.18 Q1888.77 1451.94 1887.19 1450.53 Q1885.63 1449.12 1883.11 1449.12 Q1881.32 1449.12 1879.33 1449.74 Q1877.35 1450.36 1875.09 1451.62 L1875.09 1447.78 Q1877.39 1446.86 1879.38 1446.39 Q1881.38 1445.92 1883.03 1445.92 Q1887.39 1445.92 1889.99 1448.1 Q1892.59 1450.28 1892.59 1453.93 Q1892.59 1455.66 1891.93 1457.22 Q1891.29 1458.76 1889.58 1460.87 Q1889.11 1461.42 1886.59 1464.03 Q1884.07 1466.63 1879.48 1471.31 Z" fill="#000000" fill-rule="nonzero" fill-opacity="1" /><path clip-path="url(#clip580)" d="M2086.05 1497.98 L2093.69 1497.98 L2093.69 1471.62 L2085.38 1473.28 L2085.38 1469.02 L2093.65 1467.36 L2098.32 1467.36 L2098.32 1497.98 L2105.96 1497.98 L2105.96 1501.92 L2086.05 1501.92 L2086.05 1497.98 Z" fill="#000000" fill-rule="nonzero" fill-opacity="1" /><path clip-path="url(#clip580)" d="M2125.41 1470.44 Q2121.79 1470.44 2119.97 1474 Q2118.16 1477.54 2118.16 1484.67 Q2118.16 1491.78 2119.97 1495.34 Q2121.79 1498.88 2125.41 1498.88 Q2129.04 1498.88 2130.85 1495.34 Q2132.67 1491.78 2132.67 1484.67 Q2132.67 1477.54 2130.85 1474 Q2129.04 1470.44 2125.41 1470.44 M2125.41 1466.73 Q2131.22 1466.73 2134.27 1471.34 Q2137.35 1475.92 2137.35 1484.67 Q2137.35 1493.4 2134.27 1498 Q2131.22 1502.59 2125.41 1502.59 Q2119.6 1502.59 2116.52 1498 Q2113.46 1493.4 2113.46 1484.67 Q2113.46 1475.92 2116.52 1471.34 Q2119.6 1466.73 2125.41 1466.73 Z" fill="#000000" fill-rule="nonzero" fill-opacity="1" /><path clip-path="url(#clip580)" d="M2137.35 1460.83 L2161.46 1460.83 L2161.46 1464.03 L2137.35 1464.03 L2137.35 1460.83 Z" fill="#000000" fill-rule="nonzero" fill-opacity="1" /><path clip-path="url(#clip580)" d="M2170.32 1471.31 L2176.53 1471.31 L2176.53 1449.89 L2169.77 1451.24 L2169.77 1447.78 L2176.49 1446.43 L2180.29 1446.43 L2180.29 1471.31 L2186.49 1471.31 L2186.49 1474.51 L2170.32 1474.51 L2170.32 1471.31 Z" fill="#000000" fill-rule="nonzero" fill-opacity="1" /><path clip-path="url(#clip580)" d="M1801.34 1537.03 L1830.57 1537.03 L1830.57 1540.97 L1818.31 1540.97 L1818.31 1571.59 L1813.61 1571.59 L1813.61 1540.97 L1801.34 1540.97 L1801.34 1537.03 Z" fill="#000000" fill-rule="nonzero" fill-opacity="1" /><path clip-path="url(#clip580)" d="M1833.44 1545.67 L1837.7 1545.67 L1837.7 1571.59 L1833.44 1571.59 L1833.44 1545.67 M1833.44 1535.58 L1837.7 1535.58 L1837.7 1540.97 L1833.44 1540.97 L1833.44 1535.58 Z" fill="#000000" fill-rule="nonzero" fill-opacity="1" /><path clip-path="url(#clip580)" d="M1866.8 1550.64 Q1868.4 1547.77 1870.62 1546.41 Q1872.84 1545.04 1875.85 1545.04 Q1879.9 1545.04 1882.1 1547.89 Q1884.3 1550.71 1884.3 1555.95 L1884.3 1571.59 L1880.02 1571.59 L1880.02 1556.08 Q1880.02 1552.36 1878.7 1550.55 Q1877.38 1548.75 1874.67 1548.75 Q1871.36 1548.75 1869.44 1550.95 Q1867.52 1553.14 1867.52 1556.94 L1867.52 1571.59 L1863.24 1571.59 L1863.24 1556.08 Q1863.24 1552.33 1861.92 1550.55 Q1860.6 1548.75 1857.84 1548.75 Q1854.58 1548.75 1852.66 1550.97 Q1850.74 1553.17 1850.74 1556.94 L1850.74 1571.59 L1846.45 1571.59 L1846.45 1545.67 L1850.74 1545.67 L1850.74 1549.7 Q1852.19 1547.31 1854.23 1546.18 Q1856.27 1545.04 1859.07 1545.04 Q1861.89 1545.04 1863.86 1546.48 Q1865.85 1547.91 1866.8 1550.64 Z" fill="#000000" fill-rule="nonzero" fill-opacity="1" /><path clip-path="url(#clip580)" d="M1914.97 1557.57 L1914.97 1559.65 L1895.39 1559.65 Q1895.67 1564.05 1898.03 1566.36 Q1900.41 1568.65 1904.65 1568.65 Q1907.1 1568.65 1909.39 1568.05 Q1911.71 1567.45 1913.98 1566.25 L1913.98 1570.27 Q1911.68 1571.25 1909.28 1571.76 Q1906.87 1572.26 1904.39 1572.26 Q1898.19 1572.26 1894.56 1568.65 Q1890.94 1565.04 1890.94 1558.89 Q1890.94 1552.52 1894.37 1548.79 Q1897.82 1545.04 1903.65 1545.04 Q1908.88 1545.04 1911.92 1548.42 Q1914.97 1551.78 1914.97 1557.57 M1910.71 1556.32 Q1910.67 1552.82 1908.74 1550.74 Q1906.85 1548.65 1903.7 1548.65 Q1900.13 1548.65 1897.98 1550.67 Q1895.85 1552.68 1895.53 1556.34 L1910.71 1556.32 Z" fill="#000000" fill-rule="nonzero" fill-opacity="1" /><path clip-path="url(#clip580)" d="M1947.26 1535.62 Q1944.16 1540.95 1942.66 1546.15 Q1941.15 1551.36 1941.15 1556.71 Q1941.15 1562.06 1942.66 1567.31 Q1944.18 1572.54 1947.26 1577.84 L1943.56 1577.84 Q1940.09 1572.4 1938.35 1567.15 Q1936.64 1561.89 1936.64 1556.71 Q1936.64 1551.55 1938.35 1546.32 Q1940.06 1541.08 1943.56 1535.62 L1947.26 1535.62 Z" fill="#000000" fill-rule="nonzero" fill-opacity="1" /><path clip-path="url(#clip580)" d="M1972.05 1546.43 L1972.05 1550.46 Q1970.25 1549.53 1968.3 1549.07 Q1966.36 1548.61 1964.28 1548.61 Q1961.11 1548.61 1959.51 1549.58 Q1957.93 1550.55 1957.93 1552.5 Q1957.93 1553.98 1959.07 1554.83 Q1960.2 1555.67 1963.63 1556.43 L1965.09 1556.76 Q1969.62 1557.73 1971.52 1559.51 Q1973.44 1561.27 1973.44 1564.44 Q1973.44 1568.05 1970.57 1570.16 Q1967.73 1572.26 1962.73 1572.26 Q1960.64 1572.26 1958.37 1571.85 Q1956.13 1571.45 1953.63 1570.64 L1953.63 1566.25 Q1955.99 1567.47 1958.28 1568.1 Q1960.57 1568.7 1962.82 1568.7 Q1965.83 1568.7 1967.45 1567.68 Q1969.07 1566.64 1969.07 1564.76 Q1969.07 1563.03 1967.89 1562.1 Q1966.73 1561.18 1962.77 1560.32 L1961.29 1559.97 Q1957.33 1559.14 1955.57 1557.43 Q1953.81 1555.69 1953.81 1552.68 Q1953.81 1549.02 1956.41 1547.03 Q1959 1545.04 1963.77 1545.04 Q1966.13 1545.04 1968.21 1545.39 Q1970.3 1545.74 1972.05 1546.43 Z" fill="#000000" fill-rule="nonzero" fill-opacity="1" /><path clip-path="url(#clip580)" d="M1979.55 1535.62 L1983.26 1535.62 Q1986.73 1541.08 1988.44 1546.32 Q1990.18 1551.55 1990.18 1556.71 Q1990.18 1561.89 1988.44 1567.15 Q1986.73 1572.4 1983.26 1577.84 L1979.55 1577.84 Q1982.63 1572.54 1984.14 1567.31 Q1985.67 1562.06 1985.67 1556.71 Q1985.67 1551.36 1984.14 1546.15 Q1982.63 1540.95 1979.55 1535.62 Z" fill="#000000" fill-rule="nonzero" fill-opacity="1" /><polyline clip-path="url(#clip580)" style="stroke:#000000; stroke-linecap:round; stroke-linejoin:round; stroke-width:4; stroke-opacity:1; fill:none" points="1438.76,1423.86 1438.76,822.09 "/>
<polyline clip-path="url(#clip580)" style="stroke:#000000; stroke-linecap:round; stroke-linejoin:round; stroke-width:4; stroke-opacity:1; fill:none" points="1438.76,1154.48 1457.66,1154.48 "/>
<polyline clip-path="url(#clip580)" style="stroke:#000000; stroke-linecap:round; stroke-linejoin:round; stroke-width:4; stroke-opacity:1; fill:none" points="1438.76,829.333 1457.66,829.333 "/>
<path clip-path="url(#clip580)" d="M1276.82 1174.28 L1284.46 1174.28 L1284.46 1147.91 L1276.15 1149.58 L1276.15 1145.32 L1284.41 1143.65 L1289.09 1143.65 L1289.09 1174.28 L1296.72 1174.28 L1296.72 1178.21 L1276.82 1178.21 L1276.82 1174.28 Z" fill="#000000" fill-rule="nonzero" fill-opacity="1" /><path clip-path="url(#clip580)" d="M1316.17 1146.73 Q1312.56 1146.73 1310.73 1150.29 Q1308.92 1153.84 1308.92 1160.97 Q1308.92 1168.07 1310.73 1171.64 Q1312.56 1175.18 1316.17 1175.18 Q1319.8 1175.18 1321.61 1171.64 Q1323.44 1168.07 1323.44 1160.97 Q1323.44 1153.84 1321.61 1150.29 Q1319.8 1146.73 1316.17 1146.73 M1316.17 1143.03 Q1321.98 1143.03 1325.03 1147.63 Q1328.11 1152.22 1328.11 1160.97 Q1328.11 1169.69 1325.03 1174.3 Q1321.98 1178.88 1316.17 1178.88 Q1310.36 1178.88 1307.28 1174.3 Q1304.22 1169.69 1304.22 1160.97 Q1304.22 1152.22 1307.28 1147.63 Q1310.36 1143.03 1316.17 1143.03 Z" fill="#000000" fill-rule="nonzero" fill-opacity="1" /><path clip-path="url(#clip580)" d="M1328.11 1137.13 L1352.23 1137.13 L1352.23 1140.32 L1328.11 1140.32 L1328.11 1137.13 Z" fill="#000000" fill-rule="nonzero" fill-opacity="1" /><path clip-path="url(#clip580)" d="M1361.08 1147.6 L1367.29 1147.6 L1367.29 1126.18 L1360.54 1127.54 L1360.54 1124.08 L1367.25 1122.72 L1371.05 1122.72 L1371.05 1147.6 L1377.26 1147.6 L1377.26 1150.8 L1361.08 1150.8 L1361.08 1147.6 Z" fill="#000000" fill-rule="nonzero" fill-opacity="1" /><path clip-path="url(#clip580)" d="M1393.06 1125.22 Q1390.12 1125.22 1388.64 1128.12 Q1387.17 1131 1387.17 1136.79 Q1387.17 1142.56 1388.64 1145.46 Q1390.12 1148.34 1393.06 1148.34 Q1396.01 1148.34 1397.48 1145.46 Q1398.96 1142.56 1398.96 1136.79 Q1398.96 1131 1397.48 1128.12 Q1396.01 1125.22 1393.06 1125.22 M1393.06 1122.21 Q1397.78 1122.21 1400.26 1125.96 Q1402.76 1129.68 1402.76 1136.79 Q1402.76 1143.88 1400.26 1147.62 Q1397.78 1151.35 1393.06 1151.35 Q1388.34 1151.35 1385.83 1147.62 Q1383.35 1143.88 1383.35 1136.79 Q1383.35 1129.68 1385.83 1125.96 Q1388.34 1122.21 1393.06 1122.21 Z" fill="#000000" fill-rule="nonzero" fill-opacity="1" /><path clip-path="url(#clip580)" d="M1332.06 849.126 L1339.69 849.126 L1339.69 822.76 L1331.38 824.427 L1331.38 820.167 L1339.65 818.501 L1344.32 818.501 L1344.32 849.126 L1351.96 849.126 L1351.96 853.061 L1332.06 853.061 L1332.06 849.126 Z" fill="#000000" fill-rule="nonzero" fill-opacity="1" /><path clip-path="url(#clip580)" d="M1371.41 821.579 Q1367.8 821.579 1365.97 825.144 Q1364.16 828.686 1364.16 835.816 Q1364.16 842.922 1365.97 846.487 Q1367.8 850.028 1371.41 850.028 Q1375.04 850.028 1376.85 846.487 Q1378.68 842.922 1378.68 835.816 Q1378.68 828.686 1376.85 825.144 Q1375.04 821.579 1371.41 821.579 M1371.41 817.876 Q1377.22 817.876 1380.27 822.482 Q1383.35 827.066 1383.35 835.816 Q1383.35 844.542 1380.27 849.149 Q1377.22 853.732 1371.41 853.732 Q1365.6 853.732 1362.52 849.149 Q1359.46 844.542 1359.46 835.816 Q1359.46 827.066 1362.52 822.482 Q1365.6 817.876 1371.41 817.876 Z" fill="#000000" fill-rule="nonzero" fill-opacity="1" /><path clip-path="url(#clip580)" d="M1393.06 800.072 Q1390.12 800.072 1388.64 802.968 Q1387.17 805.846 1387.17 811.639 Q1387.17 817.413 1388.64 820.309 Q1390.12 823.187 1393.06 823.187 Q1396.01 823.187 1397.48 820.309 Q1398.96 817.413 1398.96 811.639 Q1398.96 805.846 1397.48 802.968 Q1396.01 800.072 1393.06 800.072 M1393.06 797.063 Q1397.78 797.063 1400.26 800.805 Q1402.76 804.529 1402.76 811.639 Q1402.76 818.729 1400.26 822.472 Q1397.78 826.196 1393.06 826.196 Q1388.34 826.196 1385.83 822.472 Q1383.35 818.729 1383.35 811.639 Q1383.35 804.529 1385.83 800.805 Q1388.34 797.063 1393.06 797.063 Z" fill="#000000" fill-rule="nonzero" fill-opacity="1" /><polyline clip-path="url(#clip581)" style="stroke:#009af9; stroke-linecap:round; stroke-linejoin:round; stroke-width:5.2; stroke-opacity:1; fill:none" points="2285.42,839.121 2285.45,844.847 2326.27,848.909 2326.29,852.06 2326.3,854.635 2326.31,856.812 2326.32,858.697 2326.33,860.36 2326.33,861.848 2326.34,863.194 2326.34,864.423 2326.35,865.553 2326.35,866.6 2326.36,867.574 2326.37,868.485 2326.37,869.341 2326.38,870.148 2326.38,870.912 2326.39,871.636 2326.4,872.325 2326.4,872.982 2326.41,873.61 2326.41,874.211 2326.42,874.787 2326.42,875.341 2326.43,875.874 2326.44,876.388 2326.44,876.883 2326.45,877.362 2326.45,877.825 2326.46,878.273 2326.46,878.708 2326.47,879.129 2326.48,879.539 2326.48,879.936 2326.49,880.323 2326.5,880.7 2326.5,881.067 2326.51,881.424 2326.51,881.773 2326.52,882.113 2326.53,882.446 2326.53,882.77 2326.54,883.087 2326.54,883.398 2326.55,883.702 2326.56,883.999 2326.56,884.29 2326.57,884.575 2326.57,884.855 2326.58,885.129 2326.58,885.398 2326.59,885.662 2326.6,885.921 2326.61,886.176 2326.61,886.426 2326.62,886.671 2326.63,886.913 2326.63,887.15 2326.64,887.383 2326.64,887.613 2326.65,887.839 2326.66,888.061 2326.66,888.28 2326.67,888.496 2326.67,888.708 2326.68,888.917 2326.69,889.123 2326.69,889.327 2326.7,889.527 2326.7,889.724 2326.71,889.919 2326.72,890.111 2326.72,890.301 2326.73,890.488 2326.73,890.673 2326.74,890.855 2326.75,891.035 2326.75,891.212 2326.76,891.388 2326.76,891.561 2326.77,891.732 2326.78,891.901 2326.78,892.068 2326.79,892.234 2326.8,892.397 2326.8,892.558 2326.81,892.718 2326.81,892.875 2326.82,893.032 2326.83,893.186 2326.83,893.339 2326.84,893.49 2326.84,893.639 2326.85,893.787 2326.86,893.933 2326.86,894.078 2326.87,894.221 2326.87,1371.74 2326.89,1371.74 "/>
<polyline clip-path="url(#clip581)" style="stroke:#e26f46; stroke-linecap:round; stroke-linejoin:round; stroke-width:5.2; stroke-opacity:1; fill:none" points="2216.43,839.121 2216.49,844.847 2216.5,848.909 2216.52,852.06 2216.53,854.635 2216.54,856.812 2216.55,858.697 2216.57,860.36 2216.58,861.848 2216.59,863.194 2216.6,864.423 2216.62,865.553 2216.63,866.6 2216.64,867.574 2216.65,868.485 2216.67,869.341 2216.68,870.148 2216.69,870.912 2216.7,871.636 2216.72,872.325 2216.75,872.982 2216.77,873.61 2216.78,874.211 2216.8,874.787 2216.81,875.341 2216.82,875.874 2216.84,876.388 2216.85,876.883 2216.86,877.362 2216.87,877.825 2216.89,878.273 2216.9,878.708 2216.91,879.129 2216.93,879.539 2216.94,879.936 2216.96,880.323 2216.97,880.7 2216.98,881.067 2217,881.424 2217.01,881.773 2217.03,882.113 2217.04,882.446 2217.06,882.77 2217.07,883.087 2217.08,883.398 2217.1,883.702 2217.11,883.999 2217.13,884.29 2217.14,884.575 2217.16,884.855 2217.17,885.129 2217.19,885.398 2217.2,885.662 2217.22,885.921 2217.23,886.176 2217.25,886.426 2217.26,886.671 2217.28,886.913 2217.29,887.15 2217.31,887.383 2217.32,887.613 2217.34,887.839 2217.35,888.061 2217.37,888.28 2217.39,888.496 2217.41,888.708 2217.43,888.917 2217.45,889.123 2217.46,889.327 2217.48,889.527 2217.5,889.724 2217.51,889.919 2217.53,890.111 2217.55,890.301 2217.56,890.488 2217.58,890.673 2217.6,890.855 2217.62,891.035 2217.63,891.212 2217.65,891.388 2217.67,891.561 2217.69,891.732 2217.71,891.901 2217.72,892.068 2217.74,892.234 2217.76,892.397 2217.78,892.558 2217.8,892.718 2217.82,892.875 2217.84,893.032 2217.86,893.186 2217.88,893.339 2217.9,893.49 2217.91,893.639 2217.93,893.787 2217.95,893.933 2217.97,894.078 2217.99,894.221 2218.01,1397.04 2218.05,1406.83 "/>
<polyline clip-path="url(#clip581)" style="stroke:#3da44d; stroke-linecap:round; stroke-linejoin:round; stroke-width:5.2; stroke-opacity:1; fill:none" points="1743.7,839.121 1744.94,844.847 1745.87,848.909 1746.53,852.06 1747.17,854.635 1747.78,856.812 1748.4,858.697 1749.01,860.36 1749.61,861.848 1750.2,863.194 1750.79,864.423 1751.37,865.553 1751.94,866.6 1752.51,867.574 1753.08,868.485 1753.66,869.341 1754.27,870.148 1754.84,870.912 1755.39,871.636 1755.96,872.325 1756.55,872.982 1757.12,873.61 1757.68,874.211 1758.25,874.787 1758.85,875.341 1759.42,875.874 1759.98,876.388 1760.99,876.883 1761.59,877.362 1762.14,877.825 1762.72,878.273 1763.27,878.708 1763.82,879.129 1764.36,879.539 1764.91,879.936 1765.45,880.323 1765.99,880.7 1766.54,881.067 1767.07,881.424 1767.63,881.773 1768.17,882.113 1768.73,882.446 1769.27,882.77 1769.85,883.087 1770.44,883.398 1771.02,883.702 1771.59,883.999 1772.15,884.29 1772.72,884.575 1773.3,884.855 1773.85,885.129 1774.41,885.398 1775.01,885.662 1775.59,885.921 1776.14,886.176 1776.7,886.426 1777.24,886.671 1777.79,886.913 1778.37,887.15 1778.94,887.383 1779.53,887.613 1780.09,887.839 1780.66,888.061 1781.22,888.28 1781.82,888.496 1782.38,888.708 1783.26,888.917 1783.87,889.123 1784.48,889.327 1785.05,889.527 1785.65,889.724 1786.2,889.919 1786.78,890.111 1787.33,890.301 1788.09,890.488 1788.67,890.673 1789.26,890.855 1789.85,891.035 1790.44,891.212 1791.03,891.388 1791.63,891.561 1792.2,891.732 1792.82,891.901 1793.44,892.068 1794,892.234 1794.61,892.397 1795.19,892.558 1795.78,892.718 1796.37,892.875 1796.96,893.032 1797.54,893.186 1798.15,893.339 1798.77,893.49 1799.39,893.639 1800.05,893.787 1800.73,893.933 1801.31,894.078 1802.15,894.221 1802.76,1397.04 1803.68,1397.04 "/>
<polyline clip-path="url(#clip581)" style="stroke:#c271d2; stroke-linecap:round; stroke-linejoin:round; stroke-width:5.2; stroke-opacity:1; fill:none" points="1464.63,839.121 1470.2,844.847 1473.9,848.909 1477.17,852.06 1480.49,854.635 1483.51,856.812 1486.62,858.697 1489.5,860.36 1492.45,861.848 1495.21,863.194 1497.94,864.423 1500.55,865.553 1503.24,866.6 1505.89,867.574 1508.32,868.485 1510.91,869.341 1513.42,870.148 1515.75,870.912 1517.87,871.636 1520.15,872.325 1522.29,872.982 1524.41,873.61 1526.58,874.211 1528.66,874.787 1530.76,875.341 1532.78,875.874 1534.83,876.388 1536.81,876.883 1538.8,877.362 1540.67,877.825 1542.47,878.273 1544.34,878.708 1546.12,879.129 1547.94,879.539 1549.76,879.936 1551.52,880.323 1553.14,880.7 1554.84,881.067 1556.52,881.424 1558.1,881.773 1559.72,882.113 1561.34,882.446 1564.56,882.77 1566.25,883.087 1567.81,883.398 1569.44,883.702 1570.98,883.999 1572.46,884.29 1573.88,884.575 1575.25,884.855 1576.73,885.129 1578.14,885.398 1579.53,885.662 1580.95,885.921 1582.32,886.176 1583.79,886.426 1585.1,886.671 1586.36,886.913 1587.7,887.15 1589.03,887.383 1590.33,887.613 1591.58,887.839 1592.81,888.061 1594.13,888.28 1595.41,888.496 1596.64,888.708 1597.82,888.917 1599.01,889.123 1600.21,889.327 1601.45,889.527 1602.68,889.724 1603.85,889.919 1604.99,890.111 1606.13,890.301 1607.26,890.488 1608.37,890.673 1609.54,890.855 1610.59,891.035 1611.76,891.212 1614.76,891.388 1617.53,891.561 1620.38,891.732 1623.02,891.901 1625.57,892.068 1628.2,892.234 1630.68,892.397 1633.13,892.558 1635.5,892.718 1637.69,892.875 1640.17,893.032 1642.27,893.186 1645.35,893.339 1647.47,893.49 1649.55,893.639 1651.85,893.787 1653.78,893.933 1655.99,894.078 1657.86,894.221 1659.85,1374.31 1661.89,1374.31 "/>
</svg>
