<?xml version="1.0" encoding="utf-8"?>
<svg xmlns="http://www.w3.org/2000/svg" xmlns:xlink="http://www.w3.org/1999/xlink" width="600" height="400" viewBox="0 0 2400 1600">
<defs>
  <clipPath id="clip170">
    <rect x="0" y="0" width="2400" height="1600"/>
  </clipPath>
</defs>
<path clip-path="url(#clip170)" d="M0 1600 L2400 1600 L2400 0 L0 0  Z" fill="#ffffff" fill-rule="evenodd" fill-opacity="1"/>
<defs>
  <clipPath id="clip171">
    <rect x="480" y="0" width="1681" height="1600"/>
  </clipPath>
</defs>
<path clip-path="url(#clip170)" d="M267.527 649.011 L1177.91 649.011 L1177.91 47.2441 L267.527 47.2441  Z" fill="#ffffff" fill-rule="evenodd" fill-opacity="1"/>
<defs>
  <clipPath id="clip172">
    <rect x="267" y="47" width="911" height="603"/>
  </clipPath>
</defs>
<polyline clip-path="url(#clip172)" style="stroke:#000000; stroke-linecap:round; stroke-linejoin:round; stroke-width:2; stroke-opacity:0.1; fill:none" points="646.631,649.011 646.631,47.2441 "/>
<polyline clip-path="url(#clip172)" style="stroke:#000000; stroke-linecap:round; stroke-linejoin:round; stroke-width:2; stroke-opacity:0.1; fill:none" points="1152.14,649.011 1152.14,47.2441 "/>
<polyline clip-path="url(#clip172)" style="stroke:#000000; stroke-linecap:round; stroke-linejoin:round; stroke-width:2; stroke-opacity:0.1; fill:none" points="267.527,631.98 1177.91,631.98 "/>
<polyline clip-path="url(#clip172)" style="stroke:#000000; stroke-linecap:round; stroke-linejoin:round; stroke-width:2; stroke-opacity:0.1; fill:none" points="267.527,489.84 1177.91,489.84 "/>
<polyline clip-path="url(#clip172)" style="stroke:#000000; stroke-linecap:round; stroke-linejoin:round; stroke-width:2; stroke-opacity:0.1; fill:none" points="267.527,347.7 1177.91,347.7 "/>
<polyline clip-path="url(#clip172)" style="stroke:#000000; stroke-linecap:round; stroke-linejoin:round; stroke-width:2; stroke-opacity:0.1; fill:none" points="267.527,205.56 1177.91,205.56 "/>
<polyline clip-path="url(#clip172)" style="stroke:#000000; stroke-linecap:round; stroke-linejoin:round; stroke-width:2; stroke-opacity:0.1; fill:none" points="267.527,63.4205 1177.91,63.4205 "/>
<polyline clip-path="url(#clip170)" style="stroke:#000000; stroke-linecap:round; stroke-linejoin:round; stroke-width:4; stroke-opacity:1; fill:none" points="267.527,649.011 1177.91,649.011 "/>
<polyline clip-path="url(#clip170)" style="stroke:#000000; stroke-linecap:round; stroke-linejoin:round; stroke-width:4; stroke-opacity:1; fill:none" points="646.631,649.011 646.631,630.113 "/>
<polyline clip-path="url(#clip170)" style="stroke:#000000; stroke-linecap:round; stroke-linejoin:round; stroke-width:4; stroke-opacity:1; fill:none" points="1152.14,649.011 1152.14,630.113 "/>
<path clip-path="url(#clip170)" d="M612.958 723.135 L620.597 723.135 L620.597 696.77 L612.287 698.437 L612.287 694.177 L620.551 692.511 L625.227 692.511 L625.227 723.135 L632.866 723.135 L632.866 727.071 L612.958 727.071 L612.958 723.135 Z" fill="#000000" fill-rule="nonzero" fill-opacity="1" /><path clip-path="url(#clip170)" d="M652.31 695.589 Q648.699 695.589 646.87 699.154 Q645.065 702.696 645.065 709.825 Q645.065 716.932 646.87 720.497 Q648.699 724.038 652.31 724.038 Q655.944 724.038 657.75 720.497 Q659.579 716.932 659.579 709.825 Q659.579 702.696 657.75 699.154 Q655.944 695.589 652.31 695.589 M652.31 691.886 Q658.12 691.886 661.176 696.492 Q664.255 701.075 664.255 709.825 Q664.255 718.552 661.176 723.159 Q658.12 727.742 652.31 727.742 Q646.5 727.742 643.421 723.159 Q640.366 718.552 640.366 709.825 Q640.366 701.075 643.421 696.492 Q646.5 691.886 652.31 691.886 Z" fill="#000000" fill-rule="nonzero" fill-opacity="1" /><path clip-path="url(#clip170)" d="M664.8 696.463 L671.006 696.463 L671.006 675.041 L664.255 676.395 L664.255 672.934 L670.969 671.58 L674.768 671.58 L674.768 696.463 L680.975 696.463 L680.975 699.66 L664.8 699.66 L664.8 696.463 Z" fill="#000000" fill-rule="nonzero" fill-opacity="1" /><path clip-path="url(#clip170)" d="M1117.92 723.135 L1125.56 723.135 L1125.56 696.77 L1117.25 698.437 L1117.25 694.177 L1125.51 692.511 L1130.19 692.511 L1130.19 723.135 L1137.82 723.135 L1137.82 727.071 L1117.92 727.071 L1117.92 723.135 Z" fill="#000000" fill-rule="nonzero" fill-opacity="1" /><path clip-path="url(#clip170)" d="M1157.27 695.589 Q1153.66 695.589 1151.83 699.154 Q1150.02 702.696 1150.02 709.825 Q1150.02 716.932 1151.83 720.497 Q1153.66 724.038 1157.27 724.038 Q1160.9 724.038 1162.71 720.497 Q1164.54 716.932 1164.54 709.825 Q1164.54 702.696 1162.71 699.154 Q1160.9 695.589 1157.27 695.589 M1157.27 691.886 Q1163.08 691.886 1166.13 696.492 Q1169.21 701.075 1169.21 709.825 Q1169.21 718.552 1166.13 723.159 Q1163.08 727.742 1157.27 727.742 Q1151.46 727.742 1148.38 723.159 Q1145.32 718.552 1145.32 709.825 Q1145.32 701.075 1148.38 696.492 Q1151.46 691.886 1157.27 691.886 Z" fill="#000000" fill-rule="nonzero" fill-opacity="1" /><path clip-path="url(#clip170)" d="M1173.78 696.463 L1187.04 696.463 L1187.04 699.66 L1169.21 699.66 L1169.21 696.463 Q1171.38 694.225 1175.1 690.463 Q1178.84 686.683 1179.8 685.592 Q1181.63 683.542 1182.34 682.131 Q1183.07 680.702 1183.07 679.329 Q1183.07 677.091 1181.49 675.68 Q1179.93 674.27 1177.41 674.27 Q1175.63 674.27 1173.63 674.89 Q1171.66 675.511 1169.4 676.771 L1169.4 672.934 Q1171.7 672.013 1173.69 671.543 Q1175.68 671.072 1177.34 671.072 Q1181.7 671.072 1184.3 673.254 Q1186.89 675.436 1186.89 679.085 Q1186.89 680.815 1186.23 682.376 Q1185.59 683.918 1183.88 686.025 Q1183.41 686.57 1180.89 689.184 Q1178.37 691.78 1173.78 696.463 Z" fill="#000000" fill-rule="nonzero" fill-opacity="1" /><polyline clip-path="url(#clip170)" style="stroke:#000000; stroke-linecap:round; stroke-linejoin:round; stroke-width:4; stroke-opacity:1; fill:none" points="267.527,649.011 267.527,47.2441 "/>
<polyline clip-path="url(#clip170)" style="stroke:#000000; stroke-linecap:round; stroke-linejoin:round; stroke-width:4; stroke-opacity:1; fill:none" points="267.527,631.98 286.424,631.98 "/>
<polyline clip-path="url(#clip170)" style="stroke:#000000; stroke-linecap:round; stroke-linejoin:round; stroke-width:4; stroke-opacity:1; fill:none" points="267.527,489.84 286.424,489.84 "/>
<polyline clip-path="url(#clip170)" style="stroke:#000000; stroke-linecap:round; stroke-linejoin:round; stroke-width:4; stroke-opacity:1; fill:none" points="267.527,347.7 286.424,347.7 "/>
<polyline clip-path="url(#clip170)" style="stroke:#000000; stroke-linecap:round; stroke-linejoin:round; stroke-width:4; stroke-opacity:1; fill:none" points="267.527,205.56 286.424,205.56 "/>
<polyline clip-path="url(#clip170)" style="stroke:#000000; stroke-linecap:round; stroke-linejoin:round; stroke-width:4; stroke-opacity:1; fill:none" points="267.527,63.4205 286.424,63.4205 "/>
<path clip-path="url(#clip170)" d="M131.387 651.772 L139.026 651.772 L139.026 625.406 L130.716 627.073 L130.716 622.814 L138.979 621.147 L143.655 621.147 L143.655 651.772 L151.294 651.772 L151.294 655.707 L131.387 655.707 L131.387 651.772 Z" fill="#000000" fill-rule="nonzero" fill-opacity="1" /><path clip-path="url(#clip170)" d="M170.738 624.226 Q167.127 624.226 165.299 627.791 Q163.493 631.332 163.493 638.462 Q163.493 645.568 165.299 649.133 Q167.127 652.675 170.738 652.675 Q174.373 652.675 176.178 649.133 Q178.007 645.568 178.007 638.462 Q178.007 631.332 176.178 627.791 Q174.373 624.226 170.738 624.226 M170.738 620.522 Q176.549 620.522 179.604 625.129 Q182.683 629.712 182.683 638.462 Q182.683 647.189 179.604 651.795 Q176.549 656.378 170.738 656.378 Q164.928 656.378 161.85 651.795 Q158.794 647.189 158.794 638.462 Q158.794 629.712 161.85 625.129 Q164.928 620.522 170.738 620.522 Z" fill="#000000" fill-rule="nonzero" fill-opacity="1" /><path clip-path="url(#clip170)" d="M182.683 614.624 L206.794 614.624 L206.794 617.821 L182.683 617.821 L182.683 614.624 Z" fill="#000000" fill-rule="nonzero" fill-opacity="1" /><path clip-path="url(#clip170)" d="M218.267 625.099 L231.527 625.099 L231.527 628.297 L213.697 628.297 L213.697 625.099 Q215.86 622.861 219.584 619.1 Q223.326 615.319 224.286 614.229 Q226.11 612.179 226.825 610.768 Q227.558 609.339 227.558 607.966 Q227.558 605.727 225.978 604.317 Q224.417 602.906 221.897 602.906 Q220.11 602.906 218.117 603.527 Q216.142 604.148 213.885 605.408 L213.885 601.571 Q216.179 600.649 218.173 600.179 Q220.167 599.709 221.822 599.709 Q226.185 599.709 228.781 601.891 Q231.376 604.072 231.376 607.721 Q231.376 609.451 230.718 611.012 Q230.078 612.555 228.367 614.661 Q227.897 615.207 225.376 617.821 Q222.856 620.416 218.267 625.099 Z" fill="#000000" fill-rule="nonzero" fill-opacity="1" /><path clip-path="url(#clip170)" d="M131.086 509.632 L138.725 509.632 L138.725 483.267 L130.415 484.933 L130.415 480.674 L138.678 479.007 L143.354 479.007 L143.354 509.632 L150.993 509.632 L150.993 513.567 L131.086 513.567 L131.086 509.632 Z" fill="#000000" fill-rule="nonzero" fill-opacity="1" /><path clip-path="url(#clip170)" d="M170.438 482.086 Q166.826 482.086 164.998 485.651 Q163.192 489.193 163.192 496.322 Q163.192 503.429 164.998 506.993 Q166.826 510.535 170.438 510.535 Q174.072 510.535 175.877 506.993 Q177.706 503.429 177.706 496.322 Q177.706 489.193 175.877 485.651 Q174.072 482.086 170.438 482.086 M170.438 478.382 Q176.248 478.382 179.303 482.989 Q182.382 487.572 182.382 496.322 Q182.382 505.049 179.303 509.655 Q176.248 514.239 170.438 514.239 Q164.627 514.239 161.549 509.655 Q158.493 505.049 158.493 496.322 Q158.493 487.572 161.549 482.989 Q164.627 478.382 170.438 478.382 Z" fill="#000000" fill-rule="nonzero" fill-opacity="1" /><path clip-path="url(#clip170)" d="M182.382 472.484 L206.493 472.484 L206.493 475.681 L182.382 475.681 L182.382 472.484 Z" fill="#000000" fill-rule="nonzero" fill-opacity="1" /><path clip-path="url(#clip170)" d="M215.352 482.96 L221.558 482.96 L221.558 461.538 L214.806 462.892 L214.806 459.431 L221.521 458.077 L225.32 458.077 L225.32 482.96 L231.527 482.96 L231.527 486.157 L215.352 486.157 L215.352 482.96 Z" fill="#000000" fill-rule="nonzero" fill-opacity="1" /><path clip-path="url(#clip170)" d="M160.821 367.493 L168.46 367.493 L168.46 341.127 L160.15 342.794 L160.15 338.534 L168.414 336.868 L173.089 336.868 L173.089 367.493 L180.728 367.493 L180.728 371.428 L160.821 371.428 L160.821 367.493 Z" fill="#000000" fill-rule="nonzero" fill-opacity="1" /><path clip-path="url(#clip170)" d="M200.173 339.946 Q196.562 339.946 194.733 343.511 Q192.927 347.053 192.927 354.182 Q192.927 361.289 194.733 364.854 Q196.562 368.395 200.173 368.395 Q203.807 368.395 205.612 364.854 Q207.441 361.289 207.441 354.182 Q207.441 347.053 205.612 343.511 Q203.807 339.946 200.173 339.946 M200.173 336.243 Q205.983 336.243 209.038 340.849 Q212.117 345.432 212.117 354.182 Q212.117 362.909 209.038 367.516 Q205.983 372.099 200.173 372.099 Q194.362 372.099 191.284 367.516 Q188.228 362.909 188.228 354.182 Q188.228 345.432 191.284 340.849 Q194.362 336.243 200.173 336.243 Z" fill="#000000" fill-rule="nonzero" fill-opacity="1" /><path clip-path="url(#clip170)" d="M221.822 318.439 Q218.888 318.439 217.402 321.335 Q215.935 324.213 215.935 330.005 Q215.935 335.779 217.402 338.676 Q218.888 341.553 221.822 341.553 Q224.775 341.553 226.242 338.676 Q227.727 335.779 227.727 330.005 Q227.727 324.213 226.242 321.335 Q224.775 318.439 221.822 318.439 M221.822 315.429 Q226.543 315.429 229.025 319.172 Q231.527 322.896 231.527 330.005 Q231.527 337.096 229.025 340.839 Q226.543 344.563 221.822 344.563 Q217.101 344.563 214.6 340.839 Q212.117 337.096 212.117 330.005 Q212.117 322.896 214.6 319.172 Q217.101 315.429 221.822 315.429 Z" fill="#000000" fill-rule="nonzero" fill-opacity="1" /><path clip-path="url(#clip170)" d="M163.51 225.353 L171.149 225.353 L171.149 198.987 L162.839 200.654 L162.839 196.395 L171.103 194.728 L175.779 194.728 L175.779 225.353 L183.418 225.353 L183.418 229.288 L163.51 229.288 L163.51 225.353 Z" fill="#000000" fill-rule="nonzero" fill-opacity="1" /><path clip-path="url(#clip170)" d="M202.862 197.807 Q199.251 197.807 197.422 201.371 Q195.617 204.913 195.617 212.043 Q195.617 219.149 197.422 222.714 Q199.251 226.256 202.862 226.256 Q206.496 226.256 208.302 222.714 Q210.131 219.149 210.131 212.043 Q210.131 204.913 208.302 201.371 Q206.496 197.807 202.862 197.807 M202.862 194.103 Q208.672 194.103 211.728 198.709 Q214.806 203.293 214.806 212.043 Q214.806 220.769 211.728 225.376 Q208.672 229.959 202.862 229.959 Q197.052 229.959 193.973 225.376 Q190.918 220.769 190.918 212.043 Q190.918 203.293 193.973 198.709 Q197.052 194.103 202.862 194.103 Z" fill="#000000" fill-rule="nonzero" fill-opacity="1" /><path clip-path="url(#clip170)" d="M215.352 198.68 L221.558 198.68 L221.558 177.258 L214.806 178.612 L214.806 175.152 L221.521 173.798 L225.32 173.798 L225.32 198.68 L231.527 198.68 L231.527 201.878 L215.352 201.878 L215.352 198.68 Z" fill="#000000" fill-rule="nonzero" fill-opacity="1" /><path clip-path="url(#clip170)" d="M162.401 83.213 L170.04 83.213 L170.04 56.8474 L161.73 58.514 L161.73 54.2548 L169.993 52.5881 L174.669 52.5881 L174.669 83.213 L182.308 83.213 L182.308 87.1481 L162.401 87.1481 L162.401 83.213 Z" fill="#000000" fill-rule="nonzero" fill-opacity="1" /><path clip-path="url(#clip170)" d="M201.752 55.6668 Q198.141 55.6668 196.313 59.2316 Q194.507 62.7733 194.507 69.9029 Q194.507 77.0093 196.313 80.5741 Q198.141 84.1157 201.752 84.1157 Q205.387 84.1157 207.192 80.5741 Q209.021 77.0093 209.021 69.9029 Q209.021 62.7733 207.192 59.2316 Q205.387 55.6668 201.752 55.6668 M201.752 51.9631 Q207.563 51.9631 210.618 56.5696 Q213.697 61.1529 213.697 69.9029 Q213.697 78.6297 210.618 83.2361 Q207.563 87.8194 201.752 87.8194 Q195.942 87.8194 192.864 83.2361 Q189.808 78.6297 189.808 69.9029 Q189.808 61.1529 192.864 56.5696 Q195.942 51.9631 201.752 51.9631 Z" fill="#000000" fill-rule="nonzero" fill-opacity="1" /><path clip-path="url(#clip170)" d="M218.267 56.5404 L231.527 56.5404 L231.527 59.7377 L213.697 59.7377 L213.697 56.5404 Q215.86 54.3023 219.584 50.5407 Q223.326 46.7604 224.286 45.6695 Q226.11 43.6195 226.825 42.2089 Q227.558 40.7795 227.558 39.4065 Q227.558 37.1684 225.978 35.7578 Q224.417 34.3473 221.897 34.3473 Q220.11 34.3473 218.117 34.9679 Q216.142 35.5886 213.885 36.8487 L213.885 33.0119 Q216.179 32.0903 218.173 31.6201 Q220.167 31.1499 221.822 31.1499 Q226.185 31.1499 228.781 33.3316 Q231.376 35.5133 231.376 39.162 Q231.376 40.8924 230.718 42.4534 Q230.078 43.9956 228.367 46.1021 Q227.897 46.6475 225.376 49.2618 Q222.856 51.8573 218.267 56.5404 Z" fill="#000000" fill-rule="nonzero" fill-opacity="1" /><path clip-path="url(#clip170)" d="M53.3292 413.312 L66.3152 413.312 L66.3152 407.433 Q66.3152 404.169 64.6254 402.386 Q62.9356 400.604 59.8106 400.604 Q56.7088 400.604 55.019 402.386 Q53.3292 404.169 53.3292 407.433 L53.3292 413.312 M49.4866 417.988 L49.4866 407.433 Q49.4866 401.622 52.1255 398.66 Q54.7412 395.673 59.8106 395.673 Q64.9263 395.673 67.542 398.66 Q70.1578 401.622 70.1578 407.433 L70.1578 413.312 L84.0466 413.312 L84.0466 417.988 L49.4866 417.988 Z" fill="#000000" fill-rule="nonzero" fill-opacity="1" /><path clip-path="url(#clip170)" d="M62.1023 375.396 Q61.6856 376.113 61.5004 376.97 Q61.2921 377.803 61.2921 378.822 Q61.2921 382.433 63.6532 384.377 Q65.9911 386.298 70.3893 386.298 L84.0466 386.298 L84.0466 390.581 L58.1208 390.581 L58.1208 386.298 L62.1486 386.298 Q59.7875 384.956 58.6532 382.803 Q57.4958 380.65 57.4958 377.572 Q57.4958 377.132 57.5652 376.599 Q57.6115 376.067 57.7273 375.419 L62.1023 375.396 Z" fill="#000000" fill-rule="nonzero" fill-opacity="1" /><path clip-path="url(#clip170)" d="M58.1208 370.928 L58.1208 366.669 L84.0466 366.669 L84.0466 370.928 L58.1208 370.928 M48.0283 370.928 L48.0283 366.669 L53.4217 366.669 L53.4217 370.928 L48.0283 370.928 Z" fill="#000000" fill-rule="nonzero" fill-opacity="1" /><path clip-path="url(#clip170)" d="M63.0976 337.572 Q60.2273 335.975 58.8615 333.752 Q57.4958 331.53 57.4958 328.521 Q57.4958 324.47 60.343 322.271 Q63.1671 320.072 68.3985 320.072 L84.0466 320.072 L84.0466 324.354 L68.5374 324.354 Q64.8106 324.354 63.005 325.674 Q61.1995 326.993 61.1995 329.702 Q61.1995 333.012 63.3985 334.933 Q65.5976 336.854 69.3939 336.854 L84.0466 336.854 L84.0466 341.137 L68.5374 341.137 Q64.7874 341.137 63.005 342.456 Q61.1995 343.776 61.1995 346.53 Q61.1995 349.794 63.4217 351.715 Q65.6208 353.637 69.3939 353.637 L84.0466 353.637 L84.0466 357.919 L58.1208 357.919 L58.1208 353.637 L62.1486 353.637 Q59.7643 352.178 58.6301 350.141 Q57.4958 348.104 57.4958 345.303 Q57.4958 342.479 58.931 340.512 Q60.3662 338.521 63.0976 337.572 Z" fill="#000000" fill-rule="nonzero" fill-opacity="1" /><path clip-path="url(#clip170)" d="M71.0142 299.794 Q71.0142 304.956 72.1948 306.947 Q73.3753 308.938 76.2226 308.938 Q78.4911 308.938 79.8336 307.456 Q81.1531 305.952 81.1531 303.382 Q81.1531 299.841 78.6531 297.711 Q76.13 295.558 71.9633 295.558 L71.0142 295.558 L71.0142 299.794 M69.255 291.299 L84.0466 291.299 L84.0466 295.558 L80.1114 295.558 Q82.4725 297.017 83.6068 299.192 Q84.7179 301.368 84.7179 304.516 Q84.7179 308.498 82.4957 310.859 Q80.2503 313.197 76.5003 313.197 Q72.1254 313.197 69.9031 310.28 Q67.6809 307.341 67.6809 301.53 L67.6809 295.558 L67.2643 295.558 Q64.3245 295.558 62.7273 297.503 Q61.1069 299.424 61.1069 302.919 Q61.1069 305.141 61.6393 307.248 Q62.1717 309.354 63.2365 311.299 L59.3013 311.299 Q58.3986 308.961 57.9588 306.762 Q57.4958 304.563 57.4958 302.479 Q57.4958 296.855 60.4125 294.077 Q63.3291 291.299 69.255 291.299 Z" fill="#000000" fill-rule="nonzero" fill-opacity="1" /><path clip-path="url(#clip170)" d="M48.0283 282.526 L48.0283 278.267 L84.0466 278.267 L84.0466 282.526 L48.0283 282.526 Z" fill="#000000" fill-rule="nonzero" fill-opacity="1" /><polyline clip-path="url(#clip172)" style="stroke:#009af9; stroke-linecap:round; stroke-linejoin:round; stroke-width:5.2; stroke-opacity:1; fill:none" points="293.292,415.518 382.309,433.277 445.467,447.051 494.456,458.306 534.483,467.822 568.326,476.065 597.642,483.336 623.5,489.84 646.631,495.723 667.555,501.095 686.658,506.036 704.231,510.61 720.501,514.869 735.647,518.853 749.816,522.596 763.126,526.124 775.675,529.462 787.545,532.628 798.806,535.64 809.517,538.512 819.73,541.256 829.489,543.883 838.833,546.403 847.795,548.824 856.406,551.154 864.691,553.399 872.675,555.565 880.379,557.658 887.822,559.682 895.021,561.642 901.991,563.541 908.747,565.384 915.301,567.174 921.665,568.913 927.849,570.604 933.865,572.25 939.719,573.854 945.422,575.416 950.98,576.941 956.401,578.428 961.692,579.881 966.858,581.3 971.905,582.687 976.839,584.044 981.664,585.372 986.385,586.671 991.008,587.944 995.534,589.191 999.97,590.414 1004.32,591.612 1008.58,592.788 1012.76,593.942 1016.87,595.075 1020.89,596.187 1024.85,597.28 1028.74,598.353 1032.55,599.409 1036.31,600.446 1040,601.466 1043.63,602.47 1047.2,603.458 1050.71,604.43 1054.17,605.387 1057.57,606.33 1060.92,607.258 1064.22,608.172 1067.48,609.074 1070.68,609.962 1073.84,610.837 1076.95,611.701 1080.02,612.552 1083.05,613.392 1086.04,614.221 1088.99,615.038 1091.89,615.845 1094.76,616.642 1097.6,617.428 1100.39,618.205 1103.16,618.972 1105.88,619.729 1108.58,620.477 1111.24,621.217 1113.87,621.947 1116.46,622.669 1119.03,623.383 1121.57,624.088 1124.08,624.786 1126.56,625.476 1129.01,626.158 1131.44,626.832 1133.84,627.5 1136.21,628.16 1138.56,628.813 1140.88,629.46 1143.18,630.099 1145.46,630.732 1147.71,631.359 1149.94,631.98 1152.14,631.371 "/>
<polyline clip-path="url(#clip172)" style="stroke:#e26f46; stroke-linecap:round; stroke-linejoin:round; stroke-width:5.2; stroke-opacity:1; fill:none" points="293.292,64.3535 293.292,64.3535 "/>
<polyline clip-path="url(#clip172)" style="stroke:#3da44d; stroke-linecap:round; stroke-linejoin:round; stroke-width:5.2; stroke-opacity:1; fill:none" points="293.292,415.518 382.309,433.277 445.467,447.051 494.456,458.306 534.483,467.822 568.326,476.065 597.642,483.336 623.5,489.84 646.631,495.723 667.555,501.095 686.658,506.036 704.231,510.61 720.501,514.869 735.647,518.853 749.816,522.596 763.126,526.124 775.675,529.462 787.545,532.628 798.806,535.64 809.517,538.512 819.73,541.256 829.489,543.883 838.833,546.403 847.795,548.824 856.406,551.154 864.691,553.399 872.675,555.565 880.379,557.658 887.822,559.682 895.021,561.642 901.991,563.541 908.747,565.384 915.301,567.174 921.665,568.913 927.849,570.604 933.865,572.25 939.719,573.854 945.422,575.416 950.98,576.941 956.401,578.428 961.692,579.881 966.858,581.3 971.905,582.687 976.839,584.044 981.664,585.372 986.385,586.671 991.008,587.944 995.534,589.191 999.97,590.414 1004.32,591.612 1008.58,592.788 1012.76,593.942 1016.87,595.075 1020.89,596.187 1024.85,597.28 1028.74,598.353 1032.55,599.409 1036.31,600.446 1040,601.466 1043.63,602.47 1047.2,603.458 1050.71,604.43 1054.17,605.387 1057.57,606.33 1060.92,607.258 1064.22,608.172 1067.48,609.074 1070.68,609.962 1073.84,610.837 1076.95,611.701 1080.02,612.552 1083.05,613.392 1086.04,614.221 1088.99,615.038 1091.89,615.845 1094.76,616.642 1097.6,617.428 1100.39,618.205 1103.16,618.972 1105.88,619.729 1108.58,620.477 1111.24,621.217 1113.87,621.947 1116.46,622.669 1119.03,623.383 1121.57,624.088 1124.08,624.786 1126.56,625.476 1129.01,626.158 1131.44,626.832 1133.84,627.5 1136.21,628.16 1138.56,628.813 1140.88,629.46 1143.18,630.099 1145.46,630.732 1147.71,631.359 1149.94,631.98 1152.14,631.98 "/>
<polyline clip-path="url(#clip172)" style="stroke:#c271d2; stroke-linecap:round; stroke-linejoin:round; stroke-width:5.2; stroke-opacity:1; fill:none" points="293.292,64.2752 293.292,64.2752 "/>
<path clip-path="url(#clip170)" d="M842.568 326.503 L1147.56 326.503 L1147.56 67.303 L842.568 67.303  Z" fill="#ffffff" fill-rule="evenodd" fill-opacity="1"/>
<polyline clip-path="url(#clip170)" style="stroke:#000000; stroke-linecap:round; stroke-linejoin:round; stroke-width:4; stroke-opacity:1; fill:none" points="842.568,326.503 1147.56,326.503 1147.56,67.303 842.568,67.303 842.568,326.503 "/>
<polyline clip-path="url(#clip170)" style="stroke:#009af9; stroke-linecap:round; stroke-linejoin:round; stroke-width:5.2; stroke-opacity:1; fill:none" points="852.684,119.143 913.376,119.143 "/>
<path clip-path="url(#clip170)" d="M928.167 119.918 L928.167 132.58 L935.667 132.58 Q939.44 132.58 941.246 131.029 Q943.074 129.455 943.074 126.238 Q943.074 122.997 941.246 121.469 Q939.44 119.918 935.667 119.918 L928.167 119.918 M928.167 105.706 L928.167 116.122 L935.088 116.122 Q938.514 116.122 940.181 114.849 Q941.871 113.553 941.871 110.914 Q941.871 108.298 940.181 107.002 Q938.514 105.706 935.088 105.706 L928.167 105.706 M923.491 101.863 L935.436 101.863 Q940.783 101.863 943.676 104.085 Q946.57 106.307 946.57 110.405 Q946.57 113.576 945.088 115.451 Q943.607 117.326 940.737 117.789 Q944.186 118.53 946.084 120.891 Q948.005 123.229 948.005 126.747 Q948.005 131.377 944.857 133.9 Q941.709 136.423 935.899 136.423 L923.491 136.423 L923.491 101.863 Z" fill="#000000" fill-rule="nonzero" fill-opacity="1" /><path clip-path="url(#clip170)" d="M960.69 105.706 L960.69 118.692 L966.57 118.692 Q969.834 118.692 971.616 117.002 Q973.398 115.312 973.398 112.187 Q973.398 109.085 971.616 107.395 Q969.834 105.706 966.57 105.706 L960.69 105.706 M956.014 101.863 L966.57 101.863 Q972.38 101.863 975.343 104.502 Q978.329 107.118 978.329 112.187 Q978.329 117.303 975.343 119.918 Q972.38 122.534 966.57 122.534 L960.69 122.534 L960.69 136.423 L956.014 136.423 L956.014 101.863 Z" fill="#000000" fill-rule="nonzero" fill-opacity="1" /><path clip-path="url(#clip170)" d="M1010.48 104.525 L1010.48 109.456 Q1008.12 107.256 1005.44 106.169 Q1002.77 105.081 999.764 105.081 Q993.838 105.081 990.69 108.715 Q987.542 112.326 987.542 119.178 Q987.542 126.006 990.69 129.641 Q993.838 133.252 999.764 133.252 Q1002.77 133.252 1005.44 132.164 Q1008.12 131.076 1010.48 128.877 L1010.48 133.761 Q1008.03 135.428 1005.27 136.261 Q1002.54 137.094 999.486 137.094 Q991.639 137.094 987.125 132.303 Q982.611 127.488 982.611 119.178 Q982.611 110.844 987.125 106.053 Q991.639 101.238 999.486 101.238 Q1002.59 101.238 1005.32 102.071 Q1008.07 102.881 1010.48 104.525 Z" fill="#000000" fill-rule="nonzero" fill-opacity="1" /><path clip-path="url(#clip170)" d="M1041.27 131.492 L1041.27 122.21 L1033.63 122.21 L1033.63 118.368 L1045.9 118.368 L1045.9 133.205 Q1043.19 135.127 1039.93 136.122 Q1036.66 137.094 1032.96 137.094 Q1024.86 137.094 1020.27 132.372 Q1015.71 127.627 1015.71 119.178 Q1015.71 110.706 1020.27 105.983 Q1024.86 101.238 1032.96 101.238 Q1036.34 101.238 1039.37 102.071 Q1042.43 102.905 1045 104.525 L1045 109.502 Q1042.4 107.303 1039.49 106.192 Q1036.57 105.081 1033.35 105.081 Q1027.01 105.081 1023.81 108.622 Q1020.64 112.164 1020.64 119.178 Q1020.64 126.168 1023.81 129.71 Q1027.01 133.252 1033.35 133.252 Q1035.83 133.252 1037.77 132.835 Q1039.72 132.395 1041.27 131.492 Z" fill="#000000" fill-rule="nonzero" fill-opacity="1" /><path clip-path="url(#clip170)" d="M1069.51 101.863 L1089.37 101.863 L1089.37 105.798 L1074.18 105.798 L1074.18 115.983 L1087.89 115.983 L1087.89 119.918 L1074.18 119.918 L1074.18 136.423 L1069.51 136.423 L1069.51 101.863 Z" fill="#000000" fill-rule="nonzero" fill-opacity="1" /><path clip-path="url(#clip170)" d="M1093.7 101.863 L1098.42 101.863 L1105.69 131.076 L1112.93 101.863 L1118.19 101.863 L1125.46 131.076 L1132.7 101.863 L1137.45 101.863 L1128.77 136.423 L1122.89 136.423 L1115.6 106.423 L1108.24 136.423 L1102.36 136.423 L1093.7 101.863 Z" fill="#000000" fill-rule="nonzero" fill-opacity="1" /><polyline clip-path="url(#clip170)" style="stroke:#e26f46; stroke-linecap:round; stroke-linejoin:round; stroke-width:5.2; stroke-opacity:1; fill:none" points="852.684,170.983 913.376,170.983 "/>
<path clip-path="url(#clip170)" d="M923.491 153.703 L943.352 153.703 L943.352 157.638 L928.167 157.638 L928.167 167.823 L941.871 167.823 L941.871 171.758 L928.167 171.758 L928.167 188.263 L923.491 188.263 L923.491 153.703 Z" fill="#000000" fill-rule="nonzero" fill-opacity="1" /><path clip-path="url(#clip170)" d="M947.681 153.703 L952.403 153.703 L959.672 182.916 L966.917 153.703 L972.172 153.703 L979.44 182.916 L986.685 153.703 L991.431 153.703 L982.75 188.263 L976.871 188.263 L969.579 158.263 L962.218 188.263 L956.338 188.263 L947.681 153.703 Z" fill="#000000" fill-rule="nonzero" fill-opacity="1" /><path clip-path="url(#clip170)" d="M1017.38 171.758 L1017.38 184.42 L1024.88 184.42 Q1028.65 184.42 1030.46 182.869 Q1032.29 181.295 1032.29 178.078 Q1032.29 174.837 1030.46 173.309 Q1028.65 171.758 1024.88 171.758 L1017.38 171.758 M1017.38 157.546 L1017.38 167.962 L1024.3 167.962 Q1027.73 167.962 1029.39 166.689 Q1031.08 165.393 1031.08 162.754 Q1031.08 160.138 1029.39 158.842 Q1027.73 157.546 1024.3 157.546 L1017.38 157.546 M1012.7 153.703 L1024.65 153.703 Q1030 153.703 1032.89 155.925 Q1035.78 158.147 1035.78 162.245 Q1035.78 165.416 1034.3 167.291 Q1032.82 169.166 1029.95 169.629 Q1033.4 170.37 1035.3 172.731 Q1037.22 175.069 1037.22 178.587 Q1037.22 183.217 1034.07 185.74 Q1030.92 188.263 1025.11 188.263 L1012.7 188.263 L1012.7 153.703 Z" fill="#000000" fill-rule="nonzero" fill-opacity="1" /><path clip-path="url(#clip170)" d="M1049.9 157.546 L1049.9 170.532 L1055.78 170.532 Q1059.05 170.532 1060.83 168.842 Q1062.61 167.152 1062.61 164.027 Q1062.61 160.925 1060.83 159.235 Q1059.05 157.546 1055.78 157.546 L1049.9 157.546 M1045.23 153.703 L1055.78 153.703 Q1061.59 153.703 1064.56 156.342 Q1067.54 158.958 1067.54 164.027 Q1067.54 169.143 1064.56 171.758 Q1061.59 174.374 1055.78 174.374 L1049.9 174.374 L1049.9 188.263 L1045.23 188.263 L1045.23 153.703 Z" fill="#000000" fill-rule="nonzero" fill-opacity="1" /><path clip-path="url(#clip170)" d="M1099.69 156.365 L1099.69 161.296 Q1097.33 159.096 1094.65 158.009 Q1091.99 156.921 1088.98 156.921 Q1083.05 156.921 1079.9 160.555 Q1076.75 164.166 1076.75 171.018 Q1076.75 177.846 1079.9 181.481 Q1083.05 185.092 1088.98 185.092 Q1091.99 185.092 1094.65 184.004 Q1097.33 182.916 1099.69 180.717 L1099.69 185.601 Q1097.24 187.268 1094.49 188.101 Q1091.75 188.934 1088.7 188.934 Q1080.85 188.934 1076.34 184.143 Q1071.82 179.328 1071.82 171.018 Q1071.82 162.684 1076.34 157.893 Q1080.85 153.078 1088.7 153.078 Q1091.8 153.078 1094.53 153.911 Q1097.29 154.721 1099.69 156.365 Z" fill="#000000" fill-rule="nonzero" fill-opacity="1" /><path clip-path="url(#clip170)" d="M1130.48 183.332 L1130.48 174.05 L1122.84 174.05 L1122.84 170.208 L1135.11 170.208 L1135.11 185.045 Q1132.4 186.967 1129.14 187.962 Q1125.87 188.934 1122.17 188.934 Q1114.07 188.934 1109.49 184.212 Q1104.93 179.467 1104.93 171.018 Q1104.93 162.546 1109.49 157.823 Q1114.07 153.078 1122.17 153.078 Q1125.55 153.078 1128.58 153.911 Q1131.64 154.745 1134.21 156.365 L1134.21 161.342 Q1131.62 159.143 1128.7 158.032 Q1125.78 156.921 1122.56 156.921 Q1116.22 156.921 1113.03 160.462 Q1109.86 164.004 1109.86 171.018 Q1109.86 178.008 1113.03 181.55 Q1116.22 185.092 1122.56 185.092 Q1125.04 185.092 1126.99 184.675 Q1128.93 184.235 1130.48 183.332 Z" fill="#000000" fill-rule="nonzero" fill-opacity="1" /><polyline clip-path="url(#clip170)" style="stroke:#3da44d; stroke-linecap:round; stroke-linejoin:round; stroke-width:5.2; stroke-opacity:1; fill:none" points="852.684,222.823 913.376,222.823 "/>
<path clip-path="url(#clip170)" d="M928.167 223.598 L928.167 236.26 L935.667 236.26 Q939.44 236.26 941.246 234.709 Q943.074 233.135 943.074 229.918 Q943.074 226.677 941.246 225.149 Q939.44 223.598 935.667 223.598 L928.167 223.598 M928.167 209.386 L928.167 219.802 L935.088 219.802 Q938.514 219.802 940.181 218.529 Q941.871 217.233 941.871 214.594 Q941.871 211.978 940.181 210.682 Q938.514 209.386 935.088 209.386 L928.167 209.386 M923.491 205.543 L935.436 205.543 Q940.783 205.543 943.676 207.765 Q946.57 209.987 946.57 214.085 Q946.57 217.256 945.088 219.131 Q943.607 221.006 940.737 221.469 Q944.186 222.21 946.084 224.571 Q948.005 226.909 948.005 230.427 Q948.005 235.057 944.857 237.58 Q941.709 240.103 935.899 240.103 L923.491 240.103 L923.491 205.543 Z" fill="#000000" fill-rule="nonzero" fill-opacity="1" /><path clip-path="url(#clip170)" d="M960.69 209.386 L960.69 222.372 L966.57 222.372 Q969.834 222.372 971.616 220.682 Q973.398 218.992 973.398 215.867 Q973.398 212.765 971.616 211.075 Q969.834 209.386 966.57 209.386 L960.69 209.386 M956.014 205.543 L966.57 205.543 Q972.38 205.543 975.343 208.182 Q978.329 210.798 978.329 215.867 Q978.329 220.983 975.343 223.598 Q972.38 226.214 966.57 226.214 L960.69 226.214 L960.69 240.103 L956.014 240.103 L956.014 205.543 Z" fill="#000000" fill-rule="nonzero" fill-opacity="1" /><path clip-path="url(#clip170)" d="M1010.48 208.205 L1010.48 213.136 Q1008.12 210.936 1005.44 209.849 Q1002.77 208.761 999.764 208.761 Q993.838 208.761 990.69 212.395 Q987.542 216.006 987.542 222.858 Q987.542 229.686 990.69 233.321 Q993.838 236.932 999.764 236.932 Q1002.77 236.932 1005.44 235.844 Q1008.12 234.756 1010.48 232.557 L1010.48 237.441 Q1008.03 239.108 1005.27 239.941 Q1002.54 240.774 999.486 240.774 Q991.639 240.774 987.125 235.983 Q982.611 231.168 982.611 222.858 Q982.611 214.524 987.125 209.733 Q991.639 204.918 999.486 204.918 Q1002.59 204.918 1005.32 205.751 Q1008.07 206.561 1010.48 208.205 Z" fill="#000000" fill-rule="nonzero" fill-opacity="1" /><path clip-path="url(#clip170)" d="M1041.27 235.172 L1041.27 225.89 L1033.63 225.89 L1033.63 222.048 L1045.9 222.048 L1045.9 236.885 Q1043.19 238.807 1039.93 239.802 Q1036.66 240.774 1032.96 240.774 Q1024.86 240.774 1020.27 236.052 Q1015.71 231.307 1015.71 222.858 Q1015.71 214.386 1020.27 209.663 Q1024.86 204.918 1032.96 204.918 Q1036.34 204.918 1039.37 205.751 Q1042.43 206.585 1045 208.205 L1045 213.182 Q1042.4 210.983 1039.49 209.872 Q1036.57 208.761 1033.35 208.761 Q1027.01 208.761 1023.81 212.302 Q1020.64 215.844 1020.64 222.858 Q1020.64 229.848 1023.81 233.39 Q1027.01 236.932 1033.35 236.932 Q1035.83 236.932 1037.77 236.515 Q1039.72 236.075 1041.27 235.172 Z" fill="#000000" fill-rule="nonzero" fill-opacity="1" /><polyline clip-path="url(#clip170)" style="stroke:#c271d2; stroke-linecap:round; stroke-linejoin:round; stroke-width:5.2; stroke-opacity:1; fill:none" points="852.684,274.663 913.376,274.663 "/>
<path clip-path="url(#clip170)" d="M923.491 257.383 L943.352 257.383 L943.352 261.318 L928.167 261.318 L928.167 271.503 L941.871 271.503 L941.871 275.438 L928.167 275.438 L928.167 291.943 L923.491 291.943 L923.491 257.383 Z" fill="#000000" fill-rule="nonzero" fill-opacity="1" /><path clip-path="url(#clip170)" d="M947.681 257.383 L952.403 257.383 L959.672 286.596 L966.917 257.383 L972.172 257.383 L979.44 286.596 L986.685 257.383 L991.431 257.383 L982.75 291.943 L976.871 291.943 L969.579 261.943 L962.218 291.943 L956.338 291.943 L947.681 257.383 Z" fill="#000000" fill-rule="nonzero" fill-opacity="1" /><path clip-path="url(#clip170)" d="M1442.37 649.011 L2352.76 649.011 L2352.76 47.2441 L1442.37 47.2441  Z" fill="#ffffff" fill-rule="evenodd" fill-opacity="1"/>
<defs>
  <clipPath id="clip173">
    <rect x="1442" y="47" width="911" height="603"/>
  </clipPath>
</defs>
<polyline clip-path="url(#clip173)" style="stroke:#000000; stroke-linecap:round; stroke-linejoin:round; stroke-width:2; stroke-opacity:0.1; fill:none" points="1555.54,649.011 1555.54,47.2441 "/>
<polyline clip-path="url(#clip173)" style="stroke:#000000; stroke-linecap:round; stroke-linejoin:round; stroke-width:2; stroke-opacity:0.1; fill:none" points="1849.45,649.011 1849.45,47.2441 "/>
<polyline clip-path="url(#clip173)" style="stroke:#000000; stroke-linecap:round; stroke-linejoin:round; stroke-width:2; stroke-opacity:0.1; fill:none" points="2143.35,649.011 2143.35,47.2441 "/>
<polyline clip-path="url(#clip173)" style="stroke:#000000; stroke-linecap:round; stroke-linejoin:round; stroke-width:2; stroke-opacity:0.1; fill:none" points="1442.37,631.98 2352.76,631.98 "/>
<polyline clip-path="url(#clip173)" style="stroke:#000000; stroke-linecap:round; stroke-linejoin:round; stroke-width:2; stroke-opacity:0.1; fill:none" points="1442.37,489.84 2352.76,489.84 "/>
<polyline clip-path="url(#clip173)" style="stroke:#000000; stroke-linecap:round; stroke-linejoin:round; stroke-width:2; stroke-opacity:0.1; fill:none" points="1442.37,347.7 2352.76,347.7 "/>
<polyline clip-path="url(#clip173)" style="stroke:#000000; stroke-linecap:round; stroke-linejoin:round; stroke-width:2; stroke-opacity:0.1; fill:none" points="1442.37,205.56 2352.76,205.56 "/>
<polyline clip-path="url(#clip173)" style="stroke:#000000; stroke-linecap:round; stroke-linejoin:round; stroke-width:2; stroke-opacity:0.1; fill:none" points="1442.37,63.4205 2352.76,63.4205 "/>
<polyline clip-path="url(#clip170)" style="stroke:#000000; stroke-linecap:round; stroke-linejoin:round; stroke-width:4; stroke-opacity:1; fill:none" points="1442.37,649.011 2352.76,649.011 "/>
<polyline clip-path="url(#clip170)" style="stroke:#000000; stroke-linecap:round; stroke-linejoin:round; stroke-width:4; stroke-opacity:1; fill:none" points="1555.54,649.011 1555.54,630.113 "/>
<polyline clip-path="url(#clip170)" style="stroke:#000000; stroke-linecap:round; stroke-linejoin:round; stroke-width:4; stroke-opacity:1; fill:none" points="1849.45,649.011 1849.45,630.113 "/>
<polyline clip-path="url(#clip170)" style="stroke:#000000; stroke-linecap:round; stroke-linejoin:round; stroke-width:4; stroke-opacity:1; fill:none" points="2143.35,649.011 2143.35,630.113 "/>
<path clip-path="url(#clip170)" d="M1505.42 723.135 L1513.06 723.135 L1513.06 696.77 L1504.75 698.437 L1504.75 694.177 L1513.02 692.511 L1517.69 692.511 L1517.69 723.135 L1525.33 723.135 L1525.33 727.071 L1505.42 727.071 L1505.42 723.135 Z" fill="#000000" fill-rule="nonzero" fill-opacity="1" /><path clip-path="url(#clip170)" d="M1544.77 695.589 Q1541.16 695.589 1539.33 699.154 Q1537.53 702.696 1537.53 709.825 Q1537.53 716.932 1539.33 720.497 Q1541.16 724.038 1544.77 724.038 Q1548.41 724.038 1550.21 720.497 Q1552.04 716.932 1552.04 709.825 Q1552.04 702.696 1550.21 699.154 Q1548.41 695.589 1544.77 695.589 M1544.77 691.886 Q1550.58 691.886 1553.64 696.492 Q1556.72 701.075 1556.72 709.825 Q1556.72 718.552 1553.64 723.159 Q1550.58 727.742 1544.77 727.742 Q1538.96 727.742 1535.89 723.159 Q1532.83 718.552 1532.83 709.825 Q1532.83 701.075 1535.89 696.492 Q1538.96 691.886 1544.77 691.886 Z" fill="#000000" fill-rule="nonzero" fill-opacity="1" /><path clip-path="url(#clip170)" d="M1556.72 685.987 L1580.83 685.987 L1580.83 689.184 L1556.72 689.184 L1556.72 685.987 Z" fill="#000000" fill-rule="nonzero" fill-opacity="1" /><path clip-path="url(#clip170)" d="M1600.54 684.52 Q1603.27 685.103 1604.79 686.946 Q1606.33 688.789 1606.33 691.498 Q1606.33 695.654 1603.48 697.93 Q1600.62 700.206 1595.35 700.206 Q1593.58 700.206 1591.7 699.848 Q1589.84 699.51 1587.85 698.814 L1587.85 695.146 Q1589.43 696.068 1591.31 696.538 Q1593.19 697.008 1595.24 697.008 Q1598.81 697.008 1600.67 695.598 Q1602.55 694.187 1602.55 691.498 Q1602.55 689.015 1600.8 687.623 Q1599.07 686.213 1595.97 686.213 L1592.7 686.213 L1592.7 683.091 L1596.12 683.091 Q1598.92 683.091 1600.41 681.981 Q1601.9 680.852 1601.9 678.746 Q1601.9 676.583 1600.35 675.436 Q1598.83 674.27 1595.97 674.27 Q1594.41 674.27 1592.62 674.608 Q1590.84 674.947 1588.69 675.662 L1588.69 672.276 Q1590.86 671.674 1592.74 671.373 Q1594.64 671.072 1596.31 671.072 Q1600.64 671.072 1603.16 673.047 Q1605.68 675.003 1605.68 678.351 Q1605.68 680.683 1604.34 682.301 Q1603 683.899 1600.54 684.52 Z" fill="#000000" fill-rule="nonzero" fill-opacity="1" /><path clip-path="url(#clip170)" d="M1799.71 723.135 L1807.35 723.135 L1807.35 696.77 L1799.04 698.437 L1799.04 694.177 L1807.31 692.511 L1811.98 692.511 L1811.98 723.135 L1819.62 723.135 L1819.62 727.071 L1799.71 727.071 L1799.71 723.135 Z" fill="#000000" fill-rule="nonzero" fill-opacity="1" /><path clip-path="url(#clip170)" d="M1839.06 695.589 Q1835.45 695.589 1833.62 699.154 Q1831.82 702.696 1831.82 709.825 Q1831.82 716.932 1833.62 720.497 Q1835.45 724.038 1839.06 724.038 Q1842.7 724.038 1844.5 720.497 Q1846.33 716.932 1846.33 709.825 Q1846.33 702.696 1844.5 699.154 Q1842.7 695.589 1839.06 695.589 M1839.06 691.886 Q1844.87 691.886 1847.93 696.492 Q1851.01 701.075 1851.01 709.825 Q1851.01 718.552 1847.93 723.159 Q1844.87 727.742 1839.06 727.742 Q1833.25 727.742 1830.18 723.159 Q1827.12 718.552 1827.12 709.825 Q1827.12 701.075 1830.18 696.492 Q1833.25 691.886 1839.06 691.886 Z" fill="#000000" fill-rule="nonzero" fill-opacity="1" /><path clip-path="url(#clip170)" d="M1851.01 685.987 L1875.12 685.987 L1875.12 689.184 L1851.01 689.184 L1851.01 685.987 Z" fill="#000000" fill-rule="nonzero" fill-opacity="1" /><path clip-path="url(#clip170)" d="M1886.59 696.463 L1899.85 696.463 L1899.85 699.66 L1882.02 699.66 L1882.02 696.463 Q1884.19 694.225 1887.91 690.463 Q1891.65 686.683 1892.61 685.592 Q1894.44 683.542 1895.15 682.131 Q1895.88 680.702 1895.88 679.329 Q1895.88 677.091 1894.3 675.68 Q1892.74 674.27 1890.22 674.27 Q1888.44 674.27 1886.44 674.89 Q1884.47 675.511 1882.21 676.771 L1882.21 672.934 Q1884.51 672.013 1886.5 671.543 Q1888.49 671.072 1890.15 671.072 Q1894.51 671.072 1897.11 673.254 Q1899.7 675.436 1899.7 679.085 Q1899.7 680.815 1899.04 682.376 Q1898.4 683.918 1896.69 686.025 Q1896.22 686.57 1893.7 689.184 Q1891.18 691.78 1886.59 696.463 Z" fill="#000000" fill-rule="nonzero" fill-opacity="1" /><path clip-path="url(#clip170)" d="M2093.47 723.135 L2101.11 723.135 L2101.11 696.77 L2092.8 698.437 L2092.8 694.177 L2101.06 692.511 L2105.74 692.511 L2105.74 723.135 L2113.37 723.135 L2113.37 727.071 L2093.47 727.071 L2093.47 723.135 Z" fill="#000000" fill-rule="nonzero" fill-opacity="1" /><path clip-path="url(#clip170)" d="M2132.82 695.589 Q2129.21 695.589 2127.38 699.154 Q2125.57 702.696 2125.57 709.825 Q2125.57 716.932 2127.38 720.497 Q2129.21 724.038 2132.82 724.038 Q2136.45 724.038 2138.26 720.497 Q2140.09 716.932 2140.09 709.825 Q2140.09 702.696 2138.26 699.154 Q2136.45 695.589 2132.82 695.589 M2132.82 691.886 Q2138.63 691.886 2141.68 696.492 Q2144.76 701.075 2144.76 709.825 Q2144.76 718.552 2141.68 723.159 Q2138.63 727.742 2132.82 727.742 Q2127.01 727.742 2123.93 723.159 Q2120.87 718.552 2120.87 709.825 Q2120.87 701.075 2123.93 696.492 Q2127.01 691.886 2132.82 691.886 Z" fill="#000000" fill-rule="nonzero" fill-opacity="1" /><path clip-path="url(#clip170)" d="M2144.76 685.987 L2168.87 685.987 L2168.87 689.184 L2144.76 689.184 L2144.76 685.987 Z" fill="#000000" fill-rule="nonzero" fill-opacity="1" /><path clip-path="url(#clip170)" d="M2177.73 696.463 L2183.94 696.463 L2183.94 675.041 L2177.19 676.395 L2177.19 672.934 L2183.9 671.58 L2187.7 671.58 L2187.7 696.463 L2193.91 696.463 L2193.91 699.66 L2177.73 699.66 L2177.73 696.463 Z" fill="#000000" fill-rule="nonzero" fill-opacity="1" /><polyline clip-path="url(#clip170)" style="stroke:#000000; stroke-linecap:round; stroke-linejoin:round; stroke-width:4; stroke-opacity:1; fill:none" points="1442.37,649.011 1442.37,47.2441 "/>
<polyline clip-path="url(#clip170)" style="stroke:#000000; stroke-linecap:round; stroke-linejoin:round; stroke-width:4; stroke-opacity:1; fill:none" points="1442.37,631.98 1461.27,631.98 "/>
<polyline clip-path="url(#clip170)" style="stroke:#000000; stroke-linecap:round; stroke-linejoin:round; stroke-width:4; stroke-opacity:1; fill:none" points="1442.37,489.84 1461.27,489.84 "/>
<polyline clip-path="url(#clip170)" style="stroke:#000000; stroke-linecap:round; stroke-linejoin:round; stroke-width:4; stroke-opacity:1; fill:none" points="1442.37,347.7 1461.27,347.7 "/>
<polyline clip-path="url(#clip170)" style="stroke:#000000; stroke-linecap:round; stroke-linejoin:round; stroke-width:4; stroke-opacity:1; fill:none" points="1442.37,205.56 1461.27,205.56 "/>
<polyline clip-path="url(#clip170)" style="stroke:#000000; stroke-linecap:round; stroke-linejoin:round; stroke-width:4; stroke-opacity:1; fill:none" points="1442.37,63.4205 1461.27,63.4205 "/>
<path clip-path="url(#clip170)" d="M1306.23 651.772 L1313.87 651.772 L1313.87 625.406 L1305.56 627.073 L1305.56 622.814 L1313.83 621.147 L1318.5 621.147 L1318.5 651.772 L1326.14 651.772 L1326.14 655.707 L1306.23 655.707 L1306.23 651.772 Z" fill="#000000" fill-rule="nonzero" fill-opacity="1" /><path clip-path="url(#clip170)" d="M1345.58 624.226 Q1341.97 624.226 1340.14 627.791 Q1338.34 631.332 1338.34 638.462 Q1338.34 645.568 1340.14 649.133 Q1341.97 652.675 1345.58 652.675 Q1349.22 652.675 1351.02 649.133 Q1352.85 645.568 1352.85 638.462 Q1352.85 631.332 1351.02 627.791 Q1349.22 624.226 1345.58 624.226 M1345.58 620.522 Q1351.39 620.522 1354.45 625.129 Q1357.53 629.712 1357.53 638.462 Q1357.53 647.189 1354.45 651.795 Q1351.39 656.378 1345.58 656.378 Q1339.77 656.378 1336.7 651.795 Q1333.64 647.189 1333.64 638.462 Q1333.64 629.712 1336.7 625.129 Q1339.77 620.522 1345.58 620.522 Z" fill="#000000" fill-rule="nonzero" fill-opacity="1" /><path clip-path="url(#clip170)" d="M1357.53 614.624 L1381.64 614.624 L1381.64 617.821 L1357.53 617.821 L1357.53 614.624 Z" fill="#000000" fill-rule="nonzero" fill-opacity="1" /><path clip-path="url(#clip170)" d="M1393.11 625.099 L1406.37 625.099 L1406.37 628.297 L1388.54 628.297 L1388.54 625.099 Q1390.71 622.861 1394.43 619.1 Q1398.17 615.319 1399.13 614.229 Q1400.96 612.179 1401.67 610.768 Q1402.4 609.339 1402.4 607.966 Q1402.4 605.727 1400.82 604.317 Q1399.26 602.906 1396.74 602.906 Q1394.96 602.906 1392.96 603.527 Q1390.99 604.148 1388.73 605.408 L1388.73 601.571 Q1391.03 600.649 1393.02 600.179 Q1395.01 599.709 1396.67 599.709 Q1401.03 599.709 1403.63 601.891 Q1406.22 604.072 1406.22 607.721 Q1406.22 609.451 1405.56 611.012 Q1404.92 612.555 1403.21 614.661 Q1402.74 615.207 1400.22 617.821 Q1397.7 620.416 1393.11 625.099 Z" fill="#000000" fill-rule="nonzero" fill-opacity="1" /><path clip-path="url(#clip170)" d="M1305.93 509.632 L1313.57 509.632 L1313.57 483.267 L1305.26 484.933 L1305.26 480.674 L1313.52 479.007 L1318.2 479.007 L1318.2 509.632 L1325.84 509.632 L1325.84 513.567 L1305.93 513.567 L1305.93 509.632 Z" fill="#000000" fill-rule="nonzero" fill-opacity="1" /><path clip-path="url(#clip170)" d="M1345.28 482.086 Q1341.67 482.086 1339.84 485.651 Q1338.04 489.193 1338.04 496.322 Q1338.04 503.429 1339.84 506.993 Q1341.67 510.535 1345.28 510.535 Q1348.92 510.535 1350.72 506.993 Q1352.55 503.429 1352.55 496.322 Q1352.55 489.193 1350.72 485.651 Q1348.92 482.086 1345.28 482.086 M1345.28 478.382 Q1351.09 478.382 1354.15 482.989 Q1357.23 487.572 1357.23 496.322 Q1357.23 505.049 1354.15 509.655 Q1351.09 514.239 1345.28 514.239 Q1339.47 514.239 1336.39 509.655 Q1333.34 505.049 1333.34 496.322 Q1333.34 487.572 1336.39 482.989 Q1339.47 478.382 1345.28 478.382 Z" fill="#000000" fill-rule="nonzero" fill-opacity="1" /><path clip-path="url(#clip170)" d="M1357.23 472.484 L1381.34 472.484 L1381.34 475.681 L1357.23 475.681 L1357.23 472.484 Z" fill="#000000" fill-rule="nonzero" fill-opacity="1" /><path clip-path="url(#clip170)" d="M1390.2 482.96 L1396.4 482.96 L1396.4 461.538 L1389.65 462.892 L1389.65 459.431 L1396.37 458.077 L1400.17 458.077 L1400.17 482.96 L1406.37 482.96 L1406.37 486.157 L1390.2 486.157 L1390.2 482.96 Z" fill="#000000" fill-rule="nonzero" fill-opacity="1" /><path clip-path="url(#clip170)" d="M1335.67 367.493 L1343.31 367.493 L1343.31 341.127 L1335 342.794 L1335 338.534 L1343.26 336.868 L1347.94 336.868 L1347.94 367.493 L1355.57 367.493 L1355.57 371.428 L1335.67 371.428 L1335.67 367.493 Z" fill="#000000" fill-rule="nonzero" fill-opacity="1" /><path clip-path="url(#clip170)" d="M1375.02 339.946 Q1371.41 339.946 1369.58 343.511 Q1367.77 347.053 1367.77 354.182 Q1367.77 361.289 1369.58 364.854 Q1371.41 368.395 1375.02 368.395 Q1378.65 368.395 1380.46 364.854 Q1382.29 361.289 1382.29 354.182 Q1382.29 347.053 1380.46 343.511 Q1378.65 339.946 1375.02 339.946 M1375.02 336.243 Q1380.83 336.243 1383.88 340.849 Q1386.96 345.432 1386.96 354.182 Q1386.96 362.909 1383.88 367.516 Q1380.83 372.099 1375.02 372.099 Q1369.21 372.099 1366.13 367.516 Q1363.07 362.909 1363.07 354.182 Q1363.07 345.432 1366.13 340.849 Q1369.21 336.243 1375.02 336.243 Z" fill="#000000" fill-rule="nonzero" fill-opacity="1" /><path clip-path="url(#clip170)" d="M1396.67 318.439 Q1393.73 318.439 1392.25 321.335 Q1390.78 324.213 1390.78 330.005 Q1390.78 335.779 1392.25 338.676 Q1393.73 341.553 1396.67 341.553 Q1399.62 341.553 1401.09 338.676 Q1402.57 335.779 1402.57 330.005 Q1402.57 324.213 1401.09 321.335 Q1399.62 318.439 1396.67 318.439 M1396.67 315.429 Q1401.39 315.429 1403.87 319.172 Q1406.37 322.896 1406.37 330.005 Q1406.37 337.096 1403.87 340.839 Q1401.39 344.563 1396.67 344.563 Q1391.95 344.563 1389.45 340.839 Q1386.96 337.096 1386.96 330.005 Q1386.96 322.896 1389.45 319.172 Q1391.95 315.429 1396.67 315.429 Z" fill="#000000" fill-rule="nonzero" fill-opacity="1" /><path clip-path="url(#clip170)" d="M1338.36 225.353 L1346 225.353 L1346 198.987 L1337.69 200.654 L1337.69 196.395 L1345.95 194.728 L1350.62 194.728 L1350.62 225.353 L1358.26 225.353 L1358.26 229.288 L1338.36 229.288 L1338.36 225.353 Z" fill="#000000" fill-rule="nonzero" fill-opacity="1" /><path clip-path="url(#clip170)" d="M1377.71 197.807 Q1374.1 197.807 1372.27 201.371 Q1370.46 204.913 1370.46 212.043 Q1370.46 219.149 1372.27 222.714 Q1374.1 226.256 1377.71 226.256 Q1381.34 226.256 1383.15 222.714 Q1384.98 219.149 1384.98 212.043 Q1384.98 204.913 1383.15 201.371 Q1381.34 197.807 1377.71 197.807 M1377.71 194.103 Q1383.52 194.103 1386.57 198.709 Q1389.65 203.293 1389.65 212.043 Q1389.65 220.769 1386.57 225.376 Q1383.52 229.959 1377.71 229.959 Q1371.9 229.959 1368.82 225.376 Q1365.76 220.769 1365.76 212.043 Q1365.76 203.293 1368.82 198.709 Q1371.9 194.103 1377.71 194.103 Z" fill="#000000" fill-rule="nonzero" fill-opacity="1" /><path clip-path="url(#clip170)" d="M1390.2 198.68 L1396.4 198.68 L1396.4 177.258 L1389.65 178.612 L1389.65 175.152 L1396.37 173.798 L1400.17 173.798 L1400.17 198.68 L1406.37 198.68 L1406.37 201.878 L1390.2 201.878 L1390.2 198.68 Z" fill="#000000" fill-rule="nonzero" fill-opacity="1" /><path clip-path="url(#clip170)" d="M1337.25 83.213 L1344.89 83.213 L1344.89 56.8474 L1336.58 58.514 L1336.58 54.2548 L1344.84 52.5881 L1349.52 52.5881 L1349.52 83.213 L1357.15 83.213 L1357.15 87.1481 L1337.25 87.1481 L1337.25 83.213 Z" fill="#000000" fill-rule="nonzero" fill-opacity="1" /><path clip-path="url(#clip170)" d="M1376.6 55.6668 Q1372.99 55.6668 1371.16 59.2316 Q1369.35 62.7733 1369.35 69.9029 Q1369.35 77.0093 1371.16 80.5741 Q1372.99 84.1157 1376.6 84.1157 Q1380.23 84.1157 1382.04 80.5741 Q1383.87 77.0093 1383.87 69.9029 Q1383.87 62.7733 1382.04 59.2316 Q1380.23 55.6668 1376.6 55.6668 M1376.6 51.9631 Q1382.41 51.9631 1385.46 56.5696 Q1388.54 61.1529 1388.54 69.9029 Q1388.54 78.6297 1385.46 83.2361 Q1382.41 87.8194 1376.6 87.8194 Q1370.79 87.8194 1367.71 83.2361 Q1364.65 78.6297 1364.65 69.9029 Q1364.65 61.1529 1367.71 56.5696 Q1370.79 51.9631 1376.6 51.9631 Z" fill="#000000" fill-rule="nonzero" fill-opacity="1" /><path clip-path="url(#clip170)" d="M1393.11 56.5404 L1406.37 56.5404 L1406.37 59.7377 L1388.54 59.7377 L1388.54 56.5404 Q1390.71 54.3023 1394.43 50.5407 Q1398.17 46.7604 1399.13 45.6695 Q1400.96 43.6195 1401.67 42.2089 Q1402.4 40.7795 1402.4 39.4065 Q1402.4 37.1684 1400.82 35.7578 Q1399.26 34.3473 1396.74 34.3473 Q1394.96 34.3473 1392.96 34.9679 Q1390.99 35.5886 1388.73 36.8487 L1388.73 33.0119 Q1391.03 32.0903 1393.02 31.6201 Q1395.01 31.1499 1396.67 31.1499 Q1401.03 31.1499 1403.63 33.3316 Q1406.22 35.5133 1406.22 39.162 Q1406.22 40.8924 1405.56 42.4534 Q1404.92 43.9956 1403.21 46.1021 Q1402.74 46.6475 1400.22 49.2618 Q1397.7 51.8573 1393.11 56.5404 Z" fill="#000000" fill-rule="nonzero" fill-opacity="1" /><polyline clip-path="url(#clip173)" style="stroke:#009af9; stroke-linecap:round; stroke-linejoin:round; stroke-width:5.2; stroke-opacity:1; fill:none" points="2297.94,415.518 2317.37,433.277 2317.39,447.051 2317.4,458.306 2317.41,467.822 2317.42,476.065 2317.43,483.336 2317.43,489.84 2317.44,495.723 2317.45,501.095 2317.46,506.036 2317.47,510.61 2317.48,514.869 2317.49,518.853 2317.49,522.596 2317.5,526.124 2317.51,529.462 2317.52,532.628 2317.52,535.64 2317.53,538.512 2317.54,541.256 2317.55,543.883 2317.55,546.403 2317.56,548.824 2317.57,551.154 2317.58,553.399 2317.58,555.565 2317.59,557.658 2317.6,559.682 2317.6,561.642 2317.61,563.541 2317.62,565.384 2317.63,567.174 2317.63,568.913 2317.64,570.604 2317.65,572.25 2317.66,573.854 2317.66,575.416 2317.67,576.941 2317.68,578.428 2317.69,579.881 2317.7,581.3 2317.7,582.687 2317.71,584.044 2317.72,585.372 2326.57,586.671 2326.59,587.944 2326.6,589.191 2326.61,590.414 2326.62,591.612 2326.62,592.788 2326.63,593.942 2326.64,595.075 2326.64,596.187 2326.65,597.28 2326.66,598.353 2326.67,599.409 2326.67,600.446 2326.68,601.466 2326.69,602.47 2326.69,603.458 2326.7,604.43 2326.71,605.387 2326.72,606.33 2326.72,607.258 2326.73,608.172 2326.74,609.074 2326.75,609.962 2326.76,610.837 2326.77,611.701 2326.77,612.552 2326.78,613.392 2326.79,614.221 2326.79,615.038 2326.8,615.845 2326.81,616.642 2326.81,617.428 2326.82,618.205 2326.83,618.972 2326.83,619.729 2326.84,620.477 2326.85,621.217 2326.86,621.947 2326.86,622.669 2326.87,623.383 2326.88,624.088 2326.89,624.786 2326.9,625.476 2326.9,626.158 2326.91,626.832 2326.92,627.5 2326.93,628.16 2326.93,628.813 2326.94,629.46 2326.95,630.099 2326.95,630.732 2326.96,631.359 2326.97,631.98 2326.98,631.371 2326.99,631.371 "/>
<polyline clip-path="url(#clip173)" style="stroke:#e26f46; stroke-linecap:round; stroke-linejoin:round; stroke-width:5.2; stroke-opacity:1; fill:none" points="2262.95,64.3535 2263.09,64.3535 "/>
<polyline clip-path="url(#clip173)" style="stroke:#3da44d; stroke-linecap:round; stroke-linejoin:round; stroke-width:5.2; stroke-opacity:1; fill:none" points="1749.71,415.518 1751.17,433.277 1752.04,447.051 1752.79,458.306 1753.55,467.822 1754.33,476.065 1754.97,483.336 1755.61,489.84 1756.22,495.723 1756.86,501.095 1757.52,506.036 1758.15,510.61 1758.79,514.869 1759.42,518.853 1760.06,522.596 1760.7,526.124 1761.33,529.462 1761.94,532.628 1762.58,535.64 1763.22,538.512 1763.85,541.256 1764.46,543.883 1765.07,546.403 1766.09,548.824 1766.77,551.154 1767.41,553.399 1768.04,555.565 1768.64,557.658 1769.26,559.682 1769.87,561.642 1770.45,563.541 1771.07,565.384 1771.66,567.174 1772.29,568.913 1772.87,570.604 1773.46,572.25 1774.04,573.854 1774.65,575.416 1775.28,576.941 1775.88,578.428 1776.5,579.881 1777.1,581.3 1777.72,582.687 1778.31,584.044 1778.94,585.372 1779.54,586.671 1780.14,587.944 1780.74,589.191 1781.36,590.414 1781.98,591.612 1782.57,592.788 1783.2,593.942 1783.8,595.075 1784.41,596.187 1785.01,597.28 1785.61,598.353 1786.22,599.409 1786.82,600.446 1787.44,601.466 1788.28,602.47 1788.93,603.458 1789.55,604.43 1790.16,605.387 1790.82,606.33 1791.43,607.258 1792.06,608.172 1792.67,609.074 1793.28,609.962 1793.89,610.837 1794.51,611.701 1795.11,612.552 1795.72,613.392 1796.35,614.221 1796.95,615.038 1797.58,615.845 1798.19,616.642 1798.8,617.428 1799.41,618.205 1800.03,618.972 1800.65,619.729 1801.26,620.477 1801.87,621.217 1802.49,621.947 1803.13,622.669 1803.73,623.383 1804.35,624.088 1804.95,624.786 1805.57,625.476 1806.18,626.158 1806.8,626.832 1807.67,627.5 1808.35,628.16 1808.98,628.813 1809.61,629.46 1810.23,630.099 1810.86,630.732 1811.48,631.359 1812.1,631.98 1812.75,631.98 1816.97,631.98 "/>
<polyline clip-path="url(#clip173)" style="stroke:#c271d2; stroke-linecap:round; stroke-linejoin:round; stroke-width:5.2; stroke-opacity:1; fill:none" points="1468.14,64.2752 1480.98,64.2752 "/>
<path clip-path="url(#clip170)" d="M267.527 1423.86 L1177.91 1423.86 L1177.91 822.09 L267.527 822.09  Z" fill="#ffffff" fill-rule="evenodd" fill-opacity="1"/>
<defs>
  <clipPath id="clip174">
    <rect x="267" y="822" width="911" height="603"/>
  </clipPath>
</defs>
<path clip-path="url(#clip170)" d="Mnan nan Lnan nan Lnan nan Lnan nan Lnan nan Lnan nan Lnan nan Lnan nan Lnan nan Lnan nan Lnan nan Lnan nan Z" fill="#000000" fill-rule="nonzero" fill-opacity="1" /><path clip-path="url(#clip170)" d="Mnan nan Qnan nan nan nan Qnan nan nan nan Qnan nan nan nan Qnan nan nan nan Qnan nan nan nan Qnan nan nan nan Qnan nan nan nan Qnan nan nan nan Mnan nan Qnan nan nan nan Qnan nan nan nan Qnan nan nan nan Qnan nan nan nan Qnan nan nan nan Qnan nan nan nan Qnan nan nan nan Qnan nan nan nan Z" fill="#000000" fill-rule="nonzero" fill-opacity="1" /><path clip-path="url(#clip170)" d="Mnan nan Lnan nan Lnan nan Lnan nan Lnan nan Lnan nan Lnan nan Lnan nan Lnan nan Lnan nan Lnan nan Lnan nan Z" fill="#000000" fill-rule="nonzero" fill-opacity="1" /><path clip-path="url(#clip170)" d="Mnan nan Lnan nan Lnan nan Lnan nan Lnan nan Lnan nan Lnan nan Lnan nan Lnan nan Lnan nan Lnan nan Lnan nan Z" fill="#000000" fill-rule="nonzero" fill-opacity="1" /><path clip-path="url(#clip170)" d="Mnan nan Qnan nan nan nan Qnan nan nan nan Qnan nan nan nan Qnan nan nan nan Qnan nan nan nan Qnan nan nan nan Qnan nan nan nan Qnan nan nan nan Mnan nan Qnan nan nan nan Qnan nan nan nan Qnan nan nan nan Qnan nan nan nan Qnan nan nan nan Qnan nan nan nan Qnan nan nan nan Qnan nan nan nan Z" fill="#000000" fill-rule="nonzero" fill-opacity="1" /><path clip-path="url(#clip170)" d="Mnan nan Lnan nan Lnan nan Lnan nan Lnan nan Qnan nan nan nan Qnan nan nan nan Qnan nan nan nan Qnan nan nan nan Qnan nan nan nan Qnan nan nan nan Qnan nan nan nan Qnan nan nan nan Lnan nan Qnan nan nan nan Qnan nan nan nan Qnan nan nan nan Qnan nan nan nan Qnan nan nan nan Qnan nan nan nan Qnan nan nan nan Qnan nan nan nan Z" fill="#000000" fill-rule="nonzero" fill-opacity="1" /><path clip-path="url(#clip170)" d="M613.309 1537.03 L617.985 1537.03 L617.985 1571.59 L613.309 1571.59 L613.309 1537.03 Z" fill="#000000" fill-rule="nonzero" fill-opacity="1" /><path clip-path="url(#clip170)" d="M631.318 1538.31 L631.318 1545.67 L640.091 1545.67 L640.091 1548.98 L631.318 1548.98 L631.318 1563.05 Q631.318 1566.22 632.175 1567.13 Q633.054 1568.03 635.716 1568.03 L640.091 1568.03 L640.091 1571.59 L635.716 1571.59 Q630.786 1571.59 628.911 1569.76 Q627.036 1567.91 627.036 1563.05 L627.036 1548.98 L623.911 1548.98 L623.911 1545.67 L627.036 1545.67 L627.036 1538.31 L631.318 1538.31 Z" fill="#000000" fill-rule="nonzero" fill-opacity="1" /><path clip-path="url(#clip170)" d="M667.869 1557.57 L667.869 1559.65 L648.286 1559.65 Q648.564 1564.05 650.925 1566.36 Q653.309 1568.65 657.545 1568.65 Q659.999 1568.65 662.29 1568.05 Q664.605 1567.45 666.874 1566.25 L666.874 1570.27 Q664.582 1571.25 662.175 1571.76 Q659.767 1572.26 657.29 1572.26 Q651.087 1572.26 647.452 1568.65 Q643.841 1565.04 643.841 1558.89 Q643.841 1552.52 647.267 1548.79 Q650.716 1545.04 656.55 1545.04 Q661.781 1545.04 664.813 1548.42 Q667.869 1551.78 667.869 1557.57 M663.61 1556.32 Q663.563 1552.82 661.642 1550.74 Q659.744 1548.65 656.596 1548.65 Q653.031 1548.65 650.878 1550.67 Q648.749 1552.68 648.425 1556.34 L663.61 1556.32 Z" fill="#000000" fill-rule="nonzero" fill-opacity="1" /><path clip-path="url(#clip170)" d="M689.883 1549.65 Q689.165 1549.23 688.309 1549.05 Q687.475 1548.84 686.457 1548.84 Q682.846 1548.84 680.901 1551.2 Q678.98 1553.54 678.98 1557.94 L678.98 1571.59 L674.698 1571.59 L674.698 1545.67 L678.98 1545.67 L678.98 1549.7 Q680.323 1547.33 682.475 1546.2 Q684.628 1545.04 687.707 1545.04 Q688.147 1545.04 688.679 1545.11 Q689.211 1545.16 689.86 1545.27 L689.883 1549.65 Z" fill="#000000" fill-rule="nonzero" fill-opacity="1" /><path clip-path="url(#clip170)" d="M706.133 1558.56 Q700.971 1558.56 698.98 1559.74 Q696.989 1560.92 696.989 1563.77 Q696.989 1566.04 698.471 1567.38 Q699.975 1568.7 702.545 1568.7 Q706.086 1568.7 708.216 1566.2 Q710.369 1563.68 710.369 1559.51 L710.369 1558.56 L706.133 1558.56 M714.628 1556.8 L714.628 1571.59 L710.369 1571.59 L710.369 1567.66 Q708.91 1570.02 706.735 1571.15 Q704.559 1572.26 701.411 1572.26 Q697.429 1572.26 695.068 1570.04 Q692.73 1567.8 692.73 1564.05 Q692.73 1559.67 695.647 1557.45 Q698.586 1555.23 704.397 1555.23 L710.369 1555.23 L710.369 1554.81 Q710.369 1551.87 708.424 1550.27 Q706.503 1548.65 703.008 1548.65 Q700.786 1548.65 698.679 1549.19 Q696.573 1549.72 694.628 1550.78 L694.628 1546.85 Q696.966 1545.95 699.165 1545.51 Q701.364 1545.04 703.448 1545.04 Q709.073 1545.04 711.85 1547.96 Q714.628 1550.88 714.628 1556.8 Z" fill="#000000" fill-rule="nonzero" fill-opacity="1" /><path clip-path="url(#clip170)" d="M727.614 1538.31 L727.614 1545.67 L736.387 1545.67 L736.387 1548.98 L727.614 1548.98 L727.614 1563.05 Q727.614 1566.22 728.471 1567.13 Q729.35 1568.03 732.012 1568.03 L736.387 1568.03 L736.387 1571.59 L732.012 1571.59 Q727.082 1571.59 725.207 1569.76 Q723.332 1567.91 723.332 1563.05 L723.332 1548.98 L720.207 1548.98 L720.207 1545.67 L723.332 1545.67 L723.332 1538.31 L727.614 1538.31 Z" fill="#000000" fill-rule="nonzero" fill-opacity="1" /><path clip-path="url(#clip170)" d="M741.989 1545.67 L746.248 1545.67 L746.248 1571.59 L741.989 1571.59 L741.989 1545.67 M741.989 1535.58 L746.248 1535.58 L746.248 1540.97 L741.989 1540.97 L741.989 1535.58 Z" fill="#000000" fill-rule="nonzero" fill-opacity="1" /><path clip-path="url(#clip170)" d="M765.206 1548.65 Q761.781 1548.65 759.79 1551.34 Q757.799 1554 757.799 1558.65 Q757.799 1563.31 759.767 1565.99 Q761.757 1568.65 765.206 1568.65 Q768.609 1568.65 770.6 1565.97 Q772.591 1563.28 772.591 1558.65 Q772.591 1554.05 770.6 1551.36 Q768.609 1548.65 765.206 1548.65 M765.206 1545.04 Q770.762 1545.04 773.933 1548.65 Q777.105 1552.26 777.105 1558.65 Q777.105 1565.02 773.933 1568.65 Q770.762 1572.26 765.206 1572.26 Q759.628 1572.26 756.457 1568.65 Q753.308 1565.02 753.308 1558.65 Q753.308 1552.26 756.457 1548.65 Q759.628 1545.04 765.206 1545.04 Z" fill="#000000" fill-rule="nonzero" fill-opacity="1" /><path clip-path="url(#clip170)" d="M805.716 1555.95 L805.716 1571.59 L801.456 1571.59 L801.456 1556.08 Q801.456 1552.4 800.021 1550.58 Q798.586 1548.75 795.716 1548.75 Q792.266 1548.75 790.276 1550.95 Q788.285 1553.14 788.285 1556.94 L788.285 1571.59 L784.003 1571.59 L784.003 1545.67 L788.285 1545.67 L788.285 1549.7 Q789.813 1547.36 791.873 1546.2 Q793.956 1545.04 796.665 1545.04 Q801.132 1545.04 803.424 1547.82 Q805.716 1550.58 805.716 1555.95 Z" fill="#000000" fill-rule="nonzero" fill-opacity="1" /><path clip-path="url(#clip170)" d="M830.739 1546.43 L830.739 1550.46 Q828.933 1549.53 826.989 1549.07 Q825.044 1548.61 822.961 1548.61 Q819.79 1548.61 818.192 1549.58 Q816.618 1550.55 816.618 1552.5 Q816.618 1553.98 817.752 1554.83 Q818.887 1555.67 822.313 1556.43 L823.771 1556.76 Q828.308 1557.73 830.206 1559.51 Q832.127 1561.27 832.127 1564.44 Q832.127 1568.05 829.257 1570.16 Q826.41 1572.26 821.41 1572.26 Q819.327 1572.26 817.058 1571.85 Q814.813 1571.45 812.313 1570.64 L812.313 1566.25 Q814.674 1567.47 816.965 1568.1 Q819.257 1568.7 821.502 1568.7 Q824.512 1568.7 826.132 1567.68 Q827.752 1566.64 827.752 1564.76 Q827.752 1563.03 826.572 1562.1 Q825.414 1561.18 821.456 1560.32 L819.975 1559.97 Q816.016 1559.14 814.257 1557.43 Q812.498 1555.69 812.498 1552.68 Q812.498 1549.02 815.09 1547.03 Q817.683 1545.04 822.452 1545.04 Q824.813 1545.04 826.896 1545.39 Q828.979 1545.74 830.739 1546.43 Z" fill="#000000" fill-rule="nonzero" fill-opacity="1" /><path clip-path="url(#clip170)" d="Mnan nan Lnan nan Lnan nan Lnan nan Lnan nan Lnan nan Lnan nan Lnan nan Lnan nan Lnan nan Lnan nan Lnan nan Z" fill="#000000" fill-rule="nonzero" fill-opacity="1" /><path clip-path="url(#clip170)" d="Mnan nan Qnan nan nan nan Qnan nan nan nan Qnan nan nan nan Qnan nan nan nan Qnan nan nan nan Qnan nan nan nan Qnan nan nan nan Qnan nan nan nan Mnan nan Qnan nan nan nan Qnan nan nan nan Qnan nan nan nan Qnan nan nan nan Qnan nan nan nan Qnan nan nan nan Qnan nan nan nan Qnan nan nan nan Z" fill="#000000" fill-rule="nonzero" fill-opacity="1" /><path clip-path="url(#clip170)" d="Mnan nan Lnan nan Lnan nan Lnan nan Lnan nan Z" fill="#000000" fill-rule="nonzero" fill-opacity="1" /><path clip-path="url(#clip170)" d="Mnan nan Lnan nan Lnan nan Lnan nan Lnan nan Z" fill="#000000" fill-rule="nonzero" fill-opacity="1" /><path clip-path="url(#clip170)" d="Mnan nan Lnan nan Lnan nan Lnan nan Qnan nan nan nan Qnan nan nan nan Qnan nan nan nan Qnan nan nan nan Lnan nan Lnan nan Lnan nan Lnan nan Lnan nan Qnan nan nan nan Qnan nan nan nan Qnan nan nan nan Qnan nan nan nan Z" fill="#000000" fill-rule="nonzero" fill-opacity="1" /><path clip-path="url(#clip170)" d="Mnan nan Lnan nan Lnan nan Qnan nan nan nan Qnan nan nan nan Lnan nan Lnan nan Lnan nan Lnan nan Lnan nan Lnan nan Lnan nan Lnan nan Lnan nan Lnan nan Lnan nan Qnan nan nan nan Qnan nan nan nan Lnan nan Z" fill="#000000" fill-rule="nonzero" fill-opacity="1" /><path clip-path="url(#clip170)" d="M20.3722 1208.57 L20.3722 1188.71 L24.3073 1188.71 L24.3073 1203.9 L34.4925 1203.9 L34.4925 1190.2 L38.4276 1190.2 L38.4276 1203.9 L54.9322 1203.9 L54.9322 1208.57 L20.3722 1208.57 Z" fill="#000000" fill-rule="nonzero" fill-opacity="1" /><path clip-path="url(#clip170)" d="M20.3722 1184.39 L20.3722 1179.66 L49.585 1172.39 L20.3722 1165.15 L20.3722 1159.89 L49.585 1152.63 L20.3722 1145.38 L20.3722 1140.64 L54.9322 1149.32 L54.9322 1155.2 L24.9323 1162.49 L54.9322 1169.85 L54.9322 1175.73 L20.3722 1184.39 Z" fill="#000000" fill-rule="nonzero" fill-opacity="1" /><path clip-path="url(#clip170)" d="M41.6683 1102.49 Q37.0387 1102.49 34.4925 1104.41 Q31.9462 1106.31 31.9462 1109.76 Q31.9462 1113.18 34.4925 1115.1 Q37.0387 1117 41.6683 1117 Q46.2748 1117 48.8211 1115.1 Q51.3674 1113.18 51.3674 1109.76 Q51.3674 1106.31 48.8211 1104.41 Q46.2748 1102.49 41.6683 1102.49 M51.7146 1098.23 Q58.3349 1098.23 61.5525 1101.17 Q64.7932 1104.11 64.7932 1110.17 Q64.7932 1112.42 64.446 1114.41 Q64.1219 1116.4 63.4275 1118.27 L59.284 1118.27 Q60.3025 1116.4 60.7886 1114.57 Q61.2747 1112.74 61.2747 1110.84 Q61.2747 1106.65 59.0757 1104.57 Q56.8997 1102.49 52.4785 1102.49 L50.372 1102.49 Q52.6637 1103.81 53.7979 1105.87 Q54.9322 1107.93 54.9322 1110.8 Q54.9322 1115.57 51.2979 1118.48 Q47.6637 1121.4 41.6683 1121.4 Q35.6499 1121.4 32.0156 1118.48 Q28.3814 1115.57 28.3814 1110.8 Q28.3814 1107.93 29.5156 1105.87 Q30.6499 1103.81 32.9415 1102.49 L29.0064 1102.49 L29.0064 1098.23 L51.7146 1098.23 Z" fill="#000000" fill-rule="nonzero" fill-opacity="1" /><path clip-path="url(#clip170)" d="M41.8998 1077.67 Q41.8998 1082.83 43.0804 1084.83 Q44.2609 1086.82 47.1081 1086.82 Q49.3766 1086.82 50.7192 1085.33 Q52.0387 1083.83 52.0387 1081.26 Q52.0387 1077.72 49.5387 1075.59 Q47.0155 1073.44 42.8489 1073.44 L41.8998 1073.44 L41.8998 1077.67 M40.1406 1069.18 L54.9322 1069.18 L54.9322 1073.44 L50.997 1073.44 Q53.3581 1074.89 54.4923 1077.07 Q55.6035 1079.25 55.6035 1082.39 Q55.6035 1086.38 53.3812 1088.74 Q51.1359 1091.08 47.3859 1091.08 Q43.0109 1091.08 40.7887 1088.16 Q38.5665 1085.22 38.5665 1079.41 L38.5665 1073.44 L38.1498 1073.44 Q35.21 1073.44 33.6128 1075.38 Q31.9925 1077.3 31.9925 1080.8 Q31.9925 1083.02 32.5249 1085.13 Q33.0573 1087.23 34.1221 1089.18 L30.1869 1089.18 Q29.2841 1086.84 28.8443 1084.64 Q28.3814 1082.44 28.3814 1080.36 Q28.3814 1074.73 31.298 1071.96 Q34.2147 1069.18 40.1406 1069.18 Z" fill="#000000" fill-rule="nonzero" fill-opacity="1" /><path clip-path="url(#clip170)" d="M51.0433 1056.28 L64.7932 1056.28 L64.7932 1060.57 L29.0064 1060.57 L29.0064 1056.28 L32.9415 1056.28 Q30.6267 1054.94 29.5156 1052.9 Q28.3814 1050.84 28.3814 1048 Q28.3814 1043.27 32.1314 1040.33 Q35.8813 1037.37 41.9924 1037.37 Q48.1035 1037.37 51.8535 1040.33 Q55.6035 1043.27 55.6035 1048 Q55.6035 1050.84 54.4923 1052.9 Q53.3581 1054.94 51.0433 1056.28 M41.9924 1041.79 Q37.2934 1041.79 34.6313 1043.74 Q31.9462 1045.66 31.9462 1049.04 Q31.9462 1052.42 34.6313 1054.36 Q37.2934 1056.28 41.9924 1056.28 Q46.6915 1056.28 49.3766 1054.36 Q52.0387 1052.42 52.0387 1049.04 Q52.0387 1045.66 49.3766 1043.74 Q46.6915 1041.79 41.9924 1041.79 Z" fill="#000000" fill-rule="nonzero" fill-opacity="1" /><polyline clip-path="url(#clip174)" style="stroke:#009af9; stroke-linecap:round; stroke-linejoin:round; stroke-width:5.2; stroke-opacity:1; fill:none" points="1350.88,1165.33 1402.64,1190.36 1439.36,1208.12 1467.84,1221.9 1491.11,1233.15 1510.79,1242.67 1527.83,1250.91 1542.87,1258.18 1556.31,1264.69 1568.48,1270.57 1579.59,1275.94 1589.8,1280.88 1599.26,1285.46 1608.07,1289.72 1616.31,1293.7 1624.04,1297.44 1631.34,1300.97 1638.24,1304.31 1644.79,1307.47 1651.02,1310.49 1656.95,1313.36 1662.63,1316.1 1668.06,1318.73 1673.27,1321.25 1678.28,1323.67 1683.09,1326 1687.74,1328.24 1692.22,1330.41 1696.54,1332.5 1700.73,1334.53 1704.78,1336.49 1708.71,1338.39 1712.52,1340.23 1716.22,1342.02 1719.81,1343.76 1723.31,1345.45 1726.72,1347.1 1730.03,1348.7 1733.26,1350.26 1736.41,1351.79 1739.49,1353.27 1742.49,1354.73 1745.43,1356.15 1748.3,1357.53 1751.1,1358.89 1753.85,1360.22 1756.53,1361.52 1759.17,1362.79 1761.74,1364.04 1764.27,1365.26 1766.75,1366.46 1769.18,1367.63 1771.57,1368.79 1773.91,1369.92 1776.21,1371.03 1778.47,1372.13 1780.69,1373.2 1782.87,1374.25 1785.02,1375.29 1787.13,1376.31 1789.2,1377.32 1791.24,1378.3 1793.25,1379.28 1795.23,1380.23 1797.18,1381.18 1799.1,1382.1 1800.99,1383.02 1802.86,1383.92 1804.69,1384.81 1806.5,1385.68 1808.29,1386.55 1810.05,1387.4 1811.79,1388.24 1813.5,1389.07 1815.19,1389.88 1816.86,1390.69 1818.5,1391.49 1820.13,1392.27 1821.74,1393.05 1823.32,1393.82 1824.89,1394.58 1826.44,1395.32 1827.96,1396.06 1829.47,1396.79 1830.97,1397.52 1832.44,1398.23 1833.9,1398.93 1835.34,1399.63 1836.77,1400.32 1838.18,1401 1839.58,1401.68 1840.96,1402.35 1842.32,1403.01 1843.67,1403.66 1845.01,1404.31 1846.33,1404.95 1847.64,1405.58 1848.94,1406.21 1850.22,3504.92 1850.22,1648.63 "/>
<polyline clip-path="url(#clip174)" style="stroke:#3da44d; stroke-linecap:round; stroke-linejoin:round; stroke-width:5.2; stroke-opacity:1; fill:none" points="1350.88,1165.33 1402.64,1190.36 1439.36,1208.12 1467.84,1221.9 1491.11,1233.15 1510.79,1242.67 1527.83,1250.91 1542.87,1258.18 1556.31,1264.69 1568.48,1270.57 1579.59,1275.94 1589.8,1280.88 1599.26,1285.46 1608.07,1289.72 1616.31,1293.7 1624.04,1297.44 1631.34,1300.97 1638.24,1304.31 1644.79,1307.47 1651.02,1310.49 1656.95,1313.36 1662.63,1316.1 1668.06,1318.73 1673.27,1321.25 1678.28,1323.67 1683.09,1326 1687.74,1328.24 1692.22,1330.41 1696.54,1332.5 1700.73,1334.53 1704.78,1336.49 1708.71,1338.39 1712.52,1340.23 1716.22,1342.02 1719.81,1343.76 1723.31,1345.45 1726.72,1347.1 1730.03,1348.7 1733.26,1350.26 1736.41,1351.79 1739.49,1353.27 1742.49,1354.73 1745.43,1356.15 1748.3,1357.53 1751.1,1358.89 1753.85,1360.22 1756.53,1361.52 1759.17,1362.79 1761.74,1364.04 1764.27,1365.26 1766.75,1366.46 1769.18,1367.63 1771.57,1368.79 1773.91,1369.92 1776.21,1371.03 1778.47,1372.13 1780.69,1373.2 1782.87,1374.25 1785.02,1375.29 1787.13,1376.31 1789.2,1377.32 1791.24,1378.3 1793.25,1379.28 1795.23,1380.23 1797.18,1381.18 1799.1,1382.1 1800.99,1383.02 1802.86,1383.92 1804.69,1384.81 1806.5,1385.68 1808.29,1386.55 1810.05,1387.4 1811.79,1388.24 1813.5,1389.07 1815.19,1389.88 1816.86,1390.69 1818.5,1391.49 1820.13,1392.27 1821.74,1393.05 1823.32,1393.82 1824.89,1394.58 1826.44,1395.32 1827.96,1396.06 1829.47,1396.79 1830.97,1397.52 1832.44,1398.23 1833.9,1398.93 1835.34,1399.63 1836.77,1400.32 1838.18,1401 1839.58,1401.68 1840.96,1402.35 1842.32,1403.01 1843.67,1403.66 1845.01,1404.31 1846.33,1404.95 1847.64,1405.58 1848.94,1406.21 1850.22,3511.42 1850.22,3504.92 "/>
<path clip-path="url(#clip170)" d="M1442.37 1423.86 L2352.76 1423.86 L2352.76 822.09 L1442.37 822.09  Z" fill="#ffffff" fill-rule="evenodd" fill-opacity="1"/>
<defs>
  <clipPath id="clip175">
    <rect x="1442" y="822" width="911" height="603"/>
  </clipPath>
</defs>
<path clip-path="url(#clip170)" d="Mnan nan Lnan nan Lnan nan Lnan nan Lnan nan Lnan nan Lnan nan Lnan nan Lnan nan Lnan nan Lnan nan Lnan nan Z" fill="#000000" fill-rule="nonzero" fill-opacity="1" /><path clip-path="url(#clip170)" d="Mnan nan Qnan nan nan nan Qnan nan nan nan Qnan nan nan nan Qnan nan nan nan Qnan nan nan nan Qnan nan nan nan Qnan nan nan nan Qnan nan nan nan Mnan nan Qnan nan nan nan Qnan nan nan nan Qnan nan nan nan Qnan nan nan nan Qnan nan nan nan Qnan nan nan nan Qnan nan nan nan Qnan nan nan nan Z" fill="#000000" fill-rule="nonzero" fill-opacity="1" /><path clip-path="url(#clip170)" d="Mnan nan Lnan nan Lnan nan Lnan nan Lnan nan Z" fill="#000000" fill-rule="nonzero" fill-opacity="1" /><path clip-path="url(#clip170)" d="Mnan nan Qnan nan nan nan Qnan nan nan nan Qnan nan nan nan Qnan nan nan nan Qnan nan nan nan Qnan nan nan nan Lnan nan Qnan nan nan nan Qnan nan nan nan Qnan nan nan nan Qnan nan nan nan Qnan nan nan nan Qnan nan nan nan Lnan nan Lnan nan Lnan nan Qnan nan nan nan Qnan nan nan nan Qnan nan nan nan Qnan nan nan nan Qnan nan nan nan Qnan nan nan nan Lnan nan Qnan nan nan nan Qnan nan nan nan Qnan nan nan nan Qnan nan nan nan Qnan nan nan nan Qnan nan nan nan Z" fill="#000000" fill-rule="nonzero" fill-opacity="1" /><path clip-path="url(#clip170)" d="Mnan nan Lnan nan Lnan nan Lnan nan Lnan nan Lnan nan Lnan nan Lnan nan Lnan nan Lnan nan Lnan nan Lnan nan Z" fill="#000000" fill-rule="nonzero" fill-opacity="1" /><path clip-path="url(#clip170)" d="Mnan nan Qnan nan nan nan Qnan nan nan nan Qnan nan nan nan Qnan nan nan nan Qnan nan nan nan Qnan nan nan nan Qnan nan nan nan Qnan nan nan nan Mnan nan Qnan nan nan nan Qnan nan nan nan Qnan nan nan nan Qnan nan nan nan Qnan nan nan nan Qnan nan nan nan Qnan nan nan nan Qnan nan nan nan Z" fill="#000000" fill-rule="nonzero" fill-opacity="1" /><path clip-path="url(#clip170)" d="Mnan nan Lnan nan Lnan nan Lnan nan Lnan nan Z" fill="#000000" fill-rule="nonzero" fill-opacity="1" /><path clip-path="url(#clip170)" d="Mnan nan Lnan nan Lnan nan Lnan nan Lnan nan Qnan nan nan nan Qnan nan nan nan Qnan nan nan nan Qnan nan nan nan Qnan nan nan nan Qnan nan nan nan Qnan nan nan nan Qnan nan nan nan Lnan nan Qnan nan nan nan Qnan nan nan nan Qnan nan nan nan Qnan nan nan nan Qnan nan nan nan Qnan nan nan nan Qnan nan nan nan Qnan nan nan nan Z" fill="#000000" fill-rule="nonzero" fill-opacity="1" /><path clip-path="url(#clip170)" d="Mnan nan Lnan nan Lnan nan Lnan nan Lnan nan Lnan nan Lnan nan Lnan nan Lnan nan Lnan nan Lnan nan Lnan nan Z" fill="#000000" fill-rule="nonzero" fill-opacity="1" /><path clip-path="url(#clip170)" d="Mnan nan Qnan nan nan nan Qnan nan nan nan Qnan nan nan nan Qnan nan nan nan Qnan nan nan nan Qnan nan nan nan Qnan nan nan nan Qnan nan nan nan Mnan nan Qnan nan nan nan Qnan nan nan nan Qnan nan nan nan Qnan nan nan nan Qnan nan nan nan Qnan nan nan nan Qnan nan nan nan Qnan nan nan nan Z" fill="#000000" fill-rule="nonzero" fill-opacity="1" /><path clip-path="url(#clip170)" d="Mnan nan Lnan nan Lnan nan Lnan nan Lnan nan Z" fill="#000000" fill-rule="nonzero" fill-opacity="1" /><path clip-path="url(#clip170)" d="Mnan nan Lnan nan Lnan nan Lnan nan Lnan nan Lnan nan Lnan nan Lnan nan Lnan nan Lnan nan Lnan nan Lnan nan Z" fill="#000000" fill-rule="nonzero" fill-opacity="1" /><path clip-path="url(#clip170)" d="M1803.14 1537.03 L1832.38 1537.03 L1832.38 1540.97 L1820.11 1540.97 L1820.11 1571.59 L1815.41 1571.59 L1815.41 1540.97 L1803.14 1540.97 L1803.14 1537.03 Z" fill="#000000" fill-rule="nonzero" fill-opacity="1" /><path clip-path="url(#clip170)" d="M1835.25 1545.67 L1839.51 1545.67 L1839.51 1571.59 L1835.25 1571.59 L1835.25 1545.67 M1835.25 1535.58 L1839.51 1535.58 L1839.51 1540.97 L1835.25 1540.97 L1835.25 1535.58 Z" fill="#000000" fill-rule="nonzero" fill-opacity="1" /><path clip-path="url(#clip170)" d="M1868.61 1550.64 Q1870.2 1547.77 1872.43 1546.41 Q1874.65 1545.04 1877.66 1545.04 Q1881.71 1545.04 1883.91 1547.89 Q1886.11 1550.71 1886.11 1555.95 L1886.11 1571.59 L1881.82 1571.59 L1881.82 1556.08 Q1881.82 1552.36 1880.5 1550.55 Q1879.18 1548.75 1876.48 1548.75 Q1873.17 1548.75 1871.24 1550.95 Q1869.32 1553.14 1869.32 1556.94 L1869.32 1571.59 L1865.04 1571.59 L1865.04 1556.08 Q1865.04 1552.33 1863.72 1550.55 Q1862.4 1548.75 1859.65 1548.75 Q1856.38 1548.75 1854.46 1550.97 Q1852.54 1553.17 1852.54 1556.94 L1852.54 1571.59 L1848.26 1571.59 L1848.26 1545.67 L1852.54 1545.67 L1852.54 1549.7 Q1854 1547.31 1856.04 1546.18 Q1858.07 1545.04 1860.87 1545.04 Q1863.7 1545.04 1865.67 1546.48 Q1867.66 1547.91 1868.61 1550.64 Z" fill="#000000" fill-rule="nonzero" fill-opacity="1" /><path clip-path="url(#clip170)" d="M1916.78 1557.57 L1916.78 1559.65 L1897.19 1559.65 Q1897.47 1564.05 1899.83 1566.36 Q1902.22 1568.65 1906.45 1568.65 Q1908.91 1568.65 1911.2 1568.05 Q1913.51 1567.45 1915.78 1566.25 L1915.78 1570.27 Q1913.49 1571.25 1911.08 1571.76 Q1908.68 1572.26 1906.2 1572.26 Q1899.99 1572.26 1896.36 1568.65 Q1892.75 1565.04 1892.75 1558.89 Q1892.75 1552.52 1896.18 1548.79 Q1899.62 1545.04 1905.46 1545.04 Q1910.69 1545.04 1913.72 1548.42 Q1916.78 1551.78 1916.78 1557.57 M1912.52 1556.32 Q1912.47 1552.82 1910.55 1550.74 Q1908.65 1548.65 1905.5 1548.65 Q1901.94 1548.65 1899.79 1550.67 Q1897.66 1552.68 1897.33 1556.34 L1912.52 1556.32 Z" fill="#000000" fill-rule="nonzero" fill-opacity="1" /><path clip-path="url(#clip170)" d="M1949.07 1535.62 Q1945.97 1540.95 1944.46 1546.15 Q1942.96 1551.36 1942.96 1556.71 Q1942.96 1562.06 1944.46 1567.31 Q1945.99 1572.54 1949.07 1577.84 L1945.36 1577.84 Q1941.89 1572.4 1940.16 1567.15 Q1938.44 1561.89 1938.44 1556.71 Q1938.44 1551.55 1940.16 1546.32 Q1941.87 1541.08 1945.36 1535.62 L1949.07 1535.62 Z" fill="#000000" fill-rule="nonzero" fill-opacity="1" /><path clip-path="url(#clip170)" d="M1973.86 1546.43 L1973.86 1550.46 Q1972.05 1549.53 1970.11 1549.07 Q1968.17 1548.61 1966.08 1548.61 Q1962.91 1548.61 1961.31 1549.58 Q1959.74 1550.55 1959.74 1552.5 Q1959.74 1553.98 1960.87 1554.83 Q1962.01 1555.67 1965.43 1556.43 L1966.89 1556.76 Q1971.43 1557.73 1973.33 1559.51 Q1975.25 1561.27 1975.25 1564.44 Q1975.25 1568.05 1972.38 1570.16 Q1969.53 1572.26 1964.53 1572.26 Q1962.45 1572.26 1960.18 1571.85 Q1957.93 1571.45 1955.43 1570.64 L1955.43 1566.25 Q1957.8 1567.47 1960.09 1568.1 Q1962.38 1568.7 1964.62 1568.7 Q1967.63 1568.7 1969.25 1567.68 Q1970.87 1566.64 1970.87 1564.76 Q1970.87 1563.03 1969.69 1562.1 Q1968.54 1561.18 1964.58 1560.32 L1963.1 1559.97 Q1959.14 1559.14 1957.38 1557.43 Q1955.62 1555.69 1955.62 1552.68 Q1955.62 1549.02 1958.21 1547.03 Q1960.8 1545.04 1965.57 1545.04 Q1967.93 1545.04 1970.02 1545.39 Q1972.1 1545.74 1973.86 1546.43 Z" fill="#000000" fill-rule="nonzero" fill-opacity="1" /><path clip-path="url(#clip170)" d="M1981.36 1535.62 L1985.06 1535.62 Q1988.54 1541.08 1990.25 1546.32 Q1991.99 1551.55 1991.99 1556.71 Q1991.99 1561.89 1990.25 1567.15 Q1988.54 1572.4 1985.06 1577.84 L1981.36 1577.84 Q1984.44 1572.54 1985.94 1567.31 Q1987.47 1562.06 1987.47 1556.71 Q1987.47 1551.36 1985.94 1546.15 Q1984.44 1540.95 1981.36 1535.62 Z" fill="#000000" fill-rule="nonzero" fill-opacity="1" /><path clip-path="url(#clip170)" d="Mnan nan Lnan nan Lnan nan Lnan nan Lnan nan Lnan nan Lnan nan Lnan nan Lnan nan Lnan nan Lnan nan Lnan nan Z" fill="#000000" fill-rule="nonzero" fill-opacity="1" /><path clip-path="url(#clip170)" d="Mnan nan Qnan nan nan nan Qnan nan nan nan Qnan nan nan nan Qnan nan nan nan Qnan nan nan nan Qnan nan nan nan Qnan nan nan nan Qnan nan nan nan Mnan nan Qnan nan nan nan Qnan nan nan nan Qnan nan nan nan Qnan nan nan nan Qnan nan nan nan Qnan nan nan nan Qnan nan nan nan Qnan nan nan nan Z" fill="#000000" fill-rule="nonzero" fill-opacity="1" /><path clip-path="url(#clip170)" d="Mnan nan Lnan nan Lnan nan Lnan nan Lnan nan Z" fill="#000000" fill-rule="nonzero" fill-opacity="1" /><path clip-path="url(#clip170)" d="Mnan nan Lnan nan Lnan nan Lnan nan Lnan nan Z" fill="#000000" fill-rule="nonzero" fill-opacity="1" /><path clip-path="url(#clip170)" d="Mnan nan Lnan nan Lnan nan Lnan nan Qnan nan nan nan Qnan nan nan nan Qnan nan nan nan Qnan nan nan nan Lnan nan Lnan nan Lnan nan Lnan nan Lnan nan Qnan nan nan nan Qnan nan nan nan Qnan nan nan nan Qnan nan nan nan Z" fill="#000000" fill-rule="nonzero" fill-opacity="1" /><path clip-path="url(#clip170)" d="Mnan nan Lnan nan Lnan nan Qnan nan nan nan Qnan nan nan nan Lnan nan Lnan nan Lnan nan Lnan nan Lnan nan Lnan nan Lnan nan Lnan nan Lnan nan Lnan nan Lnan nan Qnan nan nan nan Qnan nan nan nan Lnan nan Z" fill="#000000" fill-rule="nonzero" fill-opacity="1" /><polyline clip-path="url(#clip175)" style="stroke:#009af9; stroke-linecap:round; stroke-linejoin:round; stroke-width:5.2; stroke-opacity:1; fill:none" points="2297.94,1165.33 2317.37,1190.36 2317.39,1208.12 2317.4,1221.9 2317.41,1233.15 2317.42,1242.67 2317.43,1250.91 2317.43,1258.18 2317.44,1264.69 2317.45,1270.57 2317.46,1275.94 2317.47,1280.88 2317.48,1285.46 2317.49,1289.72 2317.49,1293.7 2317.5,1297.44 2317.51,1300.97 2317.52,1304.31 2317.52,1307.47 2317.53,1310.49 2317.54,1313.36 2317.55,1316.1 2317.55,1318.73 2317.56,1321.25 2317.57,1323.67 2317.58,1326 2317.58,1328.24 2317.59,1330.41 2317.6,1332.5 2317.6,1334.53 2317.61,1336.49 2317.62,1338.39 2317.63,1340.23 2317.63,1342.02 2317.64,1343.76 2317.65,1345.45 2317.66,1347.1 2317.66,1348.7 2317.67,1350.26 2317.68,1351.79 2317.69,1353.27 2317.7,1354.73 2317.7,1356.15 2317.71,1357.53 2317.72,1358.89 2326.57,1360.22 2326.59,1361.52 2326.6,1362.79 2326.61,1364.04 2326.62,1365.26 2326.62,1366.46 2326.63,1367.63 2326.64,1368.79 2326.64,1369.92 2326.65,1371.03 2326.66,1372.13 2326.67,1373.2 2326.67,1374.25 2326.68,1375.29 2326.69,1376.31 2326.69,1377.32 2326.7,1378.3 2326.71,1379.28 2326.72,1380.23 2326.72,1381.18 2326.73,1382.1 2326.74,1383.02 2326.75,1383.92 2326.76,1384.81 2326.77,1385.68 2326.77,1386.55 2326.78,1387.4 2326.79,1388.24 2326.79,1389.07 2326.8,1389.88 2326.81,1390.69 2326.81,1391.49 2326.82,1392.27 2326.83,1393.05 2326.83,1393.82 2326.84,1394.58 2326.85,1395.32 2326.86,1396.06 2326.86,1396.79 2326.87,1397.52 2326.88,1398.23 2326.89,1398.93 2326.9,1399.63 2326.9,1400.32 2326.91,1401 2326.92,1401.68 2326.93,1402.35 2326.93,1403.01 2326.94,1403.66 2326.95,1404.31 2326.95,1404.95 2326.96,1405.58 2326.97,1406.21 2326.98,3504.92 2326.99,1648.63 "/>
<polyline clip-path="url(#clip175)" style="stroke:#3da44d; stroke-linecap:round; stroke-linejoin:round; stroke-width:5.2; stroke-opacity:1; fill:none" points="1749.71,1165.33 1751.17,1190.36 1752.04,1208.12 1752.79,1221.9 1753.55,1233.15 1754.33,1242.67 1754.97,1250.91 1755.61,1258.18 1756.22,1264.69 1756.86,1270.57 1757.52,1275.94 1758.15,1280.88 1758.79,1285.46 1759.42,1289.72 1760.06,1293.7 1760.7,1297.44 1761.33,1300.97 1761.94,1304.31 1762.58,1307.47 1763.22,1310.49 1763.85,1313.36 1764.46,1316.1 1765.07,1318.73 1766.09,1321.25 1766.77,1323.67 1767.41,1326 1768.04,1328.24 1768.64,1330.41 1769.26,1332.5 1769.87,1334.53 1770.45,1336.49 1771.07,1338.39 1771.66,1340.23 1772.29,1342.02 1772.87,1343.76 1773.46,1345.45 1774.04,1347.1 1774.65,1348.7 1775.28,1350.26 1775.88,1351.79 1776.5,1353.27 1777.1,1354.73 1777.72,1356.15 1778.31,1357.53 1778.94,1358.89 1779.54,1360.22 1780.14,1361.52 1780.74,1362.79 1781.36,1364.04 1781.98,1365.26 1782.57,1366.46 1783.2,1367.63 1783.8,1368.79 1784.41,1369.92 1785.01,1371.03 1785.61,1372.13 1786.22,1373.2 1786.82,1374.25 1787.44,1375.29 1788.28,1376.31 1788.93,1377.32 1789.55,1378.3 1790.16,1379.28 1790.82,1380.23 1791.43,1381.18 1792.06,1382.1 1792.67,1383.02 1793.28,1383.92 1793.89,1384.81 1794.51,1385.68 1795.11,1386.55 1795.72,1387.4 1796.35,1388.24 1796.95,1389.07 1797.58,1389.88 1798.19,1390.69 1798.8,1391.49 1799.41,1392.27 1800.03,1393.05 1800.65,1393.82 1801.26,1394.58 1801.87,1395.32 1802.49,1396.06 1803.13,1396.79 1803.73,1397.52 1804.35,1398.23 1804.95,1398.93 1805.57,1399.63 1806.18,1400.32 1806.8,1401 1807.67,1401.68 1808.35,1402.35 1808.98,1403.01 1809.61,1403.66 1810.23,1404.31 1810.86,1404.95 1811.48,1405.58 1812.1,1406.21 1812.75,3511.42 1816.97,3504.92 "/>
</svg>
