<?xml version="1.0" encoding="utf-8"?>
<svg xmlns="http://www.w3.org/2000/svg" xmlns:xlink="http://www.w3.org/1999/xlink" width="600" height="400" viewBox="0 0 2400 1600">
<defs>
  <clipPath id="clip390">
    <rect x="0" y="0" width="2400" height="1600"/>
  </clipPath>
</defs>
<path clip-path="url(#clip390)" d="M0 1600 L2400 1600 L2400 0 L0 0  Z" fill="#ffffff" fill-rule="evenodd" fill-opacity="1"/>
<defs>
  <clipPath id="clip391">
    <rect x="480" y="0" width="1681" height="1600"/>
  </clipPath>
</defs>
<path clip-path="url(#clip390)" d="M147.478 1408.13 L2112.76 1408.13 L2112.76 125.558 L147.478 125.558  Z" fill="#ffffff" fill-rule="evenodd" fill-opacity="1"/>
<defs>
  <clipPath id="clip392">
    <rect x="147" y="125" width="1966" height="1284"/>
  </clipPath>
</defs>
<polyline clip-path="url(#clip392)" style="stroke:#000000; stroke-linecap:round; stroke-linejoin:round; stroke-width:2; stroke-opacity:0.1; fill:none" points="222.634,1408.13 222.634,125.558 "/>
<polyline clip-path="url(#clip392)" style="stroke:#000000; stroke-linecap:round; stroke-linejoin:round; stroke-width:2; stroke-opacity:0.1; fill:none" points="525.128,1408.13 525.128,125.558 "/>
<polyline clip-path="url(#clip392)" style="stroke:#000000; stroke-linecap:round; stroke-linejoin:round; stroke-width:2; stroke-opacity:0.1; fill:none" points="827.623,1408.13 827.623,125.558 "/>
<polyline clip-path="url(#clip392)" style="stroke:#000000; stroke-linecap:round; stroke-linejoin:round; stroke-width:2; stroke-opacity:0.1; fill:none" points="1130.12,1408.13 1130.12,125.558 "/>
<polyline clip-path="url(#clip392)" style="stroke:#000000; stroke-linecap:round; stroke-linejoin:round; stroke-width:2; stroke-opacity:0.1; fill:none" points="1432.61,1408.13 1432.61,125.558 "/>
<polyline clip-path="url(#clip392)" style="stroke:#000000; stroke-linecap:round; stroke-linejoin:round; stroke-width:2; stroke-opacity:0.1; fill:none" points="1735.11,1408.13 1735.11,125.558 "/>
<polyline clip-path="url(#clip392)" style="stroke:#000000; stroke-linecap:round; stroke-linejoin:round; stroke-width:2; stroke-opacity:0.1; fill:none" points="2037.6,1408.13 2037.6,125.558 "/>
<polyline clip-path="url(#clip392)" style="stroke:#000000; stroke-linecap:round; stroke-linejoin:round; stroke-width:2; stroke-opacity:0.1; fill:none" points="147.478,1371.83 2112.76,1371.83 "/>
<polyline clip-path="url(#clip392)" style="stroke:#000000; stroke-linecap:round; stroke-linejoin:round; stroke-width:2; stroke-opacity:0.1; fill:none" points="147.478,1069.34 2112.76,1069.34 "/>
<polyline clip-path="url(#clip392)" style="stroke:#000000; stroke-linecap:round; stroke-linejoin:round; stroke-width:2; stroke-opacity:0.1; fill:none" points="147.478,766.846 2112.76,766.846 "/>
<polyline clip-path="url(#clip392)" style="stroke:#000000; stroke-linecap:round; stroke-linejoin:round; stroke-width:2; stroke-opacity:0.1; fill:none" points="147.478,464.352 2112.76,464.352 "/>
<polyline clip-path="url(#clip392)" style="stroke:#000000; stroke-linecap:round; stroke-linejoin:round; stroke-width:2; stroke-opacity:0.1; fill:none" points="147.478,161.858 2112.76,161.858 "/>
<polyline clip-path="url(#clip390)" style="stroke:#000000; stroke-linecap:round; stroke-linejoin:round; stroke-width:4; stroke-opacity:1; fill:none" points="147.478,1069.34 2112.76,1069.34 "/>
<polyline clip-path="url(#clip390)" style="stroke:#000000; stroke-linecap:round; stroke-linejoin:round; stroke-width:4; stroke-opacity:0; fill:none" points="222.634,1069.34 222.634,1069.34 "/>
<polyline clip-path="url(#clip390)" style="stroke:#000000; stroke-linecap:round; stroke-linejoin:round; stroke-width:4; stroke-opacity:0; fill:none" points="525.128,1069.34 525.128,1069.34 "/>
<polyline clip-path="url(#clip390)" style="stroke:#000000; stroke-linecap:round; stroke-linejoin:round; stroke-width:4; stroke-opacity:0; fill:none" points="827.623,1069.34 827.623,1069.34 "/>
<polyline clip-path="url(#clip390)" style="stroke:#000000; stroke-linecap:round; stroke-linejoin:round; stroke-width:4; stroke-opacity:0; fill:none" points="1130.12,1069.34 1130.12,1069.34 "/>
<polyline clip-path="url(#clip390)" style="stroke:#000000; stroke-linecap:round; stroke-linejoin:round; stroke-width:4; stroke-opacity:0; fill:none" points="1432.61,1069.34 1432.61,1069.34 "/>
<polyline clip-path="url(#clip390)" style="stroke:#000000; stroke-linecap:round; stroke-linejoin:round; stroke-width:4; stroke-opacity:0; fill:none" points="1735.11,1069.34 1735.11,1069.34 "/>
<polyline clip-path="url(#clip390)" style="stroke:#000000; stroke-linecap:round; stroke-linejoin:round; stroke-width:4; stroke-opacity:0; fill:none" points="2037.6,1069.34 2037.6,1069.34 "/>
<path clip-path="url(#clip390)" d="M192.577 1453.71 L222.252 1453.71 L222.252 1457.64 L192.577 1457.64 L192.577 1453.71 Z" fill="#000000" fill-rule="nonzero" fill-opacity="1" /><path clip-path="url(#clip390)" d="M236.373 1466.6 L252.692 1466.6 L252.692 1470.53 L230.748 1470.53 L230.748 1466.6 Q233.41 1463.84 237.993 1459.21 Q242.599 1454.56 243.78 1453.22 Q246.025 1450.7 246.905 1448.96 Q247.808 1447.2 247.808 1445.51 Q247.808 1442.76 245.863 1441.02 Q243.942 1439.28 240.84 1439.28 Q238.641 1439.28 236.187 1440.05 Q233.757 1440.81 230.979 1442.36 L230.979 1437.64 Q233.803 1436.51 236.257 1435.93 Q238.711 1435.35 240.748 1435.35 Q246.118 1435.35 249.312 1438.03 Q252.507 1440.72 252.507 1445.21 Q252.507 1447.34 251.697 1449.26 Q250.91 1451.16 248.803 1453.75 Q248.224 1454.42 245.123 1457.64 Q242.021 1460.83 236.373 1466.6 Z" fill="#000000" fill-rule="nonzero" fill-opacity="1" /><path clip-path="url(#clip390)" d="M494.886 1453.71 L524.561 1453.71 L524.561 1457.64 L494.886 1457.64 L494.886 1453.71 Z" fill="#000000" fill-rule="nonzero" fill-opacity="1" /><path clip-path="url(#clip390)" d="M535.464 1466.6 L543.103 1466.6 L543.103 1440.23 L534.793 1441.9 L534.793 1437.64 L543.057 1435.97 L547.733 1435.97 L547.733 1466.6 L555.371 1466.6 L555.371 1470.53 L535.464 1470.53 L535.464 1466.6 Z" fill="#000000" fill-rule="nonzero" fill-opacity="1" /><path clip-path="url(#clip390)" d="M827.623 1439.05 Q824.012 1439.05 822.183 1442.62 Q820.377 1446.16 820.377 1453.29 Q820.377 1460.39 822.183 1463.96 Q824.012 1467.5 827.623 1467.5 Q831.257 1467.5 833.062 1463.96 Q834.891 1460.39 834.891 1453.29 Q834.891 1446.16 833.062 1442.62 Q831.257 1439.05 827.623 1439.05 M827.623 1435.35 Q833.433 1435.35 836.488 1439.96 Q839.567 1444.54 839.567 1453.29 Q839.567 1462.02 836.488 1466.62 Q833.433 1471.21 827.623 1471.21 Q821.813 1471.21 818.734 1466.62 Q815.678 1462.02 815.678 1453.29 Q815.678 1444.54 818.734 1439.96 Q821.813 1435.35 827.623 1435.35 Z" fill="#000000" fill-rule="nonzero" fill-opacity="1" /><path clip-path="url(#clip390)" d="M1120.5 1466.6 L1128.14 1466.6 L1128.14 1440.23 L1119.83 1441.9 L1119.83 1437.64 L1128.09 1435.97 L1132.77 1435.97 L1132.77 1466.6 L1140.41 1466.6 L1140.41 1470.53 L1120.5 1470.53 L1120.5 1466.6 Z" fill="#000000" fill-rule="nonzero" fill-opacity="1" /><path clip-path="url(#clip390)" d="M1427.26 1466.6 L1443.58 1466.6 L1443.58 1470.53 L1421.64 1470.53 L1421.64 1466.6 Q1424.3 1463.84 1428.88 1459.21 Q1433.49 1454.56 1434.67 1453.22 Q1436.92 1450.7 1437.8 1448.96 Q1438.7 1447.2 1438.7 1445.51 Q1438.7 1442.76 1436.75 1441.02 Q1434.83 1439.28 1431.73 1439.28 Q1429.53 1439.28 1427.08 1440.05 Q1424.65 1440.81 1421.87 1442.36 L1421.87 1437.64 Q1424.69 1436.51 1427.15 1435.93 Q1429.6 1435.35 1431.64 1435.35 Q1437.01 1435.35 1440.2 1438.03 Q1443.4 1440.72 1443.4 1445.21 Q1443.4 1447.34 1442.59 1449.26 Q1441.8 1451.16 1439.69 1453.75 Q1439.12 1454.42 1436.01 1457.64 Q1432.91 1460.83 1427.26 1466.6 Z" fill="#000000" fill-rule="nonzero" fill-opacity="1" /><path clip-path="url(#clip390)" d="M1739.35 1451.9 Q1742.71 1452.62 1744.58 1454.89 Q1746.48 1457.15 1746.48 1460.49 Q1746.48 1465.6 1742.96 1468.4 Q1739.45 1471.21 1732.96 1471.21 Q1730.79 1471.21 1728.47 1470.77 Q1726.18 1470.35 1723.73 1469.49 L1723.73 1464.98 Q1725.67 1466.11 1727.99 1466.69 Q1730.3 1467.27 1732.83 1467.27 Q1737.22 1467.27 1739.52 1465.53 Q1741.83 1463.8 1741.83 1460.49 Q1741.83 1457.43 1739.68 1455.72 Q1737.55 1453.98 1733.73 1453.98 L1729.7 1453.98 L1729.7 1450.14 L1733.91 1450.14 Q1737.36 1450.14 1739.19 1448.77 Q1741.02 1447.39 1741.02 1444.79 Q1741.02 1442.13 1739.12 1440.72 Q1737.25 1439.28 1733.73 1439.28 Q1731.81 1439.28 1729.61 1439.7 Q1727.41 1440.12 1724.77 1441 L1724.77 1436.83 Q1727.43 1436.09 1729.75 1435.72 Q1732.08 1435.35 1734.14 1435.35 Q1739.47 1435.35 1742.57 1437.78 Q1745.67 1440.19 1745.67 1444.31 Q1745.67 1447.18 1744.03 1449.17 Q1742.39 1451.14 1739.35 1451.9 Z" fill="#000000" fill-rule="nonzero" fill-opacity="1" /><path clip-path="url(#clip390)" d="M2040.61 1440.05 L2028.8 1458.5 L2040.61 1458.5 L2040.61 1440.05 M2039.38 1435.97 L2045.26 1435.97 L2045.26 1458.5 L2050.19 1458.5 L2050.19 1462.39 L2045.26 1462.39 L2045.26 1470.53 L2040.61 1470.53 L2040.61 1462.39 L2025.01 1462.39 L2025.01 1457.87 L2039.38 1435.97 Z" fill="#000000" fill-rule="nonzero" fill-opacity="1" /><polyline clip-path="url(#clip390)" style="stroke:#000000; stroke-linecap:round; stroke-linejoin:round; stroke-width:4; stroke-opacity:1; fill:none" points="827.623,1408.13 827.623,125.558 "/>
<polyline clip-path="url(#clip390)" style="stroke:#000000; stroke-linecap:round; stroke-linejoin:round; stroke-width:4; stroke-opacity:0; fill:none" points="827.623,1371.83 827.623,1371.83 "/>
<polyline clip-path="url(#clip390)" style="stroke:#000000; stroke-linecap:round; stroke-linejoin:round; stroke-width:4; stroke-opacity:0; fill:none" points="827.623,1069.34 827.623,1069.34 "/>
<polyline clip-path="url(#clip390)" style="stroke:#000000; stroke-linecap:round; stroke-linejoin:round; stroke-width:4; stroke-opacity:0; fill:none" points="827.623,766.846 827.623,766.846 "/>
<polyline clip-path="url(#clip390)" style="stroke:#000000; stroke-linecap:round; stroke-linejoin:round; stroke-width:4; stroke-opacity:0; fill:none" points="827.623,464.352 827.623,464.352 "/>
<polyline clip-path="url(#clip390)" style="stroke:#000000; stroke-linecap:round; stroke-linejoin:round; stroke-width:4; stroke-opacity:0; fill:none" points="827.623,161.858 827.623,161.858 "/>
<path clip-path="url(#clip390)" d="M50.9921 1372.29 L80.6679 1372.29 L80.6679 1376.22 L50.9921 1376.22 L50.9921 1372.29 Z" fill="#000000" fill-rule="nonzero" fill-opacity="1" /><path clip-path="url(#clip390)" d="M91.5706 1385.18 L99.2095 1385.18 L99.2095 1358.81 L90.8993 1360.48 L90.8993 1356.22 L99.1632 1354.55 L103.839 1354.55 L103.839 1385.18 L111.478 1385.18 L111.478 1389.11 L91.5706 1389.11 L91.5706 1385.18 Z" fill="#000000" fill-rule="nonzero" fill-opacity="1" /><path clip-path="url(#clip390)" d="M99.5335 1055.14 Q95.9224 1055.14 94.0937 1058.7 Q92.2882 1062.25 92.2882 1069.37 Q92.2882 1076.48 94.0937 1080.05 Q95.9224 1083.59 99.5335 1083.59 Q103.168 1083.59 104.973 1080.05 Q106.802 1076.48 106.802 1069.37 Q106.802 1062.25 104.973 1058.7 Q103.168 1055.14 99.5335 1055.14 M99.5335 1051.44 Q105.344 1051.44 108.399 1056.04 Q111.478 1060.62 111.478 1069.37 Q111.478 1078.1 108.399 1082.71 Q105.344 1087.29 99.5335 1087.29 Q93.7234 1087.29 90.6447 1082.71 Q87.5892 1078.1 87.5892 1069.37 Q87.5892 1060.62 90.6447 1056.04 Q93.7234 1051.44 99.5335 1051.44 Z" fill="#000000" fill-rule="nonzero" fill-opacity="1" /><path clip-path="url(#clip390)" d="M91.5706 780.191 L99.2095 780.191 L99.2095 753.825 L90.8993 755.492 L90.8993 751.233 L99.1632 749.566 L103.839 749.566 L103.839 780.191 L111.478 780.191 L111.478 784.126 L91.5706 784.126 L91.5706 780.191 Z" fill="#000000" fill-rule="nonzero" fill-opacity="1" /><path clip-path="url(#clip390)" d="M95.1586 477.697 L111.478 477.697 L111.478 481.632 L89.5336 481.632 L89.5336 477.697 Q92.1956 474.942 96.7789 470.312 Q101.385 465.66 102.566 464.317 Q104.811 461.794 105.691 460.058 Q106.594 458.299 106.594 456.609 Q106.594 453.854 104.649 452.118 Q102.728 450.382 99.6261 450.382 Q97.4271 450.382 94.9734 451.146 Q92.5428 451.91 89.7651 453.461 L89.7651 448.738 Q92.5891 447.604 95.0428 447.025 Q97.4965 446.447 99.5335 446.447 Q104.904 446.447 108.098 449.132 Q111.293 451.817 111.293 456.308 Q111.293 458.437 110.483 460.359 Q109.696 462.257 107.589 464.849 Q107.01 465.521 103.909 468.738 Q100.807 471.933 95.1586 477.697 Z" fill="#000000" fill-rule="nonzero" fill-opacity="1" /><path clip-path="url(#clip390)" d="M104.348 160.503 Q107.705 161.221 109.58 163.489 Q111.478 165.758 111.478 169.091 Q111.478 174.207 107.959 177.008 Q104.441 179.809 97.9595 179.809 Q95.7836 179.809 93.4688 179.369 Q91.1771 178.952 88.7234 178.096 L88.7234 173.582 Q90.6678 174.716 92.9826 175.295 Q95.2974 175.874 97.8206 175.874 Q102.219 175.874 104.51 174.138 Q106.825 172.401 106.825 169.091 Q106.825 166.036 104.672 164.323 Q102.543 162.587 98.7234 162.587 L94.6956 162.587 L94.6956 158.744 L98.9085 158.744 Q102.358 158.744 104.186 157.378 Q106.015 155.99 106.015 153.397 Q106.015 150.735 104.117 149.323 Q102.242 147.888 98.7234 147.888 Q96.8021 147.888 94.603 148.304 Q92.4039 148.721 89.7651 149.601 L89.7651 145.434 Q92.4271 144.693 94.7419 144.323 Q97.0798 143.953 99.14 143.953 Q104.464 143.953 107.566 146.383 Q110.668 148.79 110.668 152.911 Q110.668 155.781 109.024 157.772 Q107.381 159.739 104.348 160.503 Z" fill="#000000" fill-rule="nonzero" fill-opacity="1" /><path clip-path="url(#clip392)" d="M525.128 1371.83 L525.128 1371.83 L585.627 1371.83 L646.126 1371.83 L706.625 1371.83 L767.124 1371.83 L827.623 1371.83 L888.122 1371.83 L948.62 1371.83 L1009.12 1371.83 L1069.62 1371.83 L1130.12 1371.83 L1190.62 1371.83 L1251.11 1371.83 L1311.61 1371.83 L1372.11 1371.83 L1432.61 1371.83 L1493.11 1371.83 L1553.61 1371.83 L1614.11 1371.83 L1674.61 1371.83 L1735.11 1371.83 L1735.11 1371.83 L1735.11 1371.83 L1735.11 1371.83 L1735.11 1311.34 L1735.11 1250.84 L1735.11 1190.34 L1735.11 1129.84 L1735.11 1069.34 L1735.11 1008.84 L1735.11 948.343 L1735.11 887.844 L1735.11 827.345 L1735.11 766.846 L1735.11 706.347 L1735.11 645.848 L1735.11 585.349 L1735.11 524.851 L1735.11 464.352 L1735.11 403.853 L1735.11 343.354 L1735.11 282.855 L1735.11 222.356 L1735.11 161.858 L1735.11 161.858 L1735.11 161.858 L1735.11 161.858 L1674.61 161.858 L1614.11 161.858 L1553.61 161.858 L1493.11 161.858 L1432.61 161.858 L1372.11 161.858 L1311.61 161.858 L1251.11 161.858 L1190.62 161.858 L1130.12 161.858 L1069.62 161.858 L1009.12 161.858 L948.62 161.858 L888.122 161.858 L827.623 161.858 L767.124 161.858 L706.625 161.858 L646.126 161.858 L585.627 161.858 L525.128 161.858 L525.128 161.858 L525.128 161.858 L525.128 161.858 L525.128 222.356 L525.128 282.855 L525.128 343.354 L525.128 403.853 L525.128 464.352 L525.128 524.851 L525.128 585.349 L525.128 645.848 L525.128 706.347 L525.128 766.846 L525.128 827.345 L525.128 887.844 L525.128 948.343 L525.128 1008.84 L525.128 1069.34 L525.128 1129.84 L525.128 1190.34 L525.128 1250.84 L525.128 1311.34 L525.128 1371.83 L525.128 1371.83 L525.128 1371.83  Z" fill="#000003" fill-rule="evenodd" fill-opacity="1"/>
<path clip-path="url(#clip392)" d="M525.128 1371.83 L525.128 1371.83 L585.627 1371.83 L646.126 1371.83 L706.625 1371.83 L767.124 1371.83 L827.623 1371.83 L888.122 1371.83 L948.62 1371.83 L1009.12 1371.83 L1069.62 1371.83 L1130.12 1371.83 L1190.62 1371.83 L1251.11 1371.83 L1311.61 1371.83 L1372.11 1371.83 L1432.61 1371.83 L1493.11 1371.83 L1553.61 1371.83 L1614.11 1371.83 L1674.61 1371.83 L1735.11 1371.83 L1735.11 1371.83 L1735.11 1371.83 L1735.11 1371.83 L1735.11 1311.34 L1735.11 1311.34 L1735.11 1287.39 L1674.61 1272.26 L1623.18 1250.84 L1614.11 1246.3 L1553.61 1203.95 L1538.48 1190.34 L1493.11 1139.29 L1486.24 1129.84 L1453.24 1069.34 L1432.61 1012.62 L1431.45 1008.84 L1422.14 948.343 L1422.14 887.844 L1431.45 827.345 L1432.61 823.564 L1453.24 766.846 L1486.24 706.347 L1493.11 696.894 L1538.48 645.848 L1553.61 632.236 L1614.11 589.887 L1623.18 585.349 L1674.61 563.923 L1735.11 548.798 L1735.11 585.349 L1735.11 524.851 L1735.11 464.352 L1735.11 403.853 L1735.11 343.354 L1735.11 282.855 L1735.11 222.356 L1735.11 161.858 L1735.11 161.858 L1735.11 161.858 L1735.11 161.858 L1674.61 161.858 L1614.11 161.858 L1553.61 161.858 L1493.11 161.858 L1432.61 161.858 L1372.11 161.858 L1311.61 161.858 L1251.11 161.858 L1190.62 161.858 L1130.12 161.858 L1069.62 161.858 L1009.12 161.858 L948.62 161.858 L888.122 161.858 L827.623 161.858 L767.124 161.858 L706.625 161.858 L646.126 161.858 L585.627 161.858 L525.128 161.858 L525.128 161.858 L525.128 161.858 L525.128 161.858 L525.128 222.356 L525.128 282.855 L525.128 343.354 L525.128 403.853 L525.128 464.352 L525.128 524.851 L525.128 585.349 L525.128 645.848 L525.128 706.347 L525.128 766.846 L525.128 827.345 L525.128 887.844 L525.128 948.343 L525.128 1008.84 L525.128 1069.34 L525.128 1129.84 L525.128 1190.34 L525.128 1250.84 L525.128 1311.34 L525.128 1371.83 L525.128 1371.83 L525.128 1371.83  Z" fill="#0b0726" fill-rule="evenodd" fill-opacity="1"/>
<path clip-path="url(#clip392)" d="M525.128 1371.83 L525.128 1371.83 L585.627 1371.83 L646.126 1371.83 L706.625 1371.83 L767.124 1371.83 L827.623 1371.83 L888.122 1371.83 L948.62 1371.83 L1009.12 1371.83 L1069.62 1371.83 L1130.12 1371.83 L1190.62 1371.83 L1251.11 1371.83 L1311.61 1371.83 L1372.11 1371.83 L1432.61 1371.83 L1493.11 1371.83 L1493.11 1371.83 L1530.08 1371.83 L1493.11 1348.07 L1446.36 1311.34 L1432.61 1298.73 L1388.4 1250.84 L1372.11 1229.66 L1345.9 1190.34 L1313.63 1129.84 L1311.61 1124.8 L1292.04 1069.34 L1277.81 1008.84 L1270.69 948.343 L1270.69 887.844 L1277.81 827.345 L1292.04 766.846 L1311.61 711.389 L1313.63 706.347 L1345.9 645.848 L1372.11 606.524 L1388.4 585.349 L1432.61 537.455 L1446.36 524.851 L1493.11 488.119 L1530.08 464.352 L1553.61 451.118 L1614.11 424.649 L1674.61 405.744 L1684.69 403.853 L1735.11 395.45 L1735.11 403.853 L1735.11 343.354 L1735.11 282.855 L1735.11 222.356 L1735.11 161.858 L1735.11 161.858 L1735.11 161.858 L1735.11 161.858 L1674.61 161.858 L1614.11 161.858 L1553.61 161.858 L1493.11 161.858 L1432.61 161.858 L1372.11 161.858 L1311.61 161.858 L1251.11 161.858 L1190.62 161.858 L1130.12 161.858 L1069.62 161.858 L1009.12 161.858 L948.62 161.858 L888.122 161.858 L827.623 161.858 L767.124 161.858 L706.625 161.858 L646.126 161.858 L585.627 161.858 L525.128 161.858 L525.128 161.858 L525.128 161.858 L525.128 161.858 L525.128 222.356 L525.128 282.855 L525.128 343.354 L525.128 403.853 L525.128 464.352 L525.128 524.851 L525.128 585.349 L525.128 645.848 L525.128 706.347 L525.128 766.846 L525.128 827.345 L525.128 887.844 L525.128 948.343 L525.128 1008.84 L525.128 1069.34 L525.128 1129.84 L525.128 1190.34 L525.128 1250.84 L525.128 1311.34 L525.128 1371.83 L525.128 1371.83 L525.128 1371.83  Z" fill="#240b4e" fill-rule="evenodd" fill-opacity="1"/>
<path clip-path="url(#clip392)" d="M525.128 1371.83 L525.128 1371.83 L585.627 1371.83 L646.126 1371.83 L706.625 1371.83 L767.124 1371.83 L827.623 1371.83 L888.122 1371.83 L948.62 1371.83 L1009.12 1371.83 L1069.62 1371.83 L1130.12 1371.83 L1190.62 1371.83 L1251.11 1371.83 L1311.61 1371.83 L1311.61 1371.83 L1340.85 1371.83 L1311.61 1340.5 L1287.59 1311.34 L1251.11 1259.66 L1245.54 1250.84 L1213.7 1190.34 L1190.62 1135.51 L1188.46 1129.84 L1171.17 1069.34 L1159.65 1008.84 L1153.88 948.343 L1153.88 887.844 L1159.65 827.345 L1171.17 766.846 L1188.46 706.347 L1190.62 700.675 L1213.7 645.848 L1245.54 585.349 L1251.11 576.527 L1287.59 524.851 L1311.61 495.682 L1340.85 464.352 L1372.11 435.048 L1410.51 403.853 L1432.61 387.888 L1493.11 350.916 L1508.23 343.354 L1553.61 322.936 L1614.11 301.761 L1674.61 286.636 L1699.81 282.855 L1735.11 278.043 L1735.11 282.855 L1735.11 222.356 L1735.11 161.858 L1735.11 161.858 L1735.11 161.858 L1735.11 161.858 L1674.61 161.858 L1614.11 161.858 L1553.61 161.858 L1493.11 161.858 L1432.61 161.858 L1372.11 161.858 L1311.61 161.858 L1251.11 161.858 L1190.62 161.858 L1130.12 161.858 L1069.62 161.858 L1009.12 161.858 L948.62 161.858 L888.122 161.858 L827.623 161.858 L767.124 161.858 L706.625 161.858 L646.126 161.858 L585.627 161.858 L525.128 161.858 L525.128 161.858 L525.128 161.858 L525.128 161.858 L525.128 222.356 L525.128 282.855 L525.128 343.354 L525.128 403.853 L525.128 464.352 L525.128 524.851 L525.128 585.349 L525.128 645.848 L525.128 706.347 L525.128 766.846 L525.128 827.345 L525.128 887.844 L525.128 948.343 L525.128 1008.84 L525.128 1069.34 L525.128 1129.84 L525.128 1190.34 L525.128 1250.84 L525.128 1311.34 L525.128 1371.83 L525.128 1371.83 L525.128 1371.83  Z" fill="#410967" fill-rule="evenodd" fill-opacity="1"/>
<path clip-path="url(#clip392)" d="M525.128 1371.83 L525.128 1371.83 L585.627 1371.83 L646.126 1371.83 L706.625 1371.83 L767.124 1371.83 L827.623 1371.83 L888.122 1371.83 L948.62 1371.83 L1009.12 1371.83 L1069.62 1371.83 L1130.12 1371.83 L1190.62 1371.83 L1190.62 1371.83 L1209.72 1371.83 L1190.62 1345.91 L1167.57 1311.34 L1133 1250.84 L1130.12 1244.79 L1106.44 1190.34 L1085.4 1129.84 L1069.62 1069.34 L1069.62 1069.34 L1059.94 1008.84 L1055.1 948.343 L1055.1 887.844 L1059.94 827.345 L1069.62 766.846 L1069.62 766.846 L1085.4 706.347 L1106.44 645.848 L1130.12 591.399 L1133 585.349 L1167.57 524.851 L1190.62 490.28 L1209.72 464.352 L1251.11 415.196 L1261.79 403.853 L1311.61 356.798 L1327.75 343.354 L1372.11 310.08 L1414 282.855 L1432.61 271.855 L1493.11 241.606 L1540.16 222.356 L1553.61 217.315 L1614.11 199.669 L1674.61 187.065 L1735.11 179.503 L1735.11 222.356 L1735.11 161.858 L1735.11 161.858 L1735.11 161.858 L1735.11 161.858 L1674.61 161.858 L1614.11 161.858 L1553.61 161.858 L1493.11 161.858 L1432.61 161.858 L1372.11 161.858 L1311.61 161.858 L1251.11 161.858 L1190.62 161.858 L1130.12 161.858 L1069.62 161.858 L1009.12 161.858 L948.62 161.858 L888.122 161.858 L827.623 161.858 L767.124 161.858 L706.625 161.858 L646.126 161.858 L585.627 161.858 L525.128 161.858 L525.128 161.858 L525.128 161.858 L525.128 161.858 L525.128 222.356 L525.128 282.855 L525.128 343.354 L525.128 403.853 L525.128 464.352 L525.128 524.851 L525.128 585.349 L525.128 645.848 L525.128 706.347 L525.128 766.846 L525.128 827.345 L525.128 887.844 L525.128 948.343 L525.128 1008.84 L525.128 1069.34 L525.128 1129.84 L525.128 1190.34 L525.128 1250.84 L525.128 1311.34 L525.128 1371.83 L525.128 1371.83 L525.128 1371.83  Z" fill="#5d126e" fill-rule="evenodd" fill-opacity="1"/>
<path clip-path="url(#clip392)" d="M525.128 1371.83 L525.128 1371.83 L585.627 1371.83 L646.126 1371.83 L706.625 1371.83 L767.124 1371.83 L827.623 1371.83 L888.122 1371.83 L948.62 1371.83 L1009.12 1371.83 L1069.62 1371.83 L1069.62 1371.83 L1103.16 1371.83 L1069.62 1316.74 L1066.59 1311.34 L1037.55 1250.84 L1013.35 1190.34 L1009.12 1177.1 L995.115 1129.84 L981.671 1069.34 L972.708 1008.84 L968.226 948.343 L968.226 887.844 L972.708 827.345 L981.671 766.846 L995.115 706.347 L1009.12 659.082 L1013.35 645.848 L1037.55 585.349 L1066.59 524.851 L1069.62 519.449 L1103.16 464.352 L1130.12 425.595 L1146.68 403.853 L1190.62 352.597 L1199.37 343.354 L1251.11 294.199 L1264.46 282.855 L1311.61 246.418 L1346.9 222.356 L1372.11 206.601 L1432.61 173.831 L1458.74 161.858 L1432.61 161.858 L1432.61 161.858 L1372.11 161.858 L1311.61 161.858 L1251.11 161.858 L1190.62 161.858 L1130.12 161.858 L1069.62 161.858 L1009.12 161.858 L948.62 161.858 L888.122 161.858 L827.623 161.858 L767.124 161.858 L706.625 161.858 L646.126 161.858 L585.627 161.858 L525.128 161.858 L525.128 161.858 L525.128 161.858 L525.128 161.858 L525.128 222.356 L525.128 282.855 L525.128 343.354 L525.128 403.853 L525.128 464.352 L525.128 524.851 L525.128 585.349 L525.128 645.848 L525.128 706.347 L525.128 766.846 L525.128 827.345 L525.128 887.844 L525.128 948.343 L525.128 1008.84 L525.128 1069.34 L525.128 1129.84 L525.128 1190.34 L525.128 1250.84 L525.128 1311.34 L525.128 1371.83 L525.128 1371.83 L525.128 1371.83  Z" fill="#781c6d" fill-rule="evenodd" fill-opacity="1"/>
<path clip-path="url(#clip392)" d="M525.128 1371.83 L525.128 1371.83 L585.627 1371.83 L646.126 1371.83 L706.625 1371.83 L767.124 1371.83 L827.623 1371.83 L888.122 1371.83 L948.62 1371.83 L1009.12 1371.83 L1009.12 1371.83 L1010.33 1371.83 L1009.12 1369.67 L978.87 1311.34 L951.981 1250.84 L948.62 1241.76 L930.888 1190.34 L914.199 1129.84 L901.682 1069.34 L893.337 1008.84 L889.165 948.343 L889.165 887.844 L893.337 827.345 L901.682 766.846 L914.199 706.347 L930.888 645.848 L948.62 594.424 L951.981 585.349 L978.87 524.851 L1009.12 466.512 L1010.33 464.352 L1049.05 403.853 L1069.62 375.284 L1094.61 343.354 L1130.12 302.517 L1148.84 282.855 L1190.62 242.981 L1214.5 222.356 L1251.11 193.367 L1295.6 161.858 L1251.11 161.858 L1251.11 161.858 L1190.62 161.858 L1130.12 161.858 L1069.62 161.858 L1009.12 161.858 L948.62 161.858 L888.122 161.858 L827.623 161.858 L767.124 161.858 L706.625 161.858 L646.126 161.858 L585.627 161.858 L525.128 161.858 L525.128 161.858 L525.128 161.858 L525.128 161.858 L525.128 222.356 L525.128 282.855 L525.128 343.354 L525.128 403.853 L525.128 464.352 L525.128 524.851 L525.128 585.349 L525.128 645.848 L525.128 706.347 L525.128 766.846 L525.128 827.345 L525.128 887.844 L525.128 948.343 L525.128 1008.84 L525.128 1069.34 L525.128 1129.84 L525.128 1190.34 L525.128 1250.84 L525.128 1311.34 L525.128 1371.83 L525.128 1371.83 L525.128 1371.83  Z" fill="#932567" fill-rule="evenodd" fill-opacity="1"/>
<path clip-path="url(#clip392)" d="M525.128 1371.83 L525.128 1371.83 L585.627 1371.83 L646.126 1371.83 L706.625 1371.83 L767.124 1371.83 L827.623 1371.83 L888.122 1371.83 L888.122 1371.83 L928.28 1371.83 L899.074 1311.34 L888.122 1284.87 L874.948 1250.84 L855.433 1190.34 L839.82 1129.84 L828.111 1069.34 L827.623 1065.56 L820.748 1008.84 L817.081 948.343 L817.081 887.844 L820.748 827.345 L827.623 770.627 L828.111 766.846 L839.82 706.347 L855.433 645.848 L874.948 585.349 L888.122 551.319 L899.074 524.851 L928.28 464.352 L948.62 427.485 L962.625 403.853 L1002.96 343.354 L1009.12 335.035 L1050.86 282.855 L1069.62 261.543 L1107.1 222.356 L1130.12 200.3 L1174.05 161.858 L1130.12 161.858 L1130.12 161.858 L1069.62 161.858 L1009.12 161.858 L948.62 161.858 L888.122 161.858 L827.623 161.858 L767.124 161.858 L706.625 161.858 L646.126 161.858 L585.627 161.858 L525.128 161.858 L525.128 161.858 L525.128 161.858 L525.128 161.858 L525.128 222.356 L525.128 282.855 L525.128 343.354 L525.128 403.853 L525.128 464.352 L525.128 524.851 L525.128 585.349 L525.128 645.848 L525.128 706.347 L525.128 766.846 L525.128 827.345 L525.128 887.844 L525.128 948.343 L525.128 1008.84 L525.128 1069.34 L525.128 1129.84 L525.128 1190.34 L525.128 1250.84 L525.128 1311.34 L525.128 1371.83 L525.128 1371.83 L525.128 1371.83  Z" fill="#ae305b" fill-rule="evenodd" fill-opacity="1"/>
<path clip-path="url(#clip392)" d="M525.128 1371.83 L525.128 1371.83 L585.627 1371.83 L646.126 1371.83 L706.625 1371.83 L767.124 1371.83 L827.623 1371.83 L827.623 1371.83 L852.993 1371.83 L827.623 1315.66 L825.789 1311.34 L803.79 1250.84 L785.457 1190.34 L770.79 1129.84 L767.124 1109.67 L760.21 1069.34 L753.296 1008.84 L749.838 948.343 L749.838 887.844 L753.296 827.345 L760.21 766.846 L767.124 726.513 L770.79 706.347 L785.457 645.848 L803.79 585.349 L825.789 524.851 L827.623 520.529 L852.993 464.352 L884.218 403.853 L888.122 397.131 L921.5 343.354 L948.62 304.03 L964.305 282.855 L1009.12 227.856 L1013.96 222.356 L1069.62 164.378 L1072.25 161.858 L1069.62 161.858 L1069.62 161.858 L1009.12 161.858 L948.62 161.858 L888.122 161.858 L827.623 161.858 L767.124 161.858 L706.625 161.858 L646.126 161.858 L585.627 161.858 L525.128 161.858 L525.128 161.858 L525.128 161.858 L525.128 161.858 L525.128 222.356 L525.128 282.855 L525.128 343.354 L525.128 403.853 L525.128 464.352 L525.128 524.851 L525.128 585.349 L525.128 645.848 L525.128 706.347 L525.128 766.846 L525.128 827.345 L525.128 887.844 L525.128 948.343 L525.128 1008.84 L525.128 1069.34 L525.128 1129.84 L525.128 1190.34 L525.128 1250.84 L525.128 1311.34 L525.128 1371.83 L525.128 1371.83 L525.128 1371.83  Z" fill="#c73e4c" fill-rule="evenodd" fill-opacity="1"/>
<path clip-path="url(#clip392)" d="M525.128 1371.83 L525.128 1371.83 L585.627 1371.83 L646.126 1371.83 L706.625 1371.83 L767.124 1371.83 L767.124 1371.83 L783.165 1371.83 L767.124 1334.02 L758.049 1311.34 L737.307 1250.84 L720.021 1190.34 L706.625 1131.73 L706.216 1129.84 L696.406 1069.34 L689.865 1008.84 L686.595 948.343 L686.595 887.844 L689.865 827.345 L696.406 766.846 L706.216 706.347 L706.625 704.457 L720.021 645.848 L737.307 585.349 L758.049 524.851 L767.124 502.164 L783.165 464.352 L812.498 403.853 L827.623 376.124 L846.651 343.354 L885.682 282.855 L888.122 279.418 L931.409 222.356 L948.62 201.56 L983.911 161.858 L948.62 161.858 L948.62 161.858 L888.122 161.858 L827.623 161.858 L767.124 161.858 L706.625 161.858 L646.126 161.858 L585.627 161.858 L525.128 161.858 L525.128 161.858 L525.128 161.858 L525.128 161.858 L525.128 222.356 L525.128 282.855 L525.128 343.354 L525.128 403.853 L525.128 464.352 L525.128 524.851 L525.128 585.349 L525.128 645.848 L525.128 706.347 L525.128 766.846 L525.128 827.345 L525.128 887.844 L525.128 948.343 L525.128 1008.84 L525.128 1069.34 L525.128 1129.84 L525.128 1190.34 L525.128 1250.84 L525.128 1311.34 L525.128 1371.83 L525.128 1371.83 L525.128 1371.83  Z" fill="#dc5039" fill-rule="evenodd" fill-opacity="1"/>
<path clip-path="url(#clip392)" d="M525.128 1371.83 L525.128 1371.83 L585.627 1371.83 L646.126 1371.83 L706.625 1371.83 L706.625 1371.83 L717.86 1371.83 L706.625 1343.75 L694.362 1311.34 L674.74 1250.84 L658.389 1190.34 L646.126 1133.62 L645.351 1129.84 L636.043 1069.34 L629.838 1008.84 L626.736 948.343 L626.736 887.844 L629.838 827.345 L636.043 766.846 L645.351 706.347 L646.126 702.566 L658.389 645.848 L674.74 585.349 L694.362 524.851 L706.625 492.441 L717.86 464.352 L745.517 403.853 L767.124 361.84 L777.207 343.354 L813.873 282.855 L827.623 262.231 L855.921 222.356 L888.122 180.763 L903.768 161.858 L888.122 161.858 L888.122 161.858 L827.623 161.858 L767.124 161.858 L706.625 161.858 L646.126 161.858 L585.627 161.858 L525.128 161.858 L525.128 161.858 L525.128 161.858 L525.128 161.858 L525.128 222.356 L525.128 282.855 L525.128 343.354 L525.128 403.853 L525.128 464.352 L525.128 524.851 L525.128 585.349 L525.128 645.848 L525.128 706.347 L525.128 766.846 L525.128 827.345 L525.128 887.844 L525.128 948.343 L525.128 1008.84 L525.128 1069.34 L525.128 1129.84 L525.128 1190.34 L525.128 1250.84 L525.128 1311.34 L525.128 1371.83 L525.128 1371.83 L525.128 1371.83  Z" fill="#ed6825" fill-rule="evenodd" fill-opacity="1"/>
<path clip-path="url(#clip392)" d="M525.128 1371.83 L525.128 1371.83 L585.627 1371.83 L646.126 1371.83 L646.126 1371.83 L656.346 1371.83 L646.126 1344.83 L634.104 1311.34 L615.489 1250.84 L599.976 1190.34 L587.566 1129.84 L585.627 1117.24 L578.618 1069.34 L572.716 1008.84 L569.765 948.343 L569.765 887.844 L572.716 827.345 L578.618 766.846 L585.627 718.951 L587.566 706.347 L599.976 645.848 L615.489 585.349 L634.104 524.851 L646.126 491.36 L656.346 464.352 L682.507 403.853 L706.625 354.277 L712.243 343.354 L746.814 282.855 L767.124 250.543 L785.915 222.356 L827.623 165.009 L830.062 161.858 L827.623 161.858 L827.623 161.858 L767.124 161.858 L706.625 161.858 L646.126 161.858 L585.627 161.858 L525.128 161.858 L525.128 161.858 L525.128 161.858 L525.128 161.858 L525.128 222.356 L525.128 282.855 L525.128 343.354 L525.128 403.853 L525.128 464.352 L525.128 524.851 L525.128 585.349 L525.128 645.848 L525.128 706.347 L525.128 766.846 L525.128 827.345 L525.128 887.844 L525.128 948.343 L525.128 1008.84 L525.128 1069.34 L525.128 1129.84 L525.128 1190.34 L525.128 1250.84 L525.128 1311.34 L525.128 1371.83 L525.128 1371.83 L525.128 1371.83  Z" fill="#f7850e" fill-rule="evenodd" fill-opacity="1"/>
<path clip-path="url(#clip392)" d="M525.128 1371.83 L525.128 1371.83 L585.627 1371.83 L585.627 1371.83 L598.037 1371.83 L585.627 1337.26 L576.774 1311.34 L559.067 1250.84 L544.311 1190.34 L532.506 1129.84 L525.128 1079.42 L525.128 1129.84 L525.128 1129.84 L525.128 1190.34 L525.128 1250.84 L525.128 1311.34 L525.128 1371.83 L525.128 1371.83 L525.128 1371.83 M525.128 766.846 L525.128 756.763 L532.506 706.347 L544.311 645.848 L559.067 585.349 L576.774 524.851 L585.627 498.923 L598.037 464.352 L622.857 403.853 L646.126 353.437 L651.031 343.354 L683.734 282.855 L706.625 244.356 L720.453 222.356 L761.938 161.858 L706.625 161.858 L706.625 161.858 L646.126 161.858 L585.627 161.858 L525.128 161.858 L525.128 161.858 L525.128 161.858 L525.128 161.858 L525.128 222.356 L525.128 282.855 L525.128 343.354 L525.128 403.853 L525.128 464.352 L525.128 524.851 L525.128 585.349 L525.128 645.848 L525.128 706.347 L525.128 766.846  Z" fill="#fba40a" fill-rule="evenodd" fill-opacity="1"/>
<path clip-path="url(#clip392)" d="M525.128 1371.83 L525.128 1371.83 L525.128 1371.83 L542.467 1371.83 L525.128 1321.06 L525.128 1371.83 L525.128 1371.83 L525.128 1371.83 L525.128 1371.83 M525.128 524.851 L525.128 515.128 L542.467 464.352 L566.076 403.853 L585.627 359.319 L592.996 343.354 L624.021 282.855 L646.126 243.668 L658.798 222.356 L698.041 161.858 L646.126 161.858 L646.126 161.858 L585.627 161.858 L525.128 161.858 L525.128 161.858 L525.128 161.858 L525.128 161.858 L525.128 222.356 L525.128 282.855 L525.128 343.354 L525.128 403.853 L525.128 464.352 L525.128 524.851  Z" fill="#f9c52c" fill-rule="evenodd" fill-opacity="1"/>
<path clip-path="url(#clip392)" d="M525.128 403.853 L525.128 371.923 L537.671 343.354 L567.183 282.855 L585.627 248.481 L600.364 222.356 L637.594 161.858 L585.627 161.858 L585.627 161.858 L525.128 161.858 L525.128 161.858 L525.128 161.858 L525.128 161.858 L525.128 222.356 L525.128 282.855 L525.128 343.354 L525.128 403.853  Z" fill="#f2e660" fill-rule="evenodd" fill-opacity="1"/>
<path clip-path="url(#clip392)" d="M525.128 282.855 L525.128 258.793 L544.68 222.356 L580.094 161.858 L525.128 161.858 L525.128 161.858 L525.128 161.858 L525.128 161.858 L525.128 161.858 L525.128 222.356 L525.128 282.855  Z" fill="#fcfea4" fill-rule="evenodd" fill-opacity="1"/>
<polyline clip-path="url(#clip392)" style="stroke:#000003; stroke-linecap:round; stroke-linejoin:round; stroke-width:4; stroke-opacity:1; fill:none" points="525.128,1371.83 525.128,1371.83 585.627,1371.83 646.126,1371.83 706.625,1371.83 767.124,1371.83 827.623,1371.83 888.122,1371.83 948.62,1371.83 1009.12,1371.83 1069.62,1371.83 1130.12,1371.83 1190.62,1371.83 1251.11,1371.83 1311.61,1371.83 1372.11,1371.83 1432.61,1371.83 1493.11,1371.83 1553.61,1371.83 1614.11,1371.83 1674.61,1371.83 1735.11,1371.83 1735.11,1311.34 1735.11,1250.84 1735.11,1190.34 1735.11,1129.84 1735.11,1069.34 1735.11,1008.84 1735.11,948.343 1735.11,887.844 1735.11,827.345 1735.11,766.846 1735.11,706.347 1735.11,645.848 1735.11,585.349 1735.11,524.851 1735.11,464.352 1735.11,403.853 1735.11,343.354 1735.11,282.855 1735.11,222.356 1735.11,161.858 1674.61,161.858 1614.11,161.858 1553.61,161.858 1493.11,161.858 1432.61,161.858 1372.11,161.858 1311.61,161.858 1251.11,161.858 1190.62,161.858 1130.12,161.858 1069.62,161.858 1009.12,161.858 948.62,161.858 888.122,161.858 827.623,161.858 767.124,161.858 706.625,161.858 646.126,161.858 585.627,161.858 525.128,161.858 525.128,222.356 525.128,282.855 525.128,343.354 525.128,403.853 525.128,464.352 525.128,524.851 525.128,585.349 525.128,645.848 525.128,706.347 525.128,766.846 525.128,827.345 525.128,887.844 525.128,948.343 525.128,1008.84 525.128,1069.34 525.128,1129.84 525.128,1190.34 525.128,1250.84 525.128,1311.34 525.128,1371.83 "/>
<polyline clip-path="url(#clip392)" style="stroke:#000003; stroke-linecap:round; stroke-linejoin:round; stroke-width:4; stroke-opacity:1; fill:none" points="525.128,1371.83 525.128,1371.83 585.627,1371.83 646.126,1371.83 706.625,1371.83 767.124,1371.83 827.623,1371.83 888.122,1371.83 948.62,1371.83 1009.12,1371.83 1069.62,1371.83 1130.12,1371.83 1190.62,1371.83 1251.11,1371.83 1311.61,1371.83 1372.11,1371.83 1432.61,1371.83 1493.11,1371.83 1553.61,1371.83 1614.11,1371.83 1674.61,1371.83 1735.11,1371.83 1735.11,1311.34 1735.11,1287.39 1674.61,1272.26 1623.18,1250.84 1614.11,1246.3 1553.61,1203.95 1538.48,1190.34 1493.11,1139.29 1486.24,1129.84 1453.24,1069.34 1432.61,1012.62 1431.45,1008.84 1422.14,948.343 1422.14,887.844 1431.45,827.345 1432.61,823.564 1453.24,766.846 1486.24,706.347 1493.11,696.894 1538.48,645.848 1553.61,632.236 1614.11,589.887 1623.18,585.349 1674.61,563.923 1735.11,548.798 1735.11,585.349 1735.11,524.851 1735.11,464.352 1735.11,403.853 1735.11,343.354 1735.11,282.855 1735.11,222.356 1735.11,161.858 1674.61,161.858 1614.11,161.858 1553.61,161.858 1493.11,161.858 1432.61,161.858 1372.11,161.858 1311.61,161.858 1251.11,161.858 1190.62,161.858 1130.12,161.858 1069.62,161.858 1009.12,161.858 948.62,161.858 888.122,161.858 827.623,161.858 767.124,161.858 706.625,161.858 646.126,161.858 585.627,161.858 525.128,161.858 525.128,222.356 525.128,282.855 525.128,343.354 525.128,403.853 525.128,464.352 525.128,524.851 525.128,585.349 525.128,645.848 525.128,706.347 525.128,766.846 525.128,827.345 525.128,887.844 525.128,948.343 525.128,1008.84 525.128,1069.34 525.128,1129.84 525.128,1190.34 525.128,1250.84 525.128,1311.34 525.128,1371.83 "/>
<polyline clip-path="url(#clip392)" style="stroke:#000003; stroke-linecap:round; stroke-linejoin:round; stroke-width:4; stroke-opacity:1; fill:none" points="525.128,1371.83 525.128,1371.83 585.627,1371.83 646.126,1371.83 706.625,1371.83 767.124,1371.83 827.623,1371.83 888.122,1371.83 948.62,1371.83 1009.12,1371.83 1069.62,1371.83 1130.12,1371.83 1190.62,1371.83 1251.11,1371.83 1311.61,1371.83 1372.11,1371.83 1432.61,1371.83 1493.11,1371.83 1530.08,1371.83 1493.11,1348.07 1446.36,1311.34 1432.61,1298.73 1388.4,1250.84 1372.11,1229.66 1345.9,1190.34 1313.63,1129.84 1311.61,1124.8 1292.04,1069.34 1277.81,1008.84 1270.69,948.343 1270.69,887.844 1277.81,827.345 1292.04,766.846 1311.61,711.389 1313.63,706.347 1345.9,645.848 1372.11,606.524 1388.4,585.349 1432.61,537.455 1446.36,524.851 1493.11,488.119 1530.08,464.352 1553.61,451.118 1614.11,424.649 1674.61,405.744 1684.69,403.853 1735.11,395.45 1735.11,403.853 1735.11,343.354 1735.11,282.855 1735.11,222.356 1735.11,161.858 1674.61,161.858 1614.11,161.858 1553.61,161.858 1493.11,161.858 1432.61,161.858 1372.11,161.858 1311.61,161.858 1251.11,161.858 1190.62,161.858 1130.12,161.858 1069.62,161.858 1009.12,161.858 948.62,161.858 888.122,161.858 827.623,161.858 767.124,161.858 706.625,161.858 646.126,161.858 585.627,161.858 525.128,161.858 525.128,222.356 525.128,282.855 525.128,343.354 525.128,403.853 525.128,464.352 525.128,524.851 525.128,585.349 525.128,645.848 525.128,706.347 525.128,766.846 525.128,827.345 525.128,887.844 525.128,948.343 525.128,1008.84 525.128,1069.34 525.128,1129.84 525.128,1190.34 525.128,1250.84 525.128,1311.34 525.128,1371.83 "/>
<polyline clip-path="url(#clip392)" style="stroke:#000003; stroke-linecap:round; stroke-linejoin:round; stroke-width:4; stroke-opacity:1; fill:none" points="525.128,1371.83 525.128,1371.83 585.627,1371.83 646.126,1371.83 706.625,1371.83 767.124,1371.83 827.623,1371.83 888.122,1371.83 948.62,1371.83 1009.12,1371.83 1069.62,1371.83 1130.12,1371.83 1190.62,1371.83 1251.11,1371.83 1311.61,1371.83 1340.85,1371.83 1311.61,1340.5 1287.59,1311.34 1251.11,1259.66 1245.54,1250.84 1213.7,1190.34 1190.62,1135.51 1188.46,1129.84 1171.17,1069.34 1159.65,1008.84 1153.88,948.343 1153.88,887.844 1159.65,827.345 1171.17,766.846 1188.46,706.347 1190.62,700.675 1213.7,645.848 1245.54,585.349 1251.11,576.527 1287.59,524.851 1311.61,495.682 1340.85,464.352 1372.11,435.048 1410.51,403.853 1432.61,387.888 1493.11,350.916 1508.23,343.354 1553.61,322.936 1614.11,301.761 1674.61,286.636 1699.81,282.855 1735.11,278.043 1735.11,282.855 1735.11,222.356 1735.11,161.858 1674.61,161.858 1614.11,161.858 1553.61,161.858 1493.11,161.858 1432.61,161.858 1372.11,161.858 1311.61,161.858 1251.11,161.858 1190.62,161.858 1130.12,161.858 1069.62,161.858 1009.12,161.858 948.62,161.858 888.122,161.858 827.623,161.858 767.124,161.858 706.625,161.858 646.126,161.858 585.627,161.858 525.128,161.858 525.128,222.356 525.128,282.855 525.128,343.354 525.128,403.853 525.128,464.352 525.128,524.851 525.128,585.349 525.128,645.848 525.128,706.347 525.128,766.846 525.128,827.345 525.128,887.844 525.128,948.343 525.128,1008.84 525.128,1069.34 525.128,1129.84 525.128,1190.34 525.128,1250.84 525.128,1311.34 525.128,1371.83 "/>
<polyline clip-path="url(#clip392)" style="stroke:#000003; stroke-linecap:round; stroke-linejoin:round; stroke-width:4; stroke-opacity:1; fill:none" points="525.128,1371.83 525.128,1371.83 585.627,1371.83 646.126,1371.83 706.625,1371.83 767.124,1371.83 827.623,1371.83 888.122,1371.83 948.62,1371.83 1009.12,1371.83 1069.62,1371.83 1130.12,1371.83 1190.62,1371.83 1209.72,1371.83 1190.62,1345.91 1167.57,1311.34 1133,1250.84 1130.12,1244.79 1106.44,1190.34 1085.4,1129.84 1069.62,1069.34 1059.94,1008.84 1055.1,948.343 1055.1,887.844 1059.94,827.345 1069.62,766.846 1085.4,706.347 1106.44,645.848 1130.12,591.399 1133,585.349 1167.57,524.851 1190.62,490.28 1209.72,464.352 1251.11,415.196 1261.79,403.853 1311.61,356.798 1327.75,343.354 1372.11,310.08 1414,282.855 1432.61,271.855 1493.11,241.606 1540.16,222.356 1553.61,217.315 1614.11,199.669 1674.61,187.065 1735.11,179.503 1735.11,222.356 1735.11,161.858 1674.61,161.858 1614.11,161.858 1553.61,161.858 1493.11,161.858 1432.61,161.858 1372.11,161.858 1311.61,161.858 1251.11,161.858 1190.62,161.858 1130.12,161.858 1069.62,161.858 1009.12,161.858 948.62,161.858 888.122,161.858 827.623,161.858 767.124,161.858 706.625,161.858 646.126,161.858 585.627,161.858 525.128,161.858 525.128,222.356 525.128,282.855 525.128,343.354 525.128,403.853 525.128,464.352 525.128,524.851 525.128,585.349 525.128,645.848 525.128,706.347 525.128,766.846 525.128,827.345 525.128,887.844 525.128,948.343 525.128,1008.84 525.128,1069.34 525.128,1129.84 525.128,1190.34 525.128,1250.84 525.128,1311.34 525.128,1371.83 "/>
<polyline clip-path="url(#clip392)" style="stroke:#000003; stroke-linecap:round; stroke-linejoin:round; stroke-width:4; stroke-opacity:1; fill:none" points="525.128,1371.83 525.128,1371.83 585.627,1371.83 646.126,1371.83 706.625,1371.83 767.124,1371.83 827.623,1371.83 888.122,1371.83 948.62,1371.83 1009.12,1371.83 1069.62,1371.83 1103.16,1371.83 1069.62,1316.74 1066.59,1311.34 1037.55,1250.84 1013.35,1190.34 1009.12,1177.1 995.115,1129.84 981.671,1069.34 972.708,1008.84 968.226,948.343 968.226,887.844 972.708,827.345 981.671,766.846 995.115,706.347 1009.12,659.082 1013.35,645.848 1037.55,585.349 1066.59,524.851 1069.62,519.449 1103.16,464.352 1130.12,425.595 1146.68,403.853 1190.62,352.597 1199.37,343.354 1251.11,294.199 1264.46,282.855 1311.61,246.418 1346.9,222.356 1372.11,206.601 1432.61,173.831 1458.74,161.858 1432.61,161.858 1372.11,161.858 1311.61,161.858 1251.11,161.858 1190.62,161.858 1130.12,161.858 1069.62,161.858 1009.12,161.858 948.62,161.858 888.122,161.858 827.623,161.858 767.124,161.858 706.625,161.858 646.126,161.858 585.627,161.858 525.128,161.858 525.128,222.356 525.128,282.855 525.128,343.354 525.128,403.853 525.128,464.352 525.128,524.851 525.128,585.349 525.128,645.848 525.128,706.347 525.128,766.846 525.128,827.345 525.128,887.844 525.128,948.343 525.128,1008.84 525.128,1069.34 525.128,1129.84 525.128,1190.34 525.128,1250.84 525.128,1311.34 525.128,1371.83 "/>
<polyline clip-path="url(#clip392)" style="stroke:#000003; stroke-linecap:round; stroke-linejoin:round; stroke-width:4; stroke-opacity:1; fill:none" points="525.128,1371.83 525.128,1371.83 585.627,1371.83 646.126,1371.83 706.625,1371.83 767.124,1371.83 827.623,1371.83 888.122,1371.83 948.62,1371.83 1009.12,1371.83 1010.33,1371.83 1009.12,1369.67 978.87,1311.34 951.981,1250.84 948.62,1241.76 930.888,1190.34 914.199,1129.84 901.682,1069.34 893.337,1008.84 889.165,948.343 889.165,887.844 893.337,827.345 901.682,766.846 914.199,706.347 930.888,645.848 948.62,594.424 951.981,585.349 978.87,524.851 1009.12,466.512 1010.33,464.352 1049.05,403.853 1069.62,375.284 1094.61,343.354 1130.12,302.517 1148.84,282.855 1190.62,242.981 1214.5,222.356 1251.11,193.367 1295.6,161.858 1251.11,161.858 1190.62,161.858 1130.12,161.858 1069.62,161.858 1009.12,161.858 948.62,161.858 888.122,161.858 827.623,161.858 767.124,161.858 706.625,161.858 646.126,161.858 585.627,161.858 525.128,161.858 525.128,222.356 525.128,282.855 525.128,343.354 525.128,403.853 525.128,464.352 525.128,524.851 525.128,585.349 525.128,645.848 525.128,706.347 525.128,766.846 525.128,827.345 525.128,887.844 525.128,948.343 525.128,1008.84 525.128,1069.34 525.128,1129.84 525.128,1190.34 525.128,1250.84 525.128,1311.34 525.128,1371.83 "/>
<polyline clip-path="url(#clip392)" style="stroke:#000003; stroke-linecap:round; stroke-linejoin:round; stroke-width:4; stroke-opacity:1; fill:none" points="525.128,1371.83 525.128,1371.83 585.627,1371.83 646.126,1371.83 706.625,1371.83 767.124,1371.83 827.623,1371.83 888.122,1371.83 928.28,1371.83 899.074,1311.34 888.122,1284.87 874.948,1250.84 855.433,1190.34 839.82,1129.84 828.111,1069.34 827.623,1065.56 820.748,1008.84 817.081,948.343 817.081,887.844 820.748,827.345 827.623,770.627 828.111,766.846 839.82,706.347 855.433,645.848 874.948,585.349 888.122,551.319 899.074,524.851 928.28,464.352 948.62,427.485 962.625,403.853 1002.96,343.354 1009.12,335.035 1050.86,282.855 1069.62,261.543 1107.1,222.356 1130.12,200.3 1174.05,161.858 1130.12,161.858 1069.62,161.858 1009.12,161.858 948.62,161.858 888.122,161.858 827.623,161.858 767.124,161.858 706.625,161.858 646.126,161.858 585.627,161.858 525.128,161.858 525.128,222.356 525.128,282.855 525.128,343.354 525.128,403.853 525.128,464.352 525.128,524.851 525.128,585.349 525.128,645.848 525.128,706.347 525.128,766.846 525.128,827.345 525.128,887.844 525.128,948.343 525.128,1008.84 525.128,1069.34 525.128,1129.84 525.128,1190.34 525.128,1250.84 525.128,1311.34 525.128,1371.83 "/>
<polyline clip-path="url(#clip392)" style="stroke:#000003; stroke-linecap:round; stroke-linejoin:round; stroke-width:4; stroke-opacity:1; fill:none" points="525.128,1371.83 525.128,1371.83 585.627,1371.83 646.126,1371.83 706.625,1371.83 767.124,1371.83 827.623,1371.83 852.993,1371.83 827.623,1315.66 825.789,1311.34 803.79,1250.84 785.457,1190.34 770.79,1129.84 767.124,1109.67 760.21,1069.34 753.296,1008.84 749.838,948.343 749.838,887.844 753.296,827.345 760.21,766.846 767.124,726.513 770.79,706.347 785.457,645.848 803.79,585.349 825.789,524.851 827.623,520.529 852.993,464.352 884.218,403.853 888.122,397.131 921.5,343.354 948.62,304.03 964.305,282.855 1009.12,227.856 1013.96,222.356 1069.62,164.378 1072.25,161.858 1069.62,161.858 1009.12,161.858 948.62,161.858 888.122,161.858 827.623,161.858 767.124,161.858 706.625,161.858 646.126,161.858 585.627,161.858 525.128,161.858 525.128,222.356 525.128,282.855 525.128,343.354 525.128,403.853 525.128,464.352 525.128,524.851 525.128,585.349 525.128,645.848 525.128,706.347 525.128,766.846 525.128,827.345 525.128,887.844 525.128,948.343 525.128,1008.84 525.128,1069.34 525.128,1129.84 525.128,1190.34 525.128,1250.84 525.128,1311.34 525.128,1371.83 "/>
<polyline clip-path="url(#clip392)" style="stroke:#000003; stroke-linecap:round; stroke-linejoin:round; stroke-width:4; stroke-opacity:1; fill:none" points="525.128,1371.83 525.128,1371.83 585.627,1371.83 646.126,1371.83 706.625,1371.83 767.124,1371.83 783.165,1371.83 767.124,1334.02 758.049,1311.34 737.307,1250.84 720.021,1190.34 706.625,1131.73 706.216,1129.84 696.406,1069.34 689.865,1008.84 686.595,948.343 686.595,887.844 689.865,827.345 696.406,766.846 706.216,706.347 706.625,704.457 720.021,645.848 737.307,585.349 758.049,524.851 767.124,502.164 783.165,464.352 812.498,403.853 827.623,376.124 846.651,343.354 885.682,282.855 888.122,279.418 931.409,222.356 948.62,201.56 983.911,161.858 948.62,161.858 888.122,161.858 827.623,161.858 767.124,161.858 706.625,161.858 646.126,161.858 585.627,161.858 525.128,161.858 525.128,222.356 525.128,282.855 525.128,343.354 525.128,403.853 525.128,464.352 525.128,524.851 525.128,585.349 525.128,645.848 525.128,706.347 525.128,766.846 525.128,827.345 525.128,887.844 525.128,948.343 525.128,1008.84 525.128,1069.34 525.128,1129.84 525.128,1190.34 525.128,1250.84 525.128,1311.34 525.128,1371.83 "/>
<polyline clip-path="url(#clip392)" style="stroke:#000003; stroke-linecap:round; stroke-linejoin:round; stroke-width:4; stroke-opacity:1; fill:none" points="525.128,1371.83 525.128,1371.83 585.627,1371.83 646.126,1371.83 706.625,1371.83 717.86,1371.83 706.625,1343.75 694.362,1311.34 674.74,1250.84 658.389,1190.34 646.126,1133.62 645.351,1129.84 636.043,1069.34 629.838,1008.84 626.736,948.343 626.736,887.844 629.838,827.345 636.043,766.846 645.351,706.347 646.126,702.566 658.389,645.848 674.74,585.349 694.362,524.851 706.625,492.441 717.86,464.352 745.517,403.853 767.124,361.84 777.207,343.354 813.873,282.855 827.623,262.231 855.921,222.356 888.122,180.763 903.768,161.858 888.122,161.858 827.623,161.858 767.124,161.858 706.625,161.858 646.126,161.858 585.627,161.858 525.128,161.858 525.128,222.356 525.128,282.855 525.128,343.354 525.128,403.853 525.128,464.352 525.128,524.851 525.128,585.349 525.128,645.848 525.128,706.347 525.128,766.846 525.128,827.345 525.128,887.844 525.128,948.343 525.128,1008.84 525.128,1069.34 525.128,1129.84 525.128,1190.34 525.128,1250.84 525.128,1311.34 525.128,1371.83 "/>
<polyline clip-path="url(#clip392)" style="stroke:#000003; stroke-linecap:round; stroke-linejoin:round; stroke-width:4; stroke-opacity:1; fill:none" points="525.128,1371.83 525.128,1371.83 585.627,1371.83 646.126,1371.83 656.346,1371.83 646.126,1344.83 634.104,1311.34 615.489,1250.84 599.976,1190.34 587.566,1129.84 585.627,1117.24 578.618,1069.34 572.716,1008.84 569.765,948.343 569.765,887.844 572.716,827.345 578.618,766.846 585.627,718.951 587.566,706.347 599.976,645.848 615.489,585.349 634.104,524.851 646.126,491.36 656.346,464.352 682.507,403.853 706.625,354.277 712.243,343.354 746.814,282.855 767.124,250.543 785.915,222.356 827.623,165.009 830.062,161.858 827.623,161.858 767.124,161.858 706.625,161.858 646.126,161.858 585.627,161.858 525.128,161.858 525.128,222.356 525.128,282.855 525.128,343.354 525.128,403.853 525.128,464.352 525.128,524.851 525.128,585.349 525.128,645.848 525.128,706.347 525.128,766.846 525.128,827.345 525.128,887.844 525.128,948.343 525.128,1008.84 525.128,1069.34 525.128,1129.84 525.128,1190.34 525.128,1250.84 525.128,1311.34 525.128,1371.83 "/>
<polyline clip-path="url(#clip392)" style="stroke:#000003; stroke-linecap:round; stroke-linejoin:round; stroke-width:4; stroke-opacity:1; fill:none" points="525.128,1371.83 525.128,1371.83 585.627,1371.83 598.037,1371.83 585.627,1337.26 576.774,1311.34 559.067,1250.84 544.311,1190.34 532.506,1129.84 525.128,1079.42 525.128,1129.84 525.128,1190.34 525.128,1250.84 525.128,1311.34 525.128,1371.83 "/>
<polyline clip-path="url(#clip392)" style="stroke:#000003; stroke-linecap:round; stroke-linejoin:round; stroke-width:4; stroke-opacity:1; fill:none" points="525.128,766.846 525.128,756.763 532.506,706.347 544.311,645.848 559.067,585.349 576.774,524.851 585.627,498.923 598.037,464.352 622.857,403.853 646.126,353.437 651.031,343.354 683.734,282.855 706.625,244.356 720.453,222.356 761.938,161.858 706.625,161.858 646.126,161.858 585.627,161.858 525.128,161.858 525.128,222.356 525.128,282.855 525.128,343.354 525.128,403.853 525.128,464.352 525.128,524.851 525.128,585.349 525.128,645.848 525.128,706.347 525.128,766.846 "/>
<polyline clip-path="url(#clip392)" style="stroke:#000003; stroke-linecap:round; stroke-linejoin:round; stroke-width:4; stroke-opacity:1; fill:none" points="525.128,1371.83 525.128,1371.83 542.467,1371.83 525.128,1321.06 525.128,1371.83 "/>
<polyline clip-path="url(#clip392)" style="stroke:#000003; stroke-linecap:round; stroke-linejoin:round; stroke-width:4; stroke-opacity:1; fill:none" points="525.128,524.851 525.128,515.128 542.467,464.352 566.076,403.853 585.627,359.319 592.996,343.354 624.021,282.855 646.126,243.668 658.798,222.356 698.041,161.858 646.126,161.858 585.627,161.858 525.128,161.858 525.128,222.356 525.128,282.855 525.128,343.354 525.128,403.853 525.128,464.352 525.128,524.851 "/>
<polyline clip-path="url(#clip392)" style="stroke:#000003; stroke-linecap:round; stroke-linejoin:round; stroke-width:4; stroke-opacity:1; fill:none" points="525.128,403.853 525.128,371.923 537.671,343.354 567.183,282.855 585.627,248.481 600.364,222.356 637.594,161.858 585.627,161.858 525.128,161.858 525.128,222.356 525.128,282.855 525.128,343.354 525.128,403.853 "/>
<polyline clip-path="url(#clip392)" style="stroke:#000003; stroke-linecap:round; stroke-linejoin:round; stroke-width:4; stroke-opacity:1; fill:none" points="525.128,282.855 525.128,258.793 544.68,222.356 580.094,161.858 525.128,161.858 525.128,222.356 525.128,282.855 "/>
<path clip-path="url(#clip392)" d="M525.128 766.846 L827.623 464.352 L1432.61 766.846 L1432.61 1069.34 L827.623 1371.83 L525.128 766.846 L525.128 766.846  Z" fill="#0000ff" fill-rule="evenodd" fill-opacity="0.5"/>
<polyline clip-path="url(#clip392)" style="stroke:#000000; stroke-linecap:round; stroke-linejoin:round; stroke-width:4; stroke-opacity:0.5; fill:none" points="525.128,766.846 827.623,464.352 1432.61,766.846 1432.61,1069.34 827.623,1371.83 525.128,766.846 "/>
<circle clip-path="url(#clip392)" cx="827.623" cy="1069.34" r="21.6" fill="#ffd700" fill-rule="evenodd" fill-opacity="1" stroke="#000000" stroke-opacity="1" stroke-width="3.2"/>
<circle clip-path="url(#clip392)" cx="1432.61" cy="766.846" r="21.6" fill="#800080" fill-rule="evenodd" fill-opacity="1" stroke="#000000" stroke-opacity="1" stroke-width="3.2"/>
<circle clip-path="url(#clip392)" cx="1432.61" cy="860.208" r="21.6" fill="#ee7600" fill-rule="evenodd" fill-opacity="1" stroke="#000000" stroke-opacity="1" stroke-width="3.2"/>
<circle clip-path="url(#clip392)" cx="1432.61" cy="918.093" r="21.6" fill="#cd2626" fill-rule="evenodd" fill-opacity="1" stroke="#000000" stroke-opacity="1" stroke-width="3.2"/>
<defs>
  <clipPath id="clip393">
    <rect x="2160" y="125" width="73" height="1284"/>
  </clipPath>
</defs>
<path clip-path="url(#clip393)" d="M2160.76 1408.13 L2232.76 1408.13 L2232.76 1327.97 L2160.76 1327.97  Z" fill="#000003" fill-rule="evenodd" fill-opacity="1"/>
<path clip-path="url(#clip393)" d="M2160.76 1327.97 L2232.76 1327.97 L2232.76 1247.81 L2160.76 1247.81  Z" fill="#0b0726" fill-rule="evenodd" fill-opacity="1"/>
<path clip-path="url(#clip393)" d="M2160.76 1247.81 L2232.76 1247.81 L2232.76 1167.65 L2160.76 1167.65  Z" fill="#240b4e" fill-rule="evenodd" fill-opacity="1"/>
<path clip-path="url(#clip393)" d="M2160.76 1167.65 L2232.76 1167.65 L2232.76 1087.49 L2160.76 1087.49  Z" fill="#410967" fill-rule="evenodd" fill-opacity="1"/>
<path clip-path="url(#clip393)" d="M2160.76 1087.49 L2232.76 1087.49 L2232.76 1007.33 L2160.76 1007.33  Z" fill="#5d126e" fill-rule="evenodd" fill-opacity="1"/>
<path clip-path="url(#clip393)" d="M2160.76 1007.33 L2232.76 1007.33 L2232.76 927.168 L2160.76 927.168  Z" fill="#781c6d" fill-rule="evenodd" fill-opacity="1"/>
<path clip-path="url(#clip393)" d="M2160.76 927.168 L2232.76 927.168 L2232.76 847.007 L2160.76 847.007  Z" fill="#932567" fill-rule="evenodd" fill-opacity="1"/>
<path clip-path="url(#clip393)" d="M2160.76 847.007 L2232.76 847.007 L2232.76 766.846 L2160.76 766.846  Z" fill="#ae305b" fill-rule="evenodd" fill-opacity="1"/>
<path clip-path="url(#clip393)" d="M2160.76 766.846 L2232.76 766.846 L2232.76 686.685 L2160.76 686.685  Z" fill="#c73e4c" fill-rule="evenodd" fill-opacity="1"/>
<path clip-path="url(#clip393)" d="M2160.76 686.685 L2232.76 686.685 L2232.76 606.524 L2160.76 606.524  Z" fill="#dc5039" fill-rule="evenodd" fill-opacity="1"/>
<path clip-path="url(#clip393)" d="M2160.76 606.524 L2232.76 606.524 L2232.76 526.363 L2160.76 526.363  Z" fill="#ed6825" fill-rule="evenodd" fill-opacity="1"/>
<path clip-path="url(#clip393)" d="M2160.76 526.363 L2232.76 526.363 L2232.76 446.202 L2160.76 446.202  Z" fill="#f7850e" fill-rule="evenodd" fill-opacity="1"/>
<path clip-path="url(#clip393)" d="M2160.76 446.202 L2232.76 446.202 L2232.76 366.041 L2160.76 366.041  Z" fill="#fba40a" fill-rule="evenodd" fill-opacity="1"/>
<path clip-path="url(#clip393)" d="M2160.76 366.041 L2232.76 366.041 L2232.76 285.88 L2160.76 285.88  Z" fill="#f9c52c" fill-rule="evenodd" fill-opacity="1"/>
<path clip-path="url(#clip393)" d="M2160.76 285.88 L2232.76 285.88 L2232.76 205.719 L2160.76 205.719  Z" fill="#f2e660" fill-rule="evenodd" fill-opacity="1"/>
<path clip-path="url(#clip393)" d="M2160.76 205.719 L2232.76 205.719 L2232.76 125.558 L2160.76 125.558  Z" fill="#fcfea4" fill-rule="evenodd" fill-opacity="1"/>
<path clip-path="url(#clip390)" d="M2274.38 1151.54 L2290.7 1151.54 L2290.7 1155.48 L2268.76 1155.48 L2268.76 1151.54 Q2271.42 1148.79 2276 1144.16 Q2280.61 1139.51 2281.79 1138.16 Q2284.03 1135.64 2284.91 1133.9 Q2285.82 1132.15 2285.82 1130.46 Q2285.82 1127.7 2283.87 1125.96 Q2281.95 1124.23 2278.85 1124.23 Q2276.65 1124.23 2274.2 1124.99 Q2271.77 1125.76 2268.99 1127.31 L2268.99 1122.59 Q2271.81 1121.45 2274.27 1120.87 Q2276.72 1120.29 2278.76 1120.29 Q2284.13 1120.29 2287.32 1122.98 Q2290.52 1125.66 2290.52 1130.15 Q2290.52 1132.28 2289.7 1134.21 Q2288.92 1136.1 2286.81 1138.7 Q2286.23 1139.37 2283.13 1142.58 Q2280.03 1145.78 2274.38 1151.54 Z" fill="#000000" fill-rule="nonzero" fill-opacity="1" /><path clip-path="url(#clip390)" d="M2300.51 1149.6 L2305.4 1149.6 L2305.4 1155.48 L2300.51 1155.48 L2300.51 1149.6 Z" fill="#000000" fill-rule="nonzero" fill-opacity="1" /><path clip-path="url(#clip390)" d="M2315.63 1120.92 L2333.99 1120.92 L2333.99 1124.85 L2319.91 1124.85 L2319.91 1133.33 Q2320.93 1132.98 2321.95 1132.82 Q2322.97 1132.63 2323.99 1132.63 Q2329.77 1132.63 2333.15 1135.8 Q2336.53 1138.97 2336.53 1144.39 Q2336.53 1149.97 2333.06 1153.07 Q2329.59 1156.15 2323.27 1156.15 Q2321.09 1156.15 2318.83 1155.78 Q2316.58 1155.41 2314.17 1154.67 L2314.17 1149.97 Q2316.26 1151.1 2318.48 1151.66 Q2320.7 1152.21 2323.18 1152.21 Q2327.18 1152.21 2329.52 1150.11 Q2331.86 1148 2331.86 1144.39 Q2331.86 1140.78 2329.52 1138.67 Q2327.18 1136.57 2323.18 1136.57 Q2321.3 1136.57 2319.43 1136.98 Q2317.58 1137.4 2315.63 1138.28 L2315.63 1120.92 Z" fill="#000000" fill-rule="nonzero" fill-opacity="1" /><polyline clip-path="url(#clip390)" style="stroke:#000000; stroke-linecap:round; stroke-linejoin:round; stroke-width:4; stroke-opacity:1; fill:none" points="2232.76,1141.83 2256.76,1141.83 "/>
<path clip-path="url(#clip390)" d="M2270.21 851.922 L2288.57 851.922 L2288.57 855.857 L2274.5 855.857 L2274.5 864.329 Q2275.52 863.982 2276.53 863.82 Q2277.55 863.635 2278.57 863.635 Q2284.36 863.635 2287.74 866.806 Q2291.12 869.977 2291.12 875.394 Q2291.12 880.973 2287.64 884.074 Q2284.17 887.153 2277.85 887.153 Q2275.68 887.153 2273.41 886.783 Q2271.16 886.412 2268.76 885.672 L2268.76 880.973 Q2270.84 882.107 2273.06 882.662 Q2275.28 883.218 2277.76 883.218 Q2281.77 883.218 2284.1 881.111 Q2286.44 879.005 2286.44 875.394 Q2286.44 871.783 2284.1 869.676 Q2281.77 867.57 2277.76 867.57 Q2275.89 867.57 2274.01 867.987 Q2272.16 868.403 2270.21 869.283 L2270.21 851.922 Z" fill="#000000" fill-rule="nonzero" fill-opacity="1" /><path clip-path="url(#clip390)" d="M2300.33 880.602 L2305.21 880.602 L2305.21 886.482 L2300.33 886.482 L2300.33 880.602 Z" fill="#000000" fill-rule="nonzero" fill-opacity="1" /><path clip-path="url(#clip390)" d="M2325.4 855.001 Q2321.79 855.001 2319.96 858.565 Q2318.15 862.107 2318.15 869.237 Q2318.15 876.343 2319.96 879.908 Q2321.79 883.449 2325.4 883.449 Q2329.03 883.449 2330.84 879.908 Q2332.67 876.343 2332.67 869.237 Q2332.67 862.107 2330.84 858.565 Q2329.03 855.001 2325.4 855.001 M2325.4 851.297 Q2331.21 851.297 2334.26 855.903 Q2337.34 860.487 2337.34 869.237 Q2337.34 877.963 2334.26 882.57 Q2331.21 887.153 2325.4 887.153 Q2319.59 887.153 2316.51 882.57 Q2313.45 877.963 2313.45 869.237 Q2313.45 860.487 2316.51 855.903 Q2319.59 851.297 2325.4 851.297 Z" fill="#000000" fill-rule="nonzero" fill-opacity="1" /><polyline clip-path="url(#clip390)" style="stroke:#000000; stroke-linecap:round; stroke-linejoin:round; stroke-width:4; stroke-opacity:1; fill:none" points="2232.76,872.831 2256.76,872.831 "/>
<path clip-path="url(#clip390)" d="M2268.76 582.925 L2290.98 582.925 L2290.98 584.916 L2278.43 617.485 L2273.55 617.485 L2285.35 586.86 L2268.76 586.86 L2268.76 582.925 Z" fill="#000000" fill-rule="nonzero" fill-opacity="1" /><path clip-path="url(#clip390)" d="M2300.1 611.606 L2304.98 611.606 L2304.98 617.485 L2300.1 617.485 L2300.1 611.606 Z" fill="#000000" fill-rule="nonzero" fill-opacity="1" /><path clip-path="url(#clip390)" d="M2315.21 582.925 L2333.57 582.925 L2333.57 586.86 L2319.5 586.86 L2319.5 595.333 Q2320.51 594.985 2321.53 594.823 Q2322.55 594.638 2323.57 594.638 Q2329.36 594.638 2332.74 597.809 Q2336.12 600.981 2336.12 606.397 Q2336.12 611.976 2332.64 615.078 Q2329.17 618.157 2322.85 618.157 Q2320.68 618.157 2318.41 617.786 Q2316.16 617.416 2313.76 616.675 L2313.76 611.976 Q2315.84 613.11 2318.06 613.666 Q2320.28 614.221 2322.76 614.221 Q2326.76 614.221 2329.1 612.115 Q2331.44 610.008 2331.44 606.397 Q2331.44 602.786 2329.1 600.68 Q2326.76 598.573 2322.76 598.573 Q2320.89 598.573 2319.01 598.99 Q2317.16 599.407 2315.21 600.286 L2315.21 582.925 Z" fill="#000000" fill-rule="nonzero" fill-opacity="1" /><polyline clip-path="url(#clip390)" style="stroke:#000000; stroke-linecap:round; stroke-linejoin:round; stroke-width:4; stroke-opacity:1; fill:none" points="2232.76,603.834 2256.76,603.834 "/>
<path clip-path="url(#clip390)" d="M2269.43 344.554 L2277.07 344.554 L2277.07 318.188 L2268.76 319.855 L2268.76 315.595 L2277.02 313.929 L2281.7 313.929 L2281.7 344.554 L2289.33 344.554 L2289.33 348.489 L2269.43 348.489 L2269.43 344.554 Z" fill="#000000" fill-rule="nonzero" fill-opacity="1" /><path clip-path="url(#clip390)" d="M2308.78 317.007 Q2305.17 317.007 2303.34 320.572 Q2301.53 324.114 2301.53 331.243 Q2301.53 338.35 2303.34 341.915 Q2305.17 345.456 2308.78 345.456 Q2312.41 345.456 2314.22 341.915 Q2316.05 338.35 2316.05 331.243 Q2316.05 324.114 2314.22 320.572 Q2312.41 317.007 2308.78 317.007 M2308.78 313.304 Q2314.59 313.304 2317.64 317.91 Q2320.72 322.494 2320.72 331.243 Q2320.72 339.97 2317.64 344.577 Q2314.59 349.16 2308.78 349.16 Q2302.97 349.16 2299.89 344.577 Q2296.83 339.97 2296.83 331.243 Q2296.83 322.494 2299.89 317.91 Q2302.97 313.304 2308.78 313.304 Z" fill="#000000" fill-rule="nonzero" fill-opacity="1" /><path clip-path="url(#clip390)" d="M2328.94 342.609 L2333.83 342.609 L2333.83 348.489 L2328.94 348.489 L2328.94 342.609 Z" fill="#000000" fill-rule="nonzero" fill-opacity="1" /><path clip-path="url(#clip390)" d="M2354.01 317.007 Q2350.4 317.007 2348.57 320.572 Q2346.76 324.114 2346.76 331.243 Q2346.76 338.35 2348.57 341.915 Q2350.4 345.456 2354.01 345.456 Q2357.64 345.456 2359.45 341.915 Q2361.28 338.35 2361.28 331.243 Q2361.28 324.114 2359.45 320.572 Q2357.64 317.007 2354.01 317.007 M2354.01 313.304 Q2359.82 313.304 2362.88 317.91 Q2365.95 322.494 2365.95 331.243 Q2365.95 339.97 2362.88 344.577 Q2359.82 349.16 2354.01 349.16 Q2348.2 349.16 2345.12 344.577 Q2342.07 339.97 2342.07 331.243 Q2342.07 322.494 2345.12 317.91 Q2348.2 313.304 2354.01 313.304 Z" fill="#000000" fill-rule="nonzero" fill-opacity="1" /><polyline clip-path="url(#clip390)" style="stroke:#000000; stroke-linecap:round; stroke-linejoin:round; stroke-width:4; stroke-opacity:1; fill:none" points="2232.76,334.838 2256.76,334.838 "/>
<polyline clip-path="url(#clip390)" style="stroke:#000000; stroke-linecap:round; stroke-linejoin:round; stroke-width:4; stroke-opacity:1; fill:none" points="2232.76,1408.13 2232.76,125.558 "/>
<path clip-path="url(#clip390)" d="M212.987 484.572 L754.606 484.572 L754.606 173.532 L212.987 173.532  Z" fill="#ffffff" fill-rule="evenodd" fill-opacity="1"/>
<polyline clip-path="url(#clip390)" style="stroke:#000000; stroke-linecap:round; stroke-linejoin:round; stroke-width:4; stroke-opacity:1; fill:none" points="212.987,484.572 754.606,484.572 754.606,173.532 212.987,173.532 212.987,484.572 "/>
<path clip-path="url(#clip390)" d="M234.824 246.108 L365.842 246.108 L365.842 204.636 L234.824 204.636 L234.824 246.108  Z" fill="#0000ff" fill-rule="evenodd" fill-opacity="0.5"/>
<polyline clip-path="url(#clip390)" style="stroke:#000000; stroke-linecap:round; stroke-linejoin:round; stroke-width:4; stroke-opacity:1; fill:none" points="234.824,246.108 365.842,246.108 365.842,204.636 234.824,204.636 234.824,246.108 "/>
<path clip-path="url(#clip390)" d="M404.183 206.633 L404.183 210.175 L400.109 210.175 Q397.817 210.175 396.915 211.101 Q396.035 212.027 396.035 214.434 L396.035 216.726 L403.049 216.726 L403.049 220.036 L396.035 220.036 L396.035 242.652 L391.753 242.652 L391.753 220.036 L387.679 220.036 L387.679 216.726 L391.753 216.726 L391.753 214.92 Q391.753 210.592 393.766 208.624 Q395.78 206.633 400.155 206.633 L404.183 206.633 Z" fill="#000000" fill-rule="nonzero" fill-opacity="1" /><path clip-path="url(#clip390)" d="M429.924 228.624 L429.924 230.707 L410.34 230.707 Q410.618 235.105 412.979 237.42 Q415.364 239.712 419.6 239.712 Q422.053 239.712 424.345 239.11 Q426.66 238.508 428.928 237.305 L428.928 241.332 Q426.637 242.304 424.229 242.814 Q421.822 243.323 419.345 243.323 Q413.141 243.323 409.507 239.712 Q405.896 236.101 405.896 229.943 Q405.896 223.578 409.322 219.851 Q412.771 216.101 418.604 216.101 Q423.836 216.101 426.868 219.481 Q429.924 222.837 429.924 228.624 M425.664 227.374 Q425.618 223.879 423.697 221.795 Q421.799 219.712 418.651 219.712 Q415.086 219.712 412.933 221.726 Q410.803 223.74 410.479 227.397 L425.664 227.374 Z" fill="#000000" fill-rule="nonzero" fill-opacity="1" /><path clip-path="url(#clip390)" d="M448.697 229.619 Q443.535 229.619 441.544 230.8 Q439.553 231.98 439.553 234.828 Q439.553 237.096 441.035 238.439 Q442.539 239.758 445.109 239.758 Q448.65 239.758 450.78 237.258 Q452.933 234.735 452.933 230.568 L452.933 229.619 L448.697 229.619 M457.192 227.86 L457.192 242.652 L452.933 242.652 L452.933 238.717 Q451.475 241.078 449.299 242.212 Q447.123 243.323 443.975 243.323 Q439.993 243.323 437.632 241.101 Q435.294 238.855 435.294 235.105 Q435.294 230.73 438.211 228.508 Q441.15 226.286 446.961 226.286 L452.933 226.286 L452.933 225.869 Q452.933 222.93 450.988 221.332 Q449.067 219.712 445.572 219.712 Q443.35 219.712 441.243 220.244 Q439.137 220.777 437.192 221.842 L437.192 217.906 Q439.53 217.004 441.729 216.564 Q443.928 216.101 446.012 216.101 Q451.637 216.101 454.414 219.018 Q457.192 221.934 457.192 227.86 Z" fill="#000000" fill-rule="nonzero" fill-opacity="1" /><path clip-path="url(#clip390)" d="M482.493 217.49 L482.493 221.518 Q480.687 220.592 478.743 220.129 Q476.798 219.666 474.715 219.666 Q471.544 219.666 469.947 220.638 Q468.373 221.61 468.373 223.555 Q468.373 225.036 469.507 225.893 Q470.641 226.726 474.067 227.49 L475.525 227.814 Q480.062 228.786 481.96 230.568 Q483.882 232.328 483.882 235.499 Q483.882 239.11 481.011 241.217 Q478.164 243.323 473.164 243.323 Q471.081 243.323 468.812 242.906 Q466.567 242.513 464.067 241.703 L464.067 237.305 Q466.428 238.531 468.72 239.156 Q471.011 239.758 473.257 239.758 Q476.266 239.758 477.886 238.74 Q479.507 237.698 479.507 235.823 Q479.507 234.087 478.326 233.161 Q477.169 232.235 473.211 231.379 L471.729 231.031 Q467.771 230.198 466.011 228.485 Q464.252 226.749 464.252 223.74 Q464.252 220.082 466.845 218.092 Q469.437 216.101 474.206 216.101 Q476.567 216.101 478.65 216.448 Q480.734 216.795 482.493 217.49 Z" fill="#000000" fill-rule="nonzero" fill-opacity="1" /><path clip-path="url(#clip390)" d="M490.664 216.726 L494.923 216.726 L494.923 242.652 L490.664 242.652 L490.664 216.726 M490.664 206.633 L494.923 206.633 L494.923 212.027 L490.664 212.027 L490.664 206.633 Z" fill="#000000" fill-rule="nonzero" fill-opacity="1" /><path clip-path="url(#clip390)" d="M522.446 229.712 Q522.446 225.013 520.502 222.351 Q518.581 219.666 515.201 219.666 Q511.821 219.666 509.877 222.351 Q507.956 225.013 507.956 229.712 Q507.956 234.411 509.877 237.096 Q511.821 239.758 515.201 239.758 Q518.581 239.758 520.502 237.096 Q522.446 234.411 522.446 229.712 M507.956 220.661 Q509.298 218.346 511.335 217.235 Q513.395 216.101 516.243 216.101 Q520.965 216.101 523.905 219.851 Q526.868 223.601 526.868 229.712 Q526.868 235.823 523.905 239.573 Q520.965 243.323 516.243 243.323 Q513.395 243.323 511.335 242.212 Q509.298 241.078 507.956 238.763 L507.956 242.652 L503.673 242.652 L503.673 206.633 L507.956 206.633 L507.956 220.661 Z" fill="#000000" fill-rule="nonzero" fill-opacity="1" /><path clip-path="url(#clip390)" d="M533.928 206.633 L538.187 206.633 L538.187 242.652 L533.928 242.652 L533.928 206.633 Z" fill="#000000" fill-rule="nonzero" fill-opacity="1" /><path clip-path="url(#clip390)" d="M569.275 228.624 L569.275 230.707 L549.692 230.707 Q549.969 235.105 552.33 237.42 Q554.715 239.712 558.951 239.712 Q561.404 239.712 563.696 239.11 Q566.011 238.508 568.279 237.305 L568.279 241.332 Q565.988 242.304 563.58 242.814 Q561.173 243.323 558.696 243.323 Q552.492 243.323 548.858 239.712 Q545.247 236.101 545.247 229.943 Q545.247 223.578 548.673 219.851 Q552.122 216.101 557.955 216.101 Q563.187 216.101 566.219 219.481 Q569.275 222.837 569.275 228.624 M565.016 227.374 Q564.969 223.879 563.048 221.795 Q561.15 219.712 558.002 219.712 Q554.437 219.712 552.284 221.726 Q550.155 223.74 549.83 227.397 L565.016 227.374 Z" fill="#000000" fill-rule="nonzero" fill-opacity="1" /><path clip-path="url(#clip390)" d="M606.358 220.707 Q605.64 220.291 604.784 220.106 Q603.951 219.897 602.932 219.897 Q599.321 219.897 597.377 222.258 Q595.455 224.596 595.455 228.994 L595.455 242.652 L591.173 242.652 L591.173 216.726 L595.455 216.726 L595.455 220.754 Q596.798 218.393 598.951 217.258 Q601.103 216.101 604.182 216.101 Q604.622 216.101 605.154 216.17 Q605.687 216.217 606.335 216.332 L606.358 220.707 Z" fill="#000000" fill-rule="nonzero" fill-opacity="1" /><path clip-path="url(#clip390)" d="M631.96 228.624 L631.96 230.707 L612.376 230.707 Q612.654 235.105 615.015 237.42 Q617.4 239.712 621.636 239.712 Q624.089 239.712 626.381 239.11 Q628.696 238.508 630.964 237.305 L630.964 241.332 Q628.673 242.304 626.265 242.814 Q623.858 243.323 621.381 243.323 Q615.177 243.323 611.543 239.712 Q607.932 236.101 607.932 229.943 Q607.932 223.578 611.358 219.851 Q614.807 216.101 620.64 216.101 Q625.872 216.101 628.904 219.481 Q631.96 222.837 631.96 228.624 M627.7 227.374 Q627.654 223.879 625.733 221.795 Q623.835 219.712 620.687 219.712 Q617.122 219.712 614.969 221.726 Q612.839 223.74 612.515 227.397 L627.7 227.374 Z" fill="#000000" fill-rule="nonzero" fill-opacity="1" /><path clip-path="url(#clip390)" d="M656.01 229.388 Q656.01 224.758 654.089 222.212 Q652.191 219.666 648.742 219.666 Q645.316 219.666 643.395 222.212 Q641.497 224.758 641.497 229.388 Q641.497 233.994 643.395 236.541 Q645.316 239.087 648.742 239.087 Q652.191 239.087 654.089 236.541 Q656.01 233.994 656.01 229.388 M660.27 239.434 Q660.27 246.054 657.33 249.272 Q654.39 252.513 648.325 252.513 Q646.08 252.513 644.089 252.166 Q642.098 251.841 640.223 251.147 L640.223 247.004 Q642.098 248.022 643.927 248.508 Q645.756 248.994 647.654 248.994 Q651.844 248.994 653.927 246.795 Q656.01 244.619 656.01 240.198 L656.01 238.092 Q654.691 240.383 652.631 241.517 Q650.571 242.652 647.7 242.652 Q642.932 242.652 640.015 239.017 Q637.099 235.383 637.099 229.388 Q637.099 223.369 640.015 219.735 Q642.932 216.101 647.7 216.101 Q650.571 216.101 652.631 217.235 Q654.691 218.369 656.01 220.661 L656.01 216.726 L660.27 216.726 L660.27 239.434 Z" fill="#000000" fill-rule="nonzero" fill-opacity="1" /><path clip-path="url(#clip390)" d="M669.043 216.726 L673.302 216.726 L673.302 242.652 L669.043 242.652 L669.043 216.726 M669.043 206.633 L673.302 206.633 L673.302 212.027 L669.043 212.027 L669.043 206.633 Z" fill="#000000" fill-rule="nonzero" fill-opacity="1" /><path clip-path="url(#clip390)" d="M692.26 219.712 Q688.834 219.712 686.844 222.397 Q684.853 225.059 684.853 229.712 Q684.853 234.365 686.82 237.05 Q688.811 239.712 692.26 239.712 Q695.663 239.712 697.654 237.027 Q699.644 234.342 699.644 229.712 Q699.644 225.105 697.654 222.42 Q695.663 219.712 692.26 219.712 M692.26 216.101 Q697.816 216.101 700.987 219.712 Q704.158 223.323 704.158 229.712 Q704.158 236.078 700.987 239.712 Q697.816 243.323 692.26 243.323 Q686.682 243.323 683.51 239.712 Q680.362 236.078 680.362 229.712 Q680.362 223.323 683.51 219.712 Q686.682 216.101 692.26 216.101 Z" fill="#000000" fill-rule="nonzero" fill-opacity="1" /><path clip-path="url(#clip390)" d="M732.769 227.004 L732.769 242.652 L728.51 242.652 L728.51 227.143 Q728.51 223.462 727.075 221.633 Q725.64 219.805 722.769 219.805 Q719.32 219.805 717.33 222.004 Q715.339 224.203 715.339 227.999 L715.339 242.652 L711.056 242.652 L711.056 216.726 L715.339 216.726 L715.339 220.754 Q716.867 218.416 718.927 217.258 Q721.01 216.101 723.718 216.101 Q728.186 216.101 730.478 218.879 Q732.769 221.633 732.769 227.004 Z" fill="#000000" fill-rule="nonzero" fill-opacity="1" /><circle clip-path="url(#clip390)" cx="300.333" cy="277.212" r="21.2677" fill="#ffd700" fill-rule="evenodd" fill-opacity="1" stroke="#000000" stroke-opacity="1" stroke-width="3.15077"/>
<path clip-path="url(#clip390)" d="M412.331 268.566 L402.956 281.182 L412.817 294.492 L407.794 294.492 L400.248 284.307 L392.702 294.492 L387.679 294.492 L397.748 280.927 L388.535 268.566 L393.558 268.566 L400.433 277.802 L407.308 268.566 L412.331 268.566 Z" fill="#000000" fill-rule="nonzero" fill-opacity="1" /><path clip-path="url(#clip390)" d="M438.535 302.362 L438.535 305.672 L413.905 305.672 L413.905 302.362 L438.535 302.362 Z" fill="#000000" fill-rule="nonzero" fill-opacity="1" /><path clip-path="url(#clip390)" d="M453.141 263.01 Q449.53 263.01 447.701 266.575 Q445.896 270.117 445.896 277.246 Q445.896 284.353 447.701 287.918 Q449.53 291.459 453.141 291.459 Q456.775 291.459 458.581 287.918 Q460.41 284.353 460.41 277.246 Q460.41 270.117 458.581 266.575 Q456.775 263.01 453.141 263.01 M453.141 259.307 Q458.951 259.307 462.007 263.913 Q465.086 268.496 465.086 277.246 Q465.086 285.973 462.007 290.58 Q458.951 295.163 453.141 295.163 Q447.331 295.163 444.252 290.58 Q441.197 285.973 441.197 277.246 Q441.197 268.496 444.252 263.913 Q447.331 259.307 453.141 259.307 Z" fill="#000000" fill-rule="nonzero" fill-opacity="1" /><circle clip-path="url(#clip390)" cx="300.333" cy="329.052" r="21.2677" fill="#800080" fill-rule="evenodd" fill-opacity="1" stroke="#000000" stroke-opacity="1" stroke-width="3.15077"/>
<path clip-path="url(#clip390)" d="M412.331 320.406 L402.956 333.022 L412.817 346.332 L407.794 346.332 L400.248 336.147 L392.702 346.332 L387.679 346.332 L397.748 332.767 L388.535 320.406 L393.558 320.406 L400.433 329.642 L407.308 320.406 L412.331 320.406 Z" fill="#000000" fill-rule="nonzero" fill-opacity="1" /><path clip-path="url(#clip390)" d="M438.535 354.202 L438.535 357.512 L413.905 357.512 L413.905 354.202 L438.535 354.202 Z" fill="#000000" fill-rule="nonzero" fill-opacity="1" /><path clip-path="url(#clip390)" d="M443.951 342.397 L451.59 342.397 L451.59 316.031 L443.28 317.698 L443.28 313.438 L451.544 311.772 L456.22 311.772 L456.22 342.397 L463.859 342.397 L463.859 346.332 L443.951 346.332 L443.951 342.397 Z" fill="#000000" fill-rule="nonzero" fill-opacity="1" /><circle clip-path="url(#clip390)" cx="300.333" cy="380.892" r="21.2677" fill="#ee7600" fill-rule="evenodd" fill-opacity="1" stroke="#000000" stroke-opacity="1" stroke-width="3.15077"/>
<path clip-path="url(#clip390)" d="M412.331 372.246 L402.956 384.862 L412.817 398.172 L407.794 398.172 L400.248 387.987 L392.702 398.172 L387.679 398.172 L397.748 384.607 L388.535 372.246 L393.558 372.246 L400.433 381.482 L407.308 372.246 L412.331 372.246 Z" fill="#000000" fill-rule="nonzero" fill-opacity="1" /><path clip-path="url(#clip390)" d="M438.535 406.042 L438.535 409.352 L413.905 409.352 L413.905 406.042 L438.535 406.042 Z" fill="#000000" fill-rule="nonzero" fill-opacity="1" /><path clip-path="url(#clip390)" d="M447.169 394.237 L463.488 394.237 L463.488 398.172 L441.544 398.172 L441.544 394.237 Q444.206 391.482 448.789 386.852 Q453.396 382.2 454.576 380.857 Q456.822 378.334 457.701 376.598 Q458.604 374.838 458.604 373.149 Q458.604 370.394 456.66 368.658 Q454.738 366.922 451.637 366.922 Q449.437 366.922 446.984 367.686 Q444.553 368.45 441.775 370.001 L441.775 365.278 Q444.6 364.144 447.053 363.565 Q449.507 362.987 451.544 362.987 Q456.914 362.987 460.109 365.672 Q463.303 368.357 463.303 372.848 Q463.303 374.977 462.493 376.899 Q461.706 378.797 459.599 381.389 Q459.021 382.061 455.919 385.278 Q452.817 388.473 447.169 394.237 Z" fill="#000000" fill-rule="nonzero" fill-opacity="1" /><circle clip-path="url(#clip390)" cx="300.333" cy="432.732" r="21.2677" fill="#cd2626" fill-rule="evenodd" fill-opacity="1" stroke="#000000" stroke-opacity="1" stroke-width="3.15077"/>
<path clip-path="url(#clip390)" d="M412.331 424.086 L402.956 436.702 L412.817 450.012 L407.794 450.012 L400.248 439.827 L392.702 450.012 L387.679 450.012 L397.748 436.447 L388.535 424.086 L393.558 424.086 L400.433 433.322 L407.308 424.086 L412.331 424.086 Z" fill="#000000" fill-rule="nonzero" fill-opacity="1" /><path clip-path="url(#clip390)" d="M438.535 457.882 L438.535 461.192 L413.905 461.192 L413.905 457.882 L438.535 457.882 Z" fill="#000000" fill-rule="nonzero" fill-opacity="1" /><path clip-path="url(#clip390)" d="M443.951 446.077 L451.59 446.077 L451.59 419.711 L443.28 421.378 L443.28 417.118 L451.544 415.452 L456.22 415.452 L456.22 446.077 L463.859 446.077 L463.859 450.012 L443.951 450.012 L443.951 446.077 Z" fill="#000000" fill-rule="nonzero" fill-opacity="1" /><path clip-path="url(#clip390)" d="M474.113 446.077 L481.752 446.077 L481.752 419.711 L473.442 421.378 L473.442 417.118 L481.706 415.452 L486.382 415.452 L486.382 446.077 L494.021 446.077 L494.021 450.012 L474.113 450.012 L474.113 446.077 Z" fill="#000000" fill-rule="nonzero" fill-opacity="1" /></svg>
